# Original factory PMC equipment, centimetres
s 1
v 12.90000 15.30000 -16.50000
v 12.90000 15.30000 -16.50000
v 12.90000 15.30000 -16.50000
v 12.90000 15.30000 -16.50000
v 12.90000 15.30000 -16.50000
v 12.90000 15.30000 -16.50000
v 12.90000 15.30000 -16.50000
v 12.90000 15.30000 -16.50000
v 12.90000 15.30000 -16.50000
v 12.90000 15.30000 -16.50000
v 13.04142 15.30000 -15.35498
v 13.02720 15.16989 -15.35498
v 12.97862 15.13450 -15.35498
v 12.82138 15.13450 -15.35498
v 12.77280 15.16989 -15.35498
v 12.75858 15.30000 -15.35498
v 12.77280 15.43011 -15.35498
v 12.82138 15.46550 -15.35498
v 12.97862 15.46550 -15.35498
v 13.02720 15.43011 -15.35498
v 13.08612 15.30000 -11.66726
v 13.06741 15.12877 -11.66726
v 13.00346 15.08219 -11.66726
v 12.79654 15.08219 -11.66726
v 12.73259 15.12877 -11.66726
v 12.71388 15.30000 -11.66726
v 12.73259 15.47123 -11.66726
v 12.79654 15.51781 -11.66726
v 13.00346 15.51781 -11.66726
v 13.06741 15.47123 -11.66726
v 13.10000 15.30000 0.00000
v 13.07989 15.11600 0.00000
v 13.01118 15.06595 0.00000
v 12.78882 15.06595 0.00000
v 12.72011 15.11600 0.00000
v 12.70000 15.30000 0.00000
v 12.72011 15.48400 0.00000
v 12.78882 15.53405 0.00000
v 13.01118 15.53405 0.00000
v 13.07989 15.48400 0.00000
v 13.08612 15.30000 11.66726
v 13.06741 15.12877 11.66726
v 13.00346 15.08219 11.66726
v 12.79654 15.08219 11.66726
v 12.73259 15.12877 11.66726
v 12.71388 15.30000 11.66726
v 12.73259 15.47123 11.66726
v 12.79654 15.51781 11.66726
v 13.00346 15.51781 11.66726
v 13.06741 15.47123 11.66726
v 13.04142 15.30000 15.35498
v 13.02720 15.16989 15.35498
v 12.97862 15.13450 15.35498
v 12.82138 15.13450 15.35498
v 12.77280 15.16989 15.35498
v 12.75858 15.30000 15.35498
v 12.77280 15.43011 15.35498
v 12.82138 15.46550 15.35498
v 12.97862 15.46550 15.35498
v 13.02720 15.43011 15.35498
v 12.90000 15.30000 16.50000
v 12.90000 15.30000 16.50000
v 12.90000 15.30000 16.50000
v 12.90000 15.30000 16.50000
v 12.90000 15.30000 16.50000
v 12.90000 15.30000 16.50000
v 12.90000 15.30000 16.50000
v 12.90000 15.30000 16.50000
v 12.90000 15.30000 16.50000
v 12.90000 15.30000 16.50000
v 4.00000 15.30000 20.10000
v 4.00000 15.30000 20.10000
v 4.00000 15.30000 20.10000
v 4.00000 15.30000 20.10000
v 4.00000 15.30000 20.10000
v 4.00000 15.30000 20.10000
v 4.00000 15.30000 20.10000
v 4.00000 15.30000 20.10000
v 4.00000 15.30000 20.10000
v 4.00000 15.30000 20.10000
v 4.00000 15.30000 20.10000
v 4.00000 15.30000 20.10000
v 4.00000 15.30000 20.10000
v 4.00000 15.30000 20.10000
v 4.00000 15.30000 20.10000
v 4.00000 15.30000 20.10000
v 4.00000 15.30000 20.10000
v 4.00000 15.30000 20.10000
v 4.00000 15.30000 20.10000
v 4.00000 15.30000 20.10000
v 4.00000 15.30000 20.10000
v 4.00000 15.30000 20.10000
v 4.00000 15.30000 20.10000
v 4.00000 15.30000 20.10000
v 9.53251 15.30000 20.11239
v 9.45632 14.62169 20.11239
v 9.22317 14.41729 20.11239
v 8.81633 14.28604 20.11239
v 8.19286 14.20038 20.11239
v 7.22196 14.15130 20.11239
v 4.00000 14.13526 20.11239
v 0.77804 14.15130 20.11239
v -0.19286 14.20038 20.11239
v -0.81633 14.28604 20.11239
v -1.22317 14.41729 20.11239
v -1.45632 14.62169 20.11239
v -1.53251 15.30000 20.11239
v -1.45632 15.97831 20.11239
v -1.22317 16.18271 20.11239
v -0.81633 16.31396 20.11239
v -0.19286 16.39962 20.11239
v 0.77804 16.44870 20.11239
v 4.00000 16.46474 20.11239
v 7.22196 16.44870 20.11239
v 8.19286 16.39962 20.11239
v 8.81633 16.31396 20.11239
v 9.22317 16.18271 20.11239
v 9.45632 15.97831 20.11239
v 11.19965 15.30000 20.15032
v 11.10050 14.41729 20.15032
v 10.79710 14.15130 20.15032
v 10.26766 13.98049 20.15032
v 9.45632 13.86903 20.15032
v 8.19286 13.80516 20.15032
v 4.00000 13.78428 20.15032
v -0.19286 13.80516 20.15032
v -1.45632 13.86903 20.15032
v -2.26766 13.98049 20.15032
v -2.79710 14.15130 20.15032
v -3.10050 14.41729 20.15032
v -3.19965 15.30000 20.15032
v -3.10050 16.18271 20.15032
v -2.79710 16.44870 20.15032
v -2.26766 16.61951 20.15032
v -1.45632 16.73097 20.15032
v -0.19286 16.79484 20.15032
v 4.00000 16.81572 20.15032
v 8.19286 16.79484 20.15032
v 9.45632 16.73097 20.15032
v 10.26766 16.61951 20.15032
v 10.79710 16.44870 20.15032
v 11.10050 16.18271 20.15032
v 12.27023 15.30000 20.21650
v 12.15634 14.28604 20.21650
v 11.80782 13.98049 20.21650
v 11.19965 13.78428 20.21650
v 10.26766 13.65625 20.21650
v 8.81633 13.58288 20.21650
v 4.00000 13.55890 20.21650
v -0.81633 13.58288 20.21650
v -2.26766 13.65625 20.21650
v -3.19965 13.78428 20.21650
v -3.80782 13.98049 20.21650
v -4.15634 14.28604 20.21650
v -4.27023 15.30000 20.21650
v -4.15634 16.31396 20.21650
v -3.80782 16.61951 20.21650
v -3.19965 16.81572 20.21650
v -2.26766 16.94375 20.21650
v -0.81633 17.01712 20.21650
v 4.00000 17.04110 20.21650
v 8.81633 17.01712 20.21650
v 10.26766 16.94375 20.21650
v 11.19965 16.81572 20.21650
v 11.80782 16.61951 20.21650
v 12.15634 16.31396 20.21650
v 12.96883 15.30000 20.31793
v 12.84532 14.20038 20.31793
v 12.46736 13.86903 20.31793
v 11.80782 13.65625 20.31793
v 10.79710 13.51740 20.31793
v 9.22317 13.43783 20.31793
v 4.00000 13.41182 20.31793
v -1.22317 13.43783 20.31793
v -2.79710 13.51740 20.31793
v -3.80782 13.65625 20.31793
v -4.46736 13.86903 20.31793
v -4.84532 14.20038 20.31793
v -4.96883 15.30000 20.31793
v -4.84532 16.39962 20.31793
v -4.46736 16.73097 20.31793
v -3.80782 16.94375 20.31793
v -2.79710 17.08260 20.31793
v -1.22317 17.16217 20.31793
v 4.00000 17.18818 20.31793
v 9.22317 17.16217 20.31793
v 10.79710 17.08260 20.31793
v 11.80782 16.94375 20.31793
v 12.46736 16.73097 20.31793
v 12.84532 16.39962 20.31793
v 13.36917 15.30000 20.47587
v 13.24014 14.15130 20.47587
v 12.84532 13.80516 20.47587
v 12.15634 13.58288 20.47587
v 11.10050 13.43783 20.47587
v 9.45632 13.35471 20.47587
v 4.00000 13.32754 20.47587
v -1.45632 13.35471 20.47587
v -3.10050 13.43783 20.47587
v -4.15634 13.58288 20.47587
v -4.84532 13.80516 20.47587
v -5.24014 14.15130 20.47587
v -5.36917 15.30000 20.47587
v -5.24014 16.44870 20.47587
v -4.84532 16.79484 20.47587
v -4.15634 17.01712 20.47587
v -3.10050 17.16217 20.47587
v -1.45632 17.24529 20.47587
v 4.00000 17.27246 20.47587
v 9.45632 17.24529 20.47587
v 11.10050 17.16217 20.47587
v 12.15634 17.01712 20.47587
v 12.84532 16.79484 20.47587
v 13.24014 16.44870 20.47587
v 13.50000 15.30000 21.00000
v 13.36917 14.13526 21.00000
v 12.96883 13.78428 21.00000
v 12.27023 13.55890 21.00000
v 11.19965 13.41182 21.00000
v 9.53251 13.32754 21.00000
v 4.00000 13.30000 21.00000
v -1.53251 13.32754 21.00000
v -3.19965 13.41182 21.00000
v -4.27023 13.55890 21.00000
v -4.96883 13.78428 21.00000
v -5.36917 14.13526 21.00000
v -5.50000 15.30000 21.00000
v -5.36917 16.46474 21.00000
v -4.96883 16.81572 21.00000
v -4.27023 17.04110 21.00000
v -3.19965 17.18818 21.00000
v -1.53251 17.27246 21.00000
v 4.00000 17.30000 21.00000
v 9.53251 17.27246 21.00000
v 11.19965 17.18818 21.00000
v 12.27023 17.04110 21.00000
v 12.96883 16.81572 21.00000
v 13.36917 16.46474 21.00000
v 13.36917 15.30000 21.52413
v 13.24014 14.15130 21.52413
v 12.84532 13.80516 21.52413
v 12.15634 13.58288 21.52413
v 11.10050 13.43783 21.52413
v 9.45632 13.35471 21.52413
v 4.00000 13.32754 21.52413
v -1.45632 13.35471 21.52413
v -3.10050 13.43783 21.52413
v -4.15634 13.58288 21.52413
v -4.84532 13.80516 21.52413
v -5.24014 14.15130 21.52413
v -5.36917 15.30000 21.52413
v -5.24014 16.44870 21.52413
v -4.84532 16.79484 21.52413
v -4.15634 17.01712 21.52413
v -3.10050 17.16217 21.52413
v -1.45632 17.24529 21.52413
v 4.00000 17.27246 21.52413
v 9.45632 17.24529 21.52413
v 11.10050 17.16217 21.52413
v 12.15634 17.01712 21.52413
v 12.84532 16.79484 21.52413
v 13.24014 16.44870 21.52413
v 12.96883 15.30000 21.68207
v 12.84532 14.20038 21.68207
v 12.46736 13.86903 21.68207
v 11.80782 13.65625 21.68207
v 10.79710 13.51740 21.68207
v 9.22317 13.43783 21.68207
v 4.00000 13.41182 21.68207
v -1.22317 13.43783 21.68207
v -2.79710 13.51740 21.68207
v -3.80782 13.65625 21.68207
v -4.46736 13.86903 21.68207
v -4.84532 14.20038 21.68207
v -4.96883 15.30000 21.68207
v -4.84532 16.39962 21.68207
v -4.46736 16.73097 21.68207
v -3.80782 16.94375 21.68207
v -2.79710 17.08260 21.68207
v -1.22317 17.16217 21.68207
v 4.00000 17.18818 21.68207
v 9.22317 17.16217 21.68207
v 10.79710 17.08260 21.68207
v 11.80782 16.94375 21.68207
v 12.46736 16.73097 21.68207
v 12.84532 16.39962 21.68207
v 12.27023 15.30000 21.78350
v 12.15634 14.28604 21.78350
v 11.80782 13.98049 21.78350
v 11.19965 13.78428 21.78350
v 10.26766 13.65625 21.78350
v 8.81633 13.58288 21.78350
v 4.00000 13.55890 21.78350
v -0.81633 13.58288 21.78350
v -2.26766 13.65625 21.78350
v -3.19965 13.78428 21.78350
v -3.80782 13.98049 21.78350
v -4.15634 14.28604 21.78350
v -4.27023 15.30000 21.78350
v -4.15634 16.31396 21.78350
v -3.80782 16.61951 21.78350
v -3.19965 16.81572 21.78350
v -2.26766 16.94375 21.78350
v -0.81633 17.01712 21.78350
v 4.00000 17.04110 21.78350
v 8.81633 17.01712 21.78350
v 10.26766 16.94375 21.78350
v 11.19965 16.81572 21.78350
v 11.80782 16.61951 21.78350
v 12.15634 16.31396 21.78350
v 11.19965 15.30000 21.84968
v 11.10050 14.41729 21.84968
v 10.79710 14.15130 21.84968
v 10.26766 13.98049 21.84968
v 9.45632 13.86903 21.84968
v 8.19286 13.80516 21.84968
v 4.00000 13.78428 21.84968
v -0.19286 13.80516 21.84968
v -1.45632 13.86903 21.84968
v -2.26766 13.98049 21.84968
v -2.79710 14.15130 21.84968
v -3.10050 14.41729 21.84968
v -3.19965 15.30000 21.84968
v -3.10050 16.18271 21.84968
v -2.79710 16.44870 21.84968
v -2.26766 16.61951 21.84968
v -1.45632 16.73097 21.84968
v -0.19286 16.79484 21.84968
v 4.00000 16.81572 21.84968
v 8.19286 16.79484 21.84968
v 9.45632 16.73097 21.84968
v 10.26766 16.61951 21.84968
v 10.79710 16.44870 21.84968
v 11.10050 16.18271 21.84968
v 9.53251 15.30000 21.88761
v 9.45632 14.62169 21.88761
v 9.22317 14.41729 21.88761
v 8.81633 14.28604 21.88761
v 8.19286 14.20038 21.88761
v 7.22196 14.15130 21.88761
v 4.00000 14.13526 21.88761
v 0.77804 14.15130 21.88761
v -0.19286 14.20038 21.88761
v -0.81633 14.28604 21.88761
v -1.22317 14.41729 21.88761
v -1.45632 14.62169 21.88761
v -1.53251 15.30000 21.88761
v -1.45632 15.97831 21.88761
v -1.22317 16.18271 21.88761
v -0.81633 16.31396 21.88761
v -0.19286 16.39962 21.88761
v 0.77804 16.44870 21.88761
v 4.00000 16.46474 21.88761
v 7.22196 16.44870 21.88761
v 8.19286 16.39962 21.88761
v 8.81633 16.31396 21.88761
v 9.22317 16.18271 21.88761
v 9.45632 15.97831 21.88761
v 4.00000 15.30000 21.90000
v 4.00000 15.30000 21.90000
v 4.00000 15.30000 21.90000
v 4.00000 15.30000 21.90000
v 4.00000 15.30000 21.90000
v 4.00000 15.30000 21.90000
v 4.00000 15.30000 21.90000
v 4.00000 15.30000 21.90000
v 4.00000 15.30000 21.90000
v 4.00000 15.30000 21.90000
v 4.00000 15.30000 21.90000
v 4.00000 15.30000 21.90000
v 4.00000 15.30000 21.90000
v 4.00000 15.30000 21.90000
v 4.00000 15.30000 21.90000
v 4.00000 15.30000 21.90000
v 4.00000 15.30000 21.90000
v 4.00000 15.30000 21.90000
v 4.00000 15.30000 21.90000
v 4.00000 15.30000 21.90000
v 4.00000 15.30000 21.90000
v 4.00000 15.30000 21.90000
v 4.00000 15.30000 21.90000
v 4.00000 15.30000 21.90000
v 12.90000 -15.30000 -16.50000
v 12.90000 -15.30000 -16.50000
v 12.90000 -15.30000 -16.50000
v 12.90000 -15.30000 -16.50000
v 12.90000 -15.30000 -16.50000
v 12.90000 -15.30000 -16.50000
v 12.90000 -15.30000 -16.50000
v 12.90000 -15.30000 -16.50000
v 12.90000 -15.30000 -16.50000
v 12.90000 -15.30000 -16.50000
v 13.04142 -15.30000 -15.35498
v 13.02720 -15.43011 -15.35498
v 12.97862 -15.46550 -15.35498
v 12.82138 -15.46550 -15.35498
v 12.77280 -15.43011 -15.35498
v 12.75858 -15.30000 -15.35498
v 12.77280 -15.16989 -15.35498
v 12.82138 -15.13450 -15.35498
v 12.97862 -15.13450 -15.35498
v 13.02720 -15.16989 -15.35498
v 13.08612 -15.30000 -11.66726
v 13.06741 -15.47123 -11.66726
v 13.00346 -15.51781 -11.66726
v 12.79654 -15.51781 -11.66726
v 12.73259 -15.47123 -11.66726
v 12.71388 -15.30000 -11.66726
v 12.73259 -15.12877 -11.66726
v 12.79654 -15.08219 -11.66726
v 13.00346 -15.08219 -11.66726
v 13.06741 -15.12877 -11.66726
v 13.10000 -15.30000 0.00000
v 13.07989 -15.48400 0.00000
v 13.01118 -15.53405 0.00000
v 12.78882 -15.53405 0.00000
v 12.72011 -15.48400 0.00000
v 12.70000 -15.30000 0.00000
v 12.72011 -15.11600 0.00000
v 12.78882 -15.06595 0.00000
v 13.01118 -15.06595 0.00000
v 13.07989 -15.11600 0.00000
v 13.08612 -15.30000 11.66726
v 13.06741 -15.47123 11.66726
v 13.00346 -15.51781 11.66726
v 12.79654 -15.51781 11.66726
v 12.73259 -15.47123 11.66726
v 12.71388 -15.30000 11.66726
v 12.73259 -15.12877 11.66726
v 12.79654 -15.08219 11.66726
v 13.00346 -15.08219 11.66726
v 13.06741 -15.12877 11.66726
v 13.04142 -15.30000 15.35498
v 13.02720 -15.43011 15.35498
v 12.97862 -15.46550 15.35498
v 12.82138 -15.46550 15.35498
v 12.77280 -15.43011 15.35498
v 12.75858 -15.30000 15.35498
v 12.77280 -15.16989 15.35498
v 12.82138 -15.13450 15.35498
v 12.97862 -15.13450 15.35498
v 13.02720 -15.16989 15.35498
v 12.90000 -15.30000 16.50000
v 12.90000 -15.30000 16.50000
v 12.90000 -15.30000 16.50000
v 12.90000 -15.30000 16.50000
v 12.90000 -15.30000 16.50000
v 12.90000 -15.30000 16.50000
v 12.90000 -15.30000 16.50000
v 12.90000 -15.30000 16.50000
v 12.90000 -15.30000 16.50000
v 12.90000 -15.30000 16.50000
v 4.00000 -15.30000 20.10000
v 4.00000 -15.30000 20.10000
v 4.00000 -15.30000 20.10000
v 4.00000 -15.30000 20.10000
v 4.00000 -15.30000 20.10000
v 4.00000 -15.30000 20.10000
v 4.00000 -15.30000 20.10000
v 4.00000 -15.30000 20.10000
v 4.00000 -15.30000 20.10000
v 4.00000 -15.30000 20.10000
v 4.00000 -15.30000 20.10000
v 4.00000 -15.30000 20.10000
v 4.00000 -15.30000 20.10000
v 4.00000 -15.30000 20.10000
v 4.00000 -15.30000 20.10000
v 4.00000 -15.30000 20.10000
v 4.00000 -15.30000 20.10000
v 4.00000 -15.30000 20.10000
v 4.00000 -15.30000 20.10000
v 4.00000 -15.30000 20.10000
v 4.00000 -15.30000 20.10000
v 4.00000 -15.30000 20.10000
v 4.00000 -15.30000 20.10000
v 4.00000 -15.30000 20.10000
v 9.53251 -15.30000 20.11239
v 9.45632 -15.97831 20.11239
v 9.22317 -16.18271 20.11239
v 8.81633 -16.31396 20.11239
v 8.19286 -16.39962 20.11239
v 7.22196 -16.44870 20.11239
v 4.00000 -16.46474 20.11239
v 0.77804 -16.44870 20.11239
v -0.19286 -16.39962 20.11239
v -0.81633 -16.31396 20.11239
v -1.22317 -16.18271 20.11239
v -1.45632 -15.97831 20.11239
v -1.53251 -15.30000 20.11239
v -1.45632 -14.62169 20.11239
v -1.22317 -14.41729 20.11239
v -0.81633 -14.28604 20.11239
v -0.19286 -14.20038 20.11239
v 0.77804 -14.15130 20.11239
v 4.00000 -14.13526 20.11239
v 7.22196 -14.15130 20.11239
v 8.19286 -14.20038 20.11239
v 8.81633 -14.28604 20.11239
v 9.22317 -14.41729 20.11239
v 9.45632 -14.62169 20.11239
v 11.19965 -15.30000 20.15032
v 11.10050 -16.18271 20.15032
v 10.79710 -16.44870 20.15032
v 10.26766 -16.61951 20.15032
v 9.45632 -16.73097 20.15032
v 8.19286 -16.79484 20.15032
v 4.00000 -16.81572 20.15032
v -0.19286 -16.79484 20.15032
v -1.45632 -16.73097 20.15032
v -2.26766 -16.61951 20.15032
v -2.79710 -16.44870 20.15032
v -3.10050 -16.18271 20.15032
v -3.19965 -15.30000 20.15032
v -3.10050 -14.41729 20.15032
v -2.79710 -14.15130 20.15032
v -2.26766 -13.98049 20.15032
v -1.45632 -13.86903 20.15032
v -0.19286 -13.80516 20.15032
v 4.00000 -13.78428 20.15032
v 8.19286 -13.80516 20.15032
v 9.45632 -13.86903 20.15032
v 10.26766 -13.98049 20.15032
v 10.79710 -14.15130 20.15032
v 11.10050 -14.41729 20.15032
v 12.27023 -15.30000 20.21650
v 12.15634 -16.31396 20.21650
v 11.80782 -16.61951 20.21650
v 11.19965 -16.81572 20.21650
v 10.26766 -16.94375 20.21650
v 8.81633 -17.01712 20.21650
v 4.00000 -17.04110 20.21650
v -0.81633 -17.01712 20.21650
v -2.26766 -16.94375 20.21650
v -3.19965 -16.81572 20.21650
v -3.80782 -16.61951 20.21650
v -4.15634 -16.31396 20.21650
v -4.27023 -15.30000 20.21650
v -4.15634 -14.28604 20.21650
v -3.80782 -13.98049 20.21650
v -3.19965 -13.78428 20.21650
v -2.26766 -13.65625 20.21650
v -0.81633 -13.58288 20.21650
v 4.00000 -13.55890 20.21650
v 8.81633 -13.58288 20.21650
v 10.26766 -13.65625 20.21650
v 11.19965 -13.78428 20.21650
v 11.80782 -13.98049 20.21650
v 12.15634 -14.28604 20.21650
v 12.96883 -15.30000 20.31793
v 12.84532 -16.39962 20.31793
v 12.46736 -16.73097 20.31793
v 11.80782 -16.94375 20.31793
v 10.79710 -17.08260 20.31793
v 9.22317 -17.16217 20.31793
v 4.00000 -17.18818 20.31793
v -1.22317 -17.16217 20.31793
v -2.79710 -17.08260 20.31793
v -3.80782 -16.94375 20.31793
v -4.46736 -16.73097 20.31793
v -4.84532 -16.39962 20.31793
v -4.96883 -15.30000 20.31793
v -4.84532 -14.20038 20.31793
v -4.46736 -13.86903 20.31793
v -3.80782 -13.65625 20.31793
v -2.79710 -13.51740 20.31793
v -1.22317 -13.43783 20.31793
v 4.00000 -13.41182 20.31793
v 9.22317 -13.43783 20.31793
v 10.79710 -13.51740 20.31793
v 11.80782 -13.65625 20.31793
v 12.46736 -13.86903 20.31793
v 12.84532 -14.20038 20.31793
v 13.36917 -15.30000 20.47587
v 13.24014 -16.44870 20.47587
v 12.84532 -16.79484 20.47587
v 12.15634 -17.01712 20.47587
v 11.10050 -17.16217 20.47587
v 9.45632 -17.24529 20.47587
v 4.00000 -17.27246 20.47587
v -1.45632 -17.24529 20.47587
v -3.10050 -17.16217 20.47587
v -4.15634 -17.01712 20.47587
v -4.84532 -16.79484 20.47587
v -5.24014 -16.44870 20.47587
v -5.36917 -15.30000 20.47587
v -5.24014 -14.15130 20.47587
v -4.84532 -13.80516 20.47587
v -4.15634 -13.58288 20.47587
v -3.10050 -13.43783 20.47587
v -1.45632 -13.35471 20.47587
v 4.00000 -13.32754 20.47587
v 9.45632 -13.35471 20.47587
v 11.10050 -13.43783 20.47587
v 12.15634 -13.58288 20.47587
v 12.84532 -13.80516 20.47587
v 13.24014 -14.15130 20.47587
v 13.50000 -15.30000 21.00000
v 13.36917 -16.46474 21.00000
v 12.96883 -16.81572 21.00000
v 12.27023 -17.04110 21.00000
v 11.19965 -17.18818 21.00000
v 9.53251 -17.27246 21.00000
v 4.00000 -17.30000 21.00000
v -1.53251 -17.27246 21.00000
v -3.19965 -17.18818 21.00000
v -4.27023 -17.04110 21.00000
v -4.96883 -16.81572 21.00000
v -5.36917 -16.46474 21.00000
v -5.50000 -15.30000 21.00000
v -5.36917 -14.13526 21.00000
v -4.96883 -13.78428 21.00000
v -4.27023 -13.55890 21.00000
v -3.19965 -13.41182 21.00000
v -1.53251 -13.32754 21.00000
v 4.00000 -13.30000 21.00000
v 9.53251 -13.32754 21.00000
v 11.19965 -13.41182 21.00000
v 12.27023 -13.55890 21.00000
v 12.96883 -13.78428 21.00000
v 13.36917 -14.13526 21.00000
v 13.36917 -15.30000 21.52413
v 13.24014 -16.44870 21.52413
v 12.84532 -16.79484 21.52413
v 12.15634 -17.01712 21.52413
v 11.10050 -17.16217 21.52413
v 9.45632 -17.24529 21.52413
v 4.00000 -17.27246 21.52413
v -1.45632 -17.24529 21.52413
v -3.10050 -17.16217 21.52413
v -4.15634 -17.01712 21.52413
v -4.84532 -16.79484 21.52413
v -5.24014 -16.44870 21.52413
v -5.36917 -15.30000 21.52413
v -5.24014 -14.15130 21.52413
v -4.84532 -13.80516 21.52413
v -4.15634 -13.58288 21.52413
v -3.10050 -13.43783 21.52413
v -1.45632 -13.35471 21.52413
v 4.00000 -13.32754 21.52413
v 9.45632 -13.35471 21.52413
v 11.10050 -13.43783 21.52413
v 12.15634 -13.58288 21.52413
v 12.84532 -13.80516 21.52413
v 13.24014 -14.15130 21.52413
v 12.96883 -15.30000 21.68207
v 12.84532 -16.39962 21.68207
v 12.46736 -16.73097 21.68207
v 11.80782 -16.94375 21.68207
v 10.79710 -17.08260 21.68207
v 9.22317 -17.16217 21.68207
v 4.00000 -17.18818 21.68207
v -1.22317 -17.16217 21.68207
v -2.79710 -17.08260 21.68207
v -3.80782 -16.94375 21.68207
v -4.46736 -16.73097 21.68207
v -4.84532 -16.39962 21.68207
v -4.96883 -15.30000 21.68207
v -4.84532 -14.20038 21.68207
v -4.46736 -13.86903 21.68207
v -3.80782 -13.65625 21.68207
v -2.79710 -13.51740 21.68207
v -1.22317 -13.43783 21.68207
v 4.00000 -13.41182 21.68207
v 9.22317 -13.43783 21.68207
v 10.79710 -13.51740 21.68207
v 11.80782 -13.65625 21.68207
v 12.46736 -13.86903 21.68207
v 12.84532 -14.20038 21.68207
v 12.27023 -15.30000 21.78350
v 12.15634 -16.31396 21.78350
v 11.80782 -16.61951 21.78350
v 11.19965 -16.81572 21.78350
v 10.26766 -16.94375 21.78350
v 8.81633 -17.01712 21.78350
v 4.00000 -17.04110 21.78350
v -0.81633 -17.01712 21.78350
v -2.26766 -16.94375 21.78350
v -3.19965 -16.81572 21.78350
v -3.80782 -16.61951 21.78350
v -4.15634 -16.31396 21.78350
v -4.27023 -15.30000 21.78350
v -4.15634 -14.28604 21.78350
v -3.80782 -13.98049 21.78350
v -3.19965 -13.78428 21.78350
v -2.26766 -13.65625 21.78350
v -0.81633 -13.58288 21.78350
v 4.00000 -13.55890 21.78350
v 8.81633 -13.58288 21.78350
v 10.26766 -13.65625 21.78350
v 11.19965 -13.78428 21.78350
v 11.80782 -13.98049 21.78350
v 12.15634 -14.28604 21.78350
v 11.19965 -15.30000 21.84968
v 11.10050 -16.18271 21.84968
v 10.79710 -16.44870 21.84968
v 10.26766 -16.61951 21.84968
v 9.45632 -16.73097 21.84968
v 8.19286 -16.79484 21.84968
v 4.00000 -16.81572 21.84968
v -0.19286 -16.79484 21.84968
v -1.45632 -16.73097 21.84968
v -2.26766 -16.61951 21.84968
v -2.79710 -16.44870 21.84968
v -3.10050 -16.18271 21.84968
v -3.19965 -15.30000 21.84968
v -3.10050 -14.41729 21.84968
v -2.79710 -14.15130 21.84968
v -2.26766 -13.98049 21.84968
v -1.45632 -13.86903 21.84968
v -0.19286 -13.80516 21.84968
v 4.00000 -13.78428 21.84968
v 8.19286 -13.80516 21.84968
v 9.45632 -13.86903 21.84968
v 10.26766 -13.98049 21.84968
v 10.79710 -14.15130 21.84968
v 11.10050 -14.41729 21.84968
v 9.53251 -15.30000 21.88761
v 9.45632 -15.97831 21.88761
v 9.22317 -16.18271 21.88761
v 8.81633 -16.31396 21.88761
v 8.19286 -16.39962 21.88761
v 7.22196 -16.44870 21.88761
v 4.00000 -16.46474 21.88761
v 0.77804 -16.44870 21.88761
v -0.19286 -16.39962 21.88761
v -0.81633 -16.31396 21.88761
v -1.22317 -16.18271 21.88761
v -1.45632 -15.97831 21.88761
v -1.53251 -15.30000 21.88761
v -1.45632 -14.62169 21.88761
v -1.22317 -14.41729 21.88761
v -0.81633 -14.28604 21.88761
v -0.19286 -14.20038 21.88761
v 0.77804 -14.15130 21.88761
v 4.00000 -14.13526 21.88761
v 7.22196 -14.15130 21.88761
v 8.19286 -14.20038 21.88761
v 8.81633 -14.28604 21.88761
v 9.22317 -14.41729 21.88761
v 9.45632 -14.62169 21.88761
v 4.00000 -15.30000 21.90000
v 4.00000 -15.30000 21.90000
v 4.00000 -15.30000 21.90000
v 4.00000 -15.30000 21.90000
v 4.00000 -15.30000 21.90000
v 4.00000 -15.30000 21.90000
v 4.00000 -15.30000 21.90000
v 4.00000 -15.30000 21.90000
v 4.00000 -15.30000 21.90000
v 4.00000 -15.30000 21.90000
v 4.00000 -15.30000 21.90000
v 4.00000 -15.30000 21.90000
v 4.00000 -15.30000 21.90000
v 4.00000 -15.30000 21.90000
v 4.00000 -15.30000 21.90000
v 4.00000 -15.30000 21.90000
v 4.00000 -15.30000 21.90000
v 4.00000 -15.30000 21.90000
v 4.00000 -15.30000 21.90000
v 4.00000 -15.30000 21.90000
v 4.00000 -15.30000 21.90000
v 4.00000 -15.30000 21.90000
v 4.00000 -15.30000 21.90000
v 4.00000 -15.30000 21.90000
v 12.90000 -0.00000 -17.42500
v 12.90000 -0.00000 -17.42500
v 12.90000 -0.00000 -17.42500
v 12.90000 -0.00000 -17.42500
v 12.90000 -0.00000 -17.42500
v 12.90000 -0.00000 -17.42500
v 12.90000 0.00000 -17.42500
v 12.90000 0.00000 -17.42500
v 12.90000 0.00000 -17.42500
v 12.90000 0.00000 -17.42500
v 13.04142 -0.00000 -17.40939
v 13.02720 -7.86072 -17.40939
v 12.97862 -9.99899 -17.40939
v 12.82138 -9.99899 -17.40939
v 12.77280 -7.86072 -17.40939
v 12.75858 -0.00000 -17.40939
v 12.77280 7.86072 -17.40939
v 12.82138 9.99899 -17.40939
v 12.97862 9.99899 -17.40939
v 13.02720 7.86072 -17.40939
v 13.08612 -0.00000 -17.35910
v 13.06741 -10.34529 -17.35910
v 13.00346 -13.15941 -17.35910
v 12.79654 -13.15941 -17.35910
v 12.73259 -10.34529 -17.35910
v 12.71388 -0.00000 -17.35910
v 12.73259 10.34529 -17.35910
v 12.79654 13.15941 -17.35910
v 13.00346 13.15941 -17.35910
v 13.06741 10.34529 -17.35910
v 13.10000 -0.00000 -17.20000
v 13.07989 -11.11674 -17.20000
v 13.01118 -14.14071 -17.20000
v 12.78882 -14.14071 -17.20000
v 12.72011 -11.11674 -17.20000
v 12.70000 -0.00000 -17.20000
v 12.72011 11.11674 -17.20000
v 12.78882 14.14071 -17.20000
v 13.01118 14.14071 -17.20000
v 13.07989 11.11674 -17.20000
v 13.08612 -0.00000 -17.04090
v 13.06741 -10.34529 -17.04090
v 13.00346 -13.15941 -17.04090
v 12.79654 -13.15941 -17.04090
v 12.73259 -10.34529 -17.04090
v 12.71388 -0.00000 -17.04090
v 12.73259 10.34529 -17.04090
v 12.79654 13.15941 -17.04090
v 13.00346 13.15941 -17.04090
v 13.06741 10.34529 -17.04090
v 13.04142 -0.00000 -16.99061
v 13.02720 -7.86072 -16.99061
v 12.97862 -9.99899 -16.99061
v 12.82138 -9.99899 -16.99061
v 12.77280 -7.86072 -16.99061
v 12.75858 -0.00000 -16.99061
v 12.77280 7.86072 -16.99061
v 12.82138 9.99899 -16.99061
v 12.97862 9.99899 -16.99061
v 13.02720 7.86072 -16.99061
v 12.90000 -0.00000 -16.97500
v 12.90000 -0.00000 -16.97500
v 12.90000 -0.00000 -16.97500
v 12.90000 -0.00000 -16.97500
v 12.90000 -0.00000 -16.97500
v 12.90000 -0.00000 -16.97500
v 12.90000 0.00000 -16.97500
v 12.90000 0.00000 -16.97500
v 12.90000 0.00000 -16.97500
v 12.90000 0.00000 -16.97500
v 12.90000 -0.00000 16.97500
v 12.90000 -0.00000 16.97500
v 12.90000 -0.00000 16.97500
v 12.90000 -0.00000 16.97500
v 12.90000 -0.00000 16.97500
v 12.90000 -0.00000 16.97500
v 12.90000 0.00000 16.97500
v 12.90000 0.00000 16.97500
v 12.90000 0.00000 16.97500
v 12.90000 0.00000 16.97500
v 13.04142 -0.00000 16.99061
v 13.02720 -7.86072 16.99061
v 12.97862 -9.99899 16.99061
v 12.82138 -9.99899 16.99061
v 12.77280 -7.86072 16.99061
v 12.75858 -0.00000 16.99061
v 12.77280 7.86072 16.99061
v 12.82138 9.99899 16.99061
v 12.97862 9.99899 16.99061
v 13.02720 7.86072 16.99061
v 13.08612 -0.00000 17.04090
v 13.06741 -10.34529 17.04090
v 13.00346 -13.15941 17.04090
v 12.79654 -13.15941 17.04090
v 12.73259 -10.34529 17.04090
v 12.71388 -0.00000 17.04090
v 12.73259 10.34529 17.04090
v 12.79654 13.15941 17.04090
v 13.00346 13.15941 17.04090
v 13.06741 10.34529 17.04090
v 13.10000 -0.00000 17.20000
v 13.07989 -11.11674 17.20000
v 13.01118 -14.14071 17.20000
v 12.78882 -14.14071 17.20000
v 12.72011 -11.11674 17.20000
v 12.70000 -0.00000 17.20000
v 12.72011 11.11674 17.20000
v 12.78882 14.14071 17.20000
v 13.01118 14.14071 17.20000
v 13.07989 11.11674 17.20000
v 13.08612 -0.00000 17.35910
v 13.06741 -10.34529 17.35910
v 13.00346 -13.15941 17.35910
v 12.79654 -13.15941 17.35910
v 12.73259 -10.34529 17.35910
v 12.71388 -0.00000 17.35910
v 12.73259 10.34529 17.35910
v 12.79654 13.15941 17.35910
v 13.00346 13.15941 17.35910
v 13.06741 10.34529 17.35910
v 13.04142 -0.00000 17.40939
v 13.02720 -7.86072 17.40939
v 12.97862 -9.99899 17.40939
v 12.82138 -9.99899 17.40939
v 12.77280 -7.86072 17.40939
v 12.75858 -0.00000 17.40939
v 12.77280 7.86072 17.40939
v 12.82138 9.99899 17.40939
v 12.97862 9.99899 17.40939
v 13.02720 7.86072 17.40939
v 12.90000 -0.00000 17.42500
v 12.90000 -0.00000 17.42500
v 12.90000 -0.00000 17.42500
v 12.90000 -0.00000 17.42500
v 12.90000 -0.00000 17.42500
v 12.90000 -0.00000 17.42500
v 12.90000 0.00000 17.42500
v 12.90000 0.00000 17.42500
v 12.90000 0.00000 17.42500
v 12.90000 0.00000 17.42500
v 18.25000 11.00000 -12.00000
v 18.25000 11.00000 -12.00000
v 18.25000 11.00000 -12.00000
v 18.25000 11.00000 -12.00000
v 18.25000 11.00000 -12.00000
v 18.25000 11.00000 -12.00000
v 18.25000 11.00000 -12.00000
v 18.25000 11.00000 -12.00000
v 18.25000 11.00000 -12.00000
v 18.25000 11.00000 -12.00000
v 18.34899 11.00000 -11.58363
v 18.33904 10.90513 -11.58363
v 18.30503 10.87932 -11.58363
v 18.19497 10.87932 -11.58363
v 18.16096 10.90513 -11.58363
v 18.15101 11.00000 -11.58363
v 18.16096 11.09487 -11.58363
v 18.19497 11.12068 -11.58363
v 18.30503 11.12068 -11.58363
v 18.33904 11.09487 -11.58363
v 18.38028 11.00000 -10.24264
v 18.36719 10.87514 -10.24264
v 18.32242 10.84118 -10.24264
v 18.17758 10.84118 -10.24264
v 18.13281 10.87514 -10.24264
v 18.11972 11.00000 -10.24264
v 18.13281 11.12486 -10.24264
v 18.17758 11.15882 -10.24264
v 18.32242 11.15882 -10.24264
v 18.36719 11.12486 -10.24264
v 18.39000 11.00000 -6.00000
v 18.37592 10.86583 -6.00000
v 18.32783 10.82934 -6.00000
v 18.17217 10.82934 -6.00000
v 18.12408 10.86583 -6.00000
v 18.11000 11.00000 -6.00000
v 18.12408 11.13417 -6.00000
v 18.17217 11.17066 -6.00000
v 18.32783 11.17066 -6.00000
v 18.37592 11.13417 -6.00000
v 18.38028 11.00000 -1.75736
v 18.36719 10.87514 -1.75736
v 18.32242 10.84118 -1.75736
v 18.17758 10.84118 -1.75736
v 18.13281 10.87514 -1.75736
v 18.11972 11.00000 -1.75736
v 18.13281 11.12486 -1.75736
v 18.17758 11.15882 -1.75736
v 18.32242 11.15882 -1.75736
v 18.36719 11.12486 -1.75736
v 18.34899 11.00000 -0.41637
v 18.33904 10.90513 -0.41637
v 18.30503 10.87932 -0.41637
v 18.19497 10.87932 -0.41637
v 18.16096 10.90513 -0.41637
v 18.15101 11.00000 -0.41637
v 18.16096 11.09487 -0.41637
v 18.19497 11.12068 -0.41637
v 18.30503 11.12068 -0.41637
v 18.33904 11.09487 -0.41637
v 18.25000 11.00000 0.00000
v 18.25000 11.00000 0.00000
v 18.25000 11.00000 0.00000
v 18.25000 11.00000 0.00000
v 18.25000 11.00000 0.00000
v 18.25000 11.00000 0.00000
v 18.25000 11.00000 0.00000
v 18.25000 11.00000 0.00000
v 18.25000 11.00000 0.00000
v 18.25000 11.00000 0.00000
v 18.25000 3.60000 -12.00000
v 18.25000 3.60000 -12.00000
v 18.25000 3.60000 -12.00000
v 18.25000 3.60000 -12.00000
v 18.25000 3.60000 -12.00000
v 18.25000 3.60000 -12.00000
v 18.25000 3.60000 -12.00000
v 18.25000 3.60000 -12.00000
v 18.25000 3.60000 -12.00000
v 18.25000 3.60000 -12.00000
v 18.34899 3.60000 -11.58363
v 18.33904 3.50513 -11.58363
v 18.30503 3.47932 -11.58363
v 18.19497 3.47932 -11.58363
v 18.16096 3.50513 -11.58363
v 18.15101 3.60000 -11.58363
v 18.16096 3.69487 -11.58363
v 18.19497 3.72068 -11.58363
v 18.30503 3.72068 -11.58363
v 18.33904 3.69487 -11.58363
v 18.38028 3.60000 -10.24264
v 18.36719 3.47514 -10.24264
v 18.32242 3.44118 -10.24264
v 18.17758 3.44118 -10.24264
v 18.13281 3.47514 -10.24264
v 18.11972 3.60000 -10.24264
v 18.13281 3.72486 -10.24264
v 18.17758 3.75882 -10.24264
v 18.32242 3.75882 -10.24264
v 18.36719 3.72486 -10.24264
v 18.39000 3.60000 -6.00000
v 18.37592 3.46583 -6.00000
v 18.32783 3.42934 -6.00000
v 18.17217 3.42934 -6.00000
v 18.12408 3.46583 -6.00000
v 18.11000 3.60000 -6.00000
v 18.12408 3.73417 -6.00000
v 18.17217 3.77066 -6.00000
v 18.32783 3.77066 -6.00000
v 18.37592 3.73417 -6.00000
v 18.38028 3.60000 -1.75736
v 18.36719 3.47514 -1.75736
v 18.32242 3.44118 -1.75736
v 18.17758 3.44118 -1.75736
v 18.13281 3.47514 -1.75736
v 18.11972 3.60000 -1.75736
v 18.13281 3.72486 -1.75736
v 18.17758 3.75882 -1.75736
v 18.32242 3.75882 -1.75736
v 18.36719 3.72486 -1.75736
v 18.34899 3.60000 -0.41637
v 18.33904 3.50513 -0.41637
v 18.30503 3.47932 -0.41637
v 18.19497 3.47932 -0.41637
v 18.16096 3.50513 -0.41637
v 18.15101 3.60000 -0.41637
v 18.16096 3.69487 -0.41637
v 18.19497 3.72068 -0.41637
v 18.30503 3.72068 -0.41637
v 18.33904 3.69487 -0.41637
v 18.25000 3.60000 0.00000
v 18.25000 3.60000 0.00000
v 18.25000 3.60000 0.00000
v 18.25000 3.60000 0.00000
v 18.25000 3.60000 0.00000
v 18.25000 3.60000 0.00000
v 18.25000 3.60000 0.00000
v 18.25000 3.60000 0.00000
v 18.25000 3.60000 0.00000
v 18.25000 3.60000 0.00000
v 18.25000 -3.60000 -12.00000
v 18.25000 -3.60000 -12.00000
v 18.25000 -3.60000 -12.00000
v 18.25000 -3.60000 -12.00000
v 18.25000 -3.60000 -12.00000
v 18.25000 -3.60000 -12.00000
v 18.25000 -3.60000 -12.00000
v 18.25000 -3.60000 -12.00000
v 18.25000 -3.60000 -12.00000
v 18.25000 -3.60000 -12.00000
v 18.34899 -3.60000 -11.58363
v 18.33904 -3.69487 -11.58363
v 18.30503 -3.72068 -11.58363
v 18.19497 -3.72068 -11.58363
v 18.16096 -3.69487 -11.58363
v 18.15101 -3.60000 -11.58363
v 18.16096 -3.50513 -11.58363
v 18.19497 -3.47932 -11.58363
v 18.30503 -3.47932 -11.58363
v 18.33904 -3.50513 -11.58363
v 18.38028 -3.60000 -10.24264
v 18.36719 -3.72486 -10.24264
v 18.32242 -3.75882 -10.24264
v 18.17758 -3.75882 -10.24264
v 18.13281 -3.72486 -10.24264
v 18.11972 -3.60000 -10.24264
v 18.13281 -3.47514 -10.24264
v 18.17758 -3.44118 -10.24264
v 18.32242 -3.44118 -10.24264
v 18.36719 -3.47514 -10.24264
v 18.39000 -3.60000 -6.00000
v 18.37592 -3.73417 -6.00000
v 18.32783 -3.77066 -6.00000
v 18.17217 -3.77066 -6.00000
v 18.12408 -3.73417 -6.00000
v 18.11000 -3.60000 -6.00000
v 18.12408 -3.46583 -6.00000
v 18.17217 -3.42934 -6.00000
v 18.32783 -3.42934 -6.00000
v 18.37592 -3.46583 -6.00000
v 18.38028 -3.60000 -1.75736
v 18.36719 -3.72486 -1.75736
v 18.32242 -3.75882 -1.75736
v 18.17758 -3.75882 -1.75736
v 18.13281 -3.72486 -1.75736
v 18.11972 -3.60000 -1.75736
v 18.13281 -3.47514 -1.75736
v 18.17758 -3.44118 -1.75736
v 18.32242 -3.44118 -1.75736
v 18.36719 -3.47514 -1.75736
v 18.34899 -3.60000 -0.41637
v 18.33904 -3.69487 -0.41637
v 18.30503 -3.72068 -0.41637
v 18.19497 -3.72068 -0.41637
v 18.16096 -3.69487 -0.41637
v 18.15101 -3.60000 -0.41637
v 18.16096 -3.50513 -0.41637
v 18.19497 -3.47932 -0.41637
v 18.30503 -3.47932 -0.41637
v 18.33904 -3.50513 -0.41637
v 18.25000 -3.60000 0.00000
v 18.25000 -3.60000 0.00000
v 18.25000 -3.60000 0.00000
v 18.25000 -3.60000 0.00000
v 18.25000 -3.60000 0.00000
v 18.25000 -3.60000 0.00000
v 18.25000 -3.60000 0.00000
v 18.25000 -3.60000 0.00000
v 18.25000 -3.60000 0.00000
v 18.25000 -3.60000 0.00000
v 18.25000 -11.00000 -12.00000
v 18.25000 -11.00000 -12.00000
v 18.25000 -11.00000 -12.00000
v 18.25000 -11.00000 -12.00000
v 18.25000 -11.00000 -12.00000
v 18.25000 -11.00000 -12.00000
v 18.25000 -11.00000 -12.00000
v 18.25000 -11.00000 -12.00000
v 18.25000 -11.00000 -12.00000
v 18.25000 -11.00000 -12.00000
v 18.34899 -11.00000 -11.58363
v 18.33904 -11.09487 -11.58363
v 18.30503 -11.12068 -11.58363
v 18.19497 -11.12068 -11.58363
v 18.16096 -11.09487 -11.58363
v 18.15101 -11.00000 -11.58363
v 18.16096 -10.90513 -11.58363
v 18.19497 -10.87932 -11.58363
v 18.30503 -10.87932 -11.58363
v 18.33904 -10.90513 -11.58363
v 18.38028 -11.00000 -10.24264
v 18.36719 -11.12486 -10.24264
v 18.32242 -11.15882 -10.24264
v 18.17758 -11.15882 -10.24264
v 18.13281 -11.12486 -10.24264
v 18.11972 -11.00000 -10.24264
v 18.13281 -10.87514 -10.24264
v 18.17758 -10.84118 -10.24264
v 18.32242 -10.84118 -10.24264
v 18.36719 -10.87514 -10.24264
v 18.39000 -11.00000 -6.00000
v 18.37592 -11.13417 -6.00000
v 18.32783 -11.17066 -6.00000
v 18.17217 -11.17066 -6.00000
v 18.12408 -11.13417 -6.00000
v 18.11000 -11.00000 -6.00000
v 18.12408 -10.86583 -6.00000
v 18.17217 -10.82934 -6.00000
v 18.32783 -10.82934 -6.00000
v 18.37592 -10.86583 -6.00000
v 18.38028 -11.00000 -1.75736
v 18.36719 -11.12486 -1.75736
v 18.32242 -11.15882 -1.75736
v 18.17758 -11.15882 -1.75736
v 18.13281 -11.12486 -1.75736
v 18.11972 -11.00000 -1.75736
v 18.13281 -10.87514 -1.75736
v 18.17758 -10.84118 -1.75736
v 18.32242 -10.84118 -1.75736
v 18.36719 -10.87514 -1.75736
v 18.34899 -11.00000 -0.41637
v 18.33904 -11.09487 -0.41637
v 18.30503 -11.12068 -0.41637
v 18.19497 -11.12068 -0.41637
v 18.16096 -11.09487 -0.41637
v 18.15101 -11.00000 -0.41637
v 18.16096 -10.90513 -0.41637
v 18.19497 -10.87932 -0.41637
v 18.30503 -10.87932 -0.41637
v 18.33904 -10.90513 -0.41637
v 18.25000 -11.00000 0.00000
v 18.25000 -11.00000 0.00000
v 18.25000 -11.00000 0.00000
v 18.25000 -11.00000 0.00000
v 18.25000 -11.00000 0.00000
v 18.25000 -11.00000 0.00000
v 18.25000 -11.00000 0.00000
v 18.25000 -11.00000 0.00000
v 18.25000 -11.00000 0.00000
v 18.25000 -11.00000 0.00000
vt -0.53550 -0.57750
vt -0.53550 -0.57750
vt -0.53550 -0.57750
vt -0.53550 -0.57750
vt -0.53550 -0.57750
vt -0.53550 -0.57750
vt -0.53550 -0.57750
vt -0.53550 -0.57750
vt -0.53550 -0.57750
vt -0.53550 -0.57750
vt -0.53550 -0.53742
vt -0.53095 -0.53742
vt -0.52971 -0.53742
vt -0.52971 -0.53742
vt -0.53095 -0.53742
vt -0.53550 -0.53742
vt -0.54005 -0.53742
vt -0.54129 -0.53742
vt -0.54129 -0.53742
vt -0.54005 -0.53742
vt -0.53550 -0.40835
vt -0.52951 -0.40835
vt -0.52788 -0.40835
vt -0.52788 -0.40835
vt -0.52951 -0.40835
vt -0.53550 -0.40835
vt -0.54149 -0.40835
vt -0.54312 -0.40835
vt -0.54312 -0.40835
vt -0.54149 -0.40835
vt -0.53550 0.00000
vt -0.52906 0.00000
vt -0.52731 0.00000
vt -0.52731 0.00000
vt -0.52906 0.00000
vt -0.53550 0.00000
vt -0.54194 0.00000
vt -0.54369 0.00000
vt -0.54369 0.00000
vt -0.54194 0.00000
vt -0.53550 0.40835
vt -0.52951 0.40835
vt -0.52788 0.40835
vt -0.52788 0.40835
vt -0.52951 0.40835
vt -0.53550 0.40835
vt -0.54149 0.40835
vt -0.54312 0.40835
vt -0.54312 0.40835
vt -0.54149 0.40835
vt -0.53550 0.53742
vt -0.53095 0.53742
vt -0.52971 0.53742
vt -0.52971 0.53742
vt -0.53095 0.53742
vt -0.53550 0.53742
vt -0.54005 0.53742
vt -0.54129 0.53742
vt -0.54129 0.53742
vt -0.54005 0.53742
vt -0.53550 0.57750
vt -0.53550 0.57750
vt -0.53550 0.57750
vt -0.53550 0.57750
vt -0.53550 0.57750
vt -0.53550 0.57750
vt -0.53550 0.57750
vt -0.53550 0.57750
vt -0.53550 0.57750
vt -0.53550 0.57750
vt -0.53550 0.70350
vt -0.53550 0.70350
vt -0.53550 0.70350
vt -0.53550 0.70350
vt -0.53550 0.70350
vt -0.53550 0.70350
vt -0.53550 0.70350
vt -0.53550 0.70350
vt -0.53550 0.70350
vt -0.53550 0.70350
vt -0.53550 0.70350
vt -0.53550 0.70350
vt -0.53550 0.70350
vt -0.53550 0.70350
vt -0.53550 0.70350
vt -0.53550 0.70350
vt -0.53550 0.70350
vt -0.53550 0.70350
vt -0.53550 0.70350
vt -0.53550 0.70350
vt -0.53550 0.70350
vt -0.53550 0.70350
vt -0.53550 0.70350
vt -0.53550 0.70350
vt -0.53550 0.70393
vt -0.51176 0.70393
vt -0.50461 0.70393
vt -0.50001 0.70393
vt -0.49701 0.70393
vt -0.49530 0.70393
vt -0.49473 0.70393
vt -0.49530 0.70393
vt -0.49701 0.70393
vt -0.50001 0.70393
vt -0.50461 0.70393
vt -0.51176 0.70393
vt -0.53550 0.70393
vt -0.55924 0.70393
vt -0.56639 0.70393
vt -0.57099 0.70393
vt -0.57399 0.70393
vt -0.57570 0.70393
vt -0.57627 0.70393
vt -0.57570 0.70393
vt -0.57399 0.70393
vt -0.57099 0.70393
vt -0.56639 0.70393
vt -0.55924 0.70393
vt -0.53550 0.70526
vt -0.50461 0.70526
vt -0.49530 0.70526
vt -0.48932 0.70526
vt -0.48542 0.70526
vt -0.48318 0.70526
vt -0.48245 0.70526
vt -0.48318 0.70526
vt -0.48542 0.70526
vt -0.48932 0.70526
vt -0.49530 0.70526
vt -0.50461 0.70526
vt -0.53550 0.70526
vt -0.56639 0.70526
vt -0.57570 0.70526
vt -0.58168 0.70526
vt -0.58558 0.70526
vt -0.58782 0.70526
vt -0.58855 0.70526
vt -0.58782 0.70526
vt -0.58558 0.70526
vt -0.58168 0.70526
vt -0.57570 0.70526
vt -0.56639 0.70526
vt -0.53550 0.70758
vt -0.50001 0.70758
vt -0.48932 0.70758
vt -0.48245 0.70758
vt -0.47797 0.70758
vt -0.47540 0.70758
vt -0.47456 0.70758
vt -0.47540 0.70758
vt -0.47797 0.70758
vt -0.48245 0.70758
vt -0.48932 0.70758
vt -0.50001 0.70758
vt -0.53550 0.70758
vt -0.57099 0.70758
vt -0.58168 0.70758
vt -0.58855 0.70758
vt -0.59303 0.70758
vt -0.59560 0.70758
vt -0.59644 0.70758
vt -0.59560 0.70758
vt -0.59303 0.70758
vt -0.58855 0.70758
vt -0.58168 0.70758
vt -0.57099 0.70758
vt -0.53550 0.71113
vt -0.49701 0.71113
vt -0.48542 0.71113
vt -0.47797 0.71113
vt -0.47311 0.71113
vt -0.47032 0.71113
vt -0.46941 0.71113
vt -0.47032 0.71113
vt -0.47311 0.71113
vt -0.47797 0.71113
vt -0.48542 0.71113
vt -0.49701 0.71113
vt -0.53550 0.71113
vt -0.57399 0.71113
vt -0.58558 0.71113
vt -0.59303 0.71113
vt -0.59789 0.71113
vt -0.60068 0.71113
vt -0.60159 0.71113
vt -0.60068 0.71113
vt -0.59789 0.71113
vt -0.59303 0.71113
vt -0.58558 0.71113
vt -0.57399 0.71113
vt -0.53550 0.71666
vt -0.49530 0.71666
vt -0.48318 0.71666
vt -0.47540 0.71666
vt -0.47032 0.71666
vt -0.46741 0.71666
vt -0.46646 0.71666
vt -0.46741 0.71666
vt -0.47032 0.71666
vt -0.47540 0.71666
vt -0.48318 0.71666
vt -0.49530 0.71666
vt -0.53550 0.71666
vt -0.57570 0.71666
vt -0.58782 0.71666
vt -0.59560 0.71666
vt -0.60068 0.71666
vt -0.60359 0.71666
vt -0.60454 0.71666
vt -0.60359 0.71666
vt -0.60068 0.71666
vt -0.59560 0.71666
vt -0.58782 0.71666
vt -0.57570 0.71666
vt -0.53550 0.73500
vt -0.49473 0.73500
vt -0.48245 0.73500
vt -0.47456 0.73500
vt -0.46941 0.73500
vt -0.46646 0.73500
vt -0.46550 0.73500
vt -0.46646 0.73500
vt -0.46941 0.73500
vt -0.47456 0.73500
vt -0.48245 0.73500
vt -0.49473 0.73500
vt -0.53550 0.73500
vt -0.57627 0.73500
vt -0.58855 0.73500
vt -0.59644 0.73500
vt -0.60159 0.73500
vt -0.60454 0.73500
vt -0.60550 0.73500
vt -0.60454 0.73500
vt -0.60159 0.73500
vt -0.59644 0.73500
vt -0.58855 0.73500
vt -0.57627 0.73500
vt -0.53550 0.75334
vt -0.49530 0.75334
vt -0.48318 0.75334
vt -0.47540 0.75334
vt -0.47032 0.75334
vt -0.46741 0.75334
vt -0.46646 0.75334
vt -0.46741 0.75334
vt -0.47032 0.75334
vt -0.47540 0.75334
vt -0.48318 0.75334
vt -0.49530 0.75334
vt -0.53550 0.75334
vt -0.57570 0.75334
vt -0.58782 0.75334
vt -0.59560 0.75334
vt -0.60068 0.75334
vt -0.60359 0.75334
vt -0.60454 0.75334
vt -0.60359 0.75334
vt -0.60068 0.75334
vt -0.59560 0.75334
vt -0.58782 0.75334
vt -0.57570 0.75334
vt -0.53550 0.75887
vt -0.49701 0.75887
vt -0.48542 0.75887
vt -0.47797 0.75887
vt -0.47311 0.75887
vt -0.47032 0.75887
vt -0.46941 0.75887
vt -0.47032 0.75887
vt -0.47311 0.75887
vt -0.47797 0.75887
vt -0.48542 0.75887
vt -0.49701 0.75887
vt -0.53550 0.75887
vt -0.57399 0.75887
vt -0.58558 0.75887
vt -0.59303 0.75887
vt -0.59789 0.75887
vt -0.60068 0.75887
vt -0.60159 0.75887
vt -0.60068 0.75887
vt -0.59789 0.75887
vt -0.59303 0.75887
vt -0.58558 0.75887
vt -0.57399 0.75887
vt -0.53550 0.76242
vt -0.50001 0.76242
vt -0.48932 0.76242
vt -0.48245 0.76242
vt -0.47797 0.76242
vt -0.47540 0.76242
vt -0.47456 0.76242
vt -0.47540 0.76242
vt -0.47797 0.76242
vt -0.48245 0.76242
vt -0.48932 0.76242
vt -0.50001 0.76242
vt -0.53550 0.76242
vt -0.57099 0.76242
vt -0.58168 0.76242
vt -0.58855 0.76242
vt -0.59303 0.76242
vt -0.59560 0.76242
vt -0.59644 0.76242
vt -0.59560 0.76242
vt -0.59303 0.76242
vt -0.58855 0.76242
vt -0.58168 0.76242
vt -0.57099 0.76242
vt -0.53550 0.76474
vt -0.50461 0.76474
vt -0.49530 0.76474
vt -0.48932 0.76474
vt -0.48542 0.76474
vt -0.48318 0.76474
vt -0.48245 0.76474
vt -0.48318 0.76474
vt -0.48542 0.76474
vt -0.48932 0.76474
vt -0.49530 0.76474
vt -0.50461 0.76474
vt -0.53550 0.76474
vt -0.56639 0.76474
vt -0.57570 0.76474
vt -0.58168 0.76474
vt -0.58558 0.76474
vt -0.58782 0.76474
vt -0.58855 0.76474
vt -0.58782 0.76474
vt -0.58558 0.76474
vt -0.58168 0.76474
vt -0.57570 0.76474
vt -0.56639 0.76474
vt -0.53550 0.76607
vt -0.51176 0.76607
vt -0.50461 0.76607
vt -0.50001 0.76607
vt -0.49701 0.76607
vt -0.49530 0.76607
vt -0.49473 0.76607
vt -0.49530 0.76607
vt -0.49701 0.76607
vt -0.50001 0.76607
vt -0.50461 0.76607
vt -0.51176 0.76607
vt -0.53550 0.76607
vt -0.55924 0.76607
vt -0.56639 0.76607
vt -0.57099 0.76607
vt -0.57399 0.76607
vt -0.57570 0.76607
vt -0.57627 0.76607
vt -0.57570 0.76607
vt -0.57399 0.76607
vt -0.57099 0.76607
vt -0.56639 0.76607
vt -0.55924 0.76607
vt -0.53550 0.76650
vt -0.53550 0.76650
vt -0.53550 0.76650
vt -0.53550 0.76650
vt -0.53550 0.76650
vt -0.53550 0.76650
vt -0.53550 0.76650
vt -0.53550 0.76650
vt -0.53550 0.76650
vt -0.53550 0.76650
vt -0.53550 0.76650
vt -0.53550 0.76650
vt -0.53550 0.76650
vt -0.53550 0.76650
vt -0.53550 0.76650
vt -0.53550 0.76650
vt -0.53550 0.76650
vt -0.53550 0.76650
vt -0.53550 0.76650
vt -0.53550 0.76650
vt -0.53550 0.76650
vt -0.53550 0.76650
vt -0.53550 0.76650
vt -0.53550 0.76650
vt 0.53550 -0.57750
vt 0.53550 -0.57750
vt 0.53550 -0.57750
vt 0.53550 -0.57750
vt 0.53550 -0.57750
vt 0.53550 -0.57750
vt 0.53550 -0.57750
vt 0.53550 -0.57750
vt 0.53550 -0.57750
vt 0.53550 -0.57750
vt 0.53550 -0.53742
vt 0.54005 -0.53742
vt 0.54129 -0.53742
vt 0.54129 -0.53742
vt 0.54005 -0.53742
vt 0.53550 -0.53742
vt 0.53095 -0.53742
vt 0.52971 -0.53742
vt 0.52971 -0.53742
vt 0.53095 -0.53742
vt 0.53550 -0.40835
vt 0.54149 -0.40835
vt 0.54312 -0.40835
vt 0.54312 -0.40835
vt 0.54149 -0.40835
vt 0.53550 -0.40835
vt 0.52951 -0.40835
vt 0.52788 -0.40835
vt 0.52788 -0.40835
vt 0.52951 -0.40835
vt 0.53550 0.00000
vt 0.54194 0.00000
vt 0.54369 0.00000
vt 0.54369 0.00000
vt 0.54194 0.00000
vt 0.53550 0.00000
vt 0.52906 0.00000
vt 0.52731 0.00000
vt 0.52731 0.00000
vt 0.52906 0.00000
vt 0.53550 0.40835
vt 0.54149 0.40835
vt 0.54312 0.40835
vt 0.54312 0.40835
vt 0.54149 0.40835
vt 0.53550 0.40835
vt 0.52951 0.40835
vt 0.52788 0.40835
vt 0.52788 0.40835
vt 0.52951 0.40835
vt 0.53550 0.53742
vt 0.54005 0.53742
vt 0.54129 0.53742
vt 0.54129 0.53742
vt 0.54005 0.53742
vt 0.53550 0.53742
vt 0.53095 0.53742
vt 0.52971 0.53742
vt 0.52971 0.53742
vt 0.53095 0.53742
vt 0.53550 0.57750
vt 0.53550 0.57750
vt 0.53550 0.57750
vt 0.53550 0.57750
vt 0.53550 0.57750
vt 0.53550 0.57750
vt 0.53550 0.57750
vt 0.53550 0.57750
vt 0.53550 0.57750
vt 0.53550 0.57750
vt 0.53550 0.70350
vt 0.53550 0.70350
vt 0.53550 0.70350
vt 0.53550 0.70350
vt 0.53550 0.70350
vt 0.53550 0.70350
vt 0.53550 0.70350
vt 0.53550 0.70350
vt 0.53550 0.70350
vt 0.53550 0.70350
vt 0.53550 0.70350
vt 0.53550 0.70350
vt 0.53550 0.70350
vt 0.53550 0.70350
vt 0.53550 0.70350
vt 0.53550 0.70350
vt 0.53550 0.70350
vt 0.53550 0.70350
vt 0.53550 0.70350
vt 0.53550 0.70350
vt 0.53550 0.70350
vt 0.53550 0.70350
vt 0.53550 0.70350
vt 0.53550 0.70350
vt 0.53550 0.70393
vt 0.55924 0.70393
vt 0.56639 0.70393
vt 0.57099 0.70393
vt 0.57399 0.70393
vt 0.57570 0.70393
vt 0.57627 0.70393
vt 0.57570 0.70393
vt 0.57399 0.70393
vt 0.57099 0.70393
vt 0.56639 0.70393
vt 0.55924 0.70393
vt 0.53550 0.70393
vt 0.51176 0.70393
vt 0.50461 0.70393
vt 0.50001 0.70393
vt 0.49701 0.70393
vt 0.49530 0.70393
vt 0.49473 0.70393
vt 0.49530 0.70393
vt 0.49701 0.70393
vt 0.50001 0.70393
vt 0.50461 0.70393
vt 0.51176 0.70393
vt 0.53550 0.70526
vt 0.56639 0.70526
vt 0.57570 0.70526
vt 0.58168 0.70526
vt 0.58558 0.70526
vt 0.58782 0.70526
vt 0.58855 0.70526
vt 0.58782 0.70526
vt 0.58558 0.70526
vt 0.58168 0.70526
vt 0.57570 0.70526
vt 0.56639 0.70526
vt 0.53550 0.70526
vt 0.50461 0.70526
vt 0.49530 0.70526
vt 0.48932 0.70526
vt 0.48542 0.70526
vt 0.48318 0.70526
vt 0.48245 0.70526
vt 0.48318 0.70526
vt 0.48542 0.70526
vt 0.48932 0.70526
vt 0.49530 0.70526
vt 0.50461 0.70526
vt 0.53550 0.70758
vt 0.57099 0.70758
vt 0.58168 0.70758
vt 0.58855 0.70758
vt 0.59303 0.70758
vt 0.59560 0.70758
vt 0.59644 0.70758
vt 0.59560 0.70758
vt 0.59303 0.70758
vt 0.58855 0.70758
vt 0.58168 0.70758
vt 0.57099 0.70758
vt 0.53550 0.70758
vt 0.50001 0.70758
vt 0.48932 0.70758
vt 0.48245 0.70758
vt 0.47797 0.70758
vt 0.47540 0.70758
vt 0.47456 0.70758
vt 0.47540 0.70758
vt 0.47797 0.70758
vt 0.48245 0.70758
vt 0.48932 0.70758
vt 0.50001 0.70758
vt 0.53550 0.71113
vt 0.57399 0.71113
vt 0.58558 0.71113
vt 0.59303 0.71113
vt 0.59789 0.71113
vt 0.60068 0.71113
vt 0.60159 0.71113
vt 0.60068 0.71113
vt 0.59789 0.71113
vt 0.59303 0.71113
vt 0.58558 0.71113
vt 0.57399 0.71113
vt 0.53550 0.71113
vt 0.49701 0.71113
vt 0.48542 0.71113
vt 0.47797 0.71113
vt 0.47311 0.71113
vt 0.47032 0.71113
vt 0.46941 0.71113
vt 0.47032 0.71113
vt 0.47311 0.71113
vt 0.47797 0.71113
vt 0.48542 0.71113
vt 0.49701 0.71113
vt 0.53550 0.71666
vt 0.57570 0.71666
vt 0.58782 0.71666
vt 0.59560 0.71666
vt 0.60068 0.71666
vt 0.60359 0.71666
vt 0.60454 0.71666
vt 0.60359 0.71666
vt 0.60068 0.71666
vt 0.59560 0.71666
vt 0.58782 0.71666
vt 0.57570 0.71666
vt 0.53550 0.71666
vt 0.49530 0.71666
vt 0.48318 0.71666
vt 0.47540 0.71666
vt 0.47032 0.71666
vt 0.46741 0.71666
vt 0.46646 0.71666
vt 0.46741 0.71666
vt 0.47032 0.71666
vt 0.47540 0.71666
vt 0.48318 0.71666
vt 0.49530 0.71666
vt 0.53550 0.73500
vt 0.57627 0.73500
vt 0.58855 0.73500
vt 0.59644 0.73500
vt 0.60159 0.73500
vt 0.60454 0.73500
vt 0.60550 0.73500
vt 0.60454 0.73500
vt 0.60159 0.73500
vt 0.59644 0.73500
vt 0.58855 0.73500
vt 0.57627 0.73500
vt 0.53550 0.73500
vt 0.49473 0.73500
vt 0.48245 0.73500
vt 0.47456 0.73500
vt 0.46941 0.73500
vt 0.46646 0.73500
vt 0.46550 0.73500
vt 0.46646 0.73500
vt 0.46941 0.73500
vt 0.47456 0.73500
vt 0.48245 0.73500
vt 0.49473 0.73500
vt 0.53550 0.75334
vt 0.57570 0.75334
vt 0.58782 0.75334
vt 0.59560 0.75334
vt 0.60068 0.75334
vt 0.60359 0.75334
vt 0.60454 0.75334
vt 0.60359 0.75334
vt 0.60068 0.75334
vt 0.59560 0.75334
vt 0.58782 0.75334
vt 0.57570 0.75334
vt 0.53550 0.75334
vt 0.49530 0.75334
vt 0.48318 0.75334
vt 0.47540 0.75334
vt 0.47032 0.75334
vt 0.46741 0.75334
vt 0.46646 0.75334
vt 0.46741 0.75334
vt 0.47032 0.75334
vt 0.47540 0.75334
vt 0.48318 0.75334
vt 0.49530 0.75334
vt 0.53550 0.75887
vt 0.57399 0.75887
vt 0.58558 0.75887
vt 0.59303 0.75887
vt 0.59789 0.75887
vt 0.60068 0.75887
vt 0.60159 0.75887
vt 0.60068 0.75887
vt 0.59789 0.75887
vt 0.59303 0.75887
vt 0.58558 0.75887
vt 0.57399 0.75887
vt 0.53550 0.75887
vt 0.49701 0.75887
vt 0.48542 0.75887
vt 0.47797 0.75887
vt 0.47311 0.75887
vt 0.47032 0.75887
vt 0.46941 0.75887
vt 0.47032 0.75887
vt 0.47311 0.75887
vt 0.47797 0.75887
vt 0.48542 0.75887
vt 0.49701 0.75887
vt 0.53550 0.76242
vt 0.57099 0.76242
vt 0.58168 0.76242
vt 0.58855 0.76242
vt 0.59303 0.76242
vt 0.59560 0.76242
vt 0.59644 0.76242
vt 0.59560 0.76242
vt 0.59303 0.76242
vt 0.58855 0.76242
vt 0.58168 0.76242
vt 0.57099 0.76242
vt 0.53550 0.76242
vt 0.50001 0.76242
vt 0.48932 0.76242
vt 0.48245 0.76242
vt 0.47797 0.76242
vt 0.47540 0.76242
vt 0.47456 0.76242
vt 0.47540 0.76242
vt 0.47797 0.76242
vt 0.48245 0.76242
vt 0.48932 0.76242
vt 0.50001 0.76242
vt 0.53550 0.76474
vt 0.56639 0.76474
vt 0.57570 0.76474
vt 0.58168 0.76474
vt 0.58558 0.76474
vt 0.58782 0.76474
vt 0.58855 0.76474
vt 0.58782 0.76474
vt 0.58558 0.76474
vt 0.58168 0.76474
vt 0.57570 0.76474
vt 0.56639 0.76474
vt 0.53550 0.76474
vt 0.50461 0.76474
vt 0.49530 0.76474
vt 0.48932 0.76474
vt 0.48542 0.76474
vt 0.48318 0.76474
vt 0.48245 0.76474
vt 0.48318 0.76474
vt 0.48542 0.76474
vt 0.48932 0.76474
vt 0.49530 0.76474
vt 0.50461 0.76474
vt 0.53550 0.76607
vt 0.55924 0.76607
vt 0.56639 0.76607
vt 0.57099 0.76607
vt 0.57399 0.76607
vt 0.57570 0.76607
vt 0.57627 0.76607
vt 0.57570 0.76607
vt 0.57399 0.76607
vt 0.57099 0.76607
vt 0.56639 0.76607
vt 0.55924 0.76607
vt 0.53550 0.76607
vt 0.51176 0.76607
vt 0.50461 0.76607
vt 0.50001 0.76607
vt 0.49701 0.76607
vt 0.49530 0.76607
vt 0.49473 0.76607
vt 0.49530 0.76607
vt 0.49701 0.76607
vt 0.50001 0.76607
vt 0.50461 0.76607
vt 0.51176 0.76607
vt 0.53550 0.76650
vt 0.53550 0.76650
vt 0.53550 0.76650
vt 0.53550 0.76650
vt 0.53550 0.76650
vt 0.53550 0.76650
vt 0.53550 0.76650
vt 0.53550 0.76650
vt 0.53550 0.76650
vt 0.53550 0.76650
vt 0.53550 0.76650
vt 0.53550 0.76650
vt 0.53550 0.76650
vt 0.53550 0.76650
vt 0.53550 0.76650
vt 0.53550 0.76650
vt 0.53550 0.76650
vt 0.53550 0.76650
vt 0.53550 0.76650
vt 0.53550 0.76650
vt 0.53550 0.76650
vt 0.53550 0.76650
vt 0.53550 0.76650
vt 0.53550 0.76650
vt 0.00000 -0.60988
vt 0.00000 -0.60988
vt 0.00000 -0.60988
vt 0.00000 -0.60988
vt 0.00000 -0.60988
vt 0.00000 -0.60988
vt -0.00000 -0.60988
vt -0.00000 -0.60988
vt -0.00000 -0.60988
vt -0.00000 -0.60988
vt 0.00000 -0.60933
vt 0.27513 -0.60933
vt 0.34996 -0.60933
vt 0.34996 -0.60933
vt 0.27513 -0.60933
vt 0.00000 -0.60933
vt -0.27513 -0.60933
vt -0.34996 -0.60933
vt -0.34996 -0.60933
vt -0.27513 -0.60933
vt 0.00000 -0.60757
vt 0.36209 -0.60757
vt 0.46058 -0.60757
vt 0.46058 -0.60757
vt 0.36209 -0.60757
vt 0.00000 -0.60757
vt -0.36209 -0.60757
vt -0.46058 -0.60757
vt -0.46058 -0.60757
vt -0.36209 -0.60757
vt 0.00000 -0.60200
vt 0.38909 -0.60200
vt 0.49492 -0.60200
vt 0.49492 -0.60200
vt 0.38909 -0.60200
vt 0.00000 -0.60200
vt -0.38909 -0.60200
vt -0.49492 -0.60200
vt -0.49492 -0.60200
vt -0.38909 -0.60200
vt 0.00000 -0.59643
vt 0.36209 -0.59643
vt 0.46058 -0.59643
vt 0.46058 -0.59643
vt 0.36209 -0.59643
vt 0.00000 -0.59643
vt -0.36209 -0.59643
vt -0.46058 -0.59643
vt -0.46058 -0.59643
vt -0.36209 -0.59643
vt 0.00000 -0.59467
vt 0.27513 -0.59467
vt 0.34996 -0.59467
vt 0.34996 -0.59467
vt 0.27513 -0.59467
vt 0.00000 -0.59467
vt -0.27513 -0.59467
vt -0.34996 -0.59467
vt -0.34996 -0.59467
vt -0.27513 -0.59467
vt 0.00000 -0.59413
vt 0.00000 -0.59413
vt 0.00000 -0.59413
vt 0.00000 -0.59413
vt 0.00000 -0.59413
vt 0.00000 -0.59413
vt -0.00000 -0.59413
vt -0.00000 -0.59413
vt -0.00000 -0.59413
vt -0.00000 -0.59413
vt 0.00000 0.59413
vt 0.00000 0.59413
vt 0.00000 0.59413
vt 0.00000 0.59413
vt 0.00000 0.59413
vt 0.00000 0.59413
vt -0.00000 0.59413
vt -0.00000 0.59413
vt -0.00000 0.59413
vt -0.00000 0.59413
vt 0.00000 0.59467
vt 0.27513 0.59467
vt 0.34996 0.59467
vt 0.34996 0.59467
vt 0.27513 0.59467
vt 0.00000 0.59467
vt -0.27513 0.59467
vt -0.34996 0.59467
vt -0.34996 0.59467
vt -0.27513 0.59467
vt 0.00000 0.59643
vt 0.36209 0.59643
vt 0.46058 0.59643
vt 0.46058 0.59643
vt 0.36209 0.59643
vt 0.00000 0.59643
vt -0.36209 0.59643
vt -0.46058 0.59643
vt -0.46058 0.59643
vt -0.36209 0.59643
vt 0.00000 0.60200
vt 0.38909 0.60200
vt 0.49492 0.60200
vt 0.49492 0.60200
vt 0.38909 0.60200
vt 0.00000 0.60200
vt -0.38909 0.60200
vt -0.49492 0.60200
vt -0.49492 0.60200
vt -0.38909 0.60200
vt 0.00000 0.60757
vt 0.36209 0.60757
vt 0.46058 0.60757
vt 0.46058 0.60757
vt 0.36209 0.60757
vt 0.00000 0.60757
vt -0.36209 0.60757
vt -0.46058 0.60757
vt -0.46058 0.60757
vt -0.36209 0.60757
vt 0.00000 0.60933
vt 0.27513 0.60933
vt 0.34996 0.60933
vt 0.34996 0.60933
vt 0.27513 0.60933
vt 0.00000 0.60933
vt -0.27513 0.60933
vt -0.34996 0.60933
vt -0.34996 0.60933
vt -0.27513 0.60933
vt 0.00000 0.60988
vt 0.00000 0.60988
vt 0.00000 0.60988
vt 0.00000 0.60988
vt 0.00000 0.60988
vt 0.00000 0.60988
vt -0.00000 0.60988
vt -0.00000 0.60988
vt -0.00000 0.60988
vt -0.00000 0.60988
vt -0.38500 -0.42000
vt -0.38500 -0.42000
vt -0.38500 -0.42000
vt -0.38500 -0.42000
vt -0.38500 -0.42000
vt -0.38500 -0.42000
vt -0.38500 -0.42000
vt -0.38500 -0.42000
vt -0.38500 -0.42000
vt -0.38500 -0.42000
vt -0.38500 -0.40543
vt -0.38168 -0.40543
vt -0.38078 -0.40543
vt -0.38078 -0.40543
vt -0.38168 -0.40543
vt -0.38500 -0.40543
vt -0.38832 -0.40543
vt -0.38922 -0.40543
vt -0.38922 -0.40543
vt -0.38832 -0.40543
vt -0.38500 -0.35849
vt -0.38063 -0.35849
vt -0.37944 -0.35849
vt -0.37944 -0.35849
vt -0.38063 -0.35849
vt -0.38500 -0.35849
vt -0.38937 -0.35849
vt -0.39056 -0.35849
vt -0.39056 -0.35849
vt -0.38937 -0.35849
vt -0.38500 -0.21000
vt -0.38030 -0.21000
vt -0.37903 -0.21000
vt -0.37903 -0.21000
vt -0.38030 -0.21000
vt -0.38500 -0.21000
vt -0.38970 -0.21000
vt -0.39097 -0.21000
vt -0.39097 -0.21000
vt -0.38970 -0.21000
vt -0.38500 -0.06151
vt -0.38063 -0.06151
vt -0.37944 -0.06151
vt -0.37944 -0.06151
vt -0.38063 -0.06151
vt -0.38500 -0.06151
vt -0.38937 -0.06151
vt -0.39056 -0.06151
vt -0.39056 -0.06151
vt -0.38937 -0.06151
vt -0.38500 -0.01457
vt -0.38168 -0.01457
vt -0.38078 -0.01457
vt -0.38078 -0.01457
vt -0.38168 -0.01457
vt -0.38500 -0.01457
vt -0.38832 -0.01457
vt -0.38922 -0.01457
vt -0.38922 -0.01457
vt -0.38832 -0.01457
vt -0.38500 0.00000
vt -0.38500 0.00000
vt -0.38500 0.00000
vt -0.38500 0.00000
vt -0.38500 0.00000
vt -0.38500 0.00000
vt -0.38500 0.00000
vt -0.38500 0.00000
vt -0.38500 0.00000
vt -0.38500 0.00000
vt -0.12600 -0.42000
vt -0.12600 -0.42000
vt -0.12600 -0.42000
vt -0.12600 -0.42000
vt -0.12600 -0.42000
vt -0.12600 -0.42000
vt -0.12600 -0.42000
vt -0.12600 -0.42000
vt -0.12600 -0.42000
vt -0.12600 -0.42000
vt -0.12600 -0.40543
vt -0.12268 -0.40543
vt -0.12178 -0.40543
vt -0.12178 -0.40543
vt -0.12268 -0.40543
vt -0.12600 -0.40543
vt -0.12932 -0.40543
vt -0.13022 -0.40543
vt -0.13022 -0.40543
vt -0.12932 -0.40543
vt -0.12600 -0.35849
vt -0.12163 -0.35849
vt -0.12044 -0.35849
vt -0.12044 -0.35849
vt -0.12163 -0.35849
vt -0.12600 -0.35849
vt -0.13037 -0.35849
vt -0.13156 -0.35849
vt -0.13156 -0.35849
vt -0.13037 -0.35849
vt -0.12600 -0.21000
vt -0.12130 -0.21000
vt -0.12003 -0.21000
vt -0.12003 -0.21000
vt -0.12130 -0.21000
vt -0.12600 -0.21000
vt -0.13070 -0.21000
vt -0.13197 -0.21000
vt -0.13197 -0.21000
vt -0.13070 -0.21000
vt -0.12600 -0.06151
vt -0.12163 -0.06151
vt -0.12044 -0.06151
vt -0.12044 -0.06151
vt -0.12163 -0.06151
vt -0.12600 -0.06151
vt -0.13037 -0.06151
vt -0.13156 -0.06151
vt -0.13156 -0.06151
vt -0.13037 -0.06151
vt -0.12600 -0.01457
vt -0.12268 -0.01457
vt -0.12178 -0.01457
vt -0.12178 -0.01457
vt -0.12268 -0.01457
vt -0.12600 -0.01457
vt -0.12932 -0.01457
vt -0.13022 -0.01457
vt -0.13022 -0.01457
vt -0.12932 -0.01457
vt -0.12600 0.00000
vt -0.12600 0.00000
vt -0.12600 0.00000
vt -0.12600 0.00000
vt -0.12600 0.00000
vt -0.12600 0.00000
vt -0.12600 0.00000
vt -0.12600 0.00000
vt -0.12600 0.00000
vt -0.12600 0.00000
vt 0.12600 -0.42000
vt 0.12600 -0.42000
vt 0.12600 -0.42000
vt 0.12600 -0.42000
vt 0.12600 -0.42000
vt 0.12600 -0.42000
vt 0.12600 -0.42000
vt 0.12600 -0.42000
vt 0.12600 -0.42000
vt 0.12600 -0.42000
vt 0.12600 -0.40543
vt 0.12932 -0.40543
vt 0.13022 -0.40543
vt 0.13022 -0.40543
vt 0.12932 -0.40543
vt 0.12600 -0.40543
vt 0.12268 -0.40543
vt 0.12178 -0.40543
vt 0.12178 -0.40543
vt 0.12268 -0.40543
vt 0.12600 -0.35849
vt 0.13037 -0.35849
vt 0.13156 -0.35849
vt 0.13156 -0.35849
vt 0.13037 -0.35849
vt 0.12600 -0.35849
vt 0.12163 -0.35849
vt 0.12044 -0.35849
vt 0.12044 -0.35849
vt 0.12163 -0.35849
vt 0.12600 -0.21000
vt 0.13070 -0.21000
vt 0.13197 -0.21000
vt 0.13197 -0.21000
vt 0.13070 -0.21000
vt 0.12600 -0.21000
vt 0.12130 -0.21000
vt 0.12003 -0.21000
vt 0.12003 -0.21000
vt 0.12130 -0.21000
vt 0.12600 -0.06151
vt 0.13037 -0.06151
vt 0.13156 -0.06151
vt 0.13156 -0.06151
vt 0.13037 -0.06151
vt 0.12600 -0.06151
vt 0.12163 -0.06151
vt 0.12044 -0.06151
vt 0.12044 -0.06151
vt 0.12163 -0.06151
vt 0.12600 -0.01457
vt 0.12932 -0.01457
vt 0.13022 -0.01457
vt 0.13022 -0.01457
vt 0.12932 -0.01457
vt 0.12600 -0.01457
vt 0.12268 -0.01457
vt 0.12178 -0.01457
vt 0.12178 -0.01457
vt 0.12268 -0.01457
vt 0.12600 0.00000
vt 0.12600 0.00000
vt 0.12600 0.00000
vt 0.12600 0.00000
vt 0.12600 0.00000
vt 0.12600 0.00000
vt 0.12600 0.00000
vt 0.12600 0.00000
vt 0.12600 0.00000
vt 0.12600 0.00000
vt 0.38500 -0.42000
vt 0.38500 -0.42000
vt 0.38500 -0.42000
vt 0.38500 -0.42000
vt 0.38500 -0.42000
vt 0.38500 -0.42000
vt 0.38500 -0.42000
vt 0.38500 -0.42000
vt 0.38500 -0.42000
vt 0.38500 -0.42000
vt 0.38500 -0.40543
vt 0.38832 -0.40543
vt 0.38922 -0.40543
vt 0.38922 -0.40543
vt 0.38832 -0.40543
vt 0.38500 -0.40543
vt 0.38168 -0.40543
vt 0.38078 -0.40543
vt 0.38078 -0.40543
vt 0.38168 -0.40543
vt 0.38500 -0.35849
vt 0.38937 -0.35849
vt 0.39056 -0.35849
vt 0.39056 -0.35849
vt 0.38937 -0.35849
vt 0.38500 -0.35849
vt 0.38063 -0.35849
vt 0.37944 -0.35849
vt 0.37944 -0.35849
vt 0.38063 -0.35849
vt 0.38500 -0.21000
vt 0.38970 -0.21000
vt 0.39097 -0.21000
vt 0.39097 -0.21000
vt 0.38970 -0.21000
vt 0.38500 -0.21000
vt 0.38030 -0.21000
vt 0.37903 -0.21000
vt 0.37903 -0.21000
vt 0.38030 -0.21000
vt 0.38500 -0.06151
vt 0.38937 -0.06151
vt 0.39056 -0.06151
vt 0.39056 -0.06151
vt 0.38937 -0.06151
vt 0.38500 -0.06151
vt 0.38063 -0.06151
vt 0.37944 -0.06151
vt 0.37944 -0.06151
vt 0.38063 -0.06151
vt 0.38500 -0.01457
vt 0.38832 -0.01457
vt 0.38922 -0.01457
vt 0.38922 -0.01457
vt 0.38832 -0.01457
vt 0.38500 -0.01457
vt 0.38168 -0.01457
vt 0.38078 -0.01457
vt 0.38078 -0.01457
vt 0.38168 -0.01457
vt 0.38500 0.00000
vt 0.38500 0.00000
vt 0.38500 0.00000
vt 0.38500 0.00000
vt 0.38500 0.00000
vt 0.38500 0.00000
vt 0.38500 0.00000
vt 0.38500 0.00000
vt 0.38500 0.00000
vt 0.38500 0.00000
f 11/11 12/12 2/2 1/1
f 12/12 13/13 3/3 2/2
f 13/13 14/14 4/4 3/3
f 14/14 15/15 5/5 4/4
f 15/15 16/16 6/6 5/5
f 16/16 17/17 7/7 6/6
f 17/17 18/18 8/8 7/7
f 18/18 19/19 9/9 8/8
f 19/19 20/20 10/10 9/9
f 20/20 11/11 1/1 10/10
f 21/21 22/22 12/12 11/11
f 22/22 23/23 13/13 12/12
f 23/23 24/24 14/14 13/13
f 24/24 25/25 15/15 14/14
f 25/25 26/26 16/16 15/15
f 26/26 27/27 17/17 16/16
f 27/27 28/28 18/18 17/17
f 28/28 29/29 19/19 18/18
f 29/29 30/30 20/20 19/19
f 30/30 21/21 11/11 20/20
f 31/31 32/32 22/22 21/21
f 32/32 33/33 23/23 22/22
f 33/33 34/34 24/24 23/23
f 34/34 35/35 25/25 24/24
f 35/35 36/36 26/26 25/25
f 36/36 37/37 27/27 26/26
f 37/37 38/38 28/28 27/27
f 38/38 39/39 29/29 28/28
f 39/39 40/40 30/30 29/29
f 40/40 31/31 21/21 30/30
f 41/41 42/42 32/32 31/31
f 42/42 43/43 33/33 32/32
f 43/43 44/44 34/34 33/33
f 44/44 45/45 35/35 34/34
f 45/45 46/46 36/36 35/35
f 46/46 47/47 37/37 36/36
f 47/47 48/48 38/38 37/37
f 48/48 49/49 39/39 38/38
f 49/49 50/50 40/40 39/39
f 50/50 41/41 31/31 40/40
f 51/51 52/52 42/42 41/41
f 52/52 53/53 43/43 42/42
f 53/53 54/54 44/44 43/43
f 54/54 55/55 45/45 44/44
f 55/55 56/56 46/46 45/45
f 56/56 57/57 47/47 46/46
f 57/57 58/58 48/48 47/47
f 58/58 59/59 49/49 48/48
f 59/59 60/60 50/50 49/49
f 60/60 51/51 41/41 50/50
f 61/61 62/62 52/52 51/51
f 62/62 63/63 53/53 52/52
f 63/63 64/64 54/54 53/53
f 64/64 65/65 55/55 54/54
f 65/65 66/66 56/56 55/55
f 66/66 67/67 57/57 56/56
f 67/67 68/68 58/58 57/57
f 68/68 69/69 59/59 58/58
f 69/69 70/70 60/60 59/59
f 70/70 61/61 51/51 60/60
f 95/95 96/96 72/72 71/71
f 96/96 97/97 73/73 72/72
f 97/97 98/98 74/74 73/73
f 98/98 99/99 75/75 74/74
f 99/99 100/100 76/76 75/75
f 100/100 101/101 77/77 76/76
f 101/101 102/102 78/78 77/77
f 102/102 103/103 79/79 78/78
f 103/103 104/104 80/80 79/79
f 104/104 105/105 81/81 80/80
f 105/105 106/106 82/82 81/81
f 106/106 107/107 83/83 82/82
f 107/107 108/108 84/84 83/83
f 108/108 109/109 85/85 84/84
f 109/109 110/110 86/86 85/85
f 110/110 111/111 87/87 86/86
f 111/111 112/112 88/88 87/87
f 112/112 113/113 89/89 88/88
f 113/113 114/114 90/90 89/89
f 114/114 115/115 91/91 90/90
f 115/115 116/116 92/92 91/91
f 116/116 117/117 93/93 92/92
f 117/117 118/118 94/94 93/93
f 118/118 95/95 71/71 94/94
f 119/119 120/120 96/96 95/95
f 120/120 121/121 97/97 96/96
f 121/121 122/122 98/98 97/97
f 122/122 123/123 99/99 98/98
f 123/123 124/124 100/100 99/99
f 124/124 125/125 101/101 100/100
f 125/125 126/126 102/102 101/101
f 126/126 127/127 103/103 102/102
f 127/127 128/128 104/104 103/103
f 128/128 129/129 105/105 104/104
f 129/129 130/130 106/106 105/105
f 130/130 131/131 107/107 106/106
f 131/131 132/132 108/108 107/107
f 132/132 133/133 109/109 108/108
f 133/133 134/134 110/110 109/109
f 134/134 135/135 111/111 110/110
f 135/135 136/136 112/112 111/111
f 136/136 137/137 113/113 112/112
f 137/137 138/138 114/114 113/113
f 138/138 139/139 115/115 114/114
f 139/139 140/140 116/116 115/115
f 140/140 141/141 117/117 116/116
f 141/141 142/142 118/118 117/117
f 142/142 119/119 95/95 118/118
f 143/143 144/144 120/120 119/119
f 144/144 145/145 121/121 120/120
f 145/145 146/146 122/122 121/121
f 146/146 147/147 123/123 122/122
f 147/147 148/148 124/124 123/123
f 148/148 149/149 125/125 124/124
f 149/149 150/150 126/126 125/125
f 150/150 151/151 127/127 126/126
f 151/151 152/152 128/128 127/127
f 152/152 153/153 129/129 128/128
f 153/153 154/154 130/130 129/129
f 154/154 155/155 131/131 130/130
f 155/155 156/156 132/132 131/131
f 156/156 157/157 133/133 132/132
f 157/157 158/158 134/134 133/133
f 158/158 159/159 135/135 134/134
f 159/159 160/160 136/136 135/135
f 160/160 161/161 137/137 136/136
f 161/161 162/162 138/138 137/137
f 162/162 163/163 139/139 138/138
f 163/163 164/164 140/140 139/139
f 164/164 165/165 141/141 140/140
f 165/165 166/166 142/142 141/141
f 166/166 143/143 119/119 142/142
f 167/167 168/168 144/144 143/143
f 168/168 169/169 145/145 144/144
f 169/169 170/170 146/146 145/145
f 170/170 171/171 147/147 146/146
f 171/171 172/172 148/148 147/147
f 172/172 173/173 149/149 148/148
f 173/173 174/174 150/150 149/149
f 174/174 175/175 151/151 150/150
f 175/175 176/176 152/152 151/151
f 176/176 177/177 153/153 152/152
f 177/177 178/178 154/154 153/153
f 178/178 179/179 155/155 154/154
f 179/179 180/180 156/156 155/155
f 180/180 181/181 157/157 156/156
f 181/181 182/182 158/158 157/157
f 182/182 183/183 159/159 158/158
f 183/183 184/184 160/160 159/159
f 184/184 185/185 161/161 160/160
f 185/185 186/186 162/162 161/161
f 186/186 187/187 163/163 162/162
f 187/187 188/188 164/164 163/163
f 188/188 189/189 165/165 164/164
f 189/189 190/190 166/166 165/165
f 190/190 167/167 143/143 166/166
f 191/191 192/192 168/168 167/167
f 192/192 193/193 169/169 168/168
f 193/193 194/194 170/170 169/169
f 194/194 195/195 171/171 170/170
f 195/195 196/196 172/172 171/171
f 196/196 197/197 173/173 172/172
f 197/197 198/198 174/174 173/173
f 198/198 199/199 175/175 174/174
f 199/199 200/200 176/176 175/175
f 200/200 201/201 177/177 176/176
f 201/201 202/202 178/178 177/177
f 202/202 203/203 179/179 178/178
f 203/203 204/204 180/180 179/179
f 204/204 205/205 181/181 180/180
f 205/205 206/206 182/182 181/181
f 206/206 207/207 183/183 182/182
f 207/207 208/208 184/184 183/183
f 208/208 209/209 185/185 184/184
f 209/209 210/210 186/186 185/185
f 210/210 211/211 187/187 186/186
f 211/211 212/212 188/188 187/187
f 212/212 213/213 189/189 188/188
f 213/213 214/214 190/190 189/189
f 214/214 191/191 167/167 190/190
f 215/215 216/216 192/192 191/191
f 216/216 217/217 193/193 192/192
f 217/217 218/218 194/194 193/193
f 218/218 219/219 195/195 194/194
f 219/219 220/220 196/196 195/195
f 220/220 221/221 197/197 196/196
f 221/221 222/222 198/198 197/197
f 222/222 223/223 199/199 198/198
f 223/223 224/224 200/200 199/199
f 224/224 225/225 201/201 200/200
f 225/225 226/226 202/202 201/201
f 226/226 227/227 203/203 202/202
f 227/227 228/228 204/204 203/203
f 228/228 229/229 205/205 204/204
f 229/229 230/230 206/206 205/205
f 230/230 231/231 207/207 206/206
f 231/231 232/232 208/208 207/207
f 232/232 233/233 209/209 208/208
f 233/233 234/234 210/210 209/209
f 234/234 235/235 211/211 210/210
f 235/235 236/236 212/212 211/211
f 236/236 237/237 213/213 212/212
f 237/237 238/238 214/214 213/213
f 238/238 215/215 191/191 214/214
f 239/239 240/240 216/216 215/215
f 240/240 241/241 217/217 216/216
f 241/241 242/242 218/218 217/217
f 242/242 243/243 219/219 218/218
f 243/243 244/244 220/220 219/219
f 244/244 245/245 221/221 220/220
f 245/245 246/246 222/222 221/221
f 246/246 247/247 223/223 222/222
f 247/247 248/248 224/224 223/223
f 248/248 249/249 225/225 224/224
f 249/249 250/250 226/226 225/225
f 250/250 251/251 227/227 226/226
f 251/251 252/252 228/228 227/227
f 252/252 253/253 229/229 228/228
f 253/253 254/254 230/230 229/229
f 254/254 255/255 231/231 230/230
f 255/255 256/256 232/232 231/231
f 256/256 257/257 233/233 232/232
f 257/257 258/258 234/234 233/233
f 258/258 259/259 235/235 234/234
f 259/259 260/260 236/236 235/235
f 260/260 261/261 237/237 236/236
f 261/261 262/262 238/238 237/237
f 262/262 239/239 215/215 238/238
f 263/263 264/264 240/240 239/239
f 264/264 265/265 241/241 240/240
f 265/265 266/266 242/242 241/241
f 266/266 267/267 243/243 242/242
f 267/267 268/268 244/244 243/243
f 268/268 269/269 245/245 244/244
f 269/269 270/270 246/246 245/245
f 270/270 271/271 247/247 246/246
f 271/271 272/272 248/248 247/247
f 272/272 273/273 249/249 248/248
f 273/273 274/274 250/250 249/249
f 274/274 275/275 251/251 250/250
f 275/275 276/276 252/252 251/251
f 276/276 277/277 253/253 252/252
f 277/277 278/278 254/254 253/253
f 278/278 279/279 255/255 254/254
f 279/279 280/280 256/256 255/255
f 280/280 281/281 257/257 256/256
f 281/281 282/282 258/258 257/257
f 282/282 283/283 259/259 258/258
f 283/283 284/284 260/260 259/259
f 284/284 285/285 261/261 260/260
f 285/285 286/286 262/262 261/261
f 286/286 263/263 239/239 262/262
f 287/287 288/288 264/264 263/263
f 288/288 289/289 265/265 264/264
f 289/289 290/290 266/266 265/265
f 290/290 291/291 267/267 266/266
f 291/291 292/292 268/268 267/267
f 292/292 293/293 269/269 268/268
f 293/293 294/294 270/270 269/269
f 294/294 295/295 271/271 270/270
f 295/295 296/296 272/272 271/271
f 296/296 297/297 273/273 272/272
f 297/297 298/298 274/274 273/273
f 298/298 299/299 275/275 274/274
f 299/299 300/300 276/276 275/275
f 300/300 301/301 277/277 276/276
f 301/301 302/302 278/278 277/277
f 302/302 303/303 279/279 278/278
f 303/303 304/304 280/280 279/279
f 304/304 305/305 281/281 280/280
f 305/305 306/306 282/282 281/281
f 306/306 307/307 283/283 282/282
f 307/307 308/308 284/284 283/283
f 308/308 309/309 285/285 284/284
f 309/309 310/310 286/286 285/285
f 310/310 287/287 263/263 286/286
f 311/311 312/312 288/288 287/287
f 312/312 313/313 289/289 288/288
f 313/313 314/314 290/290 289/289
f 314/314 315/315 291/291 290/290
f 315/315 316/316 292/292 291/291
f 316/316 317/317 293/293 292/292
f 317/317 318/318 294/294 293/293
f 318/318 319/319 295/295 294/294
f 319/319 320/320 296/296 295/295
f 320/320 321/321 297/297 296/296
f 321/321 322/322 298/298 297/297
f 322/322 323/323 299/299 298/298
f 323/323 324/324 300/300 299/299
f 324/324 325/325 301/301 300/300
f 325/325 326/326 302/302 301/301
f 326/326 327/327 303/303 302/302
f 327/327 328/328 304/304 303/303
f 328/328 329/329 305/305 304/304
f 329/329 330/330 306/306 305/305
f 330/330 331/331 307/307 306/306
f 331/331 332/332 308/308 307/307
f 332/332 333/333 309/309 308/308
f 333/333 334/334 310/310 309/309
f 334/334 311/311 287/287 310/310
f 335/335 336/336 312/312 311/311
f 336/336 337/337 313/313 312/312
f 337/337 338/338 314/314 313/313
f 338/338 339/339 315/315 314/314
f 339/339 340/340 316/316 315/315
f 340/340 341/341 317/317 316/316
f 341/341 342/342 318/318 317/317
f 342/342 343/343 319/319 318/318
f 343/343 344/344 320/320 319/319
f 344/344 345/345 321/321 320/320
f 345/345 346/346 322/322 321/321
f 346/346 347/347 323/323 322/322
f 347/347 348/348 324/324 323/323
f 348/348 349/349 325/325 324/324
f 349/349 350/350 326/326 325/325
f 350/350 351/351 327/327 326/326
f 351/351 352/352 328/328 327/327
f 352/352 353/353 329/329 328/328
f 353/353 354/354 330/330 329/329
f 354/354 355/355 331/331 330/330
f 355/355 356/356 332/332 331/331
f 356/356 357/357 333/333 332/332
f 357/357 358/358 334/334 333/333
f 358/358 335/335 311/311 334/334
f 359/359 360/360 336/336 335/335
f 360/360 361/361 337/337 336/336
f 361/361 362/362 338/338 337/337
f 362/362 363/363 339/339 338/338
f 363/363 364/364 340/340 339/339
f 364/364 365/365 341/341 340/340
f 365/365 366/366 342/342 341/341
f 366/366 367/367 343/343 342/342
f 367/367 368/368 344/344 343/343
f 368/368 369/369 345/345 344/344
f 369/369 370/370 346/346 345/345
f 370/370 371/371 347/347 346/346
f 371/371 372/372 348/348 347/347
f 372/372 373/373 349/349 348/348
f 373/373 374/374 350/350 349/349
f 374/374 375/375 351/351 350/350
f 375/375 376/376 352/352 351/351
f 376/376 377/377 353/353 352/352
f 377/377 378/378 354/354 353/353
f 378/378 379/379 355/355 354/354
f 379/379 380/380 356/356 355/355
f 380/380 381/381 357/357 356/356
f 381/381 382/382 358/358 357/357
f 382/382 359/359 335/335 358/358
f 393/393 394/394 384/384 383/383
f 394/394 395/395 385/385 384/384
f 395/395 396/396 386/386 385/385
f 396/396 397/397 387/387 386/386
f 397/397 398/398 388/388 387/387
f 398/398 399/399 389/389 388/388
f 399/399 400/400 390/390 389/389
f 400/400 401/401 391/391 390/390
f 401/401 402/402 392/392 391/391
f 402/402 393/393 383/383 392/392
f 403/403 404/404 394/394 393/393
f 404/404 405/405 395/395 394/394
f 405/405 406/406 396/396 395/395
f 406/406 407/407 397/397 396/396
f 407/407 408/408 398/398 397/397
f 408/408 409/409 399/399 398/398
f 409/409 410/410 400/400 399/399
f 410/410 411/411 401/401 400/400
f 411/411 412/412 402/402 401/401
f 412/412 403/403 393/393 402/402
f 413/413 414/414 404/404 403/403
f 414/414 415/415 405/405 404/404
f 415/415 416/416 406/406 405/405
f 416/416 417/417 407/407 406/406
f 417/417 418/418 408/408 407/407
f 418/418 419/419 409/409 408/408
f 419/419 420/420 410/410 409/409
f 420/420 421/421 411/411 410/410
f 421/421 422/422 412/412 411/411
f 422/422 413/413 403/403 412/412
f 423/423 424/424 414/414 413/413
f 424/424 425/425 415/415 414/414
f 425/425 426/426 416/416 415/415
f 426/426 427/427 417/417 416/416
f 427/427 428/428 418/418 417/417
f 428/428 429/429 419/419 418/418
f 429/429 430/430 420/420 419/419
f 430/430 431/431 421/421 420/420
f 431/431 432/432 422/422 421/421
f 432/432 423/423 413/413 422/422
f 433/433 434/434 424/424 423/423
f 434/434 435/435 425/425 424/424
f 435/435 436/436 426/426 425/425
f 436/436 437/437 427/427 426/426
f 437/437 438/438 428/428 427/427
f 438/438 439/439 429/429 428/428
f 439/439 440/440 430/430 429/429
f 440/440 441/441 431/431 430/430
f 441/441 442/442 432/432 431/431
f 442/442 433/433 423/423 432/432
f 443/443 444/444 434/434 433/433
f 444/444 445/445 435/435 434/434
f 445/445 446/446 436/436 435/435
f 446/446 447/447 437/437 436/436
f 447/447 448/448 438/438 437/437
f 448/448 449/449 439/439 438/438
f 449/449 450/450 440/440 439/439
f 450/450 451/451 441/441 440/440
f 451/451 452/452 442/442 441/441
f 452/452 443/443 433/433 442/442
f 477/477 478/478 454/454 453/453
f 478/478 479/479 455/455 454/454
f 479/479 480/480 456/456 455/455
f 480/480 481/481 457/457 456/456
f 481/481 482/482 458/458 457/457
f 482/482 483/483 459/459 458/458
f 483/483 484/484 460/460 459/459
f 484/484 485/485 461/461 460/460
f 485/485 486/486 462/462 461/461
f 486/486 487/487 463/463 462/462
f 487/487 488/488 464/464 463/463
f 488/488 489/489 465/465 464/464
f 489/489 490/490 466/466 465/465
f 490/490 491/491 467/467 466/466
f 491/491 492/492 468/468 467/467
f 492/492 493/493 469/469 468/468
f 493/493 494/494 470/470 469/469
f 494/494 495/495 471/471 470/470
f 495/495 496/496 472/472 471/471
f 496/496 497/497 473/473 472/472
f 497/497 498/498 474/474 473/473
f 498/498 499/499 475/475 474/474
f 499/499 500/500 476/476 475/475
f 500/500 477/477 453/453 476/476
f 501/501 502/502 478/478 477/477
f 502/502 503/503 479/479 478/478
f 503/503 504/504 480/480 479/479
f 504/504 505/505 481/481 480/480
f 505/505 506/506 482/482 481/481
f 506/506 507/507 483/483 482/482
f 507/507 508/508 484/484 483/483
f 508/508 509/509 485/485 484/484
f 509/509 510/510 486/486 485/485
f 510/510 511/511 487/487 486/486
f 511/511 512/512 488/488 487/487
f 512/512 513/513 489/489 488/488
f 513/513 514/514 490/490 489/489
f 514/514 515/515 491/491 490/490
f 515/515 516/516 492/492 491/491
f 516/516 517/517 493/493 492/492
f 517/517 518/518 494/494 493/493
f 518/518 519/519 495/495 494/494
f 519/519 520/520 496/496 495/495
f 520/520 521/521 497/497 496/496
f 521/521 522/522 498/498 497/497
f 522/522 523/523 499/499 498/498
f 523/523 524/524 500/500 499/499
f 524/524 501/501 477/477 500/500
f 525/525 526/526 502/502 501/501
f 526/526 527/527 503/503 502/502
f 527/527 528/528 504/504 503/503
f 528/528 529/529 505/505 504/504
f 529/529 530/530 506/506 505/505
f 530/530 531/531 507/507 506/506
f 531/531 532/532 508/508 507/507
f 532/532 533/533 509/509 508/508
f 533/533 534/534 510/510 509/509
f 534/534 535/535 511/511 510/510
f 535/535 536/536 512/512 511/511
f 536/536 537/537 513/513 512/512
f 537/537 538/538 514/514 513/513
f 538/538 539/539 515/515 514/514
f 539/539 540/540 516/516 515/515
f 540/540 541/541 517/517 516/516
f 541/541 542/542 518/518 517/517
f 542/542 543/543 519/519 518/518
f 543/543 544/544 520/520 519/519
f 544/544 545/545 521/521 520/520
f 545/545 546/546 522/522 521/521
f 546/546 547/547 523/523 522/522
f 547/547 548/548 524/524 523/523
f 548/548 525/525 501/501 524/524
f 549/549 550/550 526/526 525/525
f 550/550 551/551 527/527 526/526
f 551/551 552/552 528/528 527/527
f 552/552 553/553 529/529 528/528
f 553/553 554/554 530/530 529/529
f 554/554 555/555 531/531 530/530
f 555/555 556/556 532/532 531/531
f 556/556 557/557 533/533 532/532
f 557/557 558/558 534/534 533/533
f 558/558 559/559 535/535 534/534
f 559/559 560/560 536/536 535/535
f 560/560 561/561 537/537 536/536
f 561/561 562/562 538/538 537/537
f 562/562 563/563 539/539 538/538
f 563/563 564/564 540/540 539/539
f 564/564 565/565 541/541 540/540
f 565/565 566/566 542/542 541/541
f 566/566 567/567 543/543 542/542
f 567/567 568/568 544/544 543/543
f 568/568 569/569 545/545 544/544
f 569/569 570/570 546/546 545/545
f 570/570 571/571 547/547 546/546
f 571/571 572/572 548/548 547/547
f 572/572 549/549 525/525 548/548
f 573/573 574/574 550/550 549/549
f 574/574 575/575 551/551 550/550
f 575/575 576/576 552/552 551/551
f 576/576 577/577 553/553 552/552
f 577/577 578/578 554/554 553/553
f 578/578 579/579 555/555 554/554
f 579/579 580/580 556/556 555/555
f 580/580 581/581 557/557 556/556
f 581/581 582/582 558/558 557/557
f 582/582 583/583 559/559 558/558
f 583/583 584/584 560/560 559/559
f 584/584 585/585 561/561 560/560
f 585/585 586/586 562/562 561/561
f 586/586 587/587 563/563 562/562
f 587/587 588/588 564/564 563/563
f 588/588 589/589 565/565 564/564
f 589/589 590/590 566/566 565/565
f 590/590 591/591 567/567 566/566
f 591/591 592/592 568/568 567/567
f 592/592 593/593 569/569 568/568
f 593/593 594/594 570/570 569/569
f 594/594 595/595 571/571 570/570
f 595/595 596/596 572/572 571/571
f 596/596 573/573 549/549 572/572
f 597/597 598/598 574/574 573/573
f 598/598 599/599 575/575 574/574
f 599/599 600/600 576/576 575/575
f 600/600 601/601 577/577 576/576
f 601/601 602/602 578/578 577/577
f 602/602 603/603 579/579 578/578
f 603/603 604/604 580/580 579/579
f 604/604 605/605 581/581 580/580
f 605/605 606/606 582/582 581/581
f 606/606 607/607 583/583 582/582
f 607/607 608/608 584/584 583/583
f 608/608 609/609 585/585 584/584
f 609/609 610/610 586/586 585/585
f 610/610 611/611 587/587 586/586
f 611/611 612/612 588/588 587/587
f 612/612 613/613 589/589 588/588
f 613/613 614/614 590/590 589/589
f 614/614 615/615 591/591 590/590
f 615/615 616/616 592/592 591/591
f 616/616 617/617 593/593 592/592
f 617/617 618/618 594/594 593/593
f 618/618 619/619 595/595 594/594
f 619/619 620/620 596/596 595/595
f 620/620 597/597 573/573 596/596
f 621/621 622/622 598/598 597/597
f 622/622 623/623 599/599 598/598
f 623/623 624/624 600/600 599/599
f 624/624 625/625 601/601 600/600
f 625/625 626/626 602/602 601/601
f 626/626 627/627 603/603 602/602
f 627/627 628/628 604/604 603/603
f 628/628 629/629 605/605 604/604
f 629/629 630/630 606/606 605/605
f 630/630 631/631 607/607 606/606
f 631/631 632/632 608/608 607/607
f 632/632 633/633 609/609 608/608
f 633/633 634/634 610/610 609/609
f 634/634 635/635 611/611 610/610
f 635/635 636/636 612/612 611/611
f 636/636 637/637 613/613 612/612
f 637/637 638/638 614/614 613/613
f 638/638 639/639 615/615 614/614
f 639/639 640/640 616/616 615/615
f 640/640 641/641 617/617 616/616
f 641/641 642/642 618/618 617/617
f 642/642 643/643 619/619 618/618
f 643/643 644/644 620/620 619/619
f 644/644 621/621 597/597 620/620
f 645/645 646/646 622/622 621/621
f 646/646 647/647 623/623 622/622
f 647/647 648/648 624/624 623/623
f 648/648 649/649 625/625 624/624
f 649/649 650/650 626/626 625/625
f 650/650 651/651 627/627 626/626
f 651/651 652/652 628/628 627/627
f 652/652 653/653 629/629 628/628
f 653/653 654/654 630/630 629/629
f 654/654 655/655 631/631 630/630
f 655/655 656/656 632/632 631/631
f 656/656 657/657 633/633 632/632
f 657/657 658/658 634/634 633/633
f 658/658 659/659 635/635 634/634
f 659/659 660/660 636/636 635/635
f 660/660 661/661 637/637 636/636
f 661/661 662/662 638/638 637/637
f 662/662 663/663 639/639 638/638
f 663/663 664/664 640/640 639/639
f 664/664 665/665 641/641 640/640
f 665/665 666/666 642/642 641/641
f 666/666 667/667 643/643 642/642
f 667/667 668/668 644/644 643/643
f 668/668 645/645 621/621 644/644
f 669/669 670/670 646/646 645/645
f 670/670 671/671 647/647 646/646
f 671/671 672/672 648/648 647/647
f 672/672 673/673 649/649 648/648
f 673/673 674/674 650/650 649/649
f 674/674 675/675 651/651 650/650
f 675/675 676/676 652/652 651/651
f 676/676 677/677 653/653 652/652
f 677/677 678/678 654/654 653/653
f 678/678 679/679 655/655 654/654
f 679/679 680/680 656/656 655/655
f 680/680 681/681 657/657 656/656
f 681/681 682/682 658/658 657/657
f 682/682 683/683 659/659 658/658
f 683/683 684/684 660/660 659/659
f 684/684 685/685 661/661 660/660
f 685/685 686/686 662/662 661/661
f 686/686 687/687 663/663 662/662
f 687/687 688/688 664/664 663/663
f 688/688 689/689 665/665 664/664
f 689/689 690/690 666/666 665/665
f 690/690 691/691 667/667 666/666
f 691/691 692/692 668/668 667/667
f 692/692 669/669 645/645 668/668
f 693/693 694/694 670/670 669/669
f 694/694 695/695 671/671 670/670
f 695/695 696/696 672/672 671/671
f 696/696 697/697 673/673 672/672
f 697/697 698/698 674/674 673/673
f 698/698 699/699 675/675 674/674
f 699/699 700/700 676/676 675/675
f 700/700 701/701 677/677 676/676
f 701/701 702/702 678/678 677/677
f 702/702 703/703 679/679 678/678
f 703/703 704/704 680/680 679/679
f 704/704 705/705 681/681 680/680
f 705/705 706/706 682/682 681/681
f 706/706 707/707 683/683 682/682
f 707/707 708/708 684/684 683/683
f 708/708 709/709 685/685 684/684
f 709/709 710/710 686/686 685/685
f 710/710 711/711 687/687 686/686
f 711/711 712/712 688/688 687/687
f 712/712 713/713 689/689 688/688
f 713/713 714/714 690/690 689/689
f 714/714 715/715 691/691 690/690
f 715/715 716/716 692/692 691/691
f 716/716 693/693 669/669 692/692
f 717/717 718/718 694/694 693/693
f 718/718 719/719 695/695 694/694
f 719/719 720/720 696/696 695/695
f 720/720 721/721 697/697 696/696
f 721/721 722/722 698/698 697/697
f 722/722 723/723 699/699 698/698
f 723/723 724/724 700/700 699/699
f 724/724 725/725 701/701 700/700
f 725/725 726/726 702/702 701/701
f 726/726 727/727 703/703 702/702
f 727/727 728/728 704/704 703/703
f 728/728 729/729 705/705 704/704
f 729/729 730/730 706/706 705/705
f 730/730 731/731 707/707 706/706
f 731/731 732/732 708/708 707/707
f 732/732 733/733 709/709 708/708
f 733/733 734/734 710/710 709/709
f 734/734 735/735 711/711 710/710
f 735/735 736/736 712/712 711/711
f 736/736 737/737 713/713 712/712
f 737/737 738/738 714/714 713/713
f 738/738 739/739 715/715 714/714
f 739/739 740/740 716/716 715/715
f 740/740 717/717 693/693 716/716
f 741/741 742/742 718/718 717/717
f 742/742 743/743 719/719 718/718
f 743/743 744/744 720/720 719/719
f 744/744 745/745 721/721 720/720
f 745/745 746/746 722/722 721/721
f 746/746 747/747 723/723 722/722
f 747/747 748/748 724/724 723/723
f 748/748 749/749 725/725 724/724
f 749/749 750/750 726/726 725/725
f 750/750 751/751 727/727 726/726
f 751/751 752/752 728/728 727/727
f 752/752 753/753 729/729 728/728
f 753/753 754/754 730/730 729/729
f 754/754 755/755 731/731 730/730
f 755/755 756/756 732/732 731/731
f 756/756 757/757 733/733 732/732
f 757/757 758/758 734/734 733/733
f 758/758 759/759 735/735 734/734
f 759/759 760/760 736/736 735/735
f 760/760 761/761 737/737 736/736
f 761/761 762/762 738/738 737/737
f 762/762 763/763 739/739 738/738
f 763/763 764/764 740/740 739/739
f 764/764 741/741 717/717 740/740
f 775/775 776/776 766/766 765/765
f 776/776 777/777 767/767 766/766
f 777/777 778/778 768/768 767/767
f 778/778 779/779 769/769 768/768
f 779/779 780/780 770/770 769/769
f 780/780 781/781 771/771 770/770
f 781/781 782/782 772/772 771/771
f 782/782 783/783 773/773 772/772
f 783/783 784/784 774/774 773/773
f 784/784 775/775 765/765 774/774
f 785/785 786/786 776/776 775/775
f 786/786 787/787 777/777 776/776
f 787/787 788/788 778/778 777/777
f 788/788 789/789 779/779 778/778
f 789/789 790/790 780/780 779/779
f 790/790 791/791 781/781 780/780
f 791/791 792/792 782/782 781/781
f 792/792 793/793 783/783 782/782
f 793/793 794/794 784/784 783/783
f 794/794 785/785 775/775 784/784
f 795/795 796/796 786/786 785/785
f 796/796 797/797 787/787 786/786
f 797/797 798/798 788/788 787/787
f 798/798 799/799 789/789 788/788
f 799/799 800/800 790/790 789/789
f 800/800 801/801 791/791 790/790
f 801/801 802/802 792/792 791/791
f 802/802 803/803 793/793 792/792
f 803/803 804/804 794/794 793/793
f 804/804 795/795 785/785 794/794
f 805/805 806/806 796/796 795/795
f 806/806 807/807 797/797 796/796
f 807/807 808/808 798/798 797/797
f 808/808 809/809 799/799 798/798
f 809/809 810/810 800/800 799/799
f 810/810 811/811 801/801 800/800
f 811/811 812/812 802/802 801/801
f 812/812 813/813 803/803 802/802
f 813/813 814/814 804/804 803/803
f 814/814 805/805 795/795 804/804
f 815/815 816/816 806/806 805/805
f 816/816 817/817 807/807 806/806
f 817/817 818/818 808/808 807/807
f 818/818 819/819 809/809 808/808
f 819/819 820/820 810/810 809/809
f 820/820 821/821 811/811 810/810
f 821/821 822/822 812/812 811/811
f 822/822 823/823 813/813 812/812
f 823/823 824/824 814/814 813/813
f 824/824 815/815 805/805 814/814
f 825/825 826/826 816/816 815/815
f 826/826 827/827 817/817 816/816
f 827/827 828/828 818/818 817/817
f 828/828 829/829 819/819 818/818
f 829/829 830/830 820/820 819/819
f 830/830 831/831 821/821 820/820
f 831/831 832/832 822/822 821/821
f 832/832 833/833 823/823 822/822
f 833/833 834/834 824/824 823/823
f 834/834 825/825 815/815 824/824
f 845/845 846/846 836/836 835/835
f 846/846 847/847 837/837 836/836
f 847/847 848/848 838/838 837/837
f 848/848 849/849 839/839 838/838
f 849/849 850/850 840/840 839/839
f 850/850 851/851 841/841 840/840
f 851/851 852/852 842/842 841/841
f 852/852 853/853 843/843 842/842
f 853/853 854/854 844/844 843/843
f 854/854 845/845 835/835 844/844
f 855/855 856/856 846/846 845/845
f 856/856 857/857 847/847 846/846
f 857/857 858/858 848/848 847/847
f 858/858 859/859 849/849 848/848
f 859/859 860/860 850/850 849/849
f 860/860 861/861 851/851 850/850
f 861/861 862/862 852/852 851/851
f 862/862 863/863 853/853 852/852
f 863/863 864/864 854/854 853/853
f 864/864 855/855 845/845 854/854
f 865/865 866/866 856/856 855/855
f 866/866 867/867 857/857 856/856
f 867/867 868/868 858/858 857/857
f 868/868 869/869 859/859 858/858
f 869/869 870/870 860/860 859/859
f 870/870 871/871 861/861 860/860
f 871/871 872/872 862/862 861/861
f 872/872 873/873 863/863 862/862
f 873/873 874/874 864/864 863/863
f 874/874 865/865 855/855 864/864
f 875/875 876/876 866/866 865/865
f 876/876 877/877 867/867 866/866
f 877/877 878/878 868/868 867/867
f 878/878 879/879 869/869 868/868
f 879/879 880/880 870/870 869/869
f 880/880 881/881 871/871 870/870
f 881/881 882/882 872/872 871/871
f 882/882 883/883 873/873 872/872
f 883/883 884/884 874/874 873/873
f 884/884 875/875 865/865 874/874
f 885/885 886/886 876/876 875/875
f 886/886 887/887 877/877 876/876
f 887/887 888/888 878/878 877/877
f 888/888 889/889 879/879 878/878
f 889/889 890/890 880/880 879/879
f 890/890 891/891 881/881 880/880
f 891/891 892/892 882/882 881/881
f 892/892 893/893 883/883 882/882
f 893/893 894/894 884/884 883/883
f 894/894 885/885 875/875 884/884
f 895/895 896/896 886/886 885/885
f 896/896 897/897 887/887 886/886
f 897/897 898/898 888/888 887/887
f 898/898 899/899 889/889 888/888
f 899/899 900/900 890/890 889/889
f 900/900 901/901 891/891 890/890
f 901/901 902/902 892/892 891/891
f 902/902 903/903 893/893 892/892
f 903/903 904/904 894/894 893/893
f 904/904 895/895 885/885 894/894
f 915/915 916/916 906/906 905/905
f 916/916 917/917 907/907 906/906
f 917/917 918/918 908/908 907/907
f 918/918 919/919 909/909 908/908
f 919/919 920/920 910/910 909/909
f 920/920 921/921 911/911 910/910
f 921/921 922/922 912/912 911/911
f 922/922 923/923 913/913 912/912
f 923/923 924/924 914/914 913/913
f 924/924 915/915 905/905 914/914
f 925/925 926/926 916/916 915/915
f 926/926 927/927 917/917 916/916
f 927/927 928/928 918/918 917/917
f 928/928 929/929 919/919 918/918
f 929/929 930/930 920/920 919/919
f 930/930 931/931 921/921 920/920
f 931/931 932/932 922/922 921/921
f 932/932 933/933 923/923 922/922
f 933/933 934/934 924/924 923/923
f 934/934 925/925 915/915 924/924
f 935/935 936/936 926/926 925/925
f 936/936 937/937 927/927 926/926
f 937/937 938/938 928/928 927/927
f 938/938 939/939 929/929 928/928
f 939/939 940/940 930/930 929/929
f 940/940 941/941 931/931 930/930
f 941/941 942/942 932/932 931/931
f 942/942 943/943 933/933 932/932
f 943/943 944/944 934/934 933/933
f 944/944 935/935 925/925 934/934
f 945/945 946/946 936/936 935/935
f 946/946 947/947 937/937 936/936
f 947/947 948/948 938/938 937/937
f 948/948 949/949 939/939 938/938
f 949/949 950/950 940/940 939/939
f 950/950 951/951 941/941 940/940
f 951/951 952/952 942/942 941/941
f 952/952 953/953 943/943 942/942
f 953/953 954/954 944/944 943/943
f 954/954 945/945 935/935 944/944
f 955/955 956/956 946/946 945/945
f 956/956 957/957 947/947 946/946
f 957/957 958/958 948/948 947/947
f 958/958 959/959 949/949 948/948
f 959/959 960/960 950/950 949/949
f 960/960 961/961 951/951 950/950
f 961/961 962/962 952/952 951/951
f 962/962 963/963 953/953 952/952
f 963/963 964/964 954/954 953/953
f 964/964 955/955 945/945 954/954
f 965/965 966/966 956/956 955/955
f 966/966 967/967 957/957 956/956
f 967/967 968/968 958/958 957/957
f 968/968 969/969 959/959 958/958
f 969/969 970/970 960/960 959/959
f 970/970 971/971 961/961 960/960
f 971/971 972/972 962/962 961/961
f 972/972 973/973 963/963 962/962
f 973/973 974/974 964/964 963/963
f 974/974 965/965 955/955 964/964
f 985/985 986/986 976/976 975/975
f 986/986 987/987 977/977 976/976
f 987/987 988/988 978/978 977/977
f 988/988 989/989 979/979 978/978
f 989/989 990/990 980/980 979/979
f 990/990 991/991 981/981 980/980
f 991/991 992/992 982/982 981/981
f 992/992 993/993 983/983 982/982
f 993/993 994/994 984/984 983/983
f 994/994 985/985 975/975 984/984
f 995/995 996/996 986/986 985/985
f 996/996 997/997 987/987 986/986
f 997/997 998/998 988/988 987/987
f 998/998 999/999 989/989 988/988
f 999/999 1000/1000 990/990 989/989
f 1000/1000 1001/1001 991/991 990/990
f 1001/1001 1002/1002 992/992 991/991
f 1002/1002 1003/1003 993/993 992/992
f 1003/1003 1004/1004 994/994 993/993
f 1004/1004 995/995 985/985 994/994
f 1005/1005 1006/1006 996/996 995/995
f 1006/1006 1007/1007 997/997 996/996
f 1007/1007 1008/1008 998/998 997/997
f 1008/1008 1009/1009 999/999 998/998
f 1009/1009 1010/1010 1000/1000 999/999
f 1010/1010 1011/1011 1001/1001 1000/1000
f 1011/1011 1012/1012 1002/1002 1001/1001
f 1012/1012 1013/1013 1003/1003 1002/1002
f 1013/1013 1014/1014 1004/1004 1003/1003
f 1014/1014 1005/1005 995/995 1004/1004
f 1015/1015 1016/1016 1006/1006 1005/1005
f 1016/1016 1017/1017 1007/1007 1006/1006
f 1017/1017 1018/1018 1008/1008 1007/1007
f 1018/1018 1019/1019 1009/1009 1008/1008
f 1019/1019 1020/1020 1010/1010 1009/1009
f 1020/1020 1021/1021 1011/1011 1010/1010
f 1021/1021 1022/1022 1012/1012 1011/1011
f 1022/1022 1023/1023 1013/1013 1012/1012
f 1023/1023 1024/1024 1014/1014 1013/1013
f 1024/1024 1015/1015 1005/1005 1014/1014
f 1025/1025 1026/1026 1016/1016 1015/1015
f 1026/1026 1027/1027 1017/1017 1016/1016
f 1027/1027 1028/1028 1018/1018 1017/1017
f 1028/1028 1029/1029 1019/1019 1018/1018
f 1029/1029 1030/1030 1020/1020 1019/1019
f 1030/1030 1031/1031 1021/1021 1020/1020
f 1031/1031 1032/1032 1022/1022 1021/1021
f 1032/1032 1033/1033 1023/1023 1022/1022
f 1033/1033 1034/1034 1024/1024 1023/1023
f 1034/1034 1025/1025 1015/1015 1024/1024
f 1035/1035 1036/1036 1026/1026 1025/1025
f 1036/1036 1037/1037 1027/1027 1026/1026
f 1037/1037 1038/1038 1028/1028 1027/1027
f 1038/1038 1039/1039 1029/1029 1028/1028
f 1039/1039 1040/1040 1030/1030 1029/1029
f 1040/1040 1041/1041 1031/1031 1030/1030
f 1041/1041 1042/1042 1032/1032 1031/1031
f 1042/1042 1043/1043 1033/1033 1032/1032
f 1043/1043 1044/1044 1034/1034 1033/1033
f 1044/1044 1035/1035 1025/1025 1034/1034
f 1055/1055 1056/1056 1046/1046 1045/1045
f 1056/1056 1057/1057 1047/1047 1046/1046
f 1057/1057 1058/1058 1048/1048 1047/1047
f 1058/1058 1059/1059 1049/1049 1048/1048
f 1059/1059 1060/1060 1050/1050 1049/1049
f 1060/1060 1061/1061 1051/1051 1050/1050
f 1061/1061 1062/1062 1052/1052 1051/1051
f 1062/1062 1063/1063 1053/1053 1052/1052
f 1063/1063 1064/1064 1054/1054 1053/1053
f 1064/1064 1055/1055 1045/1045 1054/1054
f 1065/1065 1066/1066 1056/1056 1055/1055
f 1066/1066 1067/1067 1057/1057 1056/1056
f 1067/1067 1068/1068 1058/1058 1057/1057
f 1068/1068 1069/1069 1059/1059 1058/1058
f 1069/1069 1070/1070 1060/1060 1059/1059
f 1070/1070 1071/1071 1061/1061 1060/1060
f 1071/1071 1072/1072 1062/1062 1061/1061
f 1072/1072 1073/1073 1063/1063 1062/1062
f 1073/1073 1074/1074 1064/1064 1063/1063
f 1074/1074 1065/1065 1055/1055 1064/1064
f 1075/1075 1076/1076 1066/1066 1065/1065
f 1076/1076 1077/1077 1067/1067 1066/1066
f 1077/1077 1078/1078 1068/1068 1067/1067
f 1078/1078 1079/1079 1069/1069 1068/1068
f 1079/1079 1080/1080 1070/1070 1069/1069
f 1080/1080 1081/1081 1071/1071 1070/1070
f 1081/1081 1082/1082 1072/1072 1071/1071
f 1082/1082 1083/1083 1073/1073 1072/1072
f 1083/1083 1084/1084 1074/1074 1073/1073
f 1084/1084 1075/1075 1065/1065 1074/1074
f 1085/1085 1086/1086 1076/1076 1075/1075
f 1086/1086 1087/1087 1077/1077 1076/1076
f 1087/1087 1088/1088 1078/1078 1077/1077
f 1088/1088 1089/1089 1079/1079 1078/1078
f 1089/1089 1090/1090 1080/1080 1079/1079
f 1090/1090 1091/1091 1081/1081 1080/1080
f 1091/1091 1092/1092 1082/1082 1081/1081
f 1092/1092 1093/1093 1083/1083 1082/1082
f 1093/1093 1094/1094 1084/1084 1083/1083
f 1094/1094 1085/1085 1075/1075 1084/1084
f 1095/1095 1096/1096 1086/1086 1085/1085
f 1096/1096 1097/1097 1087/1087 1086/1086
f 1097/1097 1098/1098 1088/1088 1087/1087
f 1098/1098 1099/1099 1089/1089 1088/1088
f 1099/1099 1100/1100 1090/1090 1089/1089
f 1100/1100 1101/1101 1091/1091 1090/1090
f 1101/1101 1102/1102 1092/1092 1091/1091
f 1102/1102 1103/1103 1093/1093 1092/1092
f 1103/1103 1104/1104 1094/1094 1093/1093
f 1104/1104 1095/1095 1085/1085 1094/1094
f 1105/1105 1106/1106 1096/1096 1095/1095
f 1106/1106 1107/1107 1097/1097 1096/1096
f 1107/1107 1108/1108 1098/1098 1097/1097
f 1108/1108 1109/1109 1099/1099 1098/1098
f 1109/1109 1110/1110 1100/1100 1099/1099
f 1110/1110 1111/1111 1101/1101 1100/1100
f 1111/1111 1112/1112 1102/1102 1101/1101
f 1112/1112 1113/1113 1103/1103 1102/1102
f 1113/1113 1114/1114 1104/1104 1103/1103
f 1114/1114 1105/1105 1095/1095 1104/1104
f 1125/1125 1126/1126 1116/1116 1115/1115
f 1126/1126 1127/1127 1117/1117 1116/1116
f 1127/1127 1128/1128 1118/1118 1117/1117
f 1128/1128 1129/1129 1119/1119 1118/1118
f 1129/1129 1130/1130 1120/1120 1119/1119
f 1130/1130 1131/1131 1121/1121 1120/1120
f 1131/1131 1132/1132 1122/1122 1121/1121
f 1132/1132 1133/1133 1123/1123 1122/1122
f 1133/1133 1134/1134 1124/1124 1123/1123
f 1134/1134 1125/1125 1115/1115 1124/1124
f 1135/1135 1136/1136 1126/1126 1125/1125
f 1136/1136 1137/1137 1127/1127 1126/1126
f 1137/1137 1138/1138 1128/1128 1127/1127
f 1138/1138 1139/1139 1129/1129 1128/1128
f 1139/1139 1140/1140 1130/1130 1129/1129
f 1140/1140 1141/1141 1131/1131 1130/1130
f 1141/1141 1142/1142 1132/1132 1131/1131
f 1142/1142 1143/1143 1133/1133 1132/1132
f 1143/1143 1144/1144 1134/1134 1133/1133
f 1144/1144 1135/1135 1125/1125 1134/1134
f 1145/1145 1146/1146 1136/1136 1135/1135
f 1146/1146 1147/1147 1137/1137 1136/1136
f 1147/1147 1148/1148 1138/1138 1137/1137
f 1148/1148 1149/1149 1139/1139 1138/1138
f 1149/1149 1150/1150 1140/1140 1139/1139
f 1150/1150 1151/1151 1141/1141 1140/1140
f 1151/1151 1152/1152 1142/1142 1141/1141
f 1152/1152 1153/1153 1143/1143 1142/1142
f 1153/1153 1154/1154 1144/1144 1143/1143
f 1154/1154 1145/1145 1135/1135 1144/1144
f 1155/1155 1156/1156 1146/1146 1145/1145
f 1156/1156 1157/1157 1147/1147 1146/1146
f 1157/1157 1158/1158 1148/1148 1147/1147
f 1158/1158 1159/1159 1149/1149 1148/1148
f 1159/1159 1160/1160 1150/1150 1149/1149
f 1160/1160 1161/1161 1151/1151 1150/1150
f 1161/1161 1162/1162 1152/1152 1151/1151
f 1162/1162 1163/1163 1153/1153 1152/1152
f 1163/1163 1164/1164 1154/1154 1153/1153
f 1164/1164 1155/1155 1145/1145 1154/1154
f 1165/1165 1166/1166 1156/1156 1155/1155
f 1166/1166 1167/1167 1157/1157 1156/1156
f 1167/1167 1168/1168 1158/1158 1157/1157
f 1168/1168 1169/1169 1159/1159 1158/1158
f 1169/1169 1170/1170 1160/1160 1159/1159
f 1170/1170 1171/1171 1161/1161 1160/1160
f 1171/1171 1172/1172 1162/1162 1161/1161
f 1172/1172 1173/1173 1163/1163 1162/1162
f 1173/1173 1174/1174 1164/1164 1163/1163
f 1174/1174 1165/1165 1155/1155 1164/1164
f 1175/1175 1176/1176 1166/1166 1165/1165
f 1176/1176 1177/1177 1167/1167 1166/1166
f 1177/1177 1178/1178 1168/1168 1167/1167
f 1178/1178 1179/1179 1169/1169 1168/1168
f 1179/1179 1180/1180 1170/1170 1169/1169
f 1180/1180 1181/1181 1171/1171 1170/1170
f 1181/1181 1182/1182 1172/1172 1171/1171
f 1182/1182 1183/1183 1173/1173 1172/1172
f 1183/1183 1184/1184 1174/1174 1173/1173
f 1184/1184 1175/1175 1165/1165 1174/1174
