# Original factory PMC equipment, centimetres
s 1
v 0.00000 10.60000 -4.50000
v 0.00000 10.60000 -4.50000
v 0.00000 10.60000 -4.50000
v 0.00000 10.60000 -4.50000
v 0.00000 10.60000 -4.50000
v 0.00000 10.60000 -4.50000
v 0.00000 10.60000 -4.50000
v -0.00000 10.60000 -4.50000
v -0.00000 10.60000 -4.50000
v -0.00000 10.60000 -4.50000
v -0.00000 10.60000 -4.50000
v -0.00000 10.60000 -4.50000
v -0.00000 10.60000 -4.50000
v -0.00000 10.60000 -4.50000
v -0.00000 10.60000 -4.50000
v -0.00000 10.60000 -4.50000
v -0.00000 10.60000 -4.50000
v -0.00000 10.60000 -4.50000
v -0.00000 10.60000 -4.50000
v 0.00000 10.60000 -4.50000
v 0.00000 10.60000 -4.50000
v 0.00000 10.60000 -4.50000
v 0.00000 10.60000 -4.50000
v 0.00000 10.60000 -4.50000
v 1.66424 10.60000 -4.41501
v 1.63281 10.26085 -4.41501
v 1.53765 10.11284 -4.41501
v 1.37541 10.01054 -4.41501
v 1.13671 9.94101 -4.41501
v 0.79134 9.90023 -4.41501
v 0.00000 9.88675 -4.41501
v -0.79134 9.90023 -4.41501
v -1.13671 9.94101 -4.41501
v -1.37541 10.01054 -4.41501
v -1.53765 10.11284 -4.41501
v -1.63281 10.26085 -4.41501
v -1.66424 10.60000 -4.41501
v -1.63281 10.93915 -4.41501
v -1.53765 11.08716 -4.41501
v -1.37541 11.18946 -4.41501
v -1.13671 11.25899 -4.41501
v -0.79134 11.29977 -4.41501
v -0.00000 11.31325 -4.41501
v 0.79134 11.29977 -4.41501
v 1.13671 11.25899 -4.41501
v 1.37541 11.18946 -4.41501
v 1.53765 11.08716 -4.41501
v 1.63281 10.93915 -4.41501
v 2.39057 10.60000 -4.15771
v 2.34542 10.11284 -4.15771
v 2.20873 9.90023 -4.15771
v 1.97569 9.75328 -4.15771
v 1.63281 9.65340 -4.15771
v 1.13671 9.59482 -4.15771
v 0.00000 9.57547 -4.15771
v -1.13671 9.59482 -4.15771
v -1.63281 9.65340 -4.15771
v -1.97569 9.75328 -4.15771
v -2.20873 9.90023 -4.15771
v -2.34542 10.11284 -4.15771
v -2.39057 10.60000 -4.15771
v -2.34542 11.08716 -4.15771
v -2.20873 11.29977 -4.15771
v -1.97569 11.44672 -4.15771
v -1.63281 11.54660 -4.15771
v -1.13671 11.60518 -4.15771
v -0.00000 11.62453 -4.15771
v 1.13671 11.60518 -4.15771
v 1.63281 11.54660 -4.15771
v 1.97569 11.44672 -4.15771
v 2.20873 11.29977 -4.15771
v 2.34542 11.08716 -4.15771
v 2.89258 10.60000 -3.71903
v 2.83794 10.01054 -3.71903
v 2.67255 9.75328 -3.71903
v 2.39057 9.57547 -3.71903
v 1.97569 9.45462 -3.71903
v 1.37541 9.38374 -3.71903
v 0.00000 9.36032 -3.71903
v -1.37541 9.38374 -3.71903
v -1.97569 9.45462 -3.71903
v -2.39057 9.57547 -3.71903
v -2.67255 9.75328 -3.71903
v -2.83794 10.01054 -3.71903
v -2.89258 10.60000 -3.71903
v -2.83794 11.18946 -3.71903
v -2.67255 11.44672 -3.71903
v -2.39057 11.62453 -3.71903
v -1.97569 11.74538 -3.71903
v -1.37541 11.81626 -3.71903
v -0.00000 11.83968 -3.71903
v 1.37541 11.81626 -3.71903
v 1.97569 11.74538 -3.71903
v 2.39057 11.62453 -3.71903
v 2.67255 11.44672 -3.71903
v 2.83794 11.18946 -3.71903
v 3.23378 10.60000 -3.07359
v 3.17270 9.94101 -3.07359
v 2.98780 9.65340 -3.07359
v 2.67255 9.45462 -3.07359
v 2.20873 9.31951 -3.07359
v 1.53765 9.24027 -3.07359
v 0.00000 9.21410 -3.07359
v -1.53765 9.24027 -3.07359
v -2.20873 9.31951 -3.07359
v -2.67255 9.45462 -3.07359
v -2.98780 9.65340 -3.07359
v -3.17270 9.94101 -3.07359
v -3.23378 10.60000 -3.07359
v -3.17270 11.25899 -3.07359
v -2.98780 11.54660 -3.07359
v -2.67255 11.74538 -3.07359
v -2.20873 11.88049 -3.07359
v -1.53765 11.95973 -3.07359
v -0.00000 11.98590 -3.07359
v 1.53765 11.95973 -3.07359
v 2.20873 11.88049 -3.07359
v 2.67255 11.74538 -3.07359
v 2.98780 11.54660 -3.07359
v 3.17270 11.25899 -3.07359
v 3.43390 10.60000 -2.13974
v 3.36904 9.90023 -2.13974
v 3.17270 9.59482 -2.13974
v 2.83794 9.38374 -2.13974
v 2.34542 9.24027 -2.13974
v 1.63281 9.15613 -2.13974
v 0.00000 9.12833 -2.13974
v -1.63281 9.15613 -2.13974
v -2.34542 9.24027 -2.13974
v -2.83794 9.38374 -2.13974
v -3.17270 9.59482 -2.13974
v -3.36904 9.90023 -2.13974
v -3.43390 10.60000 -2.13974
v -3.36904 11.29977 -2.13974
v -3.17270 11.60518 -2.13974
v -2.83794 11.81626 -2.13974
v -2.34542 11.95973 -2.13974
v -1.63281 12.04387 -2.13974
v -0.00000 12.07167 -2.13974
v 1.63281 12.04387 -2.13974
v 2.34542 11.95973 -2.13974
v 2.83794 11.81626 -2.13974
v 3.17270 11.60518 -2.13974
v 3.36904 11.29977 -2.13974
v 3.50000 10.60000 0.00000
v 3.43390 9.88675 0.00000
v 3.23378 9.57547 0.00000
v 2.89258 9.36032 0.00000
v 2.39057 9.21410 0.00000
v 1.66424 9.12833 0.00000
v 0.00000 9.10000 0.00000
v -1.66424 9.12833 0.00000
v -2.39057 9.21410 0.00000
v -2.89258 9.36032 0.00000
v -3.23378 9.57547 0.00000
v -3.43390 9.88675 0.00000
v -3.50000 10.60000 0.00000
v -3.43390 11.31325 0.00000
v -3.23378 11.62453 0.00000
v -2.89258 11.83968 0.00000
v -2.39057 11.98590 0.00000
v -1.66424 12.07167 0.00000
v -0.00000 12.10000 0.00000
v 1.66424 12.07167 0.00000
v 2.39057 11.98590 0.00000
v 2.89258 11.83968 0.00000
v 3.23378 11.62453 0.00000
v 3.43390 11.31325 0.00000
v 3.43390 10.60000 2.13974
v 3.36904 9.90023 2.13974
v 3.17270 9.59482 2.13974
v 2.83794 9.38374 2.13974
v 2.34542 9.24027 2.13974
v 1.63281 9.15613 2.13974
v 0.00000 9.12833 2.13974
v -1.63281 9.15613 2.13974
v -2.34542 9.24027 2.13974
v -2.83794 9.38374 2.13974
v -3.17270 9.59482 2.13974
v -3.36904 9.90023 2.13974
v -3.43390 10.60000 2.13974
v -3.36904 11.29977 2.13974
v -3.17270 11.60518 2.13974
v -2.83794 11.81626 2.13974
v -2.34542 11.95973 2.13974
v -1.63281 12.04387 2.13974
v -0.00000 12.07167 2.13974
v 1.63281 12.04387 2.13974
v 2.34542 11.95973 2.13974
v 2.83794 11.81626 2.13974
v 3.17270 11.60518 2.13974
v 3.36904 11.29977 2.13974
v 3.23378 10.60000 3.07359
v 3.17270 9.94101 3.07359
v 2.98780 9.65340 3.07359
v 2.67255 9.45462 3.07359
v 2.20873 9.31951 3.07359
v 1.53765 9.24027 3.07359
v 0.00000 9.21410 3.07359
v -1.53765 9.24027 3.07359
v -2.20873 9.31951 3.07359
v -2.67255 9.45462 3.07359
v -2.98780 9.65340 3.07359
v -3.17270 9.94101 3.07359
v -3.23378 10.60000 3.07359
v -3.17270 11.25899 3.07359
v -2.98780 11.54660 3.07359
v -2.67255 11.74538 3.07359
v -2.20873 11.88049 3.07359
v -1.53765 11.95973 3.07359
v -0.00000 11.98590 3.07359
v 1.53765 11.95973 3.07359
v 2.20873 11.88049 3.07359
v 2.67255 11.74538 3.07359
v 2.98780 11.54660 3.07359
v 3.17270 11.25899 3.07359
v 2.89258 10.60000 3.71903
v 2.83794 10.01054 3.71903
v 2.67255 9.75328 3.71903
v 2.39057 9.57547 3.71903
v 1.97569 9.45462 3.71903
v 1.37541 9.38374 3.71903
v 0.00000 9.36032 3.71903
v -1.37541 9.38374 3.71903
v -1.97569 9.45462 3.71903
v -2.39057 9.57547 3.71903
v -2.67255 9.75328 3.71903
v -2.83794 10.01054 3.71903
v -2.89258 10.60000 3.71903
v -2.83794 11.18946 3.71903
v -2.67255 11.44672 3.71903
v -2.39057 11.62453 3.71903
v -1.97569 11.74538 3.71903
v -1.37541 11.81626 3.71903
v -0.00000 11.83968 3.71903
v 1.37541 11.81626 3.71903
v 1.97569 11.74538 3.71903
v 2.39057 11.62453 3.71903
v 2.67255 11.44672 3.71903
v 2.83794 11.18946 3.71903
v 2.39057 10.60000 4.15771
v 2.34542 10.11284 4.15771
v 2.20873 9.90023 4.15771
v 1.97569 9.75328 4.15771
v 1.63281 9.65340 4.15771
v 1.13671 9.59482 4.15771
v 0.00000 9.57547 4.15771
v -1.13671 9.59482 4.15771
v -1.63281 9.65340 4.15771
v -1.97569 9.75328 4.15771
v -2.20873 9.90023 4.15771
v -2.34542 10.11284 4.15771
v -2.39057 10.60000 4.15771
v -2.34542 11.08716 4.15771
v -2.20873 11.29977 4.15771
v -1.97569 11.44672 4.15771
v -1.63281 11.54660 4.15771
v -1.13671 11.60518 4.15771
v -0.00000 11.62453 4.15771
v 1.13671 11.60518 4.15771
v 1.63281 11.54660 4.15771
v 1.97569 11.44672 4.15771
v 2.20873 11.29977 4.15771
v 2.34542 11.08716 4.15771
v 1.66424 10.60000 4.41501
v 1.63281 10.26085 4.41501
v 1.53765 10.11284 4.41501
v 1.37541 10.01054 4.41501
v 1.13671 9.94101 4.41501
v 0.79134 9.90023 4.41501
v 0.00000 9.88675 4.41501
v -0.79134 9.90023 4.41501
v -1.13671 9.94101 4.41501
v -1.37541 10.01054 4.41501
v -1.53765 10.11284 4.41501
v -1.63281 10.26085 4.41501
v -1.66424 10.60000 4.41501
v -1.63281 10.93915 4.41501
v -1.53765 11.08716 4.41501
v -1.37541 11.18946 4.41501
v -1.13671 11.25899 4.41501
v -0.79134 11.29977 4.41501
v -0.00000 11.31325 4.41501
v 0.79134 11.29977 4.41501
v 1.13671 11.25899 4.41501
v 1.37541 11.18946 4.41501
v 1.53765 11.08716 4.41501
v 1.63281 10.93915 4.41501
v 0.00000 10.60000 4.50000
v 0.00000 10.60000 4.50000
v 0.00000 10.60000 4.50000
v 0.00000 10.60000 4.50000
v 0.00000 10.60000 4.50000
v 0.00000 10.60000 4.50000
v 0.00000 10.60000 4.50000
v -0.00000 10.60000 4.50000
v -0.00000 10.60000 4.50000
v -0.00000 10.60000 4.50000
v -0.00000 10.60000 4.50000
v -0.00000 10.60000 4.50000
v -0.00000 10.60000 4.50000
v -0.00000 10.60000 4.50000
v -0.00000 10.60000 4.50000
v -0.00000 10.60000 4.50000
v -0.00000 10.60000 4.50000
v -0.00000 10.60000 4.50000
v -0.00000 10.60000 4.50000
v 0.00000 10.60000 4.50000
v 0.00000 10.60000 4.50000
v 0.00000 10.60000 4.50000
v 0.00000 10.60000 4.50000
v 0.00000 10.60000 4.50000
v 0.00000 -10.60000 -4.50000
v 0.00000 -10.60000 -4.50000
v 0.00000 -10.60000 -4.50000
v 0.00000 -10.60000 -4.50000
v 0.00000 -10.60000 -4.50000
v 0.00000 -10.60000 -4.50000
v 0.00000 -10.60000 -4.50000
v -0.00000 -10.60000 -4.50000
v -0.00000 -10.60000 -4.50000
v -0.00000 -10.60000 -4.50000
v -0.00000 -10.60000 -4.50000
v -0.00000 -10.60000 -4.50000
v -0.00000 -10.60000 -4.50000
v -0.00000 -10.60000 -4.50000
v -0.00000 -10.60000 -4.50000
v -0.00000 -10.60000 -4.50000
v -0.00000 -10.60000 -4.50000
v -0.00000 -10.60000 -4.50000
v -0.00000 -10.60000 -4.50000
v 0.00000 -10.60000 -4.50000
v 0.00000 -10.60000 -4.50000
v 0.00000 -10.60000 -4.50000
v 0.00000 -10.60000 -4.50000
v 0.00000 -10.60000 -4.50000
v 1.66424 -10.60000 -4.41501
v 1.63281 -10.93915 -4.41501
v 1.53765 -11.08716 -4.41501
v 1.37541 -11.18946 -4.41501
v 1.13671 -11.25899 -4.41501
v 0.79134 -11.29977 -4.41501
v 0.00000 -11.31325 -4.41501
v -0.79134 -11.29977 -4.41501
v -1.13671 -11.25899 -4.41501
v -1.37541 -11.18946 -4.41501
v -1.53765 -11.08716 -4.41501
v -1.63281 -10.93915 -4.41501
v -1.66424 -10.60000 -4.41501
v -1.63281 -10.26085 -4.41501
v -1.53765 -10.11284 -4.41501
v -1.37541 -10.01054 -4.41501
v -1.13671 -9.94101 -4.41501
v -0.79134 -9.90023 -4.41501
v -0.00000 -9.88675 -4.41501
v 0.79134 -9.90023 -4.41501
v 1.13671 -9.94101 -4.41501
v 1.37541 -10.01054 -4.41501
v 1.53765 -10.11284 -4.41501
v 1.63281 -10.26085 -4.41501
v 2.39057 -10.60000 -4.15771
v 2.34542 -11.08716 -4.15771
v 2.20873 -11.29977 -4.15771
v 1.97569 -11.44672 -4.15771
v 1.63281 -11.54660 -4.15771
v 1.13671 -11.60518 -4.15771
v 0.00000 -11.62453 -4.15771
v -1.13671 -11.60518 -4.15771
v -1.63281 -11.54660 -4.15771
v -1.97569 -11.44672 -4.15771
v -2.20873 -11.29977 -4.15771
v -2.34542 -11.08716 -4.15771
v -2.39057 -10.60000 -4.15771
v -2.34542 -10.11284 -4.15771
v -2.20873 -9.90023 -4.15771
v -1.97569 -9.75328 -4.15771
v -1.63281 -9.65340 -4.15771
v -1.13671 -9.59482 -4.15771
v -0.00000 -9.57547 -4.15771
v 1.13671 -9.59482 -4.15771
v 1.63281 -9.65340 -4.15771
v 1.97569 -9.75328 -4.15771
v 2.20873 -9.90023 -4.15771
v 2.34542 -10.11284 -4.15771
v 2.89258 -10.60000 -3.71903
v 2.83794 -11.18946 -3.71903
v 2.67255 -11.44672 -3.71903
v 2.39057 -11.62453 -3.71903
v 1.97569 -11.74538 -3.71903
v 1.37541 -11.81626 -3.71903
v 0.00000 -11.83968 -3.71903
v -1.37541 -11.81626 -3.71903
v -1.97569 -11.74538 -3.71903
v -2.39057 -11.62453 -3.71903
v -2.67255 -11.44672 -3.71903
v -2.83794 -11.18946 -3.71903
v -2.89258 -10.60000 -3.71903
v -2.83794 -10.01054 -3.71903
v -2.67255 -9.75328 -3.71903
v -2.39057 -9.57547 -3.71903
v -1.97569 -9.45462 -3.71903
v -1.37541 -9.38374 -3.71903
v -0.00000 -9.36032 -3.71903
v 1.37541 -9.38374 -3.71903
v 1.97569 -9.45462 -3.71903
v 2.39057 -9.57547 -3.71903
v 2.67255 -9.75328 -3.71903
v 2.83794 -10.01054 -3.71903
v 3.23378 -10.60000 -3.07359
v 3.17270 -11.25899 -3.07359
v 2.98780 -11.54660 -3.07359
v 2.67255 -11.74538 -3.07359
v 2.20873 -11.88049 -3.07359
v 1.53765 -11.95973 -3.07359
v 0.00000 -11.98590 -3.07359
v -1.53765 -11.95973 -3.07359
v -2.20873 -11.88049 -3.07359
v -2.67255 -11.74538 -3.07359
v -2.98780 -11.54660 -3.07359
v -3.17270 -11.25899 -3.07359
v -3.23378 -10.60000 -3.07359
v -3.17270 -9.94101 -3.07359
v -2.98780 -9.65340 -3.07359
v -2.67255 -9.45462 -3.07359
v -2.20873 -9.31951 -3.07359
v -1.53765 -9.24027 -3.07359
v -0.00000 -9.21410 -3.07359
v 1.53765 -9.24027 -3.07359
v 2.20873 -9.31951 -3.07359
v 2.67255 -9.45462 -3.07359
v 2.98780 -9.65340 -3.07359
v 3.17270 -9.94101 -3.07359
v 3.43390 -10.60000 -2.13974
v 3.36904 -11.29977 -2.13974
v 3.17270 -11.60518 -2.13974
v 2.83794 -11.81626 -2.13974
v 2.34542 -11.95973 -2.13974
v 1.63281 -12.04387 -2.13974
v 0.00000 -12.07167 -2.13974
v -1.63281 -12.04387 -2.13974
v -2.34542 -11.95973 -2.13974
v -2.83794 -11.81626 -2.13974
v -3.17270 -11.60518 -2.13974
v -3.36904 -11.29977 -2.13974
v -3.43390 -10.60000 -2.13974
v -3.36904 -9.90023 -2.13974
v -3.17270 -9.59482 -2.13974
v -2.83794 -9.38374 -2.13974
v -2.34542 -9.24027 -2.13974
v -1.63281 -9.15613 -2.13974
v -0.00000 -9.12833 -2.13974
v 1.63281 -9.15613 -2.13974
v 2.34542 -9.24027 -2.13974
v 2.83794 -9.38374 -2.13974
v 3.17270 -9.59482 -2.13974
v 3.36904 -9.90023 -2.13974
v 3.50000 -10.60000 0.00000
v 3.43390 -11.31325 0.00000
v 3.23378 -11.62453 0.00000
v 2.89258 -11.83968 0.00000
v 2.39057 -11.98590 0.00000
v 1.66424 -12.07167 0.00000
v 0.00000 -12.10000 0.00000
v -1.66424 -12.07167 0.00000
v -2.39057 -11.98590 0.00000
v -2.89258 -11.83968 0.00000
v -3.23378 -11.62453 0.00000
v -3.43390 -11.31325 0.00000
v -3.50000 -10.60000 0.00000
v -3.43390 -9.88675 0.00000
v -3.23378 -9.57547 0.00000
v -2.89258 -9.36032 0.00000
v -2.39057 -9.21410 0.00000
v -1.66424 -9.12833 0.00000
v -0.00000 -9.10000 0.00000
v 1.66424 -9.12833 0.00000
v 2.39057 -9.21410 0.00000
v 2.89258 -9.36032 0.00000
v 3.23378 -9.57547 0.00000
v 3.43390 -9.88675 0.00000
v 3.43390 -10.60000 2.13974
v 3.36904 -11.29977 2.13974
v 3.17270 -11.60518 2.13974
v 2.83794 -11.81626 2.13974
v 2.34542 -11.95973 2.13974
v 1.63281 -12.04387 2.13974
v 0.00000 -12.07167 2.13974
v -1.63281 -12.04387 2.13974
v -2.34542 -11.95973 2.13974
v -2.83794 -11.81626 2.13974
v -3.17270 -11.60518 2.13974
v -3.36904 -11.29977 2.13974
v -3.43390 -10.60000 2.13974
v -3.36904 -9.90023 2.13974
v -3.17270 -9.59482 2.13974
v -2.83794 -9.38374 2.13974
v -2.34542 -9.24027 2.13974
v -1.63281 -9.15613 2.13974
v -0.00000 -9.12833 2.13974
v 1.63281 -9.15613 2.13974
v 2.34542 -9.24027 2.13974
v 2.83794 -9.38374 2.13974
v 3.17270 -9.59482 2.13974
v 3.36904 -9.90023 2.13974
v 3.23378 -10.60000 3.07359
v 3.17270 -11.25899 3.07359
v 2.98780 -11.54660 3.07359
v 2.67255 -11.74538 3.07359
v 2.20873 -11.88049 3.07359
v 1.53765 -11.95973 3.07359
v 0.00000 -11.98590 3.07359
v -1.53765 -11.95973 3.07359
v -2.20873 -11.88049 3.07359
v -2.67255 -11.74538 3.07359
v -2.98780 -11.54660 3.07359
v -3.17270 -11.25899 3.07359
v -3.23378 -10.60000 3.07359
v -3.17270 -9.94101 3.07359
v -2.98780 -9.65340 3.07359
v -2.67255 -9.45462 3.07359
v -2.20873 -9.31951 3.07359
v -1.53765 -9.24027 3.07359
v -0.00000 -9.21410 3.07359
v 1.53765 -9.24027 3.07359
v 2.20873 -9.31951 3.07359
v 2.67255 -9.45462 3.07359
v 2.98780 -9.65340 3.07359
v 3.17270 -9.94101 3.07359
v 2.89258 -10.60000 3.71903
v 2.83794 -11.18946 3.71903
v 2.67255 -11.44672 3.71903
v 2.39057 -11.62453 3.71903
v 1.97569 -11.74538 3.71903
v 1.37541 -11.81626 3.71903
v 0.00000 -11.83968 3.71903
v -1.37541 -11.81626 3.71903
v -1.97569 -11.74538 3.71903
v -2.39057 -11.62453 3.71903
v -2.67255 -11.44672 3.71903
v -2.83794 -11.18946 3.71903
v -2.89258 -10.60000 3.71903
v -2.83794 -10.01054 3.71903
v -2.67255 -9.75328 3.71903
v -2.39057 -9.57547 3.71903
v -1.97569 -9.45462 3.71903
v -1.37541 -9.38374 3.71903
v -0.00000 -9.36032 3.71903
v 1.37541 -9.38374 3.71903
v 1.97569 -9.45462 3.71903
v 2.39057 -9.57547 3.71903
v 2.67255 -9.75328 3.71903
v 2.83794 -10.01054 3.71903
v 2.39057 -10.60000 4.15771
v 2.34542 -11.08716 4.15771
v 2.20873 -11.29977 4.15771
v 1.97569 -11.44672 4.15771
v 1.63281 -11.54660 4.15771
v 1.13671 -11.60518 4.15771
v 0.00000 -11.62453 4.15771
v -1.13671 -11.60518 4.15771
v -1.63281 -11.54660 4.15771
v -1.97569 -11.44672 4.15771
v -2.20873 -11.29977 4.15771
v -2.34542 -11.08716 4.15771
v -2.39057 -10.60000 4.15771
v -2.34542 -10.11284 4.15771
v -2.20873 -9.90023 4.15771
v -1.97569 -9.75328 4.15771
v -1.63281 -9.65340 4.15771
v -1.13671 -9.59482 4.15771
v -0.00000 -9.57547 4.15771
v 1.13671 -9.59482 4.15771
v 1.63281 -9.65340 4.15771
v 1.97569 -9.75328 4.15771
v 2.20873 -9.90023 4.15771
v 2.34542 -10.11284 4.15771
v 1.66424 -10.60000 4.41501
v 1.63281 -10.93915 4.41501
v 1.53765 -11.08716 4.41501
v 1.37541 -11.18946 4.41501
v 1.13671 -11.25899 4.41501
v 0.79134 -11.29977 4.41501
v 0.00000 -11.31325 4.41501
v -0.79134 -11.29977 4.41501
v -1.13671 -11.25899 4.41501
v -1.37541 -11.18946 4.41501
v -1.53765 -11.08716 4.41501
v -1.63281 -10.93915 4.41501
v -1.66424 -10.60000 4.41501
v -1.63281 -10.26085 4.41501
v -1.53765 -10.11284 4.41501
v -1.37541 -10.01054 4.41501
v -1.13671 -9.94101 4.41501
v -0.79134 -9.90023 4.41501
v -0.00000 -9.88675 4.41501
v 0.79134 -9.90023 4.41501
v 1.13671 -9.94101 4.41501
v 1.37541 -10.01054 4.41501
v 1.53765 -10.11284 4.41501
v 1.63281 -10.26085 4.41501
v 0.00000 -10.60000 4.50000
v 0.00000 -10.60000 4.50000
v 0.00000 -10.60000 4.50000
v 0.00000 -10.60000 4.50000
v 0.00000 -10.60000 4.50000
v 0.00000 -10.60000 4.50000
v 0.00000 -10.60000 4.50000
v -0.00000 -10.60000 4.50000
v -0.00000 -10.60000 4.50000
v -0.00000 -10.60000 4.50000
v -0.00000 -10.60000 4.50000
v -0.00000 -10.60000 4.50000
v -0.00000 -10.60000 4.50000
v -0.00000 -10.60000 4.50000
v -0.00000 -10.60000 4.50000
v -0.00000 -10.60000 4.50000
v -0.00000 -10.60000 4.50000
v -0.00000 -10.60000 4.50000
v -0.00000 -10.60000 4.50000
v 0.00000 -10.60000 4.50000
v 0.00000 -10.60000 4.50000
v 0.00000 -10.60000 4.50000
v 0.00000 -10.60000 4.50000
v 0.00000 -10.60000 4.50000
v 10.50001 -0.00000 1.50000
v 10.50001 -0.00002 1.50000
v 10.50001 -0.00003 1.50000
v 10.50001 -0.00003 1.50000
v 10.50001 -0.00003 1.50000
v 10.50001 -0.00003 1.50000
v 10.50000 -0.00003 1.50000
v 10.49999 -0.00003 1.50000
v 10.49999 -0.00003 1.50000
v 10.49999 -0.00003 1.50000
v 10.49999 -0.00003 1.50000
v 10.49999 -0.00002 1.50000
v 10.49999 -0.00000 1.50000
v 10.49999 0.00002 1.50000
v 10.49999 0.00003 1.50000
v 10.49999 0.00003 1.50000
v 10.49999 0.00003 1.50000
v 10.49999 0.00003 1.50000
v 10.50000 0.00003 1.50000
v 10.50001 0.00003 1.50000
v 10.50001 0.00003 1.50000
v 10.50001 0.00003 1.50000
v 10.50001 0.00003 1.50000
v 10.50001 0.00002 1.50000
v 11.16665 -0.00000 1.52587
v 11.15975 -0.99995 1.52587
v 11.13850 -1.21835 1.52587
v 11.10082 -1.35184 1.52587
v 11.04149 -1.43662 1.52587
v 10.94442 -1.48445 1.52587
v 10.50001 -1.49997 1.52587
v 10.05558 -1.48445 1.52587
v 9.95851 -1.43662 1.52587
v 9.89918 -1.35184 1.52587
v 9.86150 -1.21835 1.52587
v 9.84025 -0.99995 1.52587
v 9.83335 -0.00003 1.52587
v 9.84025 0.99995 1.52587
v 9.86150 1.21835 1.52587
v 9.89918 1.35184 1.52587
v 9.95851 1.43662 1.52587
v 10.05558 1.48445 1.52587
v 10.49999 1.49997 1.52587
v 10.94442 1.48445 1.52587
v 11.04149 1.43662 1.52587
v 11.10082 1.35184 1.52587
v 11.13850 1.21835 1.52587
v 11.15975 0.99995 1.52587
v 11.31225 -0.00000 1.60559
v 11.30385 -1.21835 1.60559
v 11.27795 -1.48445 1.60559
v 11.23204 -1.64710 1.60559
v 11.15975 -1.75038 1.60559
v 11.04149 -1.80866 1.60559
v 10.50001 -1.82757 1.60559
v 9.95851 -1.80866 1.60559
v 9.84025 -1.75038 1.60559
v 9.76796 -1.64710 1.60559
v 9.72205 -1.48445 1.60559
v 9.69615 -1.21835 1.60559
v 9.68775 -0.00003 1.60559
v 9.69615 1.21835 1.60559
v 9.72205 1.48445 1.60559
v 9.76796 1.64710 1.60559
v 9.84025 1.75038 1.60559
v 9.95851 1.80866 1.60559
v 10.49998 1.82757 1.60559
v 11.04149 1.80866 1.60559
v 11.15975 1.75038 1.60559
v 11.23204 1.64710 1.60559
v 11.27795 1.48445 1.60559
v 11.30385 1.21835 1.60559
v 11.40125 -0.00000 1.74687
v 11.39193 -1.35184 1.74687
v 11.36319 -1.64710 1.74687
v 11.31225 -1.82757 1.74687
v 11.23204 -1.94217 1.74687
v 11.10082 -2.00683 1.74687
v 10.50001 -2.02781 1.74687
v 9.89918 -2.00683 1.74687
v 9.76796 -1.94217 1.74687
v 9.68775 -1.82757 1.74687
v 9.63681 -1.64710 1.74687
v 9.60807 -1.35184 1.74687
v 9.59875 -0.00003 1.74687
v 9.60807 1.35184 1.74687
v 9.63681 1.64710 1.74687
v 9.68775 1.82757 1.74687
v 9.76796 1.94217 1.74687
v 9.89918 2.00683 1.74687
v 10.49998 2.02781 1.74687
v 11.10082 2.00683 1.74687
v 11.23204 1.94217 1.74687
v 11.31225 1.82757 1.74687
v 11.36319 1.64710 1.74687
v 11.39193 1.35184 1.74687
v 11.45777 -0.00000 1.96937
v 11.44786 -1.43662 1.96937
v 11.41731 -1.75038 1.96937
v 11.36319 -1.94217 1.96937
v 11.27795 -2.06396 1.96937
v 11.13850 -2.13268 1.96937
v 10.50001 -2.15497 1.96937
v 9.86150 -2.13268 1.96937
v 9.72205 -2.06396 1.96937
v 9.63681 -1.94217 1.96937
v 9.58269 -1.75038 1.96937
v 9.55214 -1.43662 1.96937
v 9.54223 -0.00004 1.96937
v 9.55214 1.43662 1.96937
v 9.58269 1.75038 1.96937
v 9.63681 1.94217 1.96937
v 9.72205 2.06396 1.96937
v 9.86150 2.13268 1.96937
v 10.49998 2.15497 1.96937
v 11.13850 2.13268 1.96937
v 11.27795 2.06396 1.96937
v 11.36319 1.94217 1.96937
v 11.41731 1.75038 1.96937
v 11.44786 1.43662 1.96937
v 11.48965 -0.00000 2.33337
v 11.47941 -1.48445 2.33337
v 11.44786 -1.80866 2.33337
v 11.39193 -2.00683 2.33337
v 11.30385 -2.13268 2.33337
v 11.15975 -2.20368 2.33337
v 10.50001 -2.22672 2.33337
v 9.84025 -2.20368 2.33337
v 9.69615 -2.13268 2.33337
v 9.60807 -2.00683 2.33337
v 9.55214 -1.80866 2.33337
v 9.52059 -1.48445 2.33337
v 9.51035 -0.00004 2.33337
v 9.52059 1.48445 2.33337
v 9.55214 1.80866 2.33337
v 9.60807 2.00683 2.33337
v 9.69615 2.13268 2.33337
v 9.84025 2.20368 2.33337
v 10.49998 2.22672 2.33337
v 11.15975 2.20368 2.33337
v 11.30385 2.13268 2.33337
v 11.39193 2.00683 2.33337
v 11.44786 1.80866 2.33337
v 11.47941 1.48445 2.33337
v 11.50000 -0.00000 4.00000
v 11.48965 -1.49997 4.00000
v 11.45777 -1.82757 4.00000
v 11.40125 -2.02781 4.00000
v 11.31225 -2.15497 4.00000
v 11.16665 -2.22672 4.00000
v 10.50001 -2.25000 4.00000
v 9.83335 -2.22672 4.00000
v 9.68775 -2.15497 4.00000
v 9.59875 -2.02781 4.00000
v 9.54223 -1.82757 4.00000
v 9.51035 -1.49997 4.00000
v 9.50000 -0.00004 4.00000
v 9.51035 1.49997 4.00000
v 9.54223 1.82757 4.00000
v 9.59875 2.02781 4.00000
v 9.68775 2.15497 4.00000
v 9.83335 2.22672 4.00000
v 10.49998 2.25000 4.00000
v 11.16665 2.22672 4.00000
v 11.31225 2.15497 4.00000
v 11.40125 2.02781 4.00000
v 11.45777 1.82757 4.00000
v 11.48965 1.49997 4.00000
v 11.48965 -0.00000 5.66663
v 11.47941 -1.48445 5.66663
v 11.44786 -1.80866 5.66663
v 11.39193 -2.00683 5.66663
v 11.30385 -2.13268 5.66663
v 11.15975 -2.20368 5.66663
v 10.50001 -2.22672 5.66663
v 9.84025 -2.20368 5.66663
v 9.69615 -2.13268 5.66663
v 9.60807 -2.00683 5.66663
v 9.55214 -1.80866 5.66663
v 9.52059 -1.48445 5.66663
v 9.51035 -0.00004 5.66663
v 9.52059 1.48445 5.66663
v 9.55214 1.80866 5.66663
v 9.60807 2.00683 5.66663
v 9.69615 2.13268 5.66663
v 9.84025 2.20368 5.66663
v 10.49998 2.22672 5.66663
v 11.15975 2.20368 5.66663
v 11.30385 2.13268 5.66663
v 11.39193 2.00683 5.66663
v 11.44786 1.80866 5.66663
v 11.47941 1.48445 5.66663
v 11.45777 -0.00000 6.03063
v 11.44786 -1.43662 6.03063
v 11.41731 -1.75038 6.03063
v 11.36319 -1.94217 6.03063
v 11.27795 -2.06396 6.03063
v 11.13850 -2.13268 6.03063
v 10.50001 -2.15497 6.03063
v 9.86150 -2.13268 6.03063
v 9.72205 -2.06396 6.03063
v 9.63681 -1.94217 6.03063
v 9.58269 -1.75038 6.03063
v 9.55214 -1.43662 6.03063
v 9.54223 -0.00004 6.03063
v 9.55214 1.43662 6.03063
v 9.58269 1.75038 6.03063
v 9.63681 1.94217 6.03063
v 9.72205 2.06396 6.03063
v 9.86150 2.13268 6.03063
v 10.49998 2.15497 6.03063
v 11.13850 2.13268 6.03063
v 11.27795 2.06396 6.03063
v 11.36319 1.94217 6.03063
v 11.41731 1.75038 6.03063
v 11.44786 1.43662 6.03063
v 11.40125 -0.00000 6.25313
v 11.39193 -1.35184 6.25313
v 11.36319 -1.64710 6.25313
v 11.31225 -1.82757 6.25313
v 11.23204 -1.94217 6.25313
v 11.10082 -2.00683 6.25313
v 10.50001 -2.02781 6.25313
v 9.89918 -2.00683 6.25313
v 9.76796 -1.94217 6.25313
v 9.68775 -1.82757 6.25313
v 9.63681 -1.64710 6.25313
v 9.60807 -1.35184 6.25313
v 9.59875 -0.00003 6.25313
v 9.60807 1.35184 6.25313
v 9.63681 1.64710 6.25313
v 9.68775 1.82757 6.25313
v 9.76796 1.94217 6.25313
v 9.89918 2.00683 6.25313
v 10.49998 2.02781 6.25313
v 11.10082 2.00683 6.25313
v 11.23204 1.94217 6.25313
v 11.31225 1.82757 6.25313
v 11.36319 1.64710 6.25313
v 11.39193 1.35184 6.25313
v 11.31225 -0.00000 6.39441
v 11.30385 -1.21835 6.39441
v 11.27795 -1.48445 6.39441
v 11.23204 -1.64710 6.39441
v 11.15975 -1.75038 6.39441
v 11.04149 -1.80866 6.39441
v 10.50001 -1.82757 6.39441
v 9.95851 -1.80866 6.39441
v 9.84025 -1.75038 6.39441
v 9.76796 -1.64710 6.39441
v 9.72205 -1.48445 6.39441
v 9.69615 -1.21835 6.39441
v 9.68775 -0.00003 6.39441
v 9.69615 1.21835 6.39441
v 9.72205 1.48445 6.39441
v 9.76796 1.64710 6.39441
v 9.84025 1.75038 6.39441
v 9.95851 1.80866 6.39441
v 10.49998 1.82757 6.39441
v 11.04149 1.80866 6.39441
v 11.15975 1.75038 6.39441
v 11.23204 1.64710 6.39441
v 11.27795 1.48445 6.39441
v 11.30385 1.21835 6.39441
v 11.16665 -0.00000 6.47413
v 11.15975 -0.99995 6.47413
v 11.13850 -1.21835 6.47413
v 11.10082 -1.35184 6.47413
v 11.04149 -1.43662 6.47413
v 10.94442 -1.48445 6.47413
v 10.50001 -1.49997 6.47413
v 10.05558 -1.48445 6.47413
v 9.95851 -1.43662 6.47413
v 9.89918 -1.35184 6.47413
v 9.86150 -1.21835 6.47413
v 9.84025 -0.99995 6.47413
v 9.83335 -0.00003 6.47413
v 9.84025 0.99995 6.47413
v 9.86150 1.21835 6.47413
v 9.89918 1.35184 6.47413
v 9.95851 1.43662 6.47413
v 10.05558 1.48445 6.47413
v 10.49999 1.49997 6.47413
v 10.94442 1.48445 6.47413
v 11.04149 1.43662 6.47413
v 11.10082 1.35184 6.47413
v 11.13850 1.21835 6.47413
v 11.15975 0.99995 6.47413
v 10.50001 -0.00000 6.50000
v 10.50001 -0.00002 6.50000
v 10.50001 -0.00003 6.50000
v 10.50001 -0.00003 6.50000
v 10.50001 -0.00003 6.50000
v 10.50001 -0.00003 6.50000
v 10.50000 -0.00003 6.50000
v 10.49999 -0.00003 6.50000
v 10.49999 -0.00003 6.50000
v 10.49999 -0.00003 6.50000
v 10.49999 -0.00003 6.50000
v 10.49999 -0.00002 6.50000
v 10.49999 -0.00000 6.50000
v 10.49999 0.00002 6.50000
v 10.49999 0.00003 6.50000
v 10.49999 0.00003 6.50000
v 10.49999 0.00003 6.50000
v 10.49999 0.00003 6.50000
v 10.50000 0.00003 6.50000
v 10.50001 0.00003 6.50000
v 10.50001 0.00003 6.50000
v 10.50001 0.00003 6.50000
v 10.50001 0.00003 6.50000
v 10.50001 0.00002 6.50000
vt -0.37100 -0.15750
vt -0.37100 -0.15750
vt -0.37100 -0.15750
vt -0.37100 -0.15750
vt -0.37100 -0.15750
vt -0.37100 -0.15750
vt -0.37100 -0.15750
vt -0.37100 -0.15750
vt -0.37100 -0.15750
vt -0.37100 -0.15750
vt -0.37100 -0.15750
vt -0.37100 -0.15750
vt -0.37100 -0.15750
vt -0.37100 -0.15750
vt -0.37100 -0.15750
vt -0.37100 -0.15750
vt -0.37100 -0.15750
vt -0.37100 -0.15750
vt -0.37100 -0.15750
vt -0.37100 -0.15750
vt -0.37100 -0.15750
vt -0.37100 -0.15750
vt -0.37100 -0.15750
vt -0.37100 -0.15750
vt -0.37100 -0.15453
vt -0.35913 -0.15453
vt -0.35395 -0.15453
vt -0.35037 -0.15453
vt -0.34794 -0.15453
vt -0.34651 -0.15453
vt -0.34604 -0.15453
vt -0.34651 -0.15453
vt -0.34794 -0.15453
vt -0.35037 -0.15453
vt -0.35395 -0.15453
vt -0.35913 -0.15453
vt -0.37100 -0.15453
vt -0.38287 -0.15453
vt -0.38805 -0.15453
vt -0.39163 -0.15453
vt -0.39406 -0.15453
vt -0.39549 -0.15453
vt -0.39596 -0.15453
vt -0.39549 -0.15453
vt -0.39406 -0.15453
vt -0.39163 -0.15453
vt -0.38805 -0.15453
vt -0.38287 -0.15453
vt -0.37100 -0.14552
vt -0.35395 -0.14552
vt -0.34651 -0.14552
vt -0.34136 -0.14552
vt -0.33787 -0.14552
vt -0.33582 -0.14552
vt -0.33514 -0.14552
vt -0.33582 -0.14552
vt -0.33787 -0.14552
vt -0.34136 -0.14552
vt -0.34651 -0.14552
vt -0.35395 -0.14552
vt -0.37100 -0.14552
vt -0.38805 -0.14552
vt -0.39549 -0.14552
vt -0.40064 -0.14552
vt -0.40413 -0.14552
vt -0.40618 -0.14552
vt -0.40686 -0.14552
vt -0.40618 -0.14552
vt -0.40413 -0.14552
vt -0.40064 -0.14552
vt -0.39549 -0.14552
vt -0.38805 -0.14552
vt -0.37100 -0.13017
vt -0.35037 -0.13017
vt -0.34136 -0.13017
vt -0.33514 -0.13017
vt -0.33091 -0.13017
vt -0.32843 -0.13017
vt -0.32761 -0.13017
vt -0.32843 -0.13017
vt -0.33091 -0.13017
vt -0.33514 -0.13017
vt -0.34136 -0.13017
vt -0.35037 -0.13017
vt -0.37100 -0.13017
vt -0.39163 -0.13017
vt -0.40064 -0.13017
vt -0.40686 -0.13017
vt -0.41109 -0.13017
vt -0.41357 -0.13017
vt -0.41439 -0.13017
vt -0.41357 -0.13017
vt -0.41109 -0.13017
vt -0.40686 -0.13017
vt -0.40064 -0.13017
vt -0.39163 -0.13017
vt -0.37100 -0.10758
vt -0.34794 -0.10758
vt -0.33787 -0.10758
vt -0.33091 -0.10758
vt -0.32618 -0.10758
vt -0.32341 -0.10758
vt -0.32249 -0.10758
vt -0.32341 -0.10758
vt -0.32618 -0.10758
vt -0.33091 -0.10758
vt -0.33787 -0.10758
vt -0.34794 -0.10758
vt -0.37100 -0.10758
vt -0.39406 -0.10758
vt -0.40413 -0.10758
vt -0.41109 -0.10758
vt -0.41582 -0.10758
vt -0.41859 -0.10758
vt -0.41951 -0.10758
vt -0.41859 -0.10758
vt -0.41582 -0.10758
vt -0.41109 -0.10758
vt -0.40413 -0.10758
vt -0.39406 -0.10758
vt -0.37100 -0.07489
vt -0.34651 -0.07489
vt -0.33582 -0.07489
vt -0.32843 -0.07489
vt -0.32341 -0.07489
vt -0.32046 -0.07489
vt -0.31949 -0.07489
vt -0.32046 -0.07489
vt -0.32341 -0.07489
vt -0.32843 -0.07489
vt -0.33582 -0.07489
vt -0.34651 -0.07489
vt -0.37100 -0.07489
vt -0.39549 -0.07489
vt -0.40618 -0.07489
vt -0.41357 -0.07489
vt -0.41859 -0.07489
vt -0.42154 -0.07489
vt -0.42251 -0.07489
vt -0.42154 -0.07489
vt -0.41859 -0.07489
vt -0.41357 -0.07489
vt -0.40618 -0.07489
vt -0.39549 -0.07489
vt -0.37100 0.00000
vt -0.34604 0.00000
vt -0.33514 0.00000
vt -0.32761 0.00000
vt -0.32249 0.00000
vt -0.31949 0.00000
vt -0.31850 0.00000
vt -0.31949 0.00000
vt -0.32249 0.00000
vt -0.32761 0.00000
vt -0.33514 0.00000
vt -0.34604 0.00000
vt -0.37100 0.00000
vt -0.39596 0.00000
vt -0.40686 0.00000
vt -0.41439 0.00000
vt -0.41951 0.00000
vt -0.42251 0.00000
vt -0.42350 0.00000
vt -0.42251 0.00000
vt -0.41951 0.00000
vt -0.41439 0.00000
vt -0.40686 0.00000
vt -0.39596 0.00000
vt -0.37100 0.07489
vt -0.34651 0.07489
vt -0.33582 0.07489
vt -0.32843 0.07489
vt -0.32341 0.07489
vt -0.32046 0.07489
vt -0.31949 0.07489
vt -0.32046 0.07489
vt -0.32341 0.07489
vt -0.32843 0.07489
vt -0.33582 0.07489
vt -0.34651 0.07489
vt -0.37100 0.07489
vt -0.39549 0.07489
vt -0.40618 0.07489
vt -0.41357 0.07489
vt -0.41859 0.07489
vt -0.42154 0.07489
vt -0.42251 0.07489
vt -0.42154 0.07489
vt -0.41859 0.07489
vt -0.41357 0.07489
vt -0.40618 0.07489
vt -0.39549 0.07489
vt -0.37100 0.10758
vt -0.34794 0.10758
vt -0.33787 0.10758
vt -0.33091 0.10758
vt -0.32618 0.10758
vt -0.32341 0.10758
vt -0.32249 0.10758
vt -0.32341 0.10758
vt -0.32618 0.10758
vt -0.33091 0.10758
vt -0.33787 0.10758
vt -0.34794 0.10758
vt -0.37100 0.10758
vt -0.39406 0.10758
vt -0.40413 0.10758
vt -0.41109 0.10758
vt -0.41582 0.10758
vt -0.41859 0.10758
vt -0.41951 0.10758
vt -0.41859 0.10758
vt -0.41582 0.10758
vt -0.41109 0.10758
vt -0.40413 0.10758
vt -0.39406 0.10758
vt -0.37100 0.13017
vt -0.35037 0.13017
vt -0.34136 0.13017
vt -0.33514 0.13017
vt -0.33091 0.13017
vt -0.32843 0.13017
vt -0.32761 0.13017
vt -0.32843 0.13017
vt -0.33091 0.13017
vt -0.33514 0.13017
vt -0.34136 0.13017
vt -0.35037 0.13017
vt -0.37100 0.13017
vt -0.39163 0.13017
vt -0.40064 0.13017
vt -0.40686 0.13017
vt -0.41109 0.13017
vt -0.41357 0.13017
vt -0.41439 0.13017
vt -0.41357 0.13017
vt -0.41109 0.13017
vt -0.40686 0.13017
vt -0.40064 0.13017
vt -0.39163 0.13017
vt -0.37100 0.14552
vt -0.35395 0.14552
vt -0.34651 0.14552
vt -0.34136 0.14552
vt -0.33787 0.14552
vt -0.33582 0.14552
vt -0.33514 0.14552
vt -0.33582 0.14552
vt -0.33787 0.14552
vt -0.34136 0.14552
vt -0.34651 0.14552
vt -0.35395 0.14552
vt -0.37100 0.14552
vt -0.38805 0.14552
vt -0.39549 0.14552
vt -0.40064 0.14552
vt -0.40413 0.14552
vt -0.40618 0.14552
vt -0.40686 0.14552
vt -0.40618 0.14552
vt -0.40413 0.14552
vt -0.40064 0.14552
vt -0.39549 0.14552
vt -0.38805 0.14552
vt -0.37100 0.15453
vt -0.35913 0.15453
vt -0.35395 0.15453
vt -0.35037 0.15453
vt -0.34794 0.15453
vt -0.34651 0.15453
vt -0.34604 0.15453
vt -0.34651 0.15453
vt -0.34794 0.15453
vt -0.35037 0.15453
vt -0.35395 0.15453
vt -0.35913 0.15453
vt -0.37100 0.15453
vt -0.38287 0.15453
vt -0.38805 0.15453
vt -0.39163 0.15453
vt -0.39406 0.15453
vt -0.39549 0.15453
vt -0.39596 0.15453
vt -0.39549 0.15453
vt -0.39406 0.15453
vt -0.39163 0.15453
vt -0.38805 0.15453
vt -0.38287 0.15453
vt -0.37100 0.15750
vt -0.37100 0.15750
vt -0.37100 0.15750
vt -0.37100 0.15750
vt -0.37100 0.15750
vt -0.37100 0.15750
vt -0.37100 0.15750
vt -0.37100 0.15750
vt -0.37100 0.15750
vt -0.37100 0.15750
vt -0.37100 0.15750
vt -0.37100 0.15750
vt -0.37100 0.15750
vt -0.37100 0.15750
vt -0.37100 0.15750
vt -0.37100 0.15750
vt -0.37100 0.15750
vt -0.37100 0.15750
vt -0.37100 0.15750
vt -0.37100 0.15750
vt -0.37100 0.15750
vt -0.37100 0.15750
vt -0.37100 0.15750
vt -0.37100 0.15750
vt 0.37100 -0.15750
vt 0.37100 -0.15750
vt 0.37100 -0.15750
vt 0.37100 -0.15750
vt 0.37100 -0.15750
vt 0.37100 -0.15750
vt 0.37100 -0.15750
vt 0.37100 -0.15750
vt 0.37100 -0.15750
vt 0.37100 -0.15750
vt 0.37100 -0.15750
vt 0.37100 -0.15750
vt 0.37100 -0.15750
vt 0.37100 -0.15750
vt 0.37100 -0.15750
vt 0.37100 -0.15750
vt 0.37100 -0.15750
vt 0.37100 -0.15750
vt 0.37100 -0.15750
vt 0.37100 -0.15750
vt 0.37100 -0.15750
vt 0.37100 -0.15750
vt 0.37100 -0.15750
vt 0.37100 -0.15750
vt 0.37100 -0.15453
vt 0.38287 -0.15453
vt 0.38805 -0.15453
vt 0.39163 -0.15453
vt 0.39406 -0.15453
vt 0.39549 -0.15453
vt 0.39596 -0.15453
vt 0.39549 -0.15453
vt 0.39406 -0.15453
vt 0.39163 -0.15453
vt 0.38805 -0.15453
vt 0.38287 -0.15453
vt 0.37100 -0.15453
vt 0.35913 -0.15453
vt 0.35395 -0.15453
vt 0.35037 -0.15453
vt 0.34794 -0.15453
vt 0.34651 -0.15453
vt 0.34604 -0.15453
vt 0.34651 -0.15453
vt 0.34794 -0.15453
vt 0.35037 -0.15453
vt 0.35395 -0.15453
vt 0.35913 -0.15453
vt 0.37100 -0.14552
vt 0.38805 -0.14552
vt 0.39549 -0.14552
vt 0.40064 -0.14552
vt 0.40413 -0.14552
vt 0.40618 -0.14552
vt 0.40686 -0.14552
vt 0.40618 -0.14552
vt 0.40413 -0.14552
vt 0.40064 -0.14552
vt 0.39549 -0.14552
vt 0.38805 -0.14552
vt 0.37100 -0.14552
vt 0.35395 -0.14552
vt 0.34651 -0.14552
vt 0.34136 -0.14552
vt 0.33787 -0.14552
vt 0.33582 -0.14552
vt 0.33514 -0.14552
vt 0.33582 -0.14552
vt 0.33787 -0.14552
vt 0.34136 -0.14552
vt 0.34651 -0.14552
vt 0.35395 -0.14552
vt 0.37100 -0.13017
vt 0.39163 -0.13017
vt 0.40064 -0.13017
vt 0.40686 -0.13017
vt 0.41109 -0.13017
vt 0.41357 -0.13017
vt 0.41439 -0.13017
vt 0.41357 -0.13017
vt 0.41109 -0.13017
vt 0.40686 -0.13017
vt 0.40064 -0.13017
vt 0.39163 -0.13017
vt 0.37100 -0.13017
vt 0.35037 -0.13017
vt 0.34136 -0.13017
vt 0.33514 -0.13017
vt 0.33091 -0.13017
vt 0.32843 -0.13017
vt 0.32761 -0.13017
vt 0.32843 -0.13017
vt 0.33091 -0.13017
vt 0.33514 -0.13017
vt 0.34136 -0.13017
vt 0.35037 -0.13017
vt 0.37100 -0.10758
vt 0.39406 -0.10758
vt 0.40413 -0.10758
vt 0.41109 -0.10758
vt 0.41582 -0.10758
vt 0.41859 -0.10758
vt 0.41951 -0.10758
vt 0.41859 -0.10758
vt 0.41582 -0.10758
vt 0.41109 -0.10758
vt 0.40413 -0.10758
vt 0.39406 -0.10758
vt 0.37100 -0.10758
vt 0.34794 -0.10758
vt 0.33787 -0.10758
vt 0.33091 -0.10758
vt 0.32618 -0.10758
vt 0.32341 -0.10758
vt 0.32249 -0.10758
vt 0.32341 -0.10758
vt 0.32618 -0.10758
vt 0.33091 -0.10758
vt 0.33787 -0.10758
vt 0.34794 -0.10758
vt 0.37100 -0.07489
vt 0.39549 -0.07489
vt 0.40618 -0.07489
vt 0.41357 -0.07489
vt 0.41859 -0.07489
vt 0.42154 -0.07489
vt 0.42251 -0.07489
vt 0.42154 -0.07489
vt 0.41859 -0.07489
vt 0.41357 -0.07489
vt 0.40618 -0.07489
vt 0.39549 -0.07489
vt 0.37100 -0.07489
vt 0.34651 -0.07489
vt 0.33582 -0.07489
vt 0.32843 -0.07489
vt 0.32341 -0.07489
vt 0.32046 -0.07489
vt 0.31949 -0.07489
vt 0.32046 -0.07489
vt 0.32341 -0.07489
vt 0.32843 -0.07489
vt 0.33582 -0.07489
vt 0.34651 -0.07489
vt 0.37100 0.00000
vt 0.39596 0.00000
vt 0.40686 0.00000
vt 0.41439 0.00000
vt 0.41951 0.00000
vt 0.42251 0.00000
vt 0.42350 0.00000
vt 0.42251 0.00000
vt 0.41951 0.00000
vt 0.41439 0.00000
vt 0.40686 0.00000
vt 0.39596 0.00000
vt 0.37100 0.00000
vt 0.34604 0.00000
vt 0.33514 0.00000
vt 0.32761 0.00000
vt 0.32249 0.00000
vt 0.31949 0.00000
vt 0.31850 0.00000
vt 0.31949 0.00000
vt 0.32249 0.00000
vt 0.32761 0.00000
vt 0.33514 0.00000
vt 0.34604 0.00000
vt 0.37100 0.07489
vt 0.39549 0.07489
vt 0.40618 0.07489
vt 0.41357 0.07489
vt 0.41859 0.07489
vt 0.42154 0.07489
vt 0.42251 0.07489
vt 0.42154 0.07489
vt 0.41859 0.07489
vt 0.41357 0.07489
vt 0.40618 0.07489
vt 0.39549 0.07489
vt 0.37100 0.07489
vt 0.34651 0.07489
vt 0.33582 0.07489
vt 0.32843 0.07489
vt 0.32341 0.07489
vt 0.32046 0.07489
vt 0.31949 0.07489
vt 0.32046 0.07489
vt 0.32341 0.07489
vt 0.32843 0.07489
vt 0.33582 0.07489
vt 0.34651 0.07489
vt 0.37100 0.10758
vt 0.39406 0.10758
vt 0.40413 0.10758
vt 0.41109 0.10758
vt 0.41582 0.10758
vt 0.41859 0.10758
vt 0.41951 0.10758
vt 0.41859 0.10758
vt 0.41582 0.10758
vt 0.41109 0.10758
vt 0.40413 0.10758
vt 0.39406 0.10758
vt 0.37100 0.10758
vt 0.34794 0.10758
vt 0.33787 0.10758
vt 0.33091 0.10758
vt 0.32618 0.10758
vt 0.32341 0.10758
vt 0.32249 0.10758
vt 0.32341 0.10758
vt 0.32618 0.10758
vt 0.33091 0.10758
vt 0.33787 0.10758
vt 0.34794 0.10758
vt 0.37100 0.13017
vt 0.39163 0.13017
vt 0.40064 0.13017
vt 0.40686 0.13017
vt 0.41109 0.13017
vt 0.41357 0.13017
vt 0.41439 0.13017
vt 0.41357 0.13017
vt 0.41109 0.13017
vt 0.40686 0.13017
vt 0.40064 0.13017
vt 0.39163 0.13017
vt 0.37100 0.13017
vt 0.35037 0.13017
vt 0.34136 0.13017
vt 0.33514 0.13017
vt 0.33091 0.13017
vt 0.32843 0.13017
vt 0.32761 0.13017
vt 0.32843 0.13017
vt 0.33091 0.13017
vt 0.33514 0.13017
vt 0.34136 0.13017
vt 0.35037 0.13017
vt 0.37100 0.14552
vt 0.38805 0.14552
vt 0.39549 0.14552
vt 0.40064 0.14552
vt 0.40413 0.14552
vt 0.40618 0.14552
vt 0.40686 0.14552
vt 0.40618 0.14552
vt 0.40413 0.14552
vt 0.40064 0.14552
vt 0.39549 0.14552
vt 0.38805 0.14552
vt 0.37100 0.14552
vt 0.35395 0.14552
vt 0.34651 0.14552
vt 0.34136 0.14552
vt 0.33787 0.14552
vt 0.33582 0.14552
vt 0.33514 0.14552
vt 0.33582 0.14552
vt 0.33787 0.14552
vt 0.34136 0.14552
vt 0.34651 0.14552
vt 0.35395 0.14552
vt 0.37100 0.15453
vt 0.38287 0.15453
vt 0.38805 0.15453
vt 0.39163 0.15453
vt 0.39406 0.15453
vt 0.39549 0.15453
vt 0.39596 0.15453
vt 0.39549 0.15453
vt 0.39406 0.15453
vt 0.39163 0.15453
vt 0.38805 0.15453
vt 0.38287 0.15453
vt 0.37100 0.15453
vt 0.35913 0.15453
vt 0.35395 0.15453
vt 0.35037 0.15453
vt 0.34794 0.15453
vt 0.34651 0.15453
vt 0.34604 0.15453
vt 0.34651 0.15453
vt 0.34794 0.15453
vt 0.35037 0.15453
vt 0.35395 0.15453
vt 0.35913 0.15453
vt 0.37100 0.15750
vt 0.37100 0.15750
vt 0.37100 0.15750
vt 0.37100 0.15750
vt 0.37100 0.15750
vt 0.37100 0.15750
vt 0.37100 0.15750
vt 0.37100 0.15750
vt 0.37100 0.15750
vt 0.37100 0.15750
vt 0.37100 0.15750
vt 0.37100 0.15750
vt 0.37100 0.15750
vt 0.37100 0.15750
vt 0.37100 0.15750
vt 0.37100 0.15750
vt 0.37100 0.15750
vt 0.37100 0.15750
vt 0.37100 0.15750
vt 0.37100 0.15750
vt 0.37100 0.15750
vt 0.37100 0.15750
vt 0.37100 0.15750
vt 0.37100 0.15750
vt 0.00000 0.05250
vt 0.00000 0.05250
vt 0.00000 0.05250
vt 0.00000 0.05250
vt 0.00000 0.05250
vt 0.00000 0.05250
vt 0.00000 0.05250
vt 0.00000 0.05250
vt 0.00000 0.05250
vt 0.00000 0.05250
vt 0.00000 0.05250
vt 0.00000 0.05250
vt 0.00000 0.05250
vt -0.00000 0.05250
vt -0.00000 0.05250
vt -0.00000 0.05250
vt -0.00000 0.05250
vt -0.00000 0.05250
vt -0.00000 0.05250
vt -0.00000 0.05250
vt -0.00000 0.05250
vt -0.00000 0.05250
vt -0.00000 0.05250
vt -0.00000 0.05250
vt 0.00000 0.05341
vt 0.03500 0.05341
vt 0.04264 0.05341
vt 0.04731 0.05341
vt 0.05028 0.05341
vt 0.05196 0.05341
vt 0.05250 0.05341
vt 0.05196 0.05341
vt 0.05028 0.05341
vt 0.04731 0.05341
vt 0.04264 0.05341
vt 0.03500 0.05341
vt 0.00000 0.05341
vt -0.03500 0.05341
vt -0.04264 0.05341
vt -0.04731 0.05341
vt -0.05028 0.05341
vt -0.05196 0.05341
vt -0.05250 0.05341
vt -0.05196 0.05341
vt -0.05028 0.05341
vt -0.04731 0.05341
vt -0.04264 0.05341
vt -0.03500 0.05341
vt 0.00000 0.05620
vt 0.04264 0.05620
vt 0.05196 0.05620
vt 0.05765 0.05620
vt 0.06126 0.05620
vt 0.06330 0.05620
vt 0.06396 0.05620
vt 0.06330 0.05620
vt 0.06126 0.05620
vt 0.05765 0.05620
vt 0.05196 0.05620
vt 0.04264 0.05620
vt 0.00000 0.05620
vt -0.04264 0.05620
vt -0.05196 0.05620
vt -0.05765 0.05620
vt -0.06126 0.05620
vt -0.06330 0.05620
vt -0.06396 0.05620
vt -0.06330 0.05620
vt -0.06126 0.05620
vt -0.05765 0.05620
vt -0.05196 0.05620
vt -0.04264 0.05620
vt 0.00000 0.06114
vt 0.04731 0.06114
vt 0.05765 0.06114
vt 0.06396 0.06114
vt 0.06798 0.06114
vt 0.07024 0.06114
vt 0.07097 0.06114
vt 0.07024 0.06114
vt 0.06798 0.06114
vt 0.06396 0.06114
vt 0.05765 0.06114
vt 0.04731 0.06114
vt 0.00000 0.06114
vt -0.04731 0.06114
vt -0.05765 0.06114
vt -0.06396 0.06114
vt -0.06798 0.06114
vt -0.07024 0.06114
vt -0.07097 0.06114
vt -0.07024 0.06114
vt -0.06798 0.06114
vt -0.06396 0.06114
vt -0.05765 0.06114
vt -0.04731 0.06114
vt 0.00000 0.06893
vt 0.05028 0.06893
vt 0.06126 0.06893
vt 0.06798 0.06893
vt 0.07224 0.06893
vt 0.07464 0.06893
vt 0.07542 0.06893
vt 0.07464 0.06893
vt 0.07224 0.06893
vt 0.06798 0.06893
vt 0.06126 0.06893
vt 0.05028 0.06893
vt 0.00000 0.06893
vt -0.05028 0.06893
vt -0.06126 0.06893
vt -0.06798 0.06893
vt -0.07224 0.06893
vt -0.07464 0.06893
vt -0.07542 0.06893
vt -0.07464 0.06893
vt -0.07224 0.06893
vt -0.06798 0.06893
vt -0.06126 0.06893
vt -0.05028 0.06893
vt 0.00000 0.08167
vt 0.05196 0.08167
vt 0.06330 0.08167
vt 0.07024 0.08167
vt 0.07464 0.08167
vt 0.07713 0.08167
vt 0.07794 0.08167
vt 0.07713 0.08167
vt 0.07464 0.08167
vt 0.07024 0.08167
vt 0.06330 0.08167
vt 0.05196 0.08167
vt 0.00000 0.08167
vt -0.05196 0.08167
vt -0.06330 0.08167
vt -0.07024 0.08167
vt -0.07464 0.08167
vt -0.07713 0.08167
vt -0.07794 0.08167
vt -0.07713 0.08167
vt -0.07464 0.08167
vt -0.07024 0.08167
vt -0.06330 0.08167
vt -0.05196 0.08167
vt 0.00000 0.14000
vt 0.05250 0.14000
vt 0.06396 0.14000
vt 0.07097 0.14000
vt 0.07542 0.14000
vt 0.07794 0.14000
vt 0.07875 0.14000
vt 0.07794 0.14000
vt 0.07542 0.14000
vt 0.07097 0.14000
vt 0.06396 0.14000
vt 0.05250 0.14000
vt 0.00000 0.14000
vt -0.05250 0.14000
vt -0.06396 0.14000
vt -0.07097 0.14000
vt -0.07542 0.14000
vt -0.07794 0.14000
vt -0.07875 0.14000
vt -0.07794 0.14000
vt -0.07542 0.14000
vt -0.07097 0.14000
vt -0.06396 0.14000
vt -0.05250 0.14000
vt 0.00000 0.19833
vt 0.05196 0.19833
vt 0.06330 0.19833
vt 0.07024 0.19833
vt 0.07464 0.19833
vt 0.07713 0.19833
vt 0.07794 0.19833
vt 0.07713 0.19833
vt 0.07464 0.19833
vt 0.07024 0.19833
vt 0.06330 0.19833
vt 0.05196 0.19833
vt 0.00000 0.19833
vt -0.05196 0.19833
vt -0.06330 0.19833
vt -0.07024 0.19833
vt -0.07464 0.19833
vt -0.07713 0.19833
vt -0.07794 0.19833
vt -0.07713 0.19833
vt -0.07464 0.19833
vt -0.07024 0.19833
vt -0.06330 0.19833
vt -0.05196 0.19833
vt 0.00000 0.21107
vt 0.05028 0.21107
vt 0.06126 0.21107
vt 0.06798 0.21107
vt 0.07224 0.21107
vt 0.07464 0.21107
vt 0.07542 0.21107
vt 0.07464 0.21107
vt 0.07224 0.21107
vt 0.06798 0.21107
vt 0.06126 0.21107
vt 0.05028 0.21107
vt 0.00000 0.21107
vt -0.05028 0.21107
vt -0.06126 0.21107
vt -0.06798 0.21107
vt -0.07224 0.21107
vt -0.07464 0.21107
vt -0.07542 0.21107
vt -0.07464 0.21107
vt -0.07224 0.21107
vt -0.06798 0.21107
vt -0.06126 0.21107
vt -0.05028 0.21107
vt 0.00000 0.21886
vt 0.04731 0.21886
vt 0.05765 0.21886
vt 0.06396 0.21886
vt 0.06798 0.21886
vt 0.07024 0.21886
vt 0.07097 0.21886
vt 0.07024 0.21886
vt 0.06798 0.21886
vt 0.06396 0.21886
vt 0.05765 0.21886
vt 0.04731 0.21886
vt 0.00000 0.21886
vt -0.04731 0.21886
vt -0.05765 0.21886
vt -0.06396 0.21886
vt -0.06798 0.21886
vt -0.07024 0.21886
vt -0.07097 0.21886
vt -0.07024 0.21886
vt -0.06798 0.21886
vt -0.06396 0.21886
vt -0.05765 0.21886
vt -0.04731 0.21886
vt 0.00000 0.22380
vt 0.04264 0.22380
vt 0.05196 0.22380
vt 0.05765 0.22380
vt 0.06126 0.22380
vt 0.06330 0.22380
vt 0.06396 0.22380
vt 0.06330 0.22380
vt 0.06126 0.22380
vt 0.05765 0.22380
vt 0.05196 0.22380
vt 0.04264 0.22380
vt 0.00000 0.22380
vt -0.04264 0.22380
vt -0.05196 0.22380
vt -0.05765 0.22380
vt -0.06126 0.22380
vt -0.06330 0.22380
vt -0.06396 0.22380
vt -0.06330 0.22380
vt -0.06126 0.22380
vt -0.05765 0.22380
vt -0.05196 0.22380
vt -0.04264 0.22380
vt 0.00000 0.22659
vt 0.03500 0.22659
vt 0.04264 0.22659
vt 0.04731 0.22659
vt 0.05028 0.22659
vt 0.05196 0.22659
vt 0.05250 0.22659
vt 0.05196 0.22659
vt 0.05028 0.22659
vt 0.04731 0.22659
vt 0.04264 0.22659
vt 0.03500 0.22659
vt 0.00000 0.22659
vt -0.03500 0.22659
vt -0.04264 0.22659
vt -0.04731 0.22659
vt -0.05028 0.22659
vt -0.05196 0.22659
vt -0.05250 0.22659
vt -0.05196 0.22659
vt -0.05028 0.22659
vt -0.04731 0.22659
vt -0.04264 0.22659
vt -0.03500 0.22659
vt 0.00000 0.22750
vt 0.00000 0.22750
vt 0.00000 0.22750
vt 0.00000 0.22750
vt 0.00000 0.22750
vt 0.00000 0.22750
vt 0.00000 0.22750
vt 0.00000 0.22750
vt 0.00000 0.22750
vt 0.00000 0.22750
vt 0.00000 0.22750
vt 0.00000 0.22750
vt 0.00000 0.22750
vt -0.00000 0.22750
vt -0.00000 0.22750
vt -0.00000 0.22750
vt -0.00000 0.22750
vt -0.00000 0.22750
vt -0.00000 0.22750
vt -0.00000 0.22750
vt -0.00000 0.22750
vt -0.00000 0.22750
vt -0.00000 0.22750
vt -0.00000 0.22750
f 25/25 26/26 2/2 1/1
f 26/26 27/27 3/3 2/2
f 27/27 28/28 4/4 3/3
f 28/28 29/29 5/5 4/4
f 29/29 30/30 6/6 5/5
f 30/30 31/31 7/7 6/6
f 31/31 32/32 8/8 7/7
f 32/32 33/33 9/9 8/8
f 33/33 34/34 10/10 9/9
f 34/34 35/35 11/11 10/10
f 35/35 36/36 12/12 11/11
f 36/36 37/37 13/13 12/12
f 37/37 38/38 14/14 13/13
f 38/38 39/39 15/15 14/14
f 39/39 40/40 16/16 15/15
f 40/40 41/41 17/17 16/16
f 41/41 42/42 18/18 17/17
f 42/42 43/43 19/19 18/18
f 43/43 44/44 20/20 19/19
f 44/44 45/45 21/21 20/20
f 45/45 46/46 22/22 21/21
f 46/46 47/47 23/23 22/22
f 47/47 48/48 24/24 23/23
f 48/48 25/25 1/1 24/24
f 49/49 50/50 26/26 25/25
f 50/50 51/51 27/27 26/26
f 51/51 52/52 28/28 27/27
f 52/52 53/53 29/29 28/28
f 53/53 54/54 30/30 29/29
f 54/54 55/55 31/31 30/30
f 55/55 56/56 32/32 31/31
f 56/56 57/57 33/33 32/32
f 57/57 58/58 34/34 33/33
f 58/58 59/59 35/35 34/34
f 59/59 60/60 36/36 35/35
f 60/60 61/61 37/37 36/36
f 61/61 62/62 38/38 37/37
f 62/62 63/63 39/39 38/38
f 63/63 64/64 40/40 39/39
f 64/64 65/65 41/41 40/40
f 65/65 66/66 42/42 41/41
f 66/66 67/67 43/43 42/42
f 67/67 68/68 44/44 43/43
f 68/68 69/69 45/45 44/44
f 69/69 70/70 46/46 45/45
f 70/70 71/71 47/47 46/46
f 71/71 72/72 48/48 47/47
f 72/72 49/49 25/25 48/48
f 73/73 74/74 50/50 49/49
f 74/74 75/75 51/51 50/50
f 75/75 76/76 52/52 51/51
f 76/76 77/77 53/53 52/52
f 77/77 78/78 54/54 53/53
f 78/78 79/79 55/55 54/54
f 79/79 80/80 56/56 55/55
f 80/80 81/81 57/57 56/56
f 81/81 82/82 58/58 57/57
f 82/82 83/83 59/59 58/58
f 83/83 84/84 60/60 59/59
f 84/84 85/85 61/61 60/60
f 85/85 86/86 62/62 61/61
f 86/86 87/87 63/63 62/62
f 87/87 88/88 64/64 63/63
f 88/88 89/89 65/65 64/64
f 89/89 90/90 66/66 65/65
f 90/90 91/91 67/67 66/66
f 91/91 92/92 68/68 67/67
f 92/92 93/93 69/69 68/68
f 93/93 94/94 70/70 69/69
f 94/94 95/95 71/71 70/70
f 95/95 96/96 72/72 71/71
f 96/96 73/73 49/49 72/72
f 97/97 98/98 74/74 73/73
f 98/98 99/99 75/75 74/74
f 99/99 100/100 76/76 75/75
f 100/100 101/101 77/77 76/76
f 101/101 102/102 78/78 77/77
f 102/102 103/103 79/79 78/78
f 103/103 104/104 80/80 79/79
f 104/104 105/105 81/81 80/80
f 105/105 106/106 82/82 81/81
f 106/106 107/107 83/83 82/82
f 107/107 108/108 84/84 83/83
f 108/108 109/109 85/85 84/84
f 109/109 110/110 86/86 85/85
f 110/110 111/111 87/87 86/86
f 111/111 112/112 88/88 87/87
f 112/112 113/113 89/89 88/88
f 113/113 114/114 90/90 89/89
f 114/114 115/115 91/91 90/90
f 115/115 116/116 92/92 91/91
f 116/116 117/117 93/93 92/92
f 117/117 118/118 94/94 93/93
f 118/118 119/119 95/95 94/94
f 119/119 120/120 96/96 95/95
f 120/120 97/97 73/73 96/96
f 121/121 122/122 98/98 97/97
f 122/122 123/123 99/99 98/98
f 123/123 124/124 100/100 99/99
f 124/124 125/125 101/101 100/100
f 125/125 126/126 102/102 101/101
f 126/126 127/127 103/103 102/102
f 127/127 128/128 104/104 103/103
f 128/128 129/129 105/105 104/104
f 129/129 130/130 106/106 105/105
f 130/130 131/131 107/107 106/106
f 131/131 132/132 108/108 107/107
f 132/132 133/133 109/109 108/108
f 133/133 134/134 110/110 109/109
f 134/134 135/135 111/111 110/110
f 135/135 136/136 112/112 111/111
f 136/136 137/137 113/113 112/112
f 137/137 138/138 114/114 113/113
f 138/138 139/139 115/115 114/114
f 139/139 140/140 116/116 115/115
f 140/140 141/141 117/117 116/116
f 141/141 142/142 118/118 117/117
f 142/142 143/143 119/119 118/118
f 143/143 144/144 120/120 119/119
f 144/144 121/121 97/97 120/120
f 145/145 146/146 122/122 121/121
f 146/146 147/147 123/123 122/122
f 147/147 148/148 124/124 123/123
f 148/148 149/149 125/125 124/124
f 149/149 150/150 126/126 125/125
f 150/150 151/151 127/127 126/126
f 151/151 152/152 128/128 127/127
f 152/152 153/153 129/129 128/128
f 153/153 154/154 130/130 129/129
f 154/154 155/155 131/131 130/130
f 155/155 156/156 132/132 131/131
f 156/156 157/157 133/133 132/132
f 157/157 158/158 134/134 133/133
f 158/158 159/159 135/135 134/134
f 159/159 160/160 136/136 135/135
f 160/160 161/161 137/137 136/136
f 161/161 162/162 138/138 137/137
f 162/162 163/163 139/139 138/138
f 163/163 164/164 140/140 139/139
f 164/164 165/165 141/141 140/140
f 165/165 166/166 142/142 141/141
f 166/166 167/167 143/143 142/142
f 167/167 168/168 144/144 143/143
f 168/168 145/145 121/121 144/144
f 169/169 170/170 146/146 145/145
f 170/170 171/171 147/147 146/146
f 171/171 172/172 148/148 147/147
f 172/172 173/173 149/149 148/148
f 173/173 174/174 150/150 149/149
f 174/174 175/175 151/151 150/150
f 175/175 176/176 152/152 151/151
f 176/176 177/177 153/153 152/152
f 177/177 178/178 154/154 153/153
f 178/178 179/179 155/155 154/154
f 179/179 180/180 156/156 155/155
f 180/180 181/181 157/157 156/156
f 181/181 182/182 158/158 157/157
f 182/182 183/183 159/159 158/158
f 183/183 184/184 160/160 159/159
f 184/184 185/185 161/161 160/160
f 185/185 186/186 162/162 161/161
f 186/186 187/187 163/163 162/162
f 187/187 188/188 164/164 163/163
f 188/188 189/189 165/165 164/164
f 189/189 190/190 166/166 165/165
f 190/190 191/191 167/167 166/166
f 191/191 192/192 168/168 167/167
f 192/192 169/169 145/145 168/168
f 193/193 194/194 170/170 169/169
f 194/194 195/195 171/171 170/170
f 195/195 196/196 172/172 171/171
f 196/196 197/197 173/173 172/172
f 197/197 198/198 174/174 173/173
f 198/198 199/199 175/175 174/174
f 199/199 200/200 176/176 175/175
f 200/200 201/201 177/177 176/176
f 201/201 202/202 178/178 177/177
f 202/202 203/203 179/179 178/178
f 203/203 204/204 180/180 179/179
f 204/204 205/205 181/181 180/180
f 205/205 206/206 182/182 181/181
f 206/206 207/207 183/183 182/182
f 207/207 208/208 184/184 183/183
f 208/208 209/209 185/185 184/184
f 209/209 210/210 186/186 185/185
f 210/210 211/211 187/187 186/186
f 211/211 212/212 188/188 187/187
f 212/212 213/213 189/189 188/188
f 213/213 214/214 190/190 189/189
f 214/214 215/215 191/191 190/190
f 215/215 216/216 192/192 191/191
f 216/216 193/193 169/169 192/192
f 217/217 218/218 194/194 193/193
f 218/218 219/219 195/195 194/194
f 219/219 220/220 196/196 195/195
f 220/220 221/221 197/197 196/196
f 221/221 222/222 198/198 197/197
f 222/222 223/223 199/199 198/198
f 223/223 224/224 200/200 199/199
f 224/224 225/225 201/201 200/200
f 225/225 226/226 202/202 201/201
f 226/226 227/227 203/203 202/202
f 227/227 228/228 204/204 203/203
f 228/228 229/229 205/205 204/204
f 229/229 230/230 206/206 205/205
f 230/230 231/231 207/207 206/206
f 231/231 232/232 208/208 207/207
f 232/232 233/233 209/209 208/208
f 233/233 234/234 210/210 209/209
f 234/234 235/235 211/211 210/210
f 235/235 236/236 212/212 211/211
f 236/236 237/237 213/213 212/212
f 237/237 238/238 214/214 213/213
f 238/238 239/239 215/215 214/214
f 239/239 240/240 216/216 215/215
f 240/240 217/217 193/193 216/216
f 241/241 242/242 218/218 217/217
f 242/242 243/243 219/219 218/218
f 243/243 244/244 220/220 219/219
f 244/244 245/245 221/221 220/220
f 245/245 246/246 222/222 221/221
f 246/246 247/247 223/223 222/222
f 247/247 248/248 224/224 223/223
f 248/248 249/249 225/225 224/224
f 249/249 250/250 226/226 225/225
f 250/250 251/251 227/227 226/226
f 251/251 252/252 228/228 227/227
f 252/252 253/253 229/229 228/228
f 253/253 254/254 230/230 229/229
f 254/254 255/255 231/231 230/230
f 255/255 256/256 232/232 231/231
f 256/256 257/257 233/233 232/232
f 257/257 258/258 234/234 233/233
f 258/258 259/259 235/235 234/234
f 259/259 260/260 236/236 235/235
f 260/260 261/261 237/237 236/236
f 261/261 262/262 238/238 237/237
f 262/262 263/263 239/239 238/238
f 263/263 264/264 240/240 239/239
f 264/264 241/241 217/217 240/240
f 265/265 266/266 242/242 241/241
f 266/266 267/267 243/243 242/242
f 267/267 268/268 244/244 243/243
f 268/268 269/269 245/245 244/244
f 269/269 270/270 246/246 245/245
f 270/270 271/271 247/247 246/246
f 271/271 272/272 248/248 247/247
f 272/272 273/273 249/249 248/248
f 273/273 274/274 250/250 249/249
f 274/274 275/275 251/251 250/250
f 275/275 276/276 252/252 251/251
f 276/276 277/277 253/253 252/252
f 277/277 278/278 254/254 253/253
f 278/278 279/279 255/255 254/254
f 279/279 280/280 256/256 255/255
f 280/280 281/281 257/257 256/256
f 281/281 282/282 258/258 257/257
f 282/282 283/283 259/259 258/258
f 283/283 284/284 260/260 259/259
f 284/284 285/285 261/261 260/260
f 285/285 286/286 262/262 261/261
f 286/286 287/287 263/263 262/262
f 287/287 288/288 264/264 263/263
f 288/288 265/265 241/241 264/264
f 289/289 290/290 266/266 265/265
f 290/290 291/291 267/267 266/266
f 291/291 292/292 268/268 267/267
f 292/292 293/293 269/269 268/268
f 293/293 294/294 270/270 269/269
f 294/294 295/295 271/271 270/270
f 295/295 296/296 272/272 271/271
f 296/296 297/297 273/273 272/272
f 297/297 298/298 274/274 273/273
f 298/298 299/299 275/275 274/274
f 299/299 300/300 276/276 275/275
f 300/300 301/301 277/277 276/276
f 301/301 302/302 278/278 277/277
f 302/302 303/303 279/279 278/278
f 303/303 304/304 280/280 279/279
f 304/304 305/305 281/281 280/280
f 305/305 306/306 282/282 281/281
f 306/306 307/307 283/283 282/282
f 307/307 308/308 284/284 283/283
f 308/308 309/309 285/285 284/284
f 309/309 310/310 286/286 285/285
f 310/310 311/311 287/287 286/286
f 311/311 312/312 288/288 287/287
f 312/312 289/289 265/265 288/288
f 337/337 338/338 314/314 313/313
f 338/338 339/339 315/315 314/314
f 339/339 340/340 316/316 315/315
f 340/340 341/341 317/317 316/316
f 341/341 342/342 318/318 317/317
f 342/342 343/343 319/319 318/318
f 343/343 344/344 320/320 319/319
f 344/344 345/345 321/321 320/320
f 345/345 346/346 322/322 321/321
f 346/346 347/347 323/323 322/322
f 347/347 348/348 324/324 323/323
f 348/348 349/349 325/325 324/324
f 349/349 350/350 326/326 325/325
f 350/350 351/351 327/327 326/326
f 351/351 352/352 328/328 327/327
f 352/352 353/353 329/329 328/328
f 353/353 354/354 330/330 329/329
f 354/354 355/355 331/331 330/330
f 355/355 356/356 332/332 331/331
f 356/356 357/357 333/333 332/332
f 357/357 358/358 334/334 333/333
f 358/358 359/359 335/335 334/334
f 359/359 360/360 336/336 335/335
f 360/360 337/337 313/313 336/336
f 361/361 362/362 338/338 337/337
f 362/362 363/363 339/339 338/338
f 363/363 364/364 340/340 339/339
f 364/364 365/365 341/341 340/340
f 365/365 366/366 342/342 341/341
f 366/366 367/367 343/343 342/342
f 367/367 368/368 344/344 343/343
f 368/368 369/369 345/345 344/344
f 369/369 370/370 346/346 345/345
f 370/370 371/371 347/347 346/346
f 371/371 372/372 348/348 347/347
f 372/372 373/373 349/349 348/348
f 373/373 374/374 350/350 349/349
f 374/374 375/375 351/351 350/350
f 375/375 376/376 352/352 351/351
f 376/376 377/377 353/353 352/352
f 377/377 378/378 354/354 353/353
f 378/378 379/379 355/355 354/354
f 379/379 380/380 356/356 355/355
f 380/380 381/381 357/357 356/356
f 381/381 382/382 358/358 357/357
f 382/382 383/383 359/359 358/358
f 383/383 384/384 360/360 359/359
f 384/384 361/361 337/337 360/360
f 385/385 386/386 362/362 361/361
f 386/386 387/387 363/363 362/362
f 387/387 388/388 364/364 363/363
f 388/388 389/389 365/365 364/364
f 389/389 390/390 366/366 365/365
f 390/390 391/391 367/367 366/366
f 391/391 392/392 368/368 367/367
f 392/392 393/393 369/369 368/368
f 393/393 394/394 370/370 369/369
f 394/394 395/395 371/371 370/370
f 395/395 396/396 372/372 371/371
f 396/396 397/397 373/373 372/372
f 397/397 398/398 374/374 373/373
f 398/398 399/399 375/375 374/374
f 399/399 400/400 376/376 375/375
f 400/400 401/401 377/377 376/376
f 401/401 402/402 378/378 377/377
f 402/402 403/403 379/379 378/378
f 403/403 404/404 380/380 379/379
f 404/404 405/405 381/381 380/380
f 405/405 406/406 382/382 381/381
f 406/406 407/407 383/383 382/382
f 407/407 408/408 384/384 383/383
f 408/408 385/385 361/361 384/384
f 409/409 410/410 386/386 385/385
f 410/410 411/411 387/387 386/386
f 411/411 412/412 388/388 387/387
f 412/412 413/413 389/389 388/388
f 413/413 414/414 390/390 389/389
f 414/414 415/415 391/391 390/390
f 415/415 416/416 392/392 391/391
f 416/416 417/417 393/393 392/392
f 417/417 418/418 394/394 393/393
f 418/418 419/419 395/395 394/394
f 419/419 420/420 396/396 395/395
f 420/420 421/421 397/397 396/396
f 421/421 422/422 398/398 397/397
f 422/422 423/423 399/399 398/398
f 423/423 424/424 400/400 399/399
f 424/424 425/425 401/401 400/400
f 425/425 426/426 402/402 401/401
f 426/426 427/427 403/403 402/402
f 427/427 428/428 404/404 403/403
f 428/428 429/429 405/405 404/404
f 429/429 430/430 406/406 405/405
f 430/430 431/431 407/407 406/406
f 431/431 432/432 408/408 407/407
f 432/432 409/409 385/385 408/408
f 433/433 434/434 410/410 409/409
f 434/434 435/435 411/411 410/410
f 435/435 436/436 412/412 411/411
f 436/436 437/437 413/413 412/412
f 437/437 438/438 414/414 413/413
f 438/438 439/439 415/415 414/414
f 439/439 440/440 416/416 415/415
f 440/440 441/441 417/417 416/416
f 441/441 442/442 418/418 417/417
f 442/442 443/443 419/419 418/418
f 443/443 444/444 420/420 419/419
f 444/444 445/445 421/421 420/420
f 445/445 446/446 422/422 421/421
f 446/446 447/447 423/423 422/422
f 447/447 448/448 424/424 423/423
f 448/448 449/449 425/425 424/424
f 449/449 450/450 426/426 425/425
f 450/450 451/451 427/427 426/426
f 451/451 452/452 428/428 427/427
f 452/452 453/453 429/429 428/428
f 453/453 454/454 430/430 429/429
f 454/454 455/455 431/431 430/430
f 455/455 456/456 432/432 431/431
f 456/456 433/433 409/409 432/432
f 457/457 458/458 434/434 433/433
f 458/458 459/459 435/435 434/434
f 459/459 460/460 436/436 435/435
f 460/460 461/461 437/437 436/436
f 461/461 462/462 438/438 437/437
f 462/462 463/463 439/439 438/438
f 463/463 464/464 440/440 439/439
f 464/464 465/465 441/441 440/440
f 465/465 466/466 442/442 441/441
f 466/466 467/467 443/443 442/442
f 467/467 468/468 444/444 443/443
f 468/468 469/469 445/445 444/444
f 469/469 470/470 446/446 445/445
f 470/470 471/471 447/447 446/446
f 471/471 472/472 448/448 447/447
f 472/472 473/473 449/449 448/448
f 473/473 474/474 450/450 449/449
f 474/474 475/475 451/451 450/450
f 475/475 476/476 452/452 451/451
f 476/476 477/477 453/453 452/452
f 477/477 478/478 454/454 453/453
f 478/478 479/479 455/455 454/454
f 479/479 480/480 456/456 455/455
f 480/480 457/457 433/433 456/456
f 481/481 482/482 458/458 457/457
f 482/482 483/483 459/459 458/458
f 483/483 484/484 460/460 459/459
f 484/484 485/485 461/461 460/460
f 485/485 486/486 462/462 461/461
f 486/486 487/487 463/463 462/462
f 487/487 488/488 464/464 463/463
f 488/488 489/489 465/465 464/464
f 489/489 490/490 466/466 465/465
f 490/490 491/491 467/467 466/466
f 491/491 492/492 468/468 467/467
f 492/492 493/493 469/469 468/468
f 493/493 494/494 470/470 469/469
f 494/494 495/495 471/471 470/470
f 495/495 496/496 472/472 471/471
f 496/496 497/497 473/473 472/472
f 497/497 498/498 474/474 473/473
f 498/498 499/499 475/475 474/474
f 499/499 500/500 476/476 475/475
f 500/500 501/501 477/477 476/476
f 501/501 502/502 478/478 477/477
f 502/502 503/503 479/479 478/478
f 503/503 504/504 480/480 479/479
f 504/504 481/481 457/457 480/480
f 505/505 506/506 482/482 481/481
f 506/506 507/507 483/483 482/482
f 507/507 508/508 484/484 483/483
f 508/508 509/509 485/485 484/484
f 509/509 510/510 486/486 485/485
f 510/510 511/511 487/487 486/486
f 511/511 512/512 488/488 487/487
f 512/512 513/513 489/489 488/488
f 513/513 514/514 490/490 489/489
f 514/514 515/515 491/491 490/490
f 515/515 516/516 492/492 491/491
f 516/516 517/517 493/493 492/492
f 517/517 518/518 494/494 493/493
f 518/518 519/519 495/495 494/494
f 519/519 520/520 496/496 495/495
f 520/520 521/521 497/497 496/496
f 521/521 522/522 498/498 497/497
f 522/522 523/523 499/499 498/498
f 523/523 524/524 500/500 499/499
f 524/524 525/525 501/501 500/500
f 525/525 526/526 502/502 501/501
f 526/526 527/527 503/503 502/502
f 527/527 528/528 504/504 503/503
f 528/528 505/505 481/481 504/504
f 529/529 530/530 506/506 505/505
f 530/530 531/531 507/507 506/506
f 531/531 532/532 508/508 507/507
f 532/532 533/533 509/509 508/508
f 533/533 534/534 510/510 509/509
f 534/534 535/535 511/511 510/510
f 535/535 536/536 512/512 511/511
f 536/536 537/537 513/513 512/512
f 537/537 538/538 514/514 513/513
f 538/538 539/539 515/515 514/514
f 539/539 540/540 516/516 515/515
f 540/540 541/541 517/517 516/516
f 541/541 542/542 518/518 517/517
f 542/542 543/543 519/519 518/518
f 543/543 544/544 520/520 519/519
f 544/544 545/545 521/521 520/520
f 545/545 546/546 522/522 521/521
f 546/546 547/547 523/523 522/522
f 547/547 548/548 524/524 523/523
f 548/548 549/549 525/525 524/524
f 549/549 550/550 526/526 525/525
f 550/550 551/551 527/527 526/526
f 551/551 552/552 528/528 527/527
f 552/552 529/529 505/505 528/528
f 553/553 554/554 530/530 529/529
f 554/554 555/555 531/531 530/530
f 555/555 556/556 532/532 531/531
f 556/556 557/557 533/533 532/532
f 557/557 558/558 534/534 533/533
f 558/558 559/559 535/535 534/534
f 559/559 560/560 536/536 535/535
f 560/560 561/561 537/537 536/536
f 561/561 562/562 538/538 537/537
f 562/562 563/563 539/539 538/538
f 563/563 564/564 540/540 539/539
f 564/564 565/565 541/541 540/540
f 565/565 566/566 542/542 541/541
f 566/566 567/567 543/543 542/542
f 567/567 568/568 544/544 543/543
f 568/568 569/569 545/545 544/544
f 569/569 570/570 546/546 545/545
f 570/570 571/571 547/547 546/546
f 571/571 572/572 548/548 547/547
f 572/572 573/573 549/549 548/548
f 573/573 574/574 550/550 549/549
f 574/574 575/575 551/551 550/550
f 575/575 576/576 552/552 551/551
f 576/576 553/553 529/529 552/552
f 577/577 578/578 554/554 553/553
f 578/578 579/579 555/555 554/554
f 579/579 580/580 556/556 555/555
f 580/580 581/581 557/557 556/556
f 581/581 582/582 558/558 557/557
f 582/582 583/583 559/559 558/558
f 583/583 584/584 560/560 559/559
f 584/584 585/585 561/561 560/560
f 585/585 586/586 562/562 561/561
f 586/586 587/587 563/563 562/562
f 587/587 588/588 564/564 563/563
f 588/588 589/589 565/565 564/564
f 589/589 590/590 566/566 565/565
f 590/590 591/591 567/567 566/566
f 591/591 592/592 568/568 567/567
f 592/592 593/593 569/569 568/568
f 593/593 594/594 570/570 569/569
f 594/594 595/595 571/571 570/570
f 595/595 596/596 572/572 571/571
f 596/596 597/597 573/573 572/572
f 597/597 598/598 574/574 573/573
f 598/598 599/599 575/575 574/574
f 599/599 600/600 576/576 575/575
f 600/600 577/577 553/553 576/576
f 601/601 602/602 578/578 577/577
f 602/602 603/603 579/579 578/578
f 603/603 604/604 580/580 579/579
f 604/604 605/605 581/581 580/580
f 605/605 606/606 582/582 581/581
f 606/606 607/607 583/583 582/582
f 607/607 608/608 584/584 583/583
f 608/608 609/609 585/585 584/584
f 609/609 610/610 586/586 585/585
f 610/610 611/611 587/587 586/586
f 611/611 612/612 588/588 587/587
f 612/612 613/613 589/589 588/588
f 613/613 614/614 590/590 589/589
f 614/614 615/615 591/591 590/590
f 615/615 616/616 592/592 591/591
f 616/616 617/617 593/593 592/592
f 617/617 618/618 594/594 593/593
f 618/618 619/619 595/595 594/594
f 619/619 620/620 596/596 595/595
f 620/620 621/621 597/597 596/596
f 621/621 622/622 598/598 597/597
f 622/622 623/623 599/599 598/598
f 623/623 624/624 600/600 599/599
f 624/624 601/601 577/577 600/600
f 649/649 650/650 626/626 625/625
f 650/650 651/651 627/627 626/626
f 651/651 652/652 628/628 627/627
f 652/652 653/653 629/629 628/628
f 653/653 654/654 630/630 629/629
f 654/654 655/655 631/631 630/630
f 655/655 656/656 632/632 631/631
f 656/656 657/657 633/633 632/632
f 657/657 658/658 634/634 633/633
f 658/658 659/659 635/635 634/634
f 659/659 660/660 636/636 635/635
f 660/660 661/661 637/637 636/636
f 661/661 662/662 638/638 637/637
f 662/662 663/663 639/639 638/638
f 663/663 664/664 640/640 639/639
f 664/664 665/665 641/641 640/640
f 665/665 666/666 642/642 641/641
f 666/666 667/667 643/643 642/642
f 667/667 668/668 644/644 643/643
f 668/668 669/669 645/645 644/644
f 669/669 670/670 646/646 645/645
f 670/670 671/671 647/647 646/646
f 671/671 672/672 648/648 647/647
f 672/672 649/649 625/625 648/648
f 673/673 674/674 650/650 649/649
f 674/674 675/675 651/651 650/650
f 675/675 676/676 652/652 651/651
f 676/676 677/677 653/653 652/652
f 677/677 678/678 654/654 653/653
f 678/678 679/679 655/655 654/654
f 679/679 680/680 656/656 655/655
f 680/680 681/681 657/657 656/656
f 681/681 682/682 658/658 657/657
f 682/682 683/683 659/659 658/658
f 683/683 684/684 660/660 659/659
f 684/684 685/685 661/661 660/660
f 685/685 686/686 662/662 661/661
f 686/686 687/687 663/663 662/662
f 687/687 688/688 664/664 663/663
f 688/688 689/689 665/665 664/664
f 689/689 690/690 666/666 665/665
f 690/690 691/691 667/667 666/666
f 691/691 692/692 668/668 667/667
f 692/692 693/693 669/669 668/668
f 693/693 694/694 670/670 669/669
f 694/694 695/695 671/671 670/670
f 695/695 696/696 672/672 671/671
f 696/696 673/673 649/649 672/672
f 697/697 698/698 674/674 673/673
f 698/698 699/699 675/675 674/674
f 699/699 700/700 676/676 675/675
f 700/700 701/701 677/677 676/676
f 701/701 702/702 678/678 677/677
f 702/702 703/703 679/679 678/678
f 703/703 704/704 680/680 679/679
f 704/704 705/705 681/681 680/680
f 705/705 706/706 682/682 681/681
f 706/706 707/707 683/683 682/682
f 707/707 708/708 684/684 683/683
f 708/708 709/709 685/685 684/684
f 709/709 710/710 686/686 685/685
f 710/710 711/711 687/687 686/686
f 711/711 712/712 688/688 687/687
f 712/712 713/713 689/689 688/688
f 713/713 714/714 690/690 689/689
f 714/714 715/715 691/691 690/690
f 715/715 716/716 692/692 691/691
f 716/716 717/717 693/693 692/692
f 717/717 718/718 694/694 693/693
f 718/718 719/719 695/695 694/694
f 719/719 720/720 696/696 695/695
f 720/720 697/697 673/673 696/696
f 721/721 722/722 698/698 697/697
f 722/722 723/723 699/699 698/698
f 723/723 724/724 700/700 699/699
f 724/724 725/725 701/701 700/700
f 725/725 726/726 702/702 701/701
f 726/726 727/727 703/703 702/702
f 727/727 728/728 704/704 703/703
f 728/728 729/729 705/705 704/704
f 729/729 730/730 706/706 705/705
f 730/730 731/731 707/707 706/706
f 731/731 732/732 708/708 707/707
f 732/732 733/733 709/709 708/708
f 733/733 734/734 710/710 709/709
f 734/734 735/735 711/711 710/710
f 735/735 736/736 712/712 711/711
f 736/736 737/737 713/713 712/712
f 737/737 738/738 714/714 713/713
f 738/738 739/739 715/715 714/714
f 739/739 740/740 716/716 715/715
f 740/740 741/741 717/717 716/716
f 741/741 742/742 718/718 717/717
f 742/742 743/743 719/719 718/718
f 743/743 744/744 720/720 719/719
f 744/744 721/721 697/697 720/720
f 745/745 746/746 722/722 721/721
f 746/746 747/747 723/723 722/722
f 747/747 748/748 724/724 723/723
f 748/748 749/749 725/725 724/724
f 749/749 750/750 726/726 725/725
f 750/750 751/751 727/727 726/726
f 751/751 752/752 728/728 727/727
f 752/752 753/753 729/729 728/728
f 753/753 754/754 730/730 729/729
f 754/754 755/755 731/731 730/730
f 755/755 756/756 732/732 731/731
f 756/756 757/757 733/733 732/732
f 757/757 758/758 734/734 733/733
f 758/758 759/759 735/735 734/734
f 759/759 760/760 736/736 735/735
f 760/760 761/761 737/737 736/736
f 761/761 762/762 738/738 737/737
f 762/762 763/763 739/739 738/738
f 763/763 764/764 740/740 739/739
f 764/764 765/765 741/741 740/740
f 765/765 766/766 742/742 741/741
f 766/766 767/767 743/743 742/742
f 767/767 768/768 744/744 743/743
f 768/768 745/745 721/721 744/744
f 769/769 770/770 746/746 745/745
f 770/770 771/771 747/747 746/746
f 771/771 772/772 748/748 747/747
f 772/772 773/773 749/749 748/748
f 773/773 774/774 750/750 749/749
f 774/774 775/775 751/751 750/750
f 775/775 776/776 752/752 751/751
f 776/776 777/777 753/753 752/752
f 777/777 778/778 754/754 753/753
f 778/778 779/779 755/755 754/754
f 779/779 780/780 756/756 755/755
f 780/780 781/781 757/757 756/756
f 781/781 782/782 758/758 757/757
f 782/782 783/783 759/759 758/758
f 783/783 784/784 760/760 759/759
f 784/784 785/785 761/761 760/760
f 785/785 786/786 762/762 761/761
f 786/786 787/787 763/763 762/762
f 787/787 788/788 764/764 763/763
f 788/788 789/789 765/765 764/764
f 789/789 790/790 766/766 765/765
f 790/790 791/791 767/767 766/766
f 791/791 792/792 768/768 767/767
f 792/792 769/769 745/745 768/768
f 793/793 794/794 770/770 769/769
f 794/794 795/795 771/771 770/770
f 795/795 796/796 772/772 771/771
f 796/796 797/797 773/773 772/772
f 797/797 798/798 774/774 773/773
f 798/798 799/799 775/775 774/774
f 799/799 800/800 776/776 775/775
f 800/800 801/801 777/777 776/776
f 801/801 802/802 778/778 777/777
f 802/802 803/803 779/779 778/778
f 803/803 804/804 780/780 779/779
f 804/804 805/805 781/781 780/780
f 805/805 806/806 782/782 781/781
f 806/806 807/807 783/783 782/782
f 807/807 808/808 784/784 783/783
f 808/808 809/809 785/785 784/784
f 809/809 810/810 786/786 785/785
f 810/810 811/811 787/787 786/786
f 811/811 812/812 788/788 787/787
f 812/812 813/813 789/789 788/788
f 813/813 814/814 790/790 789/789
f 814/814 815/815 791/791 790/790
f 815/815 816/816 792/792 791/791
f 816/816 793/793 769/769 792/792
f 817/817 818/818 794/794 793/793
f 818/818 819/819 795/795 794/794
f 819/819 820/820 796/796 795/795
f 820/820 821/821 797/797 796/796
f 821/821 822/822 798/798 797/797
f 822/822 823/823 799/799 798/798
f 823/823 824/824 800/800 799/799
f 824/824 825/825 801/801 800/800
f 825/825 826/826 802/802 801/801
f 826/826 827/827 803/803 802/802
f 827/827 828/828 804/804 803/803
f 828/828 829/829 805/805 804/804
f 829/829 830/830 806/806 805/805
f 830/830 831/831 807/807 806/806
f 831/831 832/832 808/808 807/807
f 832/832 833/833 809/809 808/808
f 833/833 834/834 810/810 809/809
f 834/834 835/835 811/811 810/810
f 835/835 836/836 812/812 811/811
f 836/836 837/837 813/813 812/812
f 837/837 838/838 814/814 813/813
f 838/838 839/839 815/815 814/814
f 839/839 840/840 816/816 815/815
f 840/840 817/817 793/793 816/816
f 841/841 842/842 818/818 817/817
f 842/842 843/843 819/819 818/818
f 843/843 844/844 820/820 819/819
f 844/844 845/845 821/821 820/820
f 845/845 846/846 822/822 821/821
f 846/846 847/847 823/823 822/822
f 847/847 848/848 824/824 823/823
f 848/848 849/849 825/825 824/824
f 849/849 850/850 826/826 825/825
f 850/850 851/851 827/827 826/826
f 851/851 852/852 828/828 827/827
f 852/852 853/853 829/829 828/828
f 853/853 854/854 830/830 829/829
f 854/854 855/855 831/831 830/830
f 855/855 856/856 832/832 831/831
f 856/856 857/857 833/833 832/832
f 857/857 858/858 834/834 833/833
f 858/858 859/859 835/835 834/834
f 859/859 860/860 836/836 835/835
f 860/860 861/861 837/837 836/836
f 861/861 862/862 838/838 837/837
f 862/862 863/863 839/839 838/838
f 863/863 864/864 840/840 839/839
f 864/864 841/841 817/817 840/840
f 865/865 866/866 842/842 841/841
f 866/866 867/867 843/843 842/842
f 867/867 868/868 844/844 843/843
f 868/868 869/869 845/845 844/844
f 869/869 870/870 846/846 845/845
f 870/870 871/871 847/847 846/846
f 871/871 872/872 848/848 847/847
f 872/872 873/873 849/849 848/848
f 873/873 874/874 850/850 849/849
f 874/874 875/875 851/851 850/850
f 875/875 876/876 852/852 851/851
f 876/876 877/877 853/853 852/852
f 877/877 878/878 854/854 853/853
f 878/878 879/879 855/855 854/854
f 879/879 880/880 856/856 855/855
f 880/880 881/881 857/857 856/856
f 881/881 882/882 858/858 857/857
f 882/882 883/883 859/859 858/858
f 883/883 884/884 860/860 859/859
f 884/884 885/885 861/861 860/860
f 885/885 886/886 862/862 861/861
f 886/886 887/887 863/863 862/862
f 887/887 888/888 864/864 863/863
f 888/888 865/865 841/841 864/864
f 889/889 890/890 866/866 865/865
f 890/890 891/891 867/867 866/866
f 891/891 892/892 868/868 867/867
f 892/892 893/893 869/869 868/868
f 893/893 894/894 870/870 869/869
f 894/894 895/895 871/871 870/870
f 895/895 896/896 872/872 871/871
f 896/896 897/897 873/873 872/872
f 897/897 898/898 874/874 873/873
f 898/898 899/899 875/875 874/874
f 899/899 900/900 876/876 875/875
f 900/900 901/901 877/877 876/876
f 901/901 902/902 878/878 877/877
f 902/902 903/903 879/879 878/878
f 903/903 904/904 880/880 879/879
f 904/904 905/905 881/881 880/880
f 905/905 906/906 882/882 881/881
f 906/906 907/907 883/883 882/882
f 907/907 908/908 884/884 883/883
f 908/908 909/909 885/885 884/884
f 909/909 910/910 886/886 885/885
f 910/910 911/911 887/887 886/886
f 911/911 912/912 888/888 887/887
f 912/912 889/889 865/865 888/888
f 913/913 914/914 890/890 889/889
f 914/914 915/915 891/891 890/890
f 915/915 916/916 892/892 891/891
f 916/916 917/917 893/893 892/892
f 917/917 918/918 894/894 893/893
f 918/918 919/919 895/895 894/894
f 919/919 920/920 896/896 895/895
f 920/920 921/921 897/897 896/896
f 921/921 922/922 898/898 897/897
f 922/922 923/923 899/899 898/898
f 923/923 924/924 900/900 899/899
f 924/924 925/925 901/901 900/900
f 925/925 926/926 902/902 901/901
f 926/926 927/927 903/903 902/902
f 927/927 928/928 904/904 903/903
f 928/928 929/929 905/905 904/904
f 929/929 930/930 906/906 905/905
f 930/930 931/931 907/907 906/906
f 931/931 932/932 908/908 907/907
f 932/932 933/933 909/909 908/908
f 933/933 934/934 910/910 909/909
f 934/934 935/935 911/911 910/910
f 935/935 936/936 912/912 911/911
f 936/936 913/913 889/889 912/912
