# Original factory PMC equipment, centimetres
s 1
v 0.00000 -0.00000 -13.00000
v 0.00000 -0.00000 -13.00000
v 0.00000 -0.00000 -13.00000
v 0.00000 -0.00000 -13.00000
v 0.00000 -0.00000 -13.00000
v 0.00000 -0.00000 -13.00000
v 0.00000 -0.00000 -13.00000
v 0.00000 -0.00000 -13.00000
v 0.00000 -0.00000 -13.00000
v -0.00000 -0.00000 -13.00000
v -0.00000 -0.00000 -13.00000
v -0.00000 -0.00000 -13.00000
v -0.00000 -0.00000 -13.00000
v -0.00000 -0.00000 -13.00000
v -0.00000 -0.00000 -13.00000
v -0.00000 -0.00000 -13.00000
v -0.00000 -0.00000 -13.00000
v -0.00000 0.00000 -13.00000
v -0.00000 0.00000 -13.00000
v -0.00000 0.00000 -13.00000
v -0.00000 0.00000 -13.00000
v -0.00000 0.00000 -13.00000
v -0.00000 0.00000 -13.00000
v -0.00000 0.00000 -13.00000
v -0.00000 0.00000 -13.00000
v 0.00000 0.00000 -13.00000
v 0.00000 0.00000 -13.00000
v 0.00000 0.00000 -13.00000
v 0.00000 0.00000 -13.00000
v 0.00000 0.00000 -13.00000
v 0.00000 0.00000 -13.00000
v 0.00000 0.00000 -13.00000
v 1.92881 -0.00000 -12.81427
v 1.89395 -0.37355 -12.81427
v 1.79048 -0.70372 -12.81427
v 1.62161 -0.99905 -12.81427
v 1.39253 -1.25328 -12.81427
v 1.11006 -1.45945 -12.81427
v 0.78191 -1.61143 -12.81427
v 0.41506 -1.70456 -12.81427
v 0.00000 -1.73593 -12.81427
v -0.41506 -1.70456 -12.81427
v -0.78191 -1.61143 -12.81427
v -1.11006 -1.45945 -12.81427
v -1.39253 -1.25328 -12.81427
v -1.62161 -0.99905 -12.81427
v -1.79048 -0.70372 -12.81427
v -1.89395 -0.37355 -12.81427
v -1.92881 -0.00000 -12.81427
v -1.89395 0.37355 -12.81427
v -1.79048 0.70372 -12.81427
v -1.62161 0.99905 -12.81427
v -1.39253 1.25328 -12.81427
v -1.11006 1.45945 -12.81427
v -0.78191 1.61143 -12.81427
v -0.41506 1.70456 -12.81427
v -0.00000 1.73593 -12.81427
v 0.41506 1.70456 -12.81427
v 0.78191 1.61143 -12.81427
v 1.11006 1.45945 -12.81427
v 1.39253 1.25328 -12.81427
v 1.62161 0.99905 -12.81427
v 1.79048 0.70372 -12.81427
v 1.89395 0.37355 -12.81427
v 3.64761 -0.00000 -12.26168
v 3.58169 -0.70644 -12.26168
v 3.38600 -1.33082 -12.26168
v 3.06665 -1.88932 -12.26168
v 2.63345 -2.37010 -12.26168
v 2.09925 -2.75998 -12.26168
v 1.47869 -3.04740 -12.26168
v 0.78493 -3.22352 -12.26168
v 0.00000 -3.28285 -12.26168
v -0.78493 -3.22352 -12.26168
v -1.47869 -3.04740 -12.26168
v -2.09925 -2.75998 -12.26168
v -2.63345 -2.37010 -12.26168
v -3.06665 -1.88932 -12.26168
v -3.38600 -1.33082 -12.26168
v -3.58169 -0.70644 -12.26168
v -3.64761 -0.00000 -12.26168
v -3.58169 0.70644 -12.26168
v -3.38600 1.33082 -12.26168
v -3.06665 1.88932 -12.26168
v -2.63345 2.37010 -12.26168
v -2.09925 2.75998 -12.26168
v -1.47869 3.04740 -12.26168
v -0.78493 3.22352 -12.26168
v -0.00000 3.28285 -12.26168
v 0.78493 3.22352 -12.26168
v 1.47869 3.04740 -12.26168
v 2.09925 2.75998 -12.26168
v 2.63345 2.37010 -12.26168
v 3.06665 1.88932 -12.26168
v 3.38600 1.33082 -12.26168
v 3.58169 0.70644 -12.26168
v 5.21233 -0.00000 -11.35592
v 5.11813 -1.00948 -11.35592
v 4.83849 -1.90171 -11.35592
v 4.38215 -2.69978 -11.35592
v 3.76312 -3.38681 -11.35592
v 2.99976 -3.94394 -11.35592
v 2.11301 -4.35464 -11.35592
v 1.12164 -4.60632 -11.35592
v 0.00000 -4.69110 -11.35592
v -1.12164 -4.60632 -11.35592
v -2.11301 -4.35464 -11.35592
v -2.99976 -3.94394 -11.35592
v -3.76312 -3.38681 -11.35592
v -4.38215 -2.69978 -11.35592
v -4.83849 -1.90171 -11.35592
v -5.11813 -1.00948 -11.35592
v -5.21233 -0.00000 -11.35592
v -5.11813 1.00948 -11.35592
v -4.83849 1.90171 -11.35592
v -4.38215 2.69978 -11.35592
v -3.76312 3.38681 -11.35592
v -2.99976 3.94394 -11.35592
v -2.11301 4.35464 -11.35592
v -1.12164 4.60632 -11.35592
v -0.00000 4.69110 -11.35592
v 1.12164 4.60632 -11.35592
v 2.11301 4.35464 -11.35592
v 2.99976 3.94394 -11.35592
v 3.76312 3.38681 -11.35592
v 4.38215 2.69978 -11.35592
v 4.83849 1.90171 -11.35592
v 5.11813 1.00948 -11.35592
v 6.60060 -0.00000 -10.11910
v 6.48131 -1.27834 -10.11910
v 6.12720 -2.40821 -10.11910
v 5.54931 -3.41885 -10.11910
v 4.76540 -4.28886 -10.11910
v 3.79873 -4.99438 -10.11910
v 2.67579 -5.51448 -10.11910
v 1.42038 -5.83318 -10.11910
v 0.00000 -5.94054 -10.11910
v -1.42038 -5.83318 -10.11910
v -2.67579 -5.51448 -10.11910
v -3.79873 -4.99438 -10.11910
v -4.76540 -4.28886 -10.11910
v -5.54931 -3.41885 -10.11910
v -6.12720 -2.40821 -10.11910
v -6.48131 -1.27834 -10.11910
v -6.60060 -0.00000 -10.11910
v -6.48131 1.27834 -10.11910
v -6.12720 2.40821 -10.11910
v -5.54931 3.41885 -10.11910
v -4.76540 4.28886 -10.11910
v -3.79873 4.99438 -10.11910
v -2.67579 5.51448 -10.11910
v -1.42038 5.83318 -10.11910
v -0.00000 5.94054 -10.11910
v 1.42038 5.83318 -10.11910
v 2.67579 5.51448 -10.11910
v 3.79873 4.99438 -10.11910
v 4.76540 4.28886 -10.11910
v 5.54931 3.41885 -10.11910
v 6.12720 2.40821 -10.11910
v 6.48131 1.27834 -10.11910
v 7.78393 -0.00000 -8.58078
v 7.64325 -1.50752 -8.58078
v 7.22565 -2.83995 -8.58078
v 6.54417 -4.03177 -8.58078
v 5.61972 -5.05775 -8.58078
v 4.47975 -5.88975 -8.58078
v 3.15550 -6.50309 -8.58078
v 1.67502 -6.87893 -8.58078
v 0.00000 -7.00553 -8.58078
v -1.67502 -6.87893 -8.58078
v -3.15550 -6.50309 -8.58078
v -4.47975 -5.88975 -8.58078
v -5.61972 -5.05775 -8.58078
v -6.54417 -4.03177 -8.58078
v -7.22565 -2.83995 -8.58078
v -7.64325 -1.50752 -8.58078
v -7.78393 -0.00000 -8.58078
v -7.64325 1.50752 -8.58078
v -7.22565 2.83995 -8.58078
v -6.54417 4.03177 -8.58078
v -5.61972 5.05775 -8.58078
v -4.47975 5.88975 -8.58078
v -3.15550 6.50309 -8.58078
v -1.67502 6.87893 -8.58078
v -0.00000 7.00553 -8.58078
v 1.67502 6.87893 -8.58078
v 3.15550 6.50309 -8.58078
v 4.47975 5.88975 -8.58078
v 5.61972 5.05775 -8.58078
v 6.54417 4.03177 -8.58078
v 7.22565 2.83995 -8.58078
v 7.64325 1.50752 -8.58078
v 8.73532 -0.00000 -6.77603
v 8.57745 -1.69178 -6.77603
v 8.10881 -3.18706 -6.77603
v 7.34403 -4.52456 -6.77603
v 6.30659 -5.67593 -6.77603
v 5.02728 -6.60963 -6.77603
v 3.54118 -7.29793 -6.77603
v 1.87975 -7.71971 -6.77603
v 0.00000 -7.86179 -6.77603
v -1.87975 -7.71971 -6.77603
v -3.54118 -7.29793 -6.77603
v -5.02728 -6.60963 -6.77603
v -6.30659 -5.67593 -6.77603
v -7.34403 -4.52456 -6.77603
v -8.10881 -3.18706 -6.77603
v -8.57745 -1.69178 -6.77603
v -8.73532 -0.00000 -6.77603
v -8.57745 1.69178 -6.77603
v -8.10881 3.18706 -6.77603
v -7.34403 4.52456 -6.77603
v -6.30659 5.67593 -6.77603
v -5.02728 6.60963 -6.77603
v -3.54118 7.29793 -6.77603
v -1.87975 7.71971 -6.77603
v -0.00000 7.86179 -6.77603
v 1.87975 7.71971 -6.77603
v 3.54118 7.29793 -6.77603
v 5.02728 6.60963 -6.77603
v 6.30659 5.67593 -6.77603
v 7.34403 4.52456 -6.77603
v 8.10881 3.18706 -6.77603
v 8.57745 1.69178 -6.77603
v 9.43206 -0.00000 -4.74190
v 9.26160 -1.82671 -4.74190
v 8.75558 -3.44127 -4.74190
v 7.92980 -4.88544 -4.74190
v 6.80962 -6.12865 -4.74190
v 5.42827 -7.13682 -4.74190
v 3.82363 -7.88003 -4.74190
v 2.02968 -8.33544 -4.74190
v 0.00000 -8.48886 -4.74190
v -2.02968 -8.33544 -4.74190
v -3.82363 -7.88003 -4.74190
v -5.42827 -7.13682 -4.74190
v -6.80962 -6.12865 -4.74190
v -7.92980 -4.88544 -4.74190
v -8.75558 -3.44127 -4.74190
v -9.26160 -1.82671 -4.74190
v -9.43206 -0.00000 -4.74190
v -9.26160 1.82671 -4.74190
v -8.75558 3.44127 -4.74190
v -7.92980 4.88544 -4.74190
v -6.80962 6.12865 -4.74190
v -5.42827 7.13682 -4.74190
v -3.82363 7.88003 -4.74190
v -2.02968 8.33544 -4.74190
v -0.00000 8.48886 -4.74190
v 2.02968 8.33544 -4.74190
v 3.82363 7.88003 -4.74190
v 5.42827 7.13682 -4.74190
v 6.80962 6.12865 -4.74190
v 7.92980 4.88544 -4.74190
v 8.75558 3.44127 -4.74190
v 9.26160 1.82671 -4.74190
v 9.85713 -0.00000 -2.50746
v 9.67899 -1.90904 -2.50746
v 9.15016 -3.59635 -2.50746
v 8.28716 -5.10561 -2.50746
v 7.11650 -6.40485 -2.50746
v 5.67290 -7.45845 -2.50746
v 3.99595 -8.23515 -2.50746
v 2.12115 -8.71109 -2.50746
v 0.00000 -8.87141 -2.50746
v -2.12115 -8.71109 -2.50746
v -3.99595 -8.23515 -2.50746
v -5.67290 -7.45845 -2.50746
v -7.11650 -6.40485 -2.50746
v -8.28716 -5.10561 -2.50746
v -9.15016 -3.59635 -2.50746
v -9.67899 -1.90904 -2.50746
v -9.85713 -0.00000 -2.50746
v -9.67899 1.90904 -2.50746
v -9.15016 3.59635 -2.50746
v -8.28716 5.10561 -2.50746
v -7.11650 6.40485 -2.50746
v -5.67290 7.45845 -2.50746
v -3.99595 8.23515 -2.50746
v -2.12115 8.71109 -2.50746
v -0.00000 8.87141 -2.50746
v 2.12115 8.71109 -2.50746
v 3.99595 8.23515 -2.50746
v 5.67290 7.45845 -2.50746
v 7.11650 6.40485 -2.50746
v 8.28716 5.10561 -2.50746
v 9.15016 3.59635 -2.50746
v 9.67899 1.90904 -2.50746
v 10.00000 -0.00000 0.00000
v 9.81928 -1.93671 0.00000
v 9.28279 -3.64848 0.00000
v 8.40728 -5.17961 0.00000
v 7.21965 -6.49768 0.00000
v 5.75512 -7.56655 0.00000
v 4.05386 -8.35451 0.00000
v 2.15190 -8.83735 0.00000
v 0.00000 -9.00000 0.00000
v -2.15190 -8.83735 0.00000
v -4.05386 -8.35451 0.00000
v -5.75512 -7.56655 0.00000
v -7.21965 -6.49768 0.00000
v -8.40728 -5.17961 0.00000
v -9.28279 -3.64848 0.00000
v -9.81928 -1.93671 0.00000
v -10.00000 -0.00000 0.00000
v -9.81928 1.93671 0.00000
v -9.28279 3.64848 0.00000
v -8.40728 5.17961 0.00000
v -7.21965 6.49768 0.00000
v -5.75512 7.56655 0.00000
v -4.05386 8.35451 0.00000
v -2.15190 8.83735 0.00000
v -0.00000 9.00000 0.00000
v 2.15190 8.83735 0.00000
v 4.05386 8.35451 0.00000
v 5.75512 7.56655 0.00000
v 7.21965 6.49768 0.00000
v 8.40728 5.17961 0.00000
v 9.28279 3.64848 0.00000
v 9.81928 1.93671 0.00000
v 9.85713 -0.00000 2.50746
v 9.67899 -1.90904 2.50746
v 9.15016 -3.59635 2.50746
v 8.28716 -5.10561 2.50746
v 7.11650 -6.40485 2.50746
v 5.67290 -7.45845 2.50746
v 3.99595 -8.23515 2.50746
v 2.12115 -8.71109 2.50746
v 0.00000 -8.87141 2.50746
v -2.12115 -8.71109 2.50746
v -3.99595 -8.23515 2.50746
v -5.67290 -7.45845 2.50746
v -7.11650 -6.40485 2.50746
v -8.28716 -5.10561 2.50746
v -9.15016 -3.59635 2.50746
v -9.67899 -1.90904 2.50746
v -9.85713 -0.00000 2.50746
v -9.67899 1.90904 2.50746
v -9.15016 3.59635 2.50746
v -8.28716 5.10561 2.50746
v -7.11650 6.40485 2.50746
v -5.67290 7.45845 2.50746
v -3.99595 8.23515 2.50746
v -2.12115 8.71109 2.50746
v -0.00000 8.87141 2.50746
v 2.12115 8.71109 2.50746
v 3.99595 8.23515 2.50746
v 5.67290 7.45845 2.50746
v 7.11650 6.40485 2.50746
v 8.28716 5.10561 2.50746
v 9.15016 3.59635 2.50746
v 9.67899 1.90904 2.50746
v 9.43206 -0.00000 4.74190
v 9.26160 -1.82671 4.74190
v 8.75558 -3.44127 4.74190
v 7.92980 -4.88544 4.74190
v 6.80962 -6.12865 4.74190
v 5.42827 -7.13682 4.74190
v 3.82363 -7.88003 4.74190
v 2.02968 -8.33544 4.74190
v 0.00000 -8.48886 4.74190
v -2.02968 -8.33544 4.74190
v -3.82363 -7.88003 4.74190
v -5.42827 -7.13682 4.74190
v -6.80962 -6.12865 4.74190
v -7.92980 -4.88544 4.74190
v -8.75558 -3.44127 4.74190
v -9.26160 -1.82671 4.74190
v -9.43206 -0.00000 4.74190
v -9.26160 1.82671 4.74190
v -8.75558 3.44127 4.74190
v -7.92980 4.88544 4.74190
v -6.80962 6.12865 4.74190
v -5.42827 7.13682 4.74190
v -3.82363 7.88003 4.74190
v -2.02968 8.33544 4.74190
v -0.00000 8.48886 4.74190
v 2.02968 8.33544 4.74190
v 3.82363 7.88003 4.74190
v 5.42827 7.13682 4.74190
v 6.80962 6.12865 4.74190
v 7.92980 4.88544 4.74190
v 8.75558 3.44127 4.74190
v 9.26160 1.82671 4.74190
v 8.73532 -0.00000 6.77603
v 8.57745 -1.69178 6.77603
v 8.10881 -3.18706 6.77603
v 7.34403 -4.52456 6.77603
v 6.30659 -5.67593 6.77603
v 5.02728 -6.60963 6.77603
v 3.54118 -7.29793 6.77603
v 1.87975 -7.71971 6.77603
v 0.00000 -7.86179 6.77603
v -1.87975 -7.71971 6.77603
v -3.54118 -7.29793 6.77603
v -5.02728 -6.60963 6.77603
v -6.30659 -5.67593 6.77603
v -7.34403 -4.52456 6.77603
v -8.10881 -3.18706 6.77603
v -8.57745 -1.69178 6.77603
v -8.73532 -0.00000 6.77603
v -8.57745 1.69178 6.77603
v -8.10881 3.18706 6.77603
v -7.34403 4.52456 6.77603
v -6.30659 5.67593 6.77603
v -5.02728 6.60963 6.77603
v -3.54118 7.29793 6.77603
v -1.87975 7.71971 6.77603
v -0.00000 7.86179 6.77603
v 1.87975 7.71971 6.77603
v 3.54118 7.29793 6.77603
v 5.02728 6.60963 6.77603
v 6.30659 5.67593 6.77603
v 7.34403 4.52456 6.77603
v 8.10881 3.18706 6.77603
v 8.57745 1.69178 6.77603
v 7.78393 -0.00000 8.58078
v 7.64325 -1.50752 8.58078
v 7.22565 -2.83995 8.58078
v 6.54417 -4.03177 8.58078
v 5.61972 -5.05775 8.58078
v 4.47975 -5.88975 8.58078
v 3.15550 -6.50309 8.58078
v 1.67502 -6.87893 8.58078
v 0.00000 -7.00553 8.58078
v -1.67502 -6.87893 8.58078
v -3.15550 -6.50309 8.58078
v -4.47975 -5.88975 8.58078
v -5.61972 -5.05775 8.58078
v -6.54417 -4.03177 8.58078
v -7.22565 -2.83995 8.58078
v -7.64325 -1.50752 8.58078
v -7.78393 -0.00000 8.58078
v -7.64325 1.50752 8.58078
v -7.22565 2.83995 8.58078
v -6.54417 4.03177 8.58078
v -5.61972 5.05775 8.58078
v -4.47975 5.88975 8.58078
v -3.15550 6.50309 8.58078
v -1.67502 6.87893 8.58078
v -0.00000 7.00553 8.58078
v 1.67502 6.87893 8.58078
v 3.15550 6.50309 8.58078
v 4.47975 5.88975 8.58078
v 5.61972 5.05775 8.58078
v 6.54417 4.03177 8.58078
v 7.22565 2.83995 8.58078
v 7.64325 1.50752 8.58078
v 6.60060 -0.00000 10.11910
v 6.48131 -1.27834 10.11910
v 6.12720 -2.40821 10.11910
v 5.54931 -3.41885 10.11910
v 4.76540 -4.28886 10.11910
v 3.79873 -4.99438 10.11910
v 2.67579 -5.51448 10.11910
v 1.42038 -5.83318 10.11910
v 0.00000 -5.94054 10.11910
v -1.42038 -5.83318 10.11910
v -2.67579 -5.51448 10.11910
v -3.79873 -4.99438 10.11910
v -4.76540 -4.28886 10.11910
v -5.54931 -3.41885 10.11910
v -6.12720 -2.40821 10.11910
v -6.48131 -1.27834 10.11910
v -6.60060 -0.00000 10.11910
v -6.48131 1.27834 10.11910
v -6.12720 2.40821 10.11910
v -5.54931 3.41885 10.11910
v -4.76540 4.28886 10.11910
v -3.79873 4.99438 10.11910
v -2.67579 5.51448 10.11910
v -1.42038 5.83318 10.11910
v -0.00000 5.94054 10.11910
v 1.42038 5.83318 10.11910
v 2.67579 5.51448 10.11910
v 3.79873 4.99438 10.11910
v 4.76540 4.28886 10.11910
v 5.54931 3.41885 10.11910
v 6.12720 2.40821 10.11910
v 6.48131 1.27834 10.11910
v 5.21233 -0.00000 11.35592
v 5.11813 -1.00948 11.35592
v 4.83849 -1.90171 11.35592
v 4.38215 -2.69978 11.35592
v 3.76312 -3.38681 11.35592
v 2.99976 -3.94394 11.35592
v 2.11301 -4.35464 11.35592
v 1.12164 -4.60632 11.35592
v 0.00000 -4.69110 11.35592
v -1.12164 -4.60632 11.35592
v -2.11301 -4.35464 11.35592
v -2.99976 -3.94394 11.35592
v -3.76312 -3.38681 11.35592
v -4.38215 -2.69978 11.35592
v -4.83849 -1.90171 11.35592
v -5.11813 -1.00948 11.35592
v -5.21233 -0.00000 11.35592
v -5.11813 1.00948 11.35592
v -4.83849 1.90171 11.35592
v -4.38215 2.69978 11.35592
v -3.76312 3.38681 11.35592
v -2.99976 3.94394 11.35592
v -2.11301 4.35464 11.35592
v -1.12164 4.60632 11.35592
v -0.00000 4.69110 11.35592
v 1.12164 4.60632 11.35592
v 2.11301 4.35464 11.35592
v 2.99976 3.94394 11.35592
v 3.76312 3.38681 11.35592
v 4.38215 2.69978 11.35592
v 4.83849 1.90171 11.35592
v 5.11813 1.00948 11.35592
v 3.64761 -0.00000 12.26168
v 3.58169 -0.70644 12.26168
v 3.38600 -1.33082 12.26168
v 3.06665 -1.88932 12.26168
v 2.63345 -2.37010 12.26168
v 2.09925 -2.75998 12.26168
v 1.47869 -3.04740 12.26168
v 0.78493 -3.22352 12.26168
v 0.00000 -3.28285 12.26168
v -0.78493 -3.22352 12.26168
v -1.47869 -3.04740 12.26168
v -2.09925 -2.75998 12.26168
v -2.63345 -2.37010 12.26168
v -3.06665 -1.88932 12.26168
v -3.38600 -1.33082 12.26168
v -3.58169 -0.70644 12.26168
v -3.64761 -0.00000 12.26168
v -3.58169 0.70644 12.26168
v -3.38600 1.33082 12.26168
v -3.06665 1.88932 12.26168
v -2.63345 2.37010 12.26168
v -2.09925 2.75998 12.26168
v -1.47869 3.04740 12.26168
v -0.78493 3.22352 12.26168
v -0.00000 3.28285 12.26168
v 0.78493 3.22352 12.26168
v 1.47869 3.04740 12.26168
v 2.09925 2.75998 12.26168
v 2.63345 2.37010 12.26168
v 3.06665 1.88932 12.26168
v 3.38600 1.33082 12.26168
v 3.58169 0.70644 12.26168
v 1.92881 -0.00000 12.81427
v 1.89395 -0.37355 12.81427
v 1.79048 -0.70372 12.81427
v 1.62161 -0.99905 12.81427
v 1.39253 -1.25328 12.81427
v 1.11006 -1.45945 12.81427
v 0.78191 -1.61143 12.81427
v 0.41506 -1.70456 12.81427
v 0.00000 -1.73593 12.81427
v -0.41506 -1.70456 12.81427
v -0.78191 -1.61143 12.81427
v -1.11006 -1.45945 12.81427
v -1.39253 -1.25328 12.81427
v -1.62161 -0.99905 12.81427
v -1.79048 -0.70372 12.81427
v -1.89395 -0.37355 12.81427
v -1.92881 -0.00000 12.81427
v -1.89395 0.37355 12.81427
v -1.79048 0.70372 12.81427
v -1.62161 0.99905 12.81427
v -1.39253 1.25328 12.81427
v -1.11006 1.45945 12.81427
v -0.78191 1.61143 12.81427
v -0.41506 1.70456 12.81427
v -0.00000 1.73593 12.81427
v 0.41506 1.70456 12.81427
v 0.78191 1.61143 12.81427
v 1.11006 1.45945 12.81427
v 1.39253 1.25328 12.81427
v 1.62161 0.99905 12.81427
v 1.79048 0.70372 12.81427
v 1.89395 0.37355 12.81427
v 0.00000 -0.00000 13.00000
v 0.00000 -0.00000 13.00000
v 0.00000 -0.00000 13.00000
v 0.00000 -0.00000 13.00000
v 0.00000 -0.00000 13.00000
v 0.00000 -0.00000 13.00000
v 0.00000 -0.00000 13.00000
v 0.00000 -0.00000 13.00000
v 0.00000 -0.00000 13.00000
v -0.00000 -0.00000 13.00000
v -0.00000 -0.00000 13.00000
v -0.00000 -0.00000 13.00000
v -0.00000 -0.00000 13.00000
v -0.00000 -0.00000 13.00000
v -0.00000 -0.00000 13.00000
v -0.00000 -0.00000 13.00000
v -0.00000 -0.00000 13.00000
v -0.00000 0.00000 13.00000
v -0.00000 0.00000 13.00000
v -0.00000 0.00000 13.00000
v -0.00000 0.00000 13.00000
v -0.00000 0.00000 13.00000
v -0.00000 0.00000 13.00000
v -0.00000 0.00000 13.00000
v -0.00000 0.00000 13.00000
v 0.00000 0.00000 13.00000
v 0.00000 0.00000 13.00000
v 0.00000 0.00000 13.00000
v 0.00000 0.00000 13.00000
v 0.00000 0.00000 13.00000
v 0.00000 0.00000 13.00000
v 0.00000 0.00000 13.00000
vt 0.00000 -0.45500
vt 0.00000 -0.45500
vt 0.00000 -0.45500
vt 0.00000 -0.45500
vt 0.00000 -0.45500
vt 0.00000 -0.45500
vt 0.00000 -0.45500
vt 0.00000 -0.45500
vt 0.00000 -0.45500
vt 0.00000 -0.45500
vt 0.00000 -0.45500
vt 0.00000 -0.45500
vt 0.00000 -0.45500
vt 0.00000 -0.45500
vt 0.00000 -0.45500
vt 0.00000 -0.45500
vt 0.00000 -0.45500
vt -0.00000 -0.45500
vt -0.00000 -0.45500
vt -0.00000 -0.45500
vt -0.00000 -0.45500
vt -0.00000 -0.45500
vt -0.00000 -0.45500
vt -0.00000 -0.45500
vt -0.00000 -0.45500
vt -0.00000 -0.45500
vt -0.00000 -0.45500
vt -0.00000 -0.45500
vt -0.00000 -0.45500
vt -0.00000 -0.45500
vt -0.00000 -0.45500
vt -0.00000 -0.45500
vt 0.00000 -0.44850
vt 0.01307 -0.44850
vt 0.02463 -0.44850
vt 0.03497 -0.44850
vt 0.04386 -0.44850
vt 0.05108 -0.44850
vt 0.05640 -0.44850
vt 0.05966 -0.44850
vt 0.06076 -0.44850
vt 0.05966 -0.44850
vt 0.05640 -0.44850
vt 0.05108 -0.44850
vt 0.04386 -0.44850
vt 0.03497 -0.44850
vt 0.02463 -0.44850
vt 0.01307 -0.44850
vt 0.00000 -0.44850
vt -0.01307 -0.44850
vt -0.02463 -0.44850
vt -0.03497 -0.44850
vt -0.04386 -0.44850
vt -0.05108 -0.44850
vt -0.05640 -0.44850
vt -0.05966 -0.44850
vt -0.06076 -0.44850
vt -0.05966 -0.44850
vt -0.05640 -0.44850
vt -0.05108 -0.44850
vt -0.04386 -0.44850
vt -0.03497 -0.44850
vt -0.02463 -0.44850
vt -0.01307 -0.44850
vt 0.00000 -0.42916
vt 0.02473 -0.42916
vt 0.04658 -0.42916
vt 0.06613 -0.42916
vt 0.08295 -0.42916
vt 0.09660 -0.42916
vt 0.10666 -0.42916
vt 0.11282 -0.42916
vt 0.11490 -0.42916
vt 0.11282 -0.42916
vt 0.10666 -0.42916
vt 0.09660 -0.42916
vt 0.08295 -0.42916
vt 0.06613 -0.42916
vt 0.04658 -0.42916
vt 0.02473 -0.42916
vt 0.00000 -0.42916
vt -0.02473 -0.42916
vt -0.04658 -0.42916
vt -0.06613 -0.42916
vt -0.08295 -0.42916
vt -0.09660 -0.42916
vt -0.10666 -0.42916
vt -0.11282 -0.42916
vt -0.11490 -0.42916
vt -0.11282 -0.42916
vt -0.10666 -0.42916
vt -0.09660 -0.42916
vt -0.08295 -0.42916
vt -0.06613 -0.42916
vt -0.04658 -0.42916
vt -0.02473 -0.42916
vt 0.00000 -0.39746
vt 0.03533 -0.39746
vt 0.06656 -0.39746
vt 0.09449 -0.39746
vt 0.11854 -0.39746
vt 0.13804 -0.39746
vt 0.15241 -0.39746
vt 0.16122 -0.39746
vt 0.16419 -0.39746
vt 0.16122 -0.39746
vt 0.15241 -0.39746
vt 0.13804 -0.39746
vt 0.11854 -0.39746
vt 0.09449 -0.39746
vt 0.06656 -0.39746
vt 0.03533 -0.39746
vt 0.00000 -0.39746
vt -0.03533 -0.39746
vt -0.06656 -0.39746
vt -0.09449 -0.39746
vt -0.11854 -0.39746
vt -0.13804 -0.39746
vt -0.15241 -0.39746
vt -0.16122 -0.39746
vt -0.16419 -0.39746
vt -0.16122 -0.39746
vt -0.15241 -0.39746
vt -0.13804 -0.39746
vt -0.11854 -0.39746
vt -0.09449 -0.39746
vt -0.06656 -0.39746
vt -0.03533 -0.39746
vt 0.00000 -0.35417
vt 0.04474 -0.35417
vt 0.08429 -0.35417
vt 0.11966 -0.35417
vt 0.15011 -0.35417
vt 0.17480 -0.35417
vt 0.19301 -0.35417
vt 0.20416 -0.35417
vt 0.20792 -0.35417
vt 0.20416 -0.35417
vt 0.19301 -0.35417
vt 0.17480 -0.35417
vt 0.15011 -0.35417
vt 0.11966 -0.35417
vt 0.08429 -0.35417
vt 0.04474 -0.35417
vt 0.00000 -0.35417
vt -0.04474 -0.35417
vt -0.08429 -0.35417
vt -0.11966 -0.35417
vt -0.15011 -0.35417
vt -0.17480 -0.35417
vt -0.19301 -0.35417
vt -0.20416 -0.35417
vt -0.20792 -0.35417
vt -0.20416 -0.35417
vt -0.19301 -0.35417
vt -0.17480 -0.35417
vt -0.15011 -0.35417
vt -0.11966 -0.35417
vt -0.08429 -0.35417
vt -0.04474 -0.35417
vt 0.00000 -0.30033
vt 0.05276 -0.30033
vt 0.09940 -0.30033
vt 0.14111 -0.30033
vt 0.17702 -0.30033
vt 0.20614 -0.30033
vt 0.22761 -0.30033
vt 0.24076 -0.30033
vt 0.24519 -0.30033
vt 0.24076 -0.30033
vt 0.22761 -0.30033
vt 0.20614 -0.30033
vt 0.17702 -0.30033
vt 0.14111 -0.30033
vt 0.09940 -0.30033
vt 0.05276 -0.30033
vt 0.00000 -0.30033
vt -0.05276 -0.30033
vt -0.09940 -0.30033
vt -0.14111 -0.30033
vt -0.17702 -0.30033
vt -0.20614 -0.30033
vt -0.22761 -0.30033
vt -0.24076 -0.30033
vt -0.24519 -0.30033
vt -0.24076 -0.30033
vt -0.22761 -0.30033
vt -0.20614 -0.30033
vt -0.17702 -0.30033
vt -0.14111 -0.30033
vt -0.09940 -0.30033
vt -0.05276 -0.30033
vt 0.00000 -0.23716
vt 0.05921 -0.23716
vt 0.11155 -0.23716
vt 0.15836 -0.23716
vt 0.19866 -0.23716
vt 0.23134 -0.23716
vt 0.25543 -0.23716
vt 0.27019 -0.23716
vt 0.27516 -0.23716
vt 0.27019 -0.23716
vt 0.25543 -0.23716
vt 0.23134 -0.23716
vt 0.19866 -0.23716
vt 0.15836 -0.23716
vt 0.11155 -0.23716
vt 0.05921 -0.23716
vt 0.00000 -0.23716
vt -0.05921 -0.23716
vt -0.11155 -0.23716
vt -0.15836 -0.23716
vt -0.19866 -0.23716
vt -0.23134 -0.23716
vt -0.25543 -0.23716
vt -0.27019 -0.23716
vt -0.27516 -0.23716
vt -0.27019 -0.23716
vt -0.25543 -0.23716
vt -0.23134 -0.23716
vt -0.19866 -0.23716
vt -0.15836 -0.23716
vt -0.11155 -0.23716
vt -0.05921 -0.23716
vt 0.00000 -0.16597
vt 0.06394 -0.16597
vt 0.12044 -0.16597
vt 0.17099 -0.16597
vt 0.21450 -0.16597
vt 0.24979 -0.16597
vt 0.27580 -0.16597
vt 0.29174 -0.16597
vt 0.29711 -0.16597
vt 0.29174 -0.16597
vt 0.27580 -0.16597
vt 0.24979 -0.16597
vt 0.21450 -0.16597
vt 0.17099 -0.16597
vt 0.12044 -0.16597
vt 0.06394 -0.16597
vt 0.00000 -0.16597
vt -0.06394 -0.16597
vt -0.12044 -0.16597
vt -0.17099 -0.16597
vt -0.21450 -0.16597
vt -0.24979 -0.16597
vt -0.27580 -0.16597
vt -0.29174 -0.16597
vt -0.29711 -0.16597
vt -0.29174 -0.16597
vt -0.27580 -0.16597
vt -0.24979 -0.16597
vt -0.21450 -0.16597
vt -0.17099 -0.16597
vt -0.12044 -0.16597
vt -0.06394 -0.16597
vt 0.00000 -0.08776
vt 0.06682 -0.08776
vt 0.12587 -0.08776
vt 0.17870 -0.08776
vt 0.22417 -0.08776
vt 0.26105 -0.08776
vt 0.28823 -0.08776
vt 0.30489 -0.08776
vt 0.31050 -0.08776
vt 0.30489 -0.08776
vt 0.28823 -0.08776
vt 0.26105 -0.08776
vt 0.22417 -0.08776
vt 0.17870 -0.08776
vt 0.12587 -0.08776
vt 0.06682 -0.08776
vt 0.00000 -0.08776
vt -0.06682 -0.08776
vt -0.12587 -0.08776
vt -0.17870 -0.08776
vt -0.22417 -0.08776
vt -0.26105 -0.08776
vt -0.28823 -0.08776
vt -0.30489 -0.08776
vt -0.31050 -0.08776
vt -0.30489 -0.08776
vt -0.28823 -0.08776
vt -0.26105 -0.08776
vt -0.22417 -0.08776
vt -0.17870 -0.08776
vt -0.12587 -0.08776
vt -0.06682 -0.08776
vt 0.00000 0.00000
vt 0.06778 0.00000
vt 0.12770 0.00000
vt 0.18129 0.00000
vt 0.22742 0.00000
vt 0.26483 0.00000
vt 0.29241 0.00000
vt 0.30931 0.00000
vt 0.31500 0.00000
vt 0.30931 0.00000
vt 0.29241 0.00000
vt 0.26483 0.00000
vt 0.22742 0.00000
vt 0.18129 0.00000
vt 0.12770 0.00000
vt 0.06778 0.00000
vt 0.00000 0.00000
vt -0.06778 0.00000
vt -0.12770 0.00000
vt -0.18129 0.00000
vt -0.22742 0.00000
vt -0.26483 0.00000
vt -0.29241 0.00000
vt -0.30931 0.00000
vt -0.31500 0.00000
vt -0.30931 0.00000
vt -0.29241 0.00000
vt -0.26483 0.00000
vt -0.22742 0.00000
vt -0.18129 0.00000
vt -0.12770 0.00000
vt -0.06778 0.00000
vt 0.00000 0.08776
vt 0.06682 0.08776
vt 0.12587 0.08776
vt 0.17870 0.08776
vt 0.22417 0.08776
vt 0.26105 0.08776
vt 0.28823 0.08776
vt 0.30489 0.08776
vt 0.31050 0.08776
vt 0.30489 0.08776
vt 0.28823 0.08776
vt 0.26105 0.08776
vt 0.22417 0.08776
vt 0.17870 0.08776
vt 0.12587 0.08776
vt 0.06682 0.08776
vt 0.00000 0.08776
vt -0.06682 0.08776
vt -0.12587 0.08776
vt -0.17870 0.08776
vt -0.22417 0.08776
vt -0.26105 0.08776
vt -0.28823 0.08776
vt -0.30489 0.08776
vt -0.31050 0.08776
vt -0.30489 0.08776
vt -0.28823 0.08776
vt -0.26105 0.08776
vt -0.22417 0.08776
vt -0.17870 0.08776
vt -0.12587 0.08776
vt -0.06682 0.08776
vt 0.00000 0.16597
vt 0.06394 0.16597
vt 0.12044 0.16597
vt 0.17099 0.16597
vt 0.21450 0.16597
vt 0.24979 0.16597
vt 0.27580 0.16597
vt 0.29174 0.16597
vt 0.29711 0.16597
vt 0.29174 0.16597
vt 0.27580 0.16597
vt 0.24979 0.16597
vt 0.21450 0.16597
vt 0.17099 0.16597
vt 0.12044 0.16597
vt 0.06394 0.16597
vt 0.00000 0.16597
vt -0.06394 0.16597
vt -0.12044 0.16597
vt -0.17099 0.16597
vt -0.21450 0.16597
vt -0.24979 0.16597
vt -0.27580 0.16597
vt -0.29174 0.16597
vt -0.29711 0.16597
vt -0.29174 0.16597
vt -0.27580 0.16597
vt -0.24979 0.16597
vt -0.21450 0.16597
vt -0.17099 0.16597
vt -0.12044 0.16597
vt -0.06394 0.16597
vt 0.00000 0.23716
vt 0.05921 0.23716
vt 0.11155 0.23716
vt 0.15836 0.23716
vt 0.19866 0.23716
vt 0.23134 0.23716
vt 0.25543 0.23716
vt 0.27019 0.23716
vt 0.27516 0.23716
vt 0.27019 0.23716
vt 0.25543 0.23716
vt 0.23134 0.23716
vt 0.19866 0.23716
vt 0.15836 0.23716
vt 0.11155 0.23716
vt 0.05921 0.23716
vt 0.00000 0.23716
vt -0.05921 0.23716
vt -0.11155 0.23716
vt -0.15836 0.23716
vt -0.19866 0.23716
vt -0.23134 0.23716
vt -0.25543 0.23716
vt -0.27019 0.23716
vt -0.27516 0.23716
vt -0.27019 0.23716
vt -0.25543 0.23716
vt -0.23134 0.23716
vt -0.19866 0.23716
vt -0.15836 0.23716
vt -0.11155 0.23716
vt -0.05921 0.23716
vt 0.00000 0.30033
vt 0.05276 0.30033
vt 0.09940 0.30033
vt 0.14111 0.30033
vt 0.17702 0.30033
vt 0.20614 0.30033
vt 0.22761 0.30033
vt 0.24076 0.30033
vt 0.24519 0.30033
vt 0.24076 0.30033
vt 0.22761 0.30033
vt 0.20614 0.30033
vt 0.17702 0.30033
vt 0.14111 0.30033
vt 0.09940 0.30033
vt 0.05276 0.30033
vt 0.00000 0.30033
vt -0.05276 0.30033
vt -0.09940 0.30033
vt -0.14111 0.30033
vt -0.17702 0.30033
vt -0.20614 0.30033
vt -0.22761 0.30033
vt -0.24076 0.30033
vt -0.24519 0.30033
vt -0.24076 0.30033
vt -0.22761 0.30033
vt -0.20614 0.30033
vt -0.17702 0.30033
vt -0.14111 0.30033
vt -0.09940 0.30033
vt -0.05276 0.30033
vt 0.00000 0.35417
vt 0.04474 0.35417
vt 0.08429 0.35417
vt 0.11966 0.35417
vt 0.15011 0.35417
vt 0.17480 0.35417
vt 0.19301 0.35417
vt 0.20416 0.35417
vt 0.20792 0.35417
vt 0.20416 0.35417
vt 0.19301 0.35417
vt 0.17480 0.35417
vt 0.15011 0.35417
vt 0.11966 0.35417
vt 0.08429 0.35417
vt 0.04474 0.35417
vt 0.00000 0.35417
vt -0.04474 0.35417
vt -0.08429 0.35417
vt -0.11966 0.35417
vt -0.15011 0.35417
vt -0.17480 0.35417
vt -0.19301 0.35417
vt -0.20416 0.35417
vt -0.20792 0.35417
vt -0.20416 0.35417
vt -0.19301 0.35417
vt -0.17480 0.35417
vt -0.15011 0.35417
vt -0.11966 0.35417
vt -0.08429 0.35417
vt -0.04474 0.35417
vt 0.00000 0.39746
vt 0.03533 0.39746
vt 0.06656 0.39746
vt 0.09449 0.39746
vt 0.11854 0.39746
vt 0.13804 0.39746
vt 0.15241 0.39746
vt 0.16122 0.39746
vt 0.16419 0.39746
vt 0.16122 0.39746
vt 0.15241 0.39746
vt 0.13804 0.39746
vt 0.11854 0.39746
vt 0.09449 0.39746
vt 0.06656 0.39746
vt 0.03533 0.39746
vt 0.00000 0.39746
vt -0.03533 0.39746
vt -0.06656 0.39746
vt -0.09449 0.39746
vt -0.11854 0.39746
vt -0.13804 0.39746
vt -0.15241 0.39746
vt -0.16122 0.39746
vt -0.16419 0.39746
vt -0.16122 0.39746
vt -0.15241 0.39746
vt -0.13804 0.39746
vt -0.11854 0.39746
vt -0.09449 0.39746
vt -0.06656 0.39746
vt -0.03533 0.39746
vt 0.00000 0.42916
vt 0.02473 0.42916
vt 0.04658 0.42916
vt 0.06613 0.42916
vt 0.08295 0.42916
vt 0.09660 0.42916
vt 0.10666 0.42916
vt 0.11282 0.42916
vt 0.11490 0.42916
vt 0.11282 0.42916
vt 0.10666 0.42916
vt 0.09660 0.42916
vt 0.08295 0.42916
vt 0.06613 0.42916
vt 0.04658 0.42916
vt 0.02473 0.42916
vt 0.00000 0.42916
vt -0.02473 0.42916
vt -0.04658 0.42916
vt -0.06613 0.42916
vt -0.08295 0.42916
vt -0.09660 0.42916
vt -0.10666 0.42916
vt -0.11282 0.42916
vt -0.11490 0.42916
vt -0.11282 0.42916
vt -0.10666 0.42916
vt -0.09660 0.42916
vt -0.08295 0.42916
vt -0.06613 0.42916
vt -0.04658 0.42916
vt -0.02473 0.42916
vt 0.00000 0.44850
vt 0.01307 0.44850
vt 0.02463 0.44850
vt 0.03497 0.44850
vt 0.04386 0.44850
vt 0.05108 0.44850
vt 0.05640 0.44850
vt 0.05966 0.44850
vt 0.06076 0.44850
vt 0.05966 0.44850
vt 0.05640 0.44850
vt 0.05108 0.44850
vt 0.04386 0.44850
vt 0.03497 0.44850
vt 0.02463 0.44850
vt 0.01307 0.44850
vt 0.00000 0.44850
vt -0.01307 0.44850
vt -0.02463 0.44850
vt -0.03497 0.44850
vt -0.04386 0.44850
vt -0.05108 0.44850
vt -0.05640 0.44850
vt -0.05966 0.44850
vt -0.06076 0.44850
vt -0.05966 0.44850
vt -0.05640 0.44850
vt -0.05108 0.44850
vt -0.04386 0.44850
vt -0.03497 0.44850
vt -0.02463 0.44850
vt -0.01307 0.44850
vt 0.00000 0.45500
vt 0.00000 0.45500
vt 0.00000 0.45500
vt 0.00000 0.45500
vt 0.00000 0.45500
vt 0.00000 0.45500
vt 0.00000 0.45500
vt 0.00000 0.45500
vt 0.00000 0.45500
vt 0.00000 0.45500
vt 0.00000 0.45500
vt 0.00000 0.45500
vt 0.00000 0.45500
vt 0.00000 0.45500
vt 0.00000 0.45500
vt 0.00000 0.45500
vt 0.00000 0.45500
vt -0.00000 0.45500
vt -0.00000 0.45500
vt -0.00000 0.45500
vt -0.00000 0.45500
vt -0.00000 0.45500
vt -0.00000 0.45500
vt -0.00000 0.45500
vt -0.00000 0.45500
vt -0.00000 0.45500
vt -0.00000 0.45500
vt -0.00000 0.45500
vt -0.00000 0.45500
vt -0.00000 0.45500
vt -0.00000 0.45500
vt -0.00000 0.45500
f 33/33 34/34 2/2 1/1
f 34/34 35/35 3/3 2/2
f 35/35 36/36 4/4 3/3
f 36/36 37/37 5/5 4/4
f 37/37 38/38 6/6 5/5
f 38/38 39/39 7/7 6/6
f 39/39 40/40 8/8 7/7
f 40/40 41/41 9/9 8/8
f 41/41 42/42 10/10 9/9
f 42/42 43/43 11/11 10/10
f 43/43 44/44 12/12 11/11
f 44/44 45/45 13/13 12/12
f 45/45 46/46 14/14 13/13
f 46/46 47/47 15/15 14/14
f 47/47 48/48 16/16 15/15
f 48/48 49/49 17/17 16/16
f 49/49 50/50 18/18 17/17
f 50/50 51/51 19/19 18/18
f 51/51 52/52 20/20 19/19
f 52/52 53/53 21/21 20/20
f 53/53 54/54 22/22 21/21
f 54/54 55/55 23/23 22/22
f 55/55 56/56 24/24 23/23
f 56/56 57/57 25/25 24/24
f 57/57 58/58 26/26 25/25
f 58/58 59/59 27/27 26/26
f 59/59 60/60 28/28 27/27
f 60/60 61/61 29/29 28/28
f 61/61 62/62 30/30 29/29
f 62/62 63/63 31/31 30/30
f 63/63 64/64 32/32 31/31
f 64/64 33/33 1/1 32/32
f 65/65 66/66 34/34 33/33
f 66/66 67/67 35/35 34/34
f 67/67 68/68 36/36 35/35
f 68/68 69/69 37/37 36/36
f 69/69 70/70 38/38 37/37
f 70/70 71/71 39/39 38/38
f 71/71 72/72 40/40 39/39
f 72/72 73/73 41/41 40/40
f 73/73 74/74 42/42 41/41
f 74/74 75/75 43/43 42/42
f 75/75 76/76 44/44 43/43
f 76/76 77/77 45/45 44/44
f 77/77 78/78 46/46 45/45
f 78/78 79/79 47/47 46/46
f 79/79 80/80 48/48 47/47
f 80/80 81/81 49/49 48/48
f 81/81 82/82 50/50 49/49
f 82/82 83/83 51/51 50/50
f 83/83 84/84 52/52 51/51
f 84/84 85/85 53/53 52/52
f 85/85 86/86 54/54 53/53
f 86/86 87/87 55/55 54/54
f 87/87 88/88 56/56 55/55
f 88/88 89/89 57/57 56/56
f 89/89 90/90 58/58 57/57
f 90/90 91/91 59/59 58/58
f 91/91 92/92 60/60 59/59
f 92/92 93/93 61/61 60/60
f 93/93 94/94 62/62 61/61
f 94/94 95/95 63/63 62/62
f 95/95 96/96 64/64 63/63
f 96/96 65/65 33/33 64/64
f 97/97 98/98 66/66 65/65
f 98/98 99/99 67/67 66/66
f 99/99 100/100 68/68 67/67
f 100/100 101/101 69/69 68/68
f 101/101 102/102 70/70 69/69
f 102/102 103/103 71/71 70/70
f 103/103 104/104 72/72 71/71
f 104/104 105/105 73/73 72/72
f 105/105 106/106 74/74 73/73
f 106/106 107/107 75/75 74/74
f 107/107 108/108 76/76 75/75
f 108/108 109/109 77/77 76/76
f 109/109 110/110 78/78 77/77
f 110/110 111/111 79/79 78/78
f 111/111 112/112 80/80 79/79
f 112/112 113/113 81/81 80/80
f 113/113 114/114 82/82 81/81
f 114/114 115/115 83/83 82/82
f 115/115 116/116 84/84 83/83
f 116/116 117/117 85/85 84/84
f 117/117 118/118 86/86 85/85
f 118/118 119/119 87/87 86/86
f 119/119 120/120 88/88 87/87
f 120/120 121/121 89/89 88/88
f 121/121 122/122 90/90 89/89
f 122/122 123/123 91/91 90/90
f 123/123 124/124 92/92 91/91
f 124/124 125/125 93/93 92/92
f 125/125 126/126 94/94 93/93
f 126/126 127/127 95/95 94/94
f 127/127 128/128 96/96 95/95
f 128/128 97/97 65/65 96/96
f 129/129 130/130 98/98 97/97
f 130/130 131/131 99/99 98/98
f 131/131 132/132 100/100 99/99
f 132/132 133/133 101/101 100/100
f 133/133 134/134 102/102 101/101
f 134/134 135/135 103/103 102/102
f 135/135 136/136 104/104 103/103
f 136/136 137/137 105/105 104/104
f 137/137 138/138 106/106 105/105
f 138/138 139/139 107/107 106/106
f 139/139 140/140 108/108 107/107
f 140/140 141/141 109/109 108/108
f 141/141 142/142 110/110 109/109
f 142/142 143/143 111/111 110/110
f 143/143 144/144 112/112 111/111
f 144/144 145/145 113/113 112/112
f 145/145 146/146 114/114 113/113
f 146/146 147/147 115/115 114/114
f 147/147 148/148 116/116 115/115
f 148/148 149/149 117/117 116/116
f 149/149 150/150 118/118 117/117
f 150/150 151/151 119/119 118/118
f 151/151 152/152 120/120 119/119
f 152/152 153/153 121/121 120/120
f 153/153 154/154 122/122 121/121
f 154/154 155/155 123/123 122/122
f 155/155 156/156 124/124 123/123
f 156/156 157/157 125/125 124/124
f 157/157 158/158 126/126 125/125
f 158/158 159/159 127/127 126/126
f 159/159 160/160 128/128 127/127
f 160/160 129/129 97/97 128/128
f 161/161 162/162 130/130 129/129
f 162/162 163/163 131/131 130/130
f 163/163 164/164 132/132 131/131
f 164/164 165/165 133/133 132/132
f 165/165 166/166 134/134 133/133
f 166/166 167/167 135/135 134/134
f 167/167 168/168 136/136 135/135
f 168/168 169/169 137/137 136/136
f 169/169 170/170 138/138 137/137
f 170/170 171/171 139/139 138/138
f 171/171 172/172 140/140 139/139
f 172/172 173/173 141/141 140/140
f 173/173 174/174 142/142 141/141
f 174/174 175/175 143/143 142/142
f 175/175 176/176 144/144 143/143
f 176/176 177/177 145/145 144/144
f 177/177 178/178 146/146 145/145
f 178/178 179/179 147/147 146/146
f 179/179 180/180 148/148 147/147
f 180/180 181/181 149/149 148/148
f 181/181 182/182 150/150 149/149
f 182/182 183/183 151/151 150/150
f 183/183 184/184 152/152 151/151
f 184/184 185/185 153/153 152/152
f 185/185 186/186 154/154 153/153
f 186/186 187/187 155/155 154/154
f 187/187 188/188 156/156 155/155
f 188/188 189/189 157/157 156/156
f 189/189 190/190 158/158 157/157
f 190/190 191/191 159/159 158/158
f 191/191 192/192 160/160 159/159
f 192/192 161/161 129/129 160/160
f 193/193 194/194 162/162 161/161
f 194/194 195/195 163/163 162/162
f 195/195 196/196 164/164 163/163
f 196/196 197/197 165/165 164/164
f 197/197 198/198 166/166 165/165
f 198/198 199/199 167/167 166/166
f 199/199 200/200 168/168 167/167
f 200/200 201/201 169/169 168/168
f 201/201 202/202 170/170 169/169
f 202/202 203/203 171/171 170/170
f 203/203 204/204 172/172 171/171
f 204/204 205/205 173/173 172/172
f 205/205 206/206 174/174 173/173
f 206/206 207/207 175/175 174/174
f 207/207 208/208 176/176 175/175
f 208/208 209/209 177/177 176/176
f 209/209 210/210 178/178 177/177
f 210/210 211/211 179/179 178/178
f 211/211 212/212 180/180 179/179
f 212/212 213/213 181/181 180/180
f 213/213 214/214 182/182 181/181
f 214/214 215/215 183/183 182/182
f 215/215 216/216 184/184 183/183
f 216/216 217/217 185/185 184/184
f 217/217 218/218 186/186 185/185
f 218/218 219/219 187/187 186/186
f 219/219 220/220 188/188 187/187
f 220/220 221/221 189/189 188/188
f 221/221 222/222 190/190 189/189
f 222/222 223/223 191/191 190/190
f 223/223 224/224 192/192 191/191
f 224/224 193/193 161/161 192/192
f 225/225 226/226 194/194 193/193
f 226/226 227/227 195/195 194/194
f 227/227 228/228 196/196 195/195
f 228/228 229/229 197/197 196/196
f 229/229 230/230 198/198 197/197
f 230/230 231/231 199/199 198/198
f 231/231 232/232 200/200 199/199
f 232/232 233/233 201/201 200/200
f 233/233 234/234 202/202 201/201
f 234/234 235/235 203/203 202/202
f 235/235 236/236 204/204 203/203
f 236/236 237/237 205/205 204/204
f 237/237 238/238 206/206 205/205
f 238/238 239/239 207/207 206/206
f 239/239 240/240 208/208 207/207
f 240/240 241/241 209/209 208/208
f 241/241 242/242 210/210 209/209
f 242/242 243/243 211/211 210/210
f 243/243 244/244 212/212 211/211
f 244/244 245/245 213/213 212/212
f 245/245 246/246 214/214 213/213
f 246/246 247/247 215/215 214/214
f 247/247 248/248 216/216 215/215
f 248/248 249/249 217/217 216/216
f 249/249 250/250 218/218 217/217
f 250/250 251/251 219/219 218/218
f 251/251 252/252 220/220 219/219
f 252/252 253/253 221/221 220/220
f 253/253 254/254 222/222 221/221
f 254/254 255/255 223/223 222/222
f 255/255 256/256 224/224 223/223
f 256/256 225/225 193/193 224/224
f 257/257 258/258 226/226 225/225
f 258/258 259/259 227/227 226/226
f 259/259 260/260 228/228 227/227
f 260/260 261/261 229/229 228/228
f 261/261 262/262 230/230 229/229
f 262/262 263/263 231/231 230/230
f 263/263 264/264 232/232 231/231
f 264/264 265/265 233/233 232/232
f 265/265 266/266 234/234 233/233
f 266/266 267/267 235/235 234/234
f 267/267 268/268 236/236 235/235
f 268/268 269/269 237/237 236/236
f 269/269 270/270 238/238 237/237
f 270/270 271/271 239/239 238/238
f 271/271 272/272 240/240 239/239
f 272/272 273/273 241/241 240/240
f 273/273 274/274 242/242 241/241
f 274/274 275/275 243/243 242/242
f 275/275 276/276 244/244 243/243
f 276/276 277/277 245/245 244/244
f 277/277 278/278 246/246 245/245
f 278/278 279/279 247/247 246/246
f 279/279 280/280 248/248 247/247
f 280/280 281/281 249/249 248/248
f 281/281 282/282 250/250 249/249
f 282/282 283/283 251/251 250/250
f 283/283 284/284 252/252 251/251
f 284/284 285/285 253/253 252/252
f 285/285 286/286 254/254 253/253
f 286/286 287/287 255/255 254/254
f 287/287 288/288 256/256 255/255
f 288/288 257/257 225/225 256/256
f 289/289 290/290 258/258 257/257
f 290/290 291/291 259/259 258/258
f 291/291 292/292 260/260 259/259
f 292/292 293/293 261/261 260/260
f 293/293 294/294 262/262 261/261
f 294/294 295/295 263/263 262/262
f 295/295 296/296 264/264 263/263
f 296/296 297/297 265/265 264/264
f 297/297 298/298 266/266 265/265
f 298/298 299/299 267/267 266/266
f 299/299 300/300 268/268 267/267
f 300/300 301/301 269/269 268/268
f 301/301 302/302 270/270 269/269
f 302/302 303/303 271/271 270/270
f 303/303 304/304 272/272 271/271
f 304/304 305/305 273/273 272/272
f 305/305 306/306 274/274 273/273
f 306/306 307/307 275/275 274/274
f 307/307 308/308 276/276 275/275
f 308/308 309/309 277/277 276/276
f 309/309 310/310 278/278 277/277
f 310/310 311/311 279/279 278/278
f 311/311 312/312 280/280 279/279
f 312/312 313/313 281/281 280/280
f 313/313 314/314 282/282 281/281
f 314/314 315/315 283/283 282/282
f 315/315 316/316 284/284 283/283
f 316/316 317/317 285/285 284/284
f 317/317 318/318 286/286 285/285
f 318/318 319/319 287/287 286/286
f 319/319 320/320 288/288 287/287
f 320/320 289/289 257/257 288/288
f 321/321 322/322 290/290 289/289
f 322/322 323/323 291/291 290/290
f 323/323 324/324 292/292 291/291
f 324/324 325/325 293/293 292/292
f 325/325 326/326 294/294 293/293
f 326/326 327/327 295/295 294/294
f 327/327 328/328 296/296 295/295
f 328/328 329/329 297/297 296/296
f 329/329 330/330 298/298 297/297
f 330/330 331/331 299/299 298/298
f 331/331 332/332 300/300 299/299
f 332/332 333/333 301/301 300/300
f 333/333 334/334 302/302 301/301
f 334/334 335/335 303/303 302/302
f 335/335 336/336 304/304 303/303
f 336/336 337/337 305/305 304/304
f 337/337 338/338 306/306 305/305
f 338/338 339/339 307/307 306/306
f 339/339 340/340 308/308 307/307
f 340/340 341/341 309/309 308/308
f 341/341 342/342 310/310 309/309
f 342/342 343/343 311/311 310/310
f 343/343 344/344 312/312 311/311
f 344/344 345/345 313/313 312/312
f 345/345 346/346 314/314 313/313
f 346/346 347/347 315/315 314/314
f 347/347 348/348 316/316 315/315
f 348/348 349/349 317/317 316/316
f 349/349 350/350 318/318 317/317
f 350/350 351/351 319/319 318/318
f 351/351 352/352 320/320 319/319
f 352/352 321/321 289/289 320/320
f 353/353 354/354 322/322 321/321
f 354/354 355/355 323/323 322/322
f 355/355 356/356 324/324 323/323
f 356/356 357/357 325/325 324/324
f 357/357 358/358 326/326 325/325
f 358/358 359/359 327/327 326/326
f 359/359 360/360 328/328 327/327
f 360/360 361/361 329/329 328/328
f 361/361 362/362 330/330 329/329
f 362/362 363/363 331/331 330/330
f 363/363 364/364 332/332 331/331
f 364/364 365/365 333/333 332/332
f 365/365 366/366 334/334 333/333
f 366/366 367/367 335/335 334/334
f 367/367 368/368 336/336 335/335
f 368/368 369/369 337/337 336/336
f 369/369 370/370 338/338 337/337
f 370/370 371/371 339/339 338/338
f 371/371 372/372 340/340 339/339
f 372/372 373/373 341/341 340/340
f 373/373 374/374 342/342 341/341
f 374/374 375/375 343/343 342/342
f 375/375 376/376 344/344 343/343
f 376/376 377/377 345/345 344/344
f 377/377 378/378 346/346 345/345
f 378/378 379/379 347/347 346/346
f 379/379 380/380 348/348 347/347
f 380/380 381/381 349/349 348/348
f 381/381 382/382 350/350 349/349
f 382/382 383/383 351/351 350/350
f 383/383 384/384 352/352 351/351
f 384/384 353/353 321/321 352/352
f 385/385 386/386 354/354 353/353
f 386/386 387/387 355/355 354/354
f 387/387 388/388 356/356 355/355
f 388/388 389/389 357/357 356/356
f 389/389 390/390 358/358 357/357
f 390/390 391/391 359/359 358/358
f 391/391 392/392 360/360 359/359
f 392/392 393/393 361/361 360/360
f 393/393 394/394 362/362 361/361
f 394/394 395/395 363/363 362/362
f 395/395 396/396 364/364 363/363
f 396/396 397/397 365/365 364/364
f 397/397 398/398 366/366 365/365
f 398/398 399/399 367/367 366/366
f 399/399 400/400 368/368 367/367
f 400/400 401/401 369/369 368/368
f 401/401 402/402 370/370 369/369
f 402/402 403/403 371/371 370/370
f 403/403 404/404 372/372 371/371
f 404/404 405/405 373/373 372/372
f 405/405 406/406 374/374 373/373
f 406/406 407/407 375/375 374/374
f 407/407 408/408 376/376 375/375
f 408/408 409/409 377/377 376/376
f 409/409 410/410 378/378 377/377
f 410/410 411/411 379/379 378/378
f 411/411 412/412 380/380 379/379
f 412/412 413/413 381/381 380/380
f 413/413 414/414 382/382 381/381
f 414/414 415/415 383/383 382/382
f 415/415 416/416 384/384 383/383
f 416/416 385/385 353/353 384/384
f 417/417 418/418 386/386 385/385
f 418/418 419/419 387/387 386/386
f 419/419 420/420 388/388 387/387
f 420/420 421/421 389/389 388/388
f 421/421 422/422 390/390 389/389
f 422/422 423/423 391/391 390/390
f 423/423 424/424 392/392 391/391
f 424/424 425/425 393/393 392/392
f 425/425 426/426 394/394 393/393
f 426/426 427/427 395/395 394/394
f 427/427 428/428 396/396 395/395
f 428/428 429/429 397/397 396/396
f 429/429 430/430 398/398 397/397
f 430/430 431/431 399/399 398/398
f 431/431 432/432 400/400 399/399
f 432/432 433/433 401/401 400/400
f 433/433 434/434 402/402 401/401
f 434/434 435/435 403/403 402/402
f 435/435 436/436 404/404 403/403
f 436/436 437/437 405/405 404/404
f 437/437 438/438 406/406 405/405
f 438/438 439/439 407/407 406/406
f 439/439 440/440 408/408 407/407
f 440/440 441/441 409/409 408/408
f 441/441 442/442 410/410 409/409
f 442/442 443/443 411/411 410/410
f 443/443 444/444 412/412 411/411
f 444/444 445/445 413/413 412/412
f 445/445 446/446 414/414 413/413
f 446/446 447/447 415/415 414/414
f 447/447 448/448 416/416 415/415
f 448/448 417/417 385/385 416/416
f 449/449 450/450 418/418 417/417
f 450/450 451/451 419/419 418/418
f 451/451 452/452 420/420 419/419
f 452/452 453/453 421/421 420/420
f 453/453 454/454 422/422 421/421
f 454/454 455/455 423/423 422/422
f 455/455 456/456 424/424 423/423
f 456/456 457/457 425/425 424/424
f 457/457 458/458 426/426 425/425
f 458/458 459/459 427/427 426/426
f 459/459 460/460 428/428 427/427
f 460/460 461/461 429/429 428/428
f 461/461 462/462 430/430 429/429
f 462/462 463/463 431/431 430/430
f 463/463 464/464 432/432 431/431
f 464/464 465/465 433/433 432/432
f 465/465 466/466 434/434 433/433
f 466/466 467/467 435/435 434/434
f 467/467 468/468 436/436 435/435
f 468/468 469/469 437/437 436/436
f 469/469 470/470 438/438 437/437
f 470/470 471/471 439/439 438/438
f 471/471 472/472 440/440 439/439
f 472/472 473/473 441/441 440/440
f 473/473 474/474 442/442 441/441
f 474/474 475/475 443/443 442/442
f 475/475 476/476 444/444 443/443
f 476/476 477/477 445/445 444/444
f 477/477 478/478 446/446 445/445
f 478/478 479/479 447/447 446/446
f 479/479 480/480 448/448 447/447
f 480/480 449/449 417/417 448/448
f 481/481 482/482 450/450 449/449
f 482/482 483/483 451/451 450/450
f 483/483 484/484 452/452 451/451
f 484/484 485/485 453/453 452/452
f 485/485 486/486 454/454 453/453
f 486/486 487/487 455/455 454/454
f 487/487 488/488 456/456 455/455
f 488/488 489/489 457/457 456/456
f 489/489 490/490 458/458 457/457
f 490/490 491/491 459/459 458/458
f 491/491 492/492 460/460 459/459
f 492/492 493/493 461/461 460/460
f 493/493 494/494 462/462 461/461
f 494/494 495/495 463/463 462/462
f 495/495 496/496 464/464 463/463
f 496/496 497/497 465/465 464/464
f 497/497 498/498 466/466 465/465
f 498/498 499/499 467/467 466/466
f 499/499 500/500 468/468 467/467
f 500/500 501/501 469/469 468/468
f 501/501 502/502 470/470 469/469
f 502/502 503/503 471/471 470/470
f 503/503 504/504 472/472 471/471
f 504/504 505/505 473/473 472/472
f 505/505 506/506 474/474 473/473
f 506/506 507/507 475/475 474/474
f 507/507 508/508 476/476 475/475
f 508/508 509/509 477/477 476/476
f 509/509 510/510 478/478 477/477
f 510/510 511/511 479/479 478/478
f 511/511 512/512 480/480 479/479
f 512/512 481/481 449/449 480/480
f 513/513 514/514 482/482 481/481
f 514/514 515/515 483/483 482/482
f 515/515 516/516 484/484 483/483
f 516/516 517/517 485/485 484/484
f 517/517 518/518 486/486 485/485
f 518/518 519/519 487/487 486/486
f 519/519 520/520 488/488 487/487
f 520/520 521/521 489/489 488/488
f 521/521 522/522 490/490 489/489
f 522/522 523/523 491/491 490/490
f 523/523 524/524 492/492 491/491
f 524/524 525/525 493/493 492/492
f 525/525 526/526 494/494 493/493
f 526/526 527/527 495/495 494/494
f 527/527 528/528 496/496 495/495
f 528/528 529/529 497/497 496/496
f 529/529 530/530 498/498 497/497
f 530/530 531/531 499/499 498/498
f 531/531 532/532 500/500 499/499
f 532/532 533/533 501/501 500/500
f 533/533 534/534 502/502 501/501
f 534/534 535/535 503/503 502/502
f 535/535 536/536 504/504 503/503
f 536/536 537/537 505/505 504/504
f 537/537 538/538 506/506 505/505
f 538/538 539/539 507/507 506/506
f 539/539 540/540 508/508 507/507
f 540/540 541/541 509/509 508/508
f 541/541 542/542 510/510 509/509
f 542/542 543/543 511/511 510/510
f 543/543 544/544 512/512 511/511
f 544/544 513/513 481/481 512/512
f 545/545 546/546 514/514 513/513
f 546/546 547/547 515/515 514/514
f 547/547 548/548 516/516 515/515
f 548/548 549/549 517/517 516/516
f 549/549 550/550 518/518 517/517
f 550/550 551/551 519/519 518/518
f 551/551 552/552 520/520 519/519
f 552/552 553/553 521/521 520/520
f 553/553 554/554 522/522 521/521
f 554/554 555/555 523/523 522/522
f 555/555 556/556 524/524 523/523
f 556/556 557/557 525/525 524/524
f 557/557 558/558 526/526 525/525
f 558/558 559/559 527/527 526/526
f 559/559 560/560 528/528 527/527
f 560/560 561/561 529/529 528/528
f 561/561 562/562 530/530 529/529
f 562/562 563/563 531/531 530/530
f 563/563 564/564 532/532 531/531
f 564/564 565/565 533/533 532/532
f 565/565 566/566 534/534 533/533
f 566/566 567/567 535/535 534/534
f 567/567 568/568 536/536 535/535
f 568/568 569/569 537/537 536/536
f 569/569 570/570 538/538 537/537
f 570/570 571/571 539/539 538/538
f 571/571 572/572 540/540 539/539
f 572/572 573/573 541/541 540/540
f 573/573 574/574 542/542 541/541
f 574/574 575/575 543/543 542/542
f 575/575 576/576 544/544 543/543
f 576/576 545/545 513/513 544/544
f 577/577 578/578 546/546 545/545
f 578/578 579/579 547/547 546/546
f 579/579 580/580 548/548 547/547
f 580/580 581/581 549/549 548/548
f 581/581 582/582 550/550 549/549
f 582/582 583/583 551/551 550/550
f 583/583 584/584 552/552 551/551
f 584/584 585/585 553/553 552/552
f 585/585 586/586 554/554 553/553
f 586/586 587/587 555/555 554/554
f 587/587 588/588 556/556 555/555
f 588/588 589/589 557/557 556/556
f 589/589 590/590 558/558 557/557
f 590/590 591/591 559/559 558/558
f 591/591 592/592 560/560 559/559
f 592/592 593/593 561/561 560/560
f 593/593 594/594 562/562 561/561
f 594/594 595/595 563/563 562/562
f 595/595 596/596 564/564 563/563
f 596/596 597/597 565/565 564/564
f 597/597 598/598 566/566 565/565
f 598/598 599/599 567/567 566/566
f 599/599 600/600 568/568 567/567
f 600/600 601/601 569/569 568/568
f 601/601 602/602 570/570 569/569
f 602/602 603/603 571/571 570/570
f 603/603 604/604 572/572 571/571
f 604/604 605/605 573/573 572/572
f 605/605 606/606 574/574 573/573
f 606/606 607/607 575/575 574/574
f 607/607 608/608 576/576 575/575
f 608/608 577/577 545/545 576/576
