# Original factory PMC equipment, centimetres
s 1
v 0.78000 -0.00000 -0.50000
v 0.80606 -0.14430 -0.50000
v 0.76265 -0.28431 -0.50000
v 0.67453 -0.40564 -0.50000
v 0.56350 -0.50715 -0.50000
v 0.42988 -0.57902 -0.50000
v 0.28790 -0.62555 -0.50000
v 0.14829 -0.67097 -0.50000
v 0.00000 -0.69365 -0.50000
v -0.14829 -0.67097 -0.50000
v -0.28790 -0.62555 -0.50000
v -0.42988 -0.57902 -0.50000
v -0.56350 -0.50715 -0.50000
v -0.67453 -0.40564 -0.50000
v -0.76265 -0.28431 -0.50000
v -0.80606 -0.14430 -0.50000
v -0.78000 -0.00000 -0.50000
v -0.72396 0.12960 -0.50000
v -0.67860 0.25298 -0.50000
v -0.62256 0.37438 -0.50000
v -0.53959 0.48563 -0.50000
v -0.43681 0.58836 -0.50000
v -0.30908 0.67157 -0.50000
v -0.15605 0.70605 -0.50000
v -0.00000 0.71035 -0.50000
v 0.15605 0.70605 -0.50000
v 0.30908 0.67157 -0.50000
v 0.43681 0.58836 -0.50000
v 0.53959 0.48563 -0.50000
v 0.62256 0.37438 -0.50000
v 0.67860 0.25298 -0.50000
v 0.72396 0.12960 -0.50000
v 0.82723 -0.00000 -0.46429
v 0.78373 -0.14030 -0.46429
v 0.71369 -0.26606 -0.46429
v 0.64787 -0.38960 -0.46429
v 0.57440 -0.51696 -0.46429
v 0.46700 -0.62902 -0.46429
v 0.31443 -0.68320 -0.46429
v 0.15203 -0.68786 -0.46429
v 0.00000 -0.68284 -0.46429
v -0.15059 -0.68135 -0.46429
v -0.31130 -0.67639 -0.46429
v -0.46604 -0.62773 -0.46429
v -0.57883 -0.52095 -0.46429
v -0.65510 -0.39395 -0.46429
v -0.71682 -0.26723 -0.46429
v -0.77890 -0.13944 -0.46429
v -0.81837 -0.00000 -0.46429
v -0.79802 0.14286 -0.46429
v -0.73717 0.27481 -0.46429
v -0.65259 0.39244 -0.46429
v -0.55397 0.49857 -0.46429
v -0.44478 0.59909 -0.46429
v -0.30901 0.67141 -0.46429
v -0.15643 0.70780 -0.46429
v -0.00000 0.72293 -0.46429
v 0.15787 0.71430 -0.46429
v 0.31214 0.67821 -0.46429
v 0.44574 0.60039 -0.46429
v 0.54954 0.49458 -0.46429
v 0.64536 0.38810 -0.46429
v 0.73403 0.27364 -0.46429
v 0.80285 0.14373 -0.46429
v 0.80818 -0.00000 -0.42857
v 0.77887 -0.13943 -0.42857
v 0.73385 -0.27357 -0.42857
v 0.65507 -0.39393 -0.42857
v 0.54805 -0.49325 -0.42857
v 0.43784 -0.58975 -0.42857
v 0.31355 -0.68128 -0.42857
v 0.16290 -0.73706 -0.42857
v 0.00000 -0.75902 -0.42857
v -0.16569 -0.74967 -0.42857
v -0.31962 -0.69448 -0.42857
v -0.43971 -0.59226 -0.42857
v -0.53946 -0.48551 -0.42857
v -0.64106 -0.38551 -0.42857
v -0.72778 -0.27131 -0.42857
v -0.78824 -0.14111 -0.42857
v -0.82536 -0.00000 -0.42857
v -0.81187 0.14534 -0.42857
v -0.75075 0.27987 -0.42857
v -0.67917 0.40842 -0.42857
v -0.59456 0.53510 -0.42857
v -0.46883 0.63149 -0.42857
v -0.30935 0.67215 -0.42857
v -0.15133 0.68472 -0.42857
v -0.00000 0.68452 -0.42857
v 0.14855 0.67211 -0.42857
v 0.30327 0.65895 -0.42857
v 0.46697 0.62898 -0.42857
v 0.60315 0.54283 -0.42857
v 0.69318 0.41685 -0.42857
v 0.75682 0.28214 -0.42857
v 0.80251 0.14367 -0.42857
v 0.80531 -0.00000 -0.39286
v 0.77441 -0.13864 -0.39286
v 0.73394 -0.27361 -0.39286
v 0.66524 -0.40005 -0.39286
v 0.56605 -0.50945 -0.39286
v 0.44700 -0.60208 -0.39286
v 0.31656 -0.68782 -0.39286
v 0.16374 -0.74086 -0.39286
v 0.00000 -0.74729 -0.39286
v -0.15978 -0.72293 -0.39286
v -0.30792 -0.66905 -0.39286
v -0.44435 -0.59851 -0.39286
v -0.57827 -0.52044 -0.39286
v -0.68517 -0.41203 -0.39286
v -0.74258 -0.27683 -0.39286
v -0.76109 -0.13625 -0.39286
v -0.78087 -0.00000 -0.39286
v -0.80948 0.14491 -0.39286
v -0.79227 0.29535 -0.39286
v -0.71293 0.42873 -0.39286
v -0.58638 0.52774 -0.39286
v -0.43640 0.58780 -0.39286
v -0.29596 0.64305 -0.39286
v -0.15671 0.70906 -0.39286
v -0.00000 0.74610 -0.39286
v 0.16068 0.72699 -0.39286
v 0.30460 0.66182 -0.39286
v 0.43904 0.59137 -0.39286
v 0.57416 0.51674 -0.39286
v 0.69300 0.41674 -0.39286
v 0.78363 0.29213 -0.39286
v 0.82280 0.14730 -0.39286
v 0.79616 -0.00000 -0.35714
v 0.82609 -0.14789 -0.35714
v 0.80645 -0.30064 -0.35714
v 0.72840 -0.43803 -0.35714
v 0.60385 -0.54347 -0.35714
v 0.44935 -0.60525 -0.35714
v 0.29975 -0.65129 -0.35714
v 0.15664 -0.70875 -0.35714
v 0.00000 -0.74534 -0.35714
v -0.16154 -0.73091 -0.35714
v -0.31042 -0.67449 -0.35714
v -0.45262 -0.60966 -0.35714
v -0.58876 -0.52988 -0.35714
v -0.70378 -0.42322 -0.35714
v -0.79577 -0.29666 -0.35714
v -0.84255 -0.15083 -0.35714
v -0.82635 -0.00000 -0.35714
v -0.78662 0.14082 -0.35714
v -0.73866 0.27537 -0.35714
v -0.66567 0.40031 -0.35714
v -0.56682 0.51014 -0.35714
v -0.45370 0.61111 -0.35714
v -0.32534 0.70690 -0.35714
v -0.16824 0.76123 -0.35714
v -0.00000 0.76487 -0.35714
v 0.16334 0.73907 -0.35714
v 0.31467 0.68370 -0.35714
v 0.45043 0.60671 -0.35714
v 0.58192 0.52373 -0.35714
v 0.69029 0.41511 -0.35714
v 0.74934 0.27935 -0.35714
v 0.77017 0.13788 -0.35714
v 0.87785 -0.00000 -0.32143
v 0.85901 -0.15378 -0.32143
v 0.78280 -0.29182 -0.32143
v 0.69712 -0.41922 -0.32143
v 0.60805 -0.54725 -0.32143
v 0.48737 -0.65646 -0.32143
v 0.32809 -0.71288 -0.32143
v 0.16152 -0.73081 -0.32143
v 0.00000 -0.72637 -0.32143
v -0.15599 -0.70579 -0.32143
v -0.31604 -0.68669 -0.32143
v -0.48368 -0.65148 -0.32143
v -0.62510 -0.56259 -0.32143
v -0.72492 -0.43594 -0.32143
v -0.79485 -0.29632 -0.32143
v -0.84043 -0.15046 -0.32143
v -0.84375 -0.00000 -0.32143
v -0.80890 0.14481 -0.32143
v -0.76330 0.28455 -0.32143
v -0.69096 0.41552 -0.32143
v -0.58676 0.52808 -0.32143
v -0.46752 0.62973 -0.32143
v -0.32670 0.70986 -0.32143
v -0.16630 0.75244 -0.32143
v -0.00000 0.77492 -0.32143
v 0.17183 0.77746 -0.32143
v 0.33876 0.73605 -0.32143
v 0.47122 0.63470 -0.32143
v 0.56971 0.51274 -0.32143
v 0.66316 0.39880 -0.32143
v 0.75125 0.28006 -0.32143
v 0.82747 0.14813 -0.32143
v 0.86024 -0.00000 -0.28571
v 0.82562 -0.14780 -0.28571
v 0.77511 -0.28895 -0.28571
v 0.70375 -0.42321 -0.28571
v 0.60345 -0.54310 -0.28571
v 0.48103 -0.64791 -0.28571
v 0.33055 -0.71821 -0.28571
v 0.16578 -0.75008 -0.28571
v 0.00000 -0.76997 -0.28571
v -0.17160 -0.77642 -0.28571
v -0.34323 -0.74578 -0.28571
v -0.48492 -0.65315 -0.28571
v -0.58550 -0.52695 -0.28571
v -0.67448 -0.40561 -0.28571
v -0.76242 -0.28422 -0.28571
v -0.84518 -0.15131 -0.28571
v -0.89613 -0.00000 -0.28571
v -0.86831 0.15545 -0.28571
v -0.78572 0.29291 -0.28571
v -0.69627 0.41871 -0.28571
v -0.60712 0.54641 -0.28571
v -0.49256 0.66346 -0.28571
v -0.33598 0.73001 -0.28571
v -0.16567 0.74961 -0.28571
v -0.00000 0.74376 -0.28571
v 0.15985 0.72327 -0.28571
v 0.32329 0.70244 -0.28571
v 0.48867 0.65822 -0.28571
v 0.62506 0.56256 -0.28571
v 0.72553 0.43631 -0.28571
v 0.79841 0.29764 -0.28571
v 0.84876 0.15195 -0.28571
v 0.86879 -0.00000 -0.25000
v 0.82710 -0.14807 -0.25000
v 0.76862 -0.28653 -0.25000
v 0.68280 -0.41061 -0.25000
v 0.57725 -0.51953 -0.25000
v 0.46747 -0.62966 -0.25000
v 0.34007 -0.73890 -0.25000
v 0.17680 -0.79997 -0.25000
v 0.00000 -0.80417 -0.25000
v -0.17105 -0.77393 -0.25000
v -0.32752 -0.71164 -0.25000
v -0.46363 -0.62448 -0.25000
v -0.59499 -0.53549 -0.25000
v -0.71174 -0.42801 -0.25000
v -0.78116 -0.29121 -0.25000
v -0.80776 -0.14461 -0.25000
v -0.83331 -0.00000 -0.25000
v -0.85276 0.15266 -0.25000
v -0.82648 0.30810 -0.25000
v -0.75446 0.45370 -0.25000
v -0.63776 0.57398 -0.25000
v -0.47897 0.64514 -0.25000
v -0.31334 0.68083 -0.25000
v -0.15934 0.72097 -0.25000
v -0.00000 0.75215 -0.25000
v 0.16510 0.74701 -0.25000
v 0.32589 0.70809 -0.25000
v 0.48281 0.65032 -0.25000
v 0.62002 0.55801 -0.25000
v 0.72552 0.43630 -0.25000
v 0.81393 0.30343 -0.25000
v 0.87209 0.15612 -0.25000
v 0.82183 -0.00000 -0.21429
v 0.82730 -0.14810 -0.21429
v 0.81285 -0.30302 -0.21429
v 0.74668 -0.44902 -0.21429
v 0.62542 -0.56288 -0.21429
v 0.47010 -0.63320 -0.21429
v 0.31805 -0.69106 -0.21429
v 0.16555 -0.74903 -0.21429
v 0.00000 -0.78207 -0.21429
v -0.17088 -0.77316 -0.21429
v -0.32968 -0.71633 -0.21429
v -0.47366 -0.63800 -0.21429
v -0.60898 -0.54808 -0.21429
v -0.71986 -0.43290 -0.21429
v -0.80123 -0.29869 -0.21429
v -0.84522 -0.15131 -0.21429
v -0.85472 -0.00000 -0.21429
v -0.84942 0.15206 -0.21429
v -0.80590 0.30043 -0.21429
v -0.71547 0.43025 -0.21429
v -0.59550 0.53595 -0.21429
v -0.46382 0.62474 -0.21429
v -0.32987 0.71674 -0.21429
v -0.17418 0.78809 -0.21429
v -0.00000 0.80246 -0.21429
v 0.16884 0.76395 -0.21429
v 0.31824 0.69147 -0.21429
v 0.46026 0.61994 -0.21429
v 0.61195 0.55075 -0.21429
v 0.74228 0.44638 -0.21429
v 0.81753 0.30477 -0.21429
v 0.83150 0.14886 -0.21429
v 0.88690 -0.00000 -0.17857
v 0.89965 -0.16106 -0.17857
v 0.83858 -0.31262 -0.17857
v 0.74007 -0.44505 -0.17857
v 0.62599 -0.56340 -0.17857
v 0.48672 -0.65558 -0.17857
v 0.32951 -0.71595 -0.17857
v 0.16814 -0.76077 -0.17857
v 0.00000 -0.77216 -0.17857
v -0.16356 -0.74002 -0.17857
v -0.31951 -0.69424 -0.17857
v -0.48365 -0.65146 -0.17857
v -0.64013 -0.57611 -0.17857
v -0.76312 -0.45891 -0.17857
v -0.84858 -0.31634 -0.17857
v -0.88425 -0.15830 -0.17857
v -0.85864 -0.00000 -0.17857
v -0.81335 0.14561 -0.17857
v -0.77625 0.28938 -0.17857
v -0.71340 0.42901 -0.17857
v -0.60939 0.54845 -0.17857
v -0.48313 0.65075 -0.17857
v -0.33868 0.73588 -0.17857
v -0.17279 0.78180 -0.17857
v -0.00000 0.80117 -0.17857
v 0.17737 0.80255 -0.17857
v 0.34867 0.75759 -0.17857
v 0.48619 0.65488 -0.17857
v 0.59525 0.53573 -0.17857
v 0.69035 0.41515 -0.17857
v 0.76626 0.28565 -0.17857
v 0.82876 0.14836 -0.17857
v 0.89612 -0.00000 -0.14286
v 0.86148 -0.15422 -0.14286
v 0.80070 -0.29850 -0.14286
v 0.73190 -0.44014 -0.14286
v 0.64084 -0.57676 -0.14286
v 0.51063 -0.68779 -0.14286
v 0.34056 -0.73997 -0.14286
v 0.16618 -0.75189 -0.14286
v 0.00000 -0.76102 -0.14286
v -0.16973 -0.76797 -0.14286
v -0.34831 -0.75680 -0.14286
v -0.51300 -0.69099 -0.14286
v -0.62989 -0.56690 -0.14286
v -0.71403 -0.42939 -0.14286
v -0.79296 -0.29561 -0.14286
v -0.87341 -0.15636 -0.14286
v -0.91803 -0.00000 -0.14286
v -0.88579 0.15857 -0.14286
v -0.80630 0.30058 -0.14286
v -0.70912 0.42643 -0.14286
v -0.60692 0.54623 -0.14286
v -0.49481 0.66648 -0.14286
v -0.34742 0.75487 -0.14286
v -0.17524 0.79290 -0.14286
v -0.00000 0.79690 -0.14286
v 0.17169 0.77682 -0.14286
v 0.33967 0.73804 -0.14286
v 0.49244 0.66328 -0.14286
v 0.61788 0.55609 -0.14286
v 0.72698 0.43718 -0.14286
v 0.81404 0.30347 -0.14286
v 0.87385 0.15644 -0.14286
v 0.89836 -0.00000 -0.10714
v 0.86090 -0.15412 -0.10714
v 0.79703 -0.29712 -0.10714
v 0.70360 -0.42312 -0.10714
v 0.59224 -0.53301 -0.10714
v 0.48057 -0.64730 -0.10714
v 0.34732 -0.75465 -0.10714
v 0.17981 -0.81357 -0.10714
v 0.00000 -0.82535 -0.10714
v -0.17751 -0.80314 -0.10714
v -0.34230 -0.74374 -0.10714
v -0.47903 -0.64523 -0.10714
v -0.59934 -0.53940 -0.10714
v -0.71518 -0.43008 -0.10714
v -0.80205 -0.29900 -0.10714
v -0.85316 -0.15273 -0.10714
v -0.88416 -0.00000 -0.10714
v -0.87503 0.15665 -0.10714
v -0.82320 0.30688 -0.10714
v -0.75254 0.45255 -0.10714
v -0.65469 0.58922 -0.10714
v -0.50880 0.68533 -0.10714
v -0.33241 0.72225 -0.10714
v -0.16312 0.73807 -0.10714
v -0.00000 0.75009 -0.10714
v 0.16543 0.74850 -0.10714
v 0.33743 0.73316 -0.10714
v 0.51034 0.68740 -0.10714
v 0.64759 0.58283 -0.10714
v 0.74096 0.44558 -0.10714
v 0.81818 0.30501 -0.10714
v 0.88277 0.15803 -0.10714
v 0.85212 -0.00000 -0.07143
v 0.82219 -0.14719 -0.07143
v 0.79123 -0.29496 -0.07143
v 0.72702 -0.43720 -0.07143
v 0.61874 -0.55686 -0.07143
v 0.48202 -0.64926 -0.07143
v 0.33574 -0.72949 -0.07143
v 0.17292 -0.78241 -0.07143
v 0.00000 -0.79887 -0.07143
v -0.17383 -0.78653 -0.07143
v -0.33772 -0.73380 -0.07143
v -0.48263 -0.65008 -0.07143
v -0.61593 -0.55434 -0.07143
v -0.72243 -0.43444 -0.07143
v -0.78924 -0.29422 -0.07143
v -0.82526 -0.14774 -0.07143
v -0.85774 -0.00000 -0.07143
v -0.88247 0.15798 -0.07143
v -0.84811 0.31617 -0.07143
v -0.75288 0.45275 -0.07143
v -0.62057 0.55851 -0.07143
v -0.47004 0.63312 -0.07143
v -0.32401 0.70400 -0.07143
v -0.17145 0.77576 -0.07143
v -0.00000 0.80461 -0.07143
v 0.17054 0.77163 -0.07143
v 0.32202 0.69968 -0.07143
v 0.46943 0.63230 -0.07143
v 0.62338 0.56104 -0.07143
v 0.75746 0.45551 -0.07143
v 0.85010 0.31691 -0.07143
v 0.87941 0.15743 -0.07143
v 0.85670 -0.00000 -0.03571
v 0.88608 -0.15863 -0.03571
v 0.85241 -0.31777 -0.03571
v 0.75823 -0.45597 -0.03571
v 0.62636 -0.56372 -0.03571
v 0.47245 -0.63636 -0.03571
v 0.32157 -0.69871 -0.03571
v 0.16916 -0.76537 -0.03571
v 0.00000 -0.79641 -0.03571
v -0.16969 -0.76780 -0.03571
v -0.32274 -0.70125 -0.03571
v -0.47281 -0.63685 -0.03571
v -0.62470 -0.56223 -0.03571
v -0.75554 -0.45435 -0.03571
v -0.85124 -0.31733 -0.03571
v -0.88788 -0.15895 -0.03571
v -0.86001 -0.00000 -0.03571
v -0.81978 0.14676 -0.03571
v -0.78135 0.29128 -0.03571
v -0.71573 0.43041 -0.03571
v -0.61175 0.55057 -0.03571
v -0.48300 0.65057 -0.03571
v -0.33971 0.73812 -0.03571
v -0.17440 0.78908 -0.03571
v -0.00000 0.80033 -0.03571
v 0.17386 0.78665 -0.03571
v 0.33854 0.73559 -0.03571
v 0.48264 0.65009 -0.03571
v 0.61340 0.55206 -0.03571
v 0.71843 0.43204 -0.03571
v 0.78252 0.29172 -0.03571
v 0.81798 0.14644 -0.03571
v 0.89918 -0.00000 0.00000
v 0.87652 -0.15692 0.00000
v 0.80841 -0.30137 0.00000
v 0.73248 -0.44048 0.00000
v 0.64287 -0.57858 0.00000
v 0.51040 -0.68748 0.00000
v 0.33814 -0.73471 0.00000
v 0.16488 -0.74600 0.00000
v 0.00000 -0.74589 0.00000
v -0.16293 -0.73717 0.00000
v -0.33389 -0.72547 0.00000
v -0.50910 -0.68572 0.00000
v -0.64889 -0.58400 0.00000
v -0.74229 -0.44638 0.00000
v -0.81267 -0.30296 0.00000
v -0.86996 -0.15574 0.00000
v -0.88715 -0.00000 0.00000
v -0.85566 0.15318 0.00000
v -0.79920 0.29793 0.00000
v -0.71109 0.42762 0.00000
v -0.59857 0.53871 0.00000
v -0.48052 0.64723 0.00000
v -0.34158 0.74218 0.00000
v -0.17588 0.79578 0.00000
v -0.00000 0.81550 0.00000
v 0.17783 0.80461 0.00000
v 0.34583 0.75142 0.00000
v 0.48182 0.64899 0.00000
v 0.59256 0.53330 0.00000
v 0.70128 0.42172 0.00000
v 0.79494 0.29635 0.00000
v 0.86222 0.15436 0.00000
v 0.88606 -0.00000 0.03571
v 0.85902 -0.15378 0.03571
v 0.80060 -0.29846 0.03571
v 0.71447 -0.42965 0.03571
v 0.60566 -0.54509 0.03571
v 0.48459 -0.65271 0.03571
v 0.33795 -0.73429 0.03571
v 0.17177 -0.77721 0.03571
v 0.00000 -0.79705 0.03571
v -0.17502 -0.79190 0.03571
v -0.34502 -0.74967 0.03571
v -0.48676 -0.65564 0.03571
v -0.59565 -0.53608 0.03571
v -0.69815 -0.41984 0.03571
v -0.79353 -0.29582 0.03571
v -0.86992 -0.15573 0.03571
v -0.90607 -0.00000 0.03571
v -0.86952 0.15566 0.03571
v -0.79225 0.29535 0.03571
v -0.71429 0.42955 0.03571
v -0.62968 0.56672 0.03571
v -0.50883 0.68537 0.03571
v -0.34217 0.74346 0.03571
v -0.16647 0.75322 0.03571
v -0.00000 0.74777 0.03571
v 0.16323 0.73853 0.03571
v 0.33509 0.72808 0.03571
v 0.50666 0.68245 0.03571
v 0.63969 0.57572 0.03571
v 0.73061 0.43936 0.03571
v 0.79933 0.29798 0.03571
v 0.85862 0.15371 0.03571
v 0.86637 -0.00000 0.07143
v 0.81360 -0.14565 0.07143
v 0.75779 -0.28250 0.07143
v 0.68430 -0.41151 0.07143
v 0.58763 -0.52887 0.07143
v 0.47621 -0.64142 0.07143
v 0.34146 -0.74192 0.07143
v 0.17471 -0.79049 0.07143
v 0.00000 -0.79145 0.07143
v -0.17037 -0.77085 0.07143
v -0.33200 -0.72136 0.07143
v -0.47330 -0.63751 0.07143
v -0.60101 -0.54091 0.07143
v -0.70613 -0.42464 0.07143
v -0.76725 -0.28603 0.07143
v -0.79901 -0.14304 0.07143
v -0.83961 -0.00000 0.07143
v -0.86912 0.15559 0.07143
v -0.83883 0.31271 0.07143
v -0.75417 0.45353 0.07143
v -0.62908 0.56617 0.07143
v -0.47232 0.63619 0.07143
v -0.31325 0.68063 0.07143
v -0.16182 0.73219 0.07143
v -0.00000 0.76614 0.07143
v 0.16616 0.75183 0.07143
v 0.32271 0.70119 0.07143
v 0.47522 0.64009 0.07143
v 0.61570 0.55413 0.07143
v 0.73235 0.44041 0.07143
v 0.82937 0.30918 0.07143
v 0.88370 0.15820 0.07143
v 0.80636 -0.00000 0.10714
v 0.82397 -0.14751 0.10714
v 0.81064 -0.30220 0.10714
v 0.73496 -0.44198 0.10714
v 0.60545 -0.54491 0.10714
v 0.45254 -0.60954 0.10714
v 0.31007 -0.67373 0.10714
v 0.16441 -0.74391 0.10714
v 0.00000 -0.78272 0.10714
v -0.16958 -0.76730 0.10714
v -0.32134 -0.69821 0.10714
v -0.45599 -0.61419 0.10714
v -0.58952 -0.53057 0.10714
v -0.70897 -0.42635 0.10714
v -0.79937 -0.29800 0.10714
v -0.84133 -0.15062 0.10714
v -0.83823 -0.00000 0.10714
v -0.82154 0.14707 0.10714
v -0.77887 0.29036 0.10714
v -0.70089 0.42149 0.10714
v -0.59302 0.53372 0.10714
v -0.46364 0.62450 0.10714
v -0.32564 0.70756 0.10714
v -0.16913 0.76522 0.10714
v -0.00000 0.77336 0.10714
v 0.16396 0.74184 0.10714
v 0.31438 0.68308 0.10714
v 0.46019 0.61985 0.10714
v 0.60895 0.54806 0.10714
v 0.72688 0.43712 0.10714
v 0.79014 0.29456 0.10714
v 0.80418 0.14396 0.10714
v 0.85625 -0.00000 0.14286
v 0.85607 -0.15325 0.14286
v 0.79390 -0.29596 0.14286
v 0.70757 -0.42550 0.14286
v 0.60844 -0.54759 0.14286
v 0.47657 -0.64191 0.14286
v 0.32003 -0.69537 0.14286
v 0.16059 -0.72661 0.14286
v 0.00000 -0.72893 0.14286
v -0.15491 -0.70091 0.14286
v -0.30766 -0.66847 0.14286
v -0.47277 -0.63680 0.14286
v -0.62594 -0.56335 0.14286
v -0.73612 -0.44267 0.14286
v -0.80628 -0.30058 0.14286
v -0.83699 -0.14984 0.14286
v -0.82124 -0.00000 0.14286
v -0.79119 0.14164 0.14286
v -0.76022 0.28340 0.14286
v -0.69144 0.41580 0.14286
v -0.57992 0.52193 0.14286
v -0.45555 0.61360 0.14286
v -0.32231 0.70030 0.14286
v -0.16745 0.75767 0.14286
v -0.00000 0.78549 0.14286
v 0.17313 0.78336 0.14286
v 0.33468 0.72720 0.14286
v 0.45934 0.61871 0.14286
v 0.56242 0.50617 0.14286
v 0.66289 0.39863 0.14286
v 0.74784 0.27879 0.14286
v 0.81027 0.14506 0.14286
v 0.83841 -0.00000 0.17857
v 0.82029 -0.14685 0.17857
v 0.76940 -0.28683 0.17857
v 0.69872 -0.42018 0.17857
v 0.60226 -0.54204 0.17857
v 0.47426 -0.63880 0.17857
v 0.31641 -0.68749 0.17857
v 0.15654 -0.70828 0.17857
v 0.00000 -0.72758 0.17857
v -0.16238 -0.73470 0.17857
v -0.32914 -0.71515 0.17857
v -0.47816 -0.64406 0.17857
v -0.58426 -0.52584 0.17857
v -0.66936 -0.40253 0.17857
v -0.75667 -0.28208 0.17857
v -0.83990 -0.15036 0.17857
v -0.87441 -0.00000 0.17857
v -0.82781 0.14819 0.17857
v -0.74445 0.27753 0.17857
v -0.65851 0.39600 0.17857
v -0.57409 0.51668 0.17857
v -0.47489 0.63965 0.17857
v -0.33283 0.72318 0.17857
v -0.16519 0.74744 0.17857
v -0.00000 0.73966 0.17857
v 0.15936 0.72102 0.17857
v 0.32011 0.69553 0.17857
v 0.47099 0.63440 0.17857
v 0.59209 0.53288 0.17857
v 0.68786 0.41365 0.17857
v 0.75718 0.28227 0.17857
v 0.80819 0.14468 0.17857
v 0.84178 -0.00000 0.21429
v 0.79109 -0.14162 0.21429
v 0.72080 -0.26871 0.21429
v 0.63699 -0.38306 0.21429
v 0.54550 -0.49095 0.21429
v 0.45104 -0.60753 0.21429
v 0.32692 -0.71032 0.21429
v 0.16690 -0.75513 0.21429
v 0.00000 -0.75311 0.21429
v -0.16126 -0.72962 0.21429
v -0.31463 -0.68362 0.21429
v -0.44728 -0.60246 0.21429
v -0.56288 -0.50659 0.21429
v -0.66535 -0.40011 0.21429
v -0.73309 -0.27329 0.21429
v -0.77214 -0.13823 0.21429
v -0.80701 -0.00000 0.21429
v -0.81275 0.14550 0.21429
v -0.77387 0.28849 0.21429
v -0.70600 0.42456 0.21429
v -0.60586 0.54527 0.21429
v -0.46395 0.62492 0.21429
v -0.30145 0.65499 0.21429
v -0.14959 0.67682 0.21429
v -0.00000 0.69981 0.21429
v 0.15523 0.70234 0.21429
v 0.31374 0.68170 0.21429
v 0.46772 0.63000 0.21429
v 0.58848 0.52963 0.21429
v 0.67765 0.40751 0.21429
v 0.76158 0.28391 0.21429
v 0.83169 0.14889 0.21429
v 0.75509 -0.00000 0.25000
v 0.73902 -0.13230 0.25000
v 0.72444 -0.27007 0.25000
v 0.66786 -0.40163 0.25000
v 0.56037 -0.50433 0.25000
v 0.42881 -0.57758 0.25000
v 0.29782 -0.64710 0.25000
v 0.15543 -0.70327 0.25000
v 0.00000 -0.73122 0.25000
v -0.16053 -0.72632 0.25000
v -0.30892 -0.67122 0.25000
v -0.43221 -0.58217 0.25000
v -0.54467 -0.49020 0.25000
v -0.64225 -0.38623 0.25000
v -0.71334 -0.26593 0.25000
v -0.75613 -0.13536 0.25000
v -0.78649 -0.00000 0.25000
v -0.80006 0.14323 0.25000
v -0.75826 0.28267 0.25000
v -0.67097 0.40350 0.25000
v -0.55936 0.50342 0.25000
v -0.42973 0.57882 0.25000
v -0.29742 0.64624 0.25000
v -0.15590 0.70539 0.25000
v -0.00000 0.71954 0.25000
v 0.15081 0.68234 0.25000
v 0.28632 0.62212 0.25000
v 0.42632 0.57423 0.25000
v 0.57506 0.51755 0.25000
v 0.69658 0.41889 0.25000
v 0.76936 0.28681 0.25000
v 0.78295 0.14016 0.25000
v 0.76972 -0.00000 0.28571
v 0.78965 -0.14136 0.28571
v 0.74877 -0.27913 0.28571
v 0.66108 -0.39755 0.28571
v 0.54982 -0.49484 0.28571
v 0.42045 -0.56633 0.28571
v 0.28890 -0.62773 0.28571
v 0.15137 -0.68489 0.28571
v 0.00000 -0.70129 0.28571
v -0.14714 -0.66574 0.28571
v -0.27968 -0.60768 0.28571
v -0.41762 -0.56252 0.28571
v -0.56287 -0.50658 0.28571
v -0.68236 -0.41034 0.28571
v -0.75799 -0.28257 0.28571
v -0.77543 -0.13882 0.28571
v -0.74362 -0.00000 0.28571
v -0.71746 0.12844 0.28571
v -0.69866 0.26046 0.28571
v -0.64532 0.38807 0.28571
v -0.54527 0.49075 0.28571
v -0.42206 0.56849 0.28571
v -0.29469 0.64031 0.28571
v -0.15279 0.69132 0.28571
v -0.00000 0.71412 0.28571
v 0.15703 0.71048 0.28571
v 0.30392 0.66036 0.28571
v 0.42489 0.57230 0.28571
v 0.53222 0.47900 0.28571
v 0.62404 0.37527 0.28571
v 0.68944 0.25702 0.28571
v 0.73168 0.13099 0.28571
v 0.76617 -0.00000 0.32143
v 0.75517 -0.13519 0.32143
v 0.70831 -0.26405 0.32143
v 0.64915 -0.39037 0.32143
v 0.56762 -0.51086 0.32143
v 0.44268 -0.59627 0.32143
v 0.28738 -0.62441 0.32143
v 0.13968 -0.63200 0.32143
v 0.00000 -0.64229 0.32143
v -0.14279 -0.64609 0.32143
v -0.29416 -0.63915 0.32143
v -0.44476 -0.59907 0.32143
v -0.55802 -0.50222 0.32143
v -0.63350 -0.38096 0.32143
v -0.70152 -0.26152 0.32143
v -0.76562 -0.13706 0.32143
v -0.78536 -0.00000 0.32143
v -0.74753 0.13382 0.32143
v -0.68412 0.25503 0.32143
v -0.60089 0.36135 0.32143
v -0.50868 0.45781 0.32143
v -0.41785 0.56282 0.32143
v -0.30265 0.65759 0.32143
v -0.15558 0.70395 0.32143
v -0.00000 0.70967 0.32143
v 0.15247 0.68987 0.32143
v 0.29586 0.64285 0.32143
v 0.41577 0.56001 0.32143
v 0.51828 0.46645 0.32143
v 0.61654 0.37076 0.32143
v 0.69090 0.25756 0.32143
v 0.73708 0.13195 0.32143
v 0.77066 -0.00000 0.35714
v 0.74132 -0.13271 0.35714
v 0.67622 -0.25209 0.35714
v 0.59342 -0.35686 0.35714
v 0.50453 -0.45408 0.35714
v 0.41250 -0.55562 0.35714
v 0.29276 -0.63610 0.35714
v 0.14874 -0.67298 0.35714
v 0.00000 -0.67995 0.35714
v -0.14694 -0.66483 0.35714
v -0.28883 -0.62757 0.35714
v -0.41130 -0.55400 0.35714
v -0.51008 -0.45908 0.35714
v -0.60247 -0.36230 0.35714
v -0.68014 -0.25355 0.35714
v -0.73527 -0.13163 0.35714
v -0.75956 -0.00000 0.35714
v -0.72990 0.13067 0.35714
v -0.67371 0.25116 0.35714
v -0.61664 0.37082 0.35714
v -0.54513 0.49061 0.35714
v -0.43538 0.58643 0.35714
v -0.28705 0.62369 0.35714
v -0.13824 0.62548 0.35714
v -0.00000 0.62813 0.35714
v 0.14004 0.63363 0.35714
v 0.29097 0.63222 0.35714
v 0.43658 0.58805 0.35714
v 0.53958 0.48562 0.35714
v 0.60759 0.36538 0.35714
v 0.66979 0.24969 0.35714
v 0.73595 0.13175 0.35714
v 0.70778 -0.00000 0.39286
v 0.65886 -0.11795 0.39286
v 0.62353 -0.23245 0.39286
v 0.57423 -0.34532 0.39286
v 0.49531 -0.44578 0.39286
v 0.39774 -0.53573 0.39286
v 0.28203 -0.61280 0.39286
v 0.14347 -0.64913 0.39286
v 0.00000 -0.65556 0.39286
v -0.14384 -0.65084 0.39286
v -0.28286 -0.61459 0.39286
v -0.39799 -0.53607 0.39286
v -0.49414 -0.44473 0.39286
v -0.57232 -0.34417 0.39286
v -0.62271 -0.23214 0.39286
v -0.66013 -0.11818 0.39286
v -0.71011 -0.00000 0.39286
v -0.74034 0.13254 0.39286
v -0.70485 0.26276 0.39286
v -0.62268 0.37446 0.39286
v -0.51664 0.46497 0.39286
v -0.39066 0.52619 0.39286
v -0.26224 0.56979 0.39286
v -0.13649 0.61754 0.39286
v -0.00000 0.64049 0.39286
v 0.13611 0.61583 0.39286
v 0.26142 0.56800 0.39286
v 0.39040 0.52585 0.39286
v 0.51780 0.46602 0.39286
v 0.62458 0.37560 0.39286
v 0.70567 0.26307 0.39286
v 0.73907 0.13231 0.39286
v 0.66171 -0.00000 0.42857
v 0.68343 -0.12235 0.42857
v 0.66810 -0.24906 0.42857
v 0.59478 -0.35768 0.42857
v 0.48266 -0.43440 0.42857
v 0.36125 -0.48658 0.42857
v 0.25324 -0.55023 0.42857
v 0.13699 -0.61981 0.42857
v 0.00000 -0.65041 0.42857
v -0.13805 -0.62464 0.42857
v -0.25556 -0.55529 0.42857
v -0.36196 -0.48754 0.42857
v -0.47937 -0.43143 0.42857
v -0.58941 -0.35445 0.42857
v -0.66577 -0.24820 0.42857
v -0.68702 -0.12299 0.42857
v -0.66829 -0.00000 0.42857
v -0.65363 0.11701 0.42857
v -0.63099 0.23523 0.42857
v -0.57971 0.34861 0.42857
v -0.49347 0.44412 0.42857
v -0.38016 0.51205 0.42857
v -0.26211 0.56952 0.42857
v -0.13522 0.61181 0.42857
v -0.00000 0.62278 0.42857
v 0.13415 0.60698 0.42857
v 0.25978 0.56446 0.42857
v 0.37944 0.51109 0.42857
v 0.49676 0.44708 0.42857
v 0.58508 0.35184 0.42857
v 0.63331 0.23609 0.42857
v 0.65004 0.11637 0.42857
v 0.67735 -0.00000 0.46429
v 0.67548 -0.12093 0.46429
v 0.63199 -0.23560 0.46429
v 0.57424 -0.34533 0.46429
v 0.50053 -0.45048 0.46429
v 0.38827 -0.52298 0.46429
v 0.25376 -0.55136 0.46429
v 0.12491 -0.56516 0.46429
v 0.00000 -0.56718 0.46429
v -0.12246 -0.55408 0.46429
v -0.24842 -0.53977 0.46429
v -0.38664 -0.52078 0.46429
v -0.50808 -0.45727 0.46429
v -0.58655 -0.35273 0.46429
v -0.63733 -0.23759 0.46429
v -0.66725 -0.11945 0.46429
v -0.66225 -0.00000 0.46429
v -0.64139 0.11482 0.46429
v -0.61213 0.22820 0.46429
v -0.54592 0.32830 0.46429
v -0.45000 0.40500 0.46429
v -0.35620 0.47978 0.46429
v -0.25947 0.56378 0.46429
v -0.13761 0.62263 0.46429
v -0.00000 0.64549 0.46429
v 0.14006 0.63371 0.46429
v 0.26481 0.57538 0.46429
v 0.35784 0.48199 0.46429
v 0.44246 0.39821 0.46429
v 0.53361 0.32089 0.46429
v 0.60679 0.22621 0.46429
v 0.64962 0.11629 0.46429
v 0.66758 -0.00000 0.50000
v 0.66235 -0.11857 0.50000
v 0.61627 -0.22974 0.50000
v 0.54896 -0.33012 0.50000
v 0.46707 -0.42037 0.50000
v 0.36882 -0.49678 0.50000
v 0.24855 -0.54004 0.50000
v 0.12441 -0.56291 0.50000
v 0.00000 -0.58021 0.50000
v -0.12809 -0.57956 0.50000
v -0.25656 -0.55746 0.50000
v -0.37128 -0.50009 0.50000
v -0.45574 -0.41016 0.50000
v -0.53047 -0.31900 0.50000
v -0.60825 -0.22675 0.50000
v -0.67470 -0.12079 0.50000
v -0.69025 -0.00000 0.50000
v -0.63784 0.11419 0.50000
v -0.57017 0.21255 0.50000
v -0.51363 0.30888 0.50000
v -0.45854 0.41269 0.50000
v -0.38313 0.51606 0.50000
v -0.26490 0.57557 0.50000
v -0.12817 0.57991 0.50000
v -0.00000 0.56813 0.50000
v 0.12449 0.56326 0.50000
v 0.25688 0.55815 0.50000
v 0.38068 0.51275 0.50000
v 0.46988 0.42289 0.50000
v 0.53213 0.32000 0.50000
v 0.57818 0.21554 0.50000
v 0.62548 0.11197 0.50000
vt 0.00000 -0.01750
vt 0.00505 -0.01750
vt 0.00995 -0.01750
vt 0.01420 -0.01750
vt 0.01775 -0.01750
vt 0.02027 -0.01750
vt 0.02189 -0.01750
vt 0.02348 -0.01750
vt 0.02428 -0.01750
vt 0.02348 -0.01750
vt 0.02189 -0.01750
vt 0.02027 -0.01750
vt 0.01775 -0.01750
vt 0.01420 -0.01750
vt 0.00995 -0.01750
vt 0.00505 -0.01750
vt 0.00000 -0.01750
vt -0.00454 -0.01750
vt -0.00885 -0.01750
vt -0.01310 -0.01750
vt -0.01700 -0.01750
vt -0.02059 -0.01750
vt -0.02351 -0.01750
vt -0.02471 -0.01750
vt -0.02486 -0.01750
vt -0.02471 -0.01750
vt -0.02351 -0.01750
vt -0.02059 -0.01750
vt -0.01700 -0.01750
vt -0.01310 -0.01750
vt -0.00885 -0.01750
vt -0.00454 -0.01750
vt 0.00000 -0.01625
vt 0.00491 -0.01625
vt 0.00931 -0.01625
vt 0.01364 -0.01625
vt 0.01809 -0.01625
vt 0.02202 -0.01625
vt 0.02391 -0.01625
vt 0.02408 -0.01625
vt 0.02390 -0.01625
vt 0.02385 -0.01625
vt 0.02367 -0.01625
vt 0.02197 -0.01625
vt 0.01823 -0.01625
vt 0.01379 -0.01625
vt 0.00935 -0.01625
vt 0.00488 -0.01625
vt 0.00000 -0.01625
vt -0.00500 -0.01625
vt -0.00962 -0.01625
vt -0.01374 -0.01625
vt -0.01745 -0.01625
vt -0.02097 -0.01625
vt -0.02350 -0.01625
vt -0.02477 -0.01625
vt -0.02530 -0.01625
vt -0.02500 -0.01625
vt -0.02374 -0.01625
vt -0.02101 -0.01625
vt -0.01731 -0.01625
vt -0.01358 -0.01625
vt -0.00958 -0.01625
vt -0.00503 -0.01625
vt 0.00000 -0.01500
vt 0.00488 -0.01500
vt 0.00958 -0.01500
vt 0.01379 -0.01500
vt 0.01726 -0.01500
vt 0.02064 -0.01500
vt 0.02384 -0.01500
vt 0.02580 -0.01500
vt 0.02657 -0.01500
vt 0.02624 -0.01500
vt 0.02431 -0.01500
vt 0.02073 -0.01500
vt 0.01699 -0.01500
vt 0.01349 -0.01500
vt 0.00950 -0.01500
vt 0.00494 -0.01500
vt 0.00000 -0.01500
vt -0.00509 -0.01500
vt -0.00980 -0.01500
vt -0.01429 -0.01500
vt -0.01873 -0.01500
vt -0.02210 -0.01500
vt -0.02353 -0.01500
vt -0.02397 -0.01500
vt -0.02396 -0.01500
vt -0.02352 -0.01500
vt -0.02306 -0.01500
vt -0.02201 -0.01500
vt -0.01900 -0.01500
vt -0.01459 -0.01500
vt -0.00987 -0.01500
vt -0.00503 -0.01500
vt 0.00000 -0.01375
vt 0.00485 -0.01375
vt 0.00958 -0.01375
vt 0.01400 -0.01375
vt 0.01783 -0.01375
vt 0.02107 -0.01375
vt 0.02407 -0.01375
vt 0.02593 -0.01375
vt 0.02616 -0.01375
vt 0.02530 -0.01375
vt 0.02342 -0.01375
vt 0.02095 -0.01375
vt 0.01822 -0.01375
vt 0.01442 -0.01375
vt 0.00969 -0.01375
vt 0.00477 -0.01375
vt 0.00000 -0.01375
vt -0.00507 -0.01375
vt -0.01034 -0.01375
vt -0.01501 -0.01375
vt -0.01847 -0.01375
vt -0.02057 -0.01375
vt -0.02251 -0.01375
vt -0.02482 -0.01375
vt -0.02611 -0.01375
vt -0.02544 -0.01375
vt -0.02316 -0.01375
vt -0.02070 -0.01375
vt -0.01809 -0.01375
vt -0.01459 -0.01375
vt -0.01022 -0.01375
vt -0.00516 -0.01375
vt 0.00000 -0.01250
vt 0.00518 -0.01250
vt 0.01052 -0.01250
vt 0.01533 -0.01250
vt 0.01902 -0.01250
vt 0.02118 -0.01250
vt 0.02280 -0.01250
vt 0.02481 -0.01250
vt 0.02609 -0.01250
vt 0.02558 -0.01250
vt 0.02361 -0.01250
vt 0.02134 -0.01250
vt 0.01855 -0.01250
vt 0.01481 -0.01250
vt 0.01038 -0.01250
vt 0.00528 -0.01250
vt 0.00000 -0.01250
vt -0.00493 -0.01250
vt -0.00964 -0.01250
vt -0.01401 -0.01250
vt -0.01785 -0.01250
vt -0.02139 -0.01250
vt -0.02474 -0.01250
vt -0.02664 -0.01250
vt -0.02677 -0.01250
vt -0.02587 -0.01250
vt -0.02393 -0.01250
vt -0.02123 -0.01250
vt -0.01833 -0.01250
vt -0.01453 -0.01250
vt -0.00978 -0.01250
vt -0.00483 -0.01250
vt 0.00000 -0.01125
vt 0.00538 -0.01125
vt 0.01021 -0.01125
vt 0.01467 -0.01125
vt 0.01915 -0.01125
vt 0.02298 -0.01125
vt 0.02495 -0.01125
vt 0.02558 -0.01125
vt 0.02542 -0.01125
vt 0.02470 -0.01125
vt 0.02403 -0.01125
vt 0.02280 -0.01125
vt 0.01969 -0.01125
vt 0.01526 -0.01125
vt 0.01037 -0.01125
vt 0.00527 -0.01125
vt 0.00000 -0.01125
vt -0.00507 -0.01125
vt -0.00996 -0.01125
vt -0.01454 -0.01125
vt -0.01848 -0.01125
vt -0.02204 -0.01125
vt -0.02485 -0.01125
vt -0.02634 -0.01125
vt -0.02712 -0.01125
vt -0.02721 -0.01125
vt -0.02576 -0.01125
vt -0.02221 -0.01125
vt -0.01795 -0.01125
vt -0.01396 -0.01125
vt -0.00980 -0.01125
vt -0.00518 -0.01125
vt 0.00000 -0.01000
vt 0.00517 -0.01000
vt 0.01011 -0.01000
vt 0.01481 -0.01000
vt 0.01901 -0.01000
vt 0.02268 -0.01000
vt 0.02514 -0.01000
vt 0.02625 -0.01000
vt 0.02695 -0.01000
vt 0.02717 -0.01000
vt 0.02610 -0.01000
vt 0.02286 -0.01000
vt 0.01844 -0.01000
vt 0.01420 -0.01000
vt 0.00995 -0.01000
vt 0.00530 -0.01000
vt 0.00000 -0.01000
vt -0.00544 -0.01000
vt -0.01025 -0.01000
vt -0.01465 -0.01000
vt -0.01912 -0.01000
vt -0.02322 -0.01000
vt -0.02555 -0.01000
vt -0.02624 -0.01000
vt -0.02603 -0.01000
vt -0.02531 -0.01000
vt -0.02459 -0.01000
vt -0.02304 -0.01000
vt -0.01969 -0.01000
vt -0.01527 -0.01000
vt -0.01042 -0.01000
vt -0.00532 -0.01000
vt 0.00000 -0.00875
vt 0.00518 -0.00875
vt 0.01003 -0.00875
vt 0.01437 -0.00875
vt 0.01818 -0.00875
vt 0.02204 -0.00875
vt 0.02586 -0.00875
vt 0.02800 -0.00875
vt 0.02815 -0.00875
vt 0.02709 -0.00875
vt 0.02491 -0.00875
vt 0.02186 -0.00875
vt 0.01874 -0.00875
vt 0.01498 -0.00875
vt 0.01019 -0.00875
vt 0.00506 -0.00875
vt 0.00000 -0.00875
vt -0.00534 -0.00875
vt -0.01078 -0.00875
vt -0.01588 -0.00875
vt -0.02009 -0.00875
vt -0.02258 -0.00875
vt -0.02383 -0.00875
vt -0.02523 -0.00875
vt -0.02633 -0.00875
vt -0.02615 -0.00875
vt -0.02478 -0.00875
vt -0.02276 -0.00875
vt -0.01953 -0.00875
vt -0.01527 -0.00875
vt -0.01062 -0.00875
vt -0.00546 -0.00875
vt 0.00000 -0.00750
vt 0.00518 -0.00750
vt 0.01061 -0.00750
vt 0.01572 -0.00750
vt 0.01970 -0.00750
vt 0.02216 -0.00750
vt 0.02419 -0.00750
vt 0.02622 -0.00750
vt 0.02737 -0.00750
vt 0.02706 -0.00750
vt 0.02507 -0.00750
vt 0.02233 -0.00750
vt 0.01918 -0.00750
vt 0.01515 -0.00750
vt 0.01045 -0.00750
vt 0.00530 -0.00750
vt 0.00000 -0.00750
vt -0.00532 -0.00750
vt -0.01052 -0.00750
vt -0.01506 -0.00750
vt -0.01876 -0.00750
vt -0.02187 -0.00750
vt -0.02509 -0.00750
vt -0.02758 -0.00750
vt -0.02809 -0.00750
vt -0.02674 -0.00750
vt -0.02420 -0.00750
vt -0.02170 -0.00750
vt -0.01928 -0.00750
vt -0.01562 -0.00750
vt -0.01067 -0.00750
vt -0.00521 -0.00750
vt 0.00000 -0.00625
vt 0.00564 -0.00625
vt 0.01094 -0.00625
vt 0.01558 -0.00625
vt 0.01972 -0.00625
vt 0.02295 -0.00625
vt 0.02506 -0.00625
vt 0.02663 -0.00625
vt 0.02703 -0.00625
vt 0.02590 -0.00625
vt 0.02430 -0.00625
vt 0.02280 -0.00625
vt 0.02016 -0.00625
vt 0.01606 -0.00625
vt 0.01107 -0.00625
vt 0.00554 -0.00625
vt 0.00000 -0.00625
vt -0.00510 -0.00625
vt -0.01013 -0.00625
vt -0.01502 -0.00625
vt -0.01920 -0.00625
vt -0.02278 -0.00625
vt -0.02576 -0.00625
vt -0.02736 -0.00625
vt -0.02804 -0.00625
vt -0.02809 -0.00625
vt -0.02652 -0.00625
vt -0.02292 -0.00625
vt -0.01875 -0.00625
vt -0.01453 -0.00625
vt -0.01000 -0.00625
vt -0.00519 -0.00625
vt 0.00000 -0.00500
vt 0.00540 -0.00500
vt 0.01045 -0.00500
vt 0.01540 -0.00500
vt 0.02019 -0.00500
vt 0.02407 -0.00500
vt 0.02590 -0.00500
vt 0.02632 -0.00500
vt 0.02664 -0.00500
vt 0.02688 -0.00500
vt 0.02649 -0.00500
vt 0.02418 -0.00500
vt 0.01984 -0.00500
vt 0.01503 -0.00500
vt 0.01035 -0.00500
vt 0.00547 -0.00500
vt 0.00000 -0.00500
vt -0.00555 -0.00500
vt -0.01052 -0.00500
vt -0.01493 -0.00500
vt -0.01912 -0.00500
vt -0.02333 -0.00500
vt -0.02642 -0.00500
vt -0.02775 -0.00500
vt -0.02789 -0.00500
vt -0.02719 -0.00500
vt -0.02583 -0.00500
vt -0.02321 -0.00500
vt -0.01946 -0.00500
vt -0.01530 -0.00500
vt -0.01062 -0.00500
vt -0.00548 -0.00500
vt 0.00000 -0.00375
vt 0.00539 -0.00375
vt 0.01040 -0.00375
vt 0.01481 -0.00375
vt 0.01866 -0.00375
vt 0.02266 -0.00375
vt 0.02641 -0.00375
vt 0.02847 -0.00375
vt 0.02889 -0.00375
vt 0.02811 -0.00375
vt 0.02603 -0.00375
vt 0.02258 -0.00375
vt 0.01888 -0.00375
vt 0.01505 -0.00375
vt 0.01046 -0.00375
vt 0.00535 -0.00375
vt 0.00000 -0.00375
vt -0.00548 -0.00375
vt -0.01074 -0.00375
vt -0.01584 -0.00375
vt -0.02062 -0.00375
vt -0.02399 -0.00375
vt -0.02528 -0.00375
vt -0.02583 -0.00375
vt -0.02625 -0.00375
vt -0.02620 -0.00375
vt -0.02566 -0.00375
vt -0.02406 -0.00375
vt -0.02040 -0.00375
vt -0.01560 -0.00375
vt -0.01068 -0.00375
vt -0.00553 -0.00375
vt 0.00000 -0.00250
vt 0.00515 -0.00250
vt 0.01032 -0.00250
vt 0.01530 -0.00250
vt 0.01949 -0.00250
vt 0.02272 -0.00250
vt 0.02553 -0.00250
vt 0.02738 -0.00250
vt 0.02796 -0.00250
vt 0.02753 -0.00250
vt 0.02568 -0.00250
vt 0.02275 -0.00250
vt 0.01940 -0.00250
vt 0.01521 -0.00250
vt 0.01030 -0.00250
vt 0.00517 -0.00250
vt 0.00000 -0.00250
vt -0.00553 -0.00250
vt -0.01107 -0.00250
vt -0.01585 -0.00250
vt -0.01955 -0.00250
vt -0.02216 -0.00250
vt -0.02464 -0.00250
vt -0.02715 -0.00250
vt -0.02816 -0.00250
vt -0.02701 -0.00250
vt -0.02449 -0.00250
vt -0.02213 -0.00250
vt -0.01964 -0.00250
vt -0.01594 -0.00250
vt -0.01109 -0.00250
vt -0.00551 -0.00250
vt 0.00000 -0.00125
vt 0.00555 -0.00125
vt 0.01112 -0.00125
vt 0.01596 -0.00125
vt 0.01973 -0.00125
vt 0.02227 -0.00125
vt 0.02445 -0.00125
vt 0.02679 -0.00125
vt 0.02787 -0.00125
vt 0.02687 -0.00125
vt 0.02454 -0.00125
vt 0.02229 -0.00125
vt 0.01968 -0.00125
vt 0.01590 -0.00125
vt 0.01111 -0.00125
vt 0.00556 -0.00125
vt 0.00000 -0.00125
vt -0.00514 -0.00125
vt -0.01019 -0.00125
vt -0.01506 -0.00125
vt -0.01927 -0.00125
vt -0.02277 -0.00125
vt -0.02583 -0.00125
vt -0.02762 -0.00125
vt -0.02801 -0.00125
vt -0.02753 -0.00125
vt -0.02575 -0.00125
vt -0.02275 -0.00125
vt -0.01932 -0.00125
vt -0.01512 -0.00125
vt -0.01021 -0.00125
vt -0.00513 -0.00125
vt 0.00000 0.00000
vt 0.00549 0.00000
vt 0.01055 0.00000
vt 0.01542 0.00000
vt 0.02025 0.00000
vt 0.02406 0.00000
vt 0.02571 0.00000
vt 0.02611 0.00000
vt 0.02611 0.00000
vt 0.02580 0.00000
vt 0.02539 0.00000
vt 0.02400 0.00000
vt 0.02044 0.00000
vt 0.01562 0.00000
vt 0.01060 0.00000
vt 0.00545 0.00000
vt 0.00000 0.00000
vt -0.00536 0.00000
vt -0.01043 0.00000
vt -0.01497 0.00000
vt -0.01885 0.00000
vt -0.02265 0.00000
vt -0.02598 0.00000
vt -0.02785 0.00000
vt -0.02854 0.00000
vt -0.02816 0.00000
vt -0.02630 0.00000
vt -0.02271 0.00000
vt -0.01867 0.00000
vt -0.01476 0.00000
vt -0.01037 0.00000
vt -0.00540 0.00000
vt 0.00000 0.00125
vt 0.00538 0.00125
vt 0.01045 0.00125
vt 0.01504 0.00125
vt 0.01908 0.00125
vt 0.02284 0.00125
vt 0.02570 0.00125
vt 0.02720 0.00125
vt 0.02790 0.00125
vt 0.02772 0.00125
vt 0.02624 0.00125
vt 0.02295 0.00125
vt 0.01876 0.00125
vt 0.01469 0.00125
vt 0.01035 0.00125
vt 0.00545 0.00125
vt 0.00000 0.00125
vt -0.00545 0.00125
vt -0.01034 0.00125
vt -0.01503 0.00125
vt -0.01984 0.00125
vt -0.02399 0.00125
vt -0.02602 0.00125
vt -0.02636 0.00125
vt -0.02617 0.00125
vt -0.02585 0.00125
vt -0.02548 0.00125
vt -0.02389 0.00125
vt -0.02015 0.00125
vt -0.01538 0.00125
vt -0.01043 0.00125
vt -0.00538 0.00125
vt 0.00000 0.00250
vt 0.00510 0.00250
vt 0.00989 0.00250
vt 0.01440 0.00250
vt 0.01851 0.00250
vt 0.02245 0.00250
vt 0.02597 0.00250
vt 0.02767 0.00250
vt 0.02770 0.00250
vt 0.02698 0.00250
vt 0.02525 0.00250
vt 0.02231 0.00250
vt 0.01893 0.00250
vt 0.01486 0.00250
vt 0.01001 0.00250
vt 0.00501 0.00250
vt 0.00000 0.00250
vt -0.00545 0.00250
vt -0.01094 0.00250
vt -0.01587 0.00250
vt -0.01982 0.00250
vt -0.02227 0.00250
vt -0.02382 0.00250
vt -0.02563 0.00250
vt -0.02681 0.00250
vt -0.02631 0.00250
vt -0.02454 0.00250
vt -0.02240 0.00250
vt -0.01939 0.00250
vt -0.01541 0.00250
vt -0.01082 0.00250
vt -0.00554 0.00250
vt 0.00000 0.00375
vt 0.00516 0.00375
vt 0.01058 0.00375
vt 0.01547 0.00375
vt 0.01907 0.00375
vt 0.02133 0.00375
vt 0.02358 0.00375
vt 0.02604 0.00375
vt 0.02740 0.00375
vt 0.02686 0.00375
vt 0.02444 0.00375
vt 0.02150 0.00375
vt 0.01857 0.00375
vt 0.01492 0.00375
vt 0.01043 0.00375
vt 0.00527 0.00375
vt 0.00000 0.00375
vt -0.00515 0.00375
vt -0.01016 0.00375
vt -0.01475 0.00375
vt -0.01868 0.00375
vt -0.02186 0.00375
vt -0.02476 0.00375
vt -0.02678 0.00375
vt -0.02707 0.00375
vt -0.02596 0.00375
vt -0.02391 0.00375
vt -0.02169 0.00375
vt -0.01918 0.00375
vt -0.01530 0.00375
vt -0.01031 0.00375
vt -0.00504 0.00375
vt 0.00000 0.00500
vt 0.00536 0.00500
vt 0.01036 0.00500
vt 0.01489 0.00500
vt 0.01917 0.00500
vt 0.02247 0.00500
vt 0.02434 0.00500
vt 0.02543 0.00500
vt 0.02551 0.00500
vt 0.02453 0.00500
vt 0.02340 0.00500
vt 0.02229 0.00500
vt 0.01972 0.00500
vt 0.01549 0.00500
vt 0.01052 0.00500
vt 0.00524 0.00500
vt 0.00000 0.00500
vt -0.00496 0.00500
vt -0.00992 0.00500
vt -0.01455 0.00500
vt -0.01827 0.00500
vt -0.02148 0.00500
vt -0.02451 0.00500
vt -0.02652 0.00500
vt -0.02749 0.00500
vt -0.02742 0.00500
vt -0.02545 0.00500
vt -0.02165 0.00500
vt -0.01772 0.00500
vt -0.01395 0.00500
vt -0.00976 0.00500
vt -0.00508 0.00500
vt 0.00000 0.00625
vt 0.00514 0.00625
vt 0.01004 0.00625
vt 0.01471 0.00625
vt 0.01897 0.00625
vt 0.02236 0.00625
vt 0.02406 0.00625
vt 0.02479 0.00625
vt 0.02547 0.00625
vt 0.02571 0.00625
vt 0.02503 0.00625
vt 0.02254 0.00625
vt 0.01840 0.00625
vt 0.01409 0.00625
vt 0.00987 0.00625
vt 0.00526 0.00625
vt 0.00000 0.00625
vt -0.00519 0.00625
vt -0.00971 0.00625
vt -0.01386 0.00625
vt -0.01808 0.00625
vt -0.02239 0.00625
vt -0.02531 0.00625
vt -0.02616 0.00625
vt -0.02589 0.00625
vt -0.02524 0.00625
vt -0.02434 0.00625
vt -0.02220 0.00625
vt -0.01865 0.00625
vt -0.01448 0.00625
vt -0.00988 0.00625
vt -0.00506 0.00625
vt 0.00000 0.00750
vt 0.00496 0.00750
vt 0.00940 0.00750
vt 0.01341 0.00750
vt 0.01718 0.00750
vt 0.02126 0.00750
vt 0.02486 0.00750
vt 0.02643 0.00750
vt 0.02636 0.00750
vt 0.02554 0.00750
vt 0.02393 0.00750
vt 0.02109 0.00750
vt 0.01773 0.00750
vt 0.01400 0.00750
vt 0.00957 0.00750
vt 0.00484 0.00750
vt 0.00000 0.00750
vt -0.00509 0.00750
vt -0.01010 0.00750
vt -0.01486 0.00750
vt -0.01908 0.00750
vt -0.02187 0.00750
vt -0.02292 0.00750
vt -0.02369 0.00750
vt -0.02449 0.00750
vt -0.02458 0.00750
vt -0.02386 0.00750
vt -0.02205 0.00750
vt -0.01854 0.00750
vt -0.01426 0.00750
vt -0.00994 0.00750
vt -0.00521 0.00750
vt 0.00000 0.00875
vt 0.00463 0.00875
vt 0.00945 0.00875
vt 0.01406 0.00875
vt 0.01765 0.00875
vt 0.02022 0.00875
vt 0.02265 0.00875
vt 0.02461 0.00875
vt 0.02559 0.00875
vt 0.02542 0.00875
vt 0.02349 0.00875
vt 0.02038 0.00875
vt 0.01716 0.00875
vt 0.01352 0.00875
vt 0.00931 0.00875
vt 0.00474 0.00875
vt 0.00000 0.00875
vt -0.00501 0.00875
vt -0.00989 0.00875
vt -0.01412 0.00875
vt -0.01762 0.00875
vt -0.02026 0.00875
vt -0.02262 0.00875
vt -0.02469 0.00875
vt -0.02518 0.00875
vt -0.02388 0.00875
vt -0.02177 0.00875
vt -0.02010 0.00875
vt -0.01811 0.00875
vt -0.01466 0.00875
vt -0.01004 0.00875
vt -0.00491 0.00875
vt 0.00000 0.01000
vt 0.00495 0.01000
vt 0.00977 0.01000
vt 0.01391 0.01000
vt 0.01732 0.01000
vt 0.01982 0.01000
vt 0.02197 0.01000
vt 0.02397 0.01000
vt 0.02454 0.01000
vt 0.02330 0.01000
vt 0.02127 0.01000
vt 0.01969 0.01000
vt 0.01773 0.01000
vt 0.01436 0.01000
vt 0.00989 0.01000
vt 0.00486 0.01000
vt 0.00000 0.01000
vt -0.00450 0.01000
vt -0.00912 0.01000
vt -0.01358 0.01000
vt -0.01718 0.01000
vt -0.01990 0.01000
vt -0.02241 0.01000
vt -0.02420 0.01000
vt -0.02499 0.01000
vt -0.02487 0.01000
vt -0.02311 0.01000
vt -0.02003 0.01000
vt -0.01677 0.01000
vt -0.01313 0.01000
vt -0.00900 0.01000
vt -0.00458 0.01000
vt 0.00000 0.01125
vt 0.00473 0.01125
vt 0.00924 0.01125
vt 0.01366 0.01125
vt 0.01788 0.01125
vt 0.02087 0.01125
vt 0.02185 0.01125
vt 0.02212 0.01125
vt 0.02248 0.01125
vt 0.02261 0.01125
vt 0.02237 0.01125
vt 0.02097 0.01125
vt 0.01758 0.01125
vt 0.01333 0.01125
vt 0.00915 0.01125
vt 0.00480 0.01125
vt 0.00000 0.01125
vt -0.00468 0.01125
vt -0.00893 0.01125
vt -0.01265 0.01125
vt -0.01602 0.01125
vt -0.01970 0.01125
vt -0.02302 0.01125
vt -0.02464 0.01125
vt -0.02484 0.01125
vt -0.02415 0.01125
vt -0.02250 0.01125
vt -0.01960 0.01125
vt -0.01633 0.01125
vt -0.01298 0.01125
vt -0.00901 0.01125
vt -0.00462 0.01125
vt 0.00000 0.01250
vt 0.00464 0.01250
vt 0.00882 0.01250
vt 0.01249 0.01250
vt 0.01589 0.01250
vt 0.01945 0.01250
vt 0.02226 0.01250
vt 0.02355 0.01250
vt 0.02380 0.01250
vt 0.02327 0.01250
vt 0.02197 0.01250
vt 0.01939 0.01250
vt 0.01607 0.01250
vt 0.01268 0.01250
vt 0.00887 0.01250
vt 0.00461 0.01250
vt 0.00000 0.01250
vt -0.00457 0.01250
vt -0.00879 0.01250
vt -0.01298 0.01250
vt -0.01717 0.01250
vt -0.02053 0.01250
vt -0.02183 0.01250
vt -0.02189 0.01250
vt -0.02198 0.01250
vt -0.02218 0.01250
vt -0.02213 0.01250
vt -0.02058 0.01250
vt -0.01700 0.01250
vt -0.01279 0.01250
vt -0.00874 0.01250
vt -0.00461 0.01250
vt 0.00000 0.01375
vt 0.00413 0.01375
vt 0.00814 0.01375
vt 0.01209 0.01375
vt 0.01560 0.01375
vt 0.01875 0.01375
vt 0.02145 0.01375
vt 0.02272 0.01375
vt 0.02294 0.01375
vt 0.02278 0.01375
vt 0.02151 0.01375
vt 0.01876 0.01375
vt 0.01557 0.01375
vt 0.01205 0.01375
vt 0.00812 0.01375
vt 0.00414 0.01375
vt 0.00000 0.01375
vt -0.00464 0.01375
vt -0.00920 0.01375
vt -0.01311 0.01375
vt -0.01627 0.01375
vt -0.01842 0.01375
vt -0.01994 0.01375
vt -0.02161 0.01375
vt -0.02242 0.01375
vt -0.02155 0.01375
vt -0.01988 0.01375
vt -0.01840 0.01375
vt -0.01631 0.01375
vt -0.01315 0.01375
vt -0.00921 0.01375
vt -0.00463 0.01375
vt 0.00000 0.01500
vt 0.00428 0.01500
vt 0.00872 0.01500
vt 0.01252 0.01500
vt 0.01520 0.01500
vt 0.01703 0.01500
vt 0.01926 0.01500
vt 0.02169 0.01500
vt 0.02276 0.01500
vt 0.02186 0.01500
vt 0.01944 0.01500
vt 0.01706 0.01500
vt 0.01510 0.01500
vt 0.01241 0.01500
vt 0.00869 0.01500
vt 0.00430 0.01500
vt 0.00000 0.01500
vt -0.00410 0.01500
vt -0.00823 0.01500
vt -0.01220 0.01500
vt -0.01554 0.01500
vt -0.01792 0.01500
vt -0.01993 0.01500
vt -0.02141 0.01500
vt -0.02180 0.01500
vt -0.02124 0.01500
vt -0.01976 0.01500
vt -0.01789 0.01500
vt -0.01565 0.01500
vt -0.01231 0.01500
vt -0.00826 0.01500
vt -0.00407 0.01500
vt 0.00000 0.01625
vt 0.00423 0.01625
vt 0.00825 0.01625
vt 0.01209 0.01625
vt 0.01577 0.01625
vt 0.01830 0.01625
vt 0.01930 0.01625
vt 0.01978 0.01625
vt 0.01985 0.01625
vt 0.01939 0.01625
vt 0.01889 0.01625
vt 0.01823 0.01625
vt 0.01600 0.01625
vt 0.01235 0.01625
vt 0.00832 0.01625
vt 0.00418 0.01625
vt 0.00000 0.01625
vt -0.00402 0.01625
vt -0.00799 0.01625
vt -0.01149 0.01625
vt -0.01418 0.01625
vt -0.01679 0.01625
vt -0.01973 0.01625
vt -0.02179 0.01625
vt -0.02259 0.01625
vt -0.02218 0.01625
vt -0.02014 0.01625
vt -0.01687 0.01625
vt -0.01394 0.01625
vt -0.01123 0.01625
vt -0.00792 0.01625
vt -0.00407 0.01625
vt 0.00000 0.01750
vt 0.00415 0.01750
vt 0.00804 0.01750
vt 0.01155 0.01750
vt 0.01471 0.01750
vt 0.01739 0.01750
vt 0.01890 0.01750
vt 0.01970 0.01750
vt 0.02031 0.01750
vt 0.02028 0.01750
vt 0.01951 0.01750
vt 0.01750 0.01750
vt 0.01436 0.01750
vt 0.01117 0.01750
vt 0.00794 0.01750
vt 0.00423 0.01750
vt 0.00000 0.01750
vt -0.00400 0.01750
vt -0.00744 0.01750
vt -0.01081 0.01750
vt -0.01444 0.01750
vt -0.01806 0.01750
vt -0.02015 0.01750
vt -0.02030 0.01750
vt -0.01988 0.01750
vt -0.01971 0.01750
vt -0.01954 0.01750
vt -0.01795 0.01750
vt -0.01480 0.01750
vt -0.01120 0.01750
vt -0.00754 0.01750
vt -0.00392 0.01750
f 33/33 34/34 2/2 1/1
f 34/34 35/35 3/3 2/2
f 35/35 36/36 4/4 3/3
f 36/36 37/37 5/5 4/4
f 37/37 38/38 6/6 5/5
f 38/38 39/39 7/7 6/6
f 39/39 40/40 8/8 7/7
f 40/40 41/41 9/9 8/8
f 41/41 42/42 10/10 9/9
f 42/42 43/43 11/11 10/10
f 43/43 44/44 12/12 11/11
f 44/44 45/45 13/13 12/12
f 45/45 46/46 14/14 13/13
f 46/46 47/47 15/15 14/14
f 47/47 48/48 16/16 15/15
f 48/48 49/49 17/17 16/16
f 49/49 50/50 18/18 17/17
f 50/50 51/51 19/19 18/18
f 51/51 52/52 20/20 19/19
f 52/52 53/53 21/21 20/20
f 53/53 54/54 22/22 21/21
f 54/54 55/55 23/23 22/22
f 55/55 56/56 24/24 23/23
f 56/56 57/57 25/25 24/24
f 57/57 58/58 26/26 25/25
f 58/58 59/59 27/27 26/26
f 59/59 60/60 28/28 27/27
f 60/60 61/61 29/29 28/28
f 61/61 62/62 30/30 29/29
f 62/62 63/63 31/31 30/30
f 63/63 64/64 32/32 31/31
f 64/64 33/33 1/1 32/32
f 65/65 66/66 34/34 33/33
f 66/66 67/67 35/35 34/34
f 67/67 68/68 36/36 35/35
f 68/68 69/69 37/37 36/36
f 69/69 70/70 38/38 37/37
f 70/70 71/71 39/39 38/38
f 71/71 72/72 40/40 39/39
f 72/72 73/73 41/41 40/40
f 73/73 74/74 42/42 41/41
f 74/74 75/75 43/43 42/42
f 75/75 76/76 44/44 43/43
f 76/76 77/77 45/45 44/44
f 77/77 78/78 46/46 45/45
f 78/78 79/79 47/47 46/46
f 79/79 80/80 48/48 47/47
f 80/80 81/81 49/49 48/48
f 81/81 82/82 50/50 49/49
f 82/82 83/83 51/51 50/50
f 83/83 84/84 52/52 51/51
f 84/84 85/85 53/53 52/52
f 85/85 86/86 54/54 53/53
f 86/86 87/87 55/55 54/54
f 87/87 88/88 56/56 55/55
f 88/88 89/89 57/57 56/56
f 89/89 90/90 58/58 57/57
f 90/90 91/91 59/59 58/58
f 91/91 92/92 60/60 59/59
f 92/92 93/93 61/61 60/60
f 93/93 94/94 62/62 61/61
f 94/94 95/95 63/63 62/62
f 95/95 96/96 64/64 63/63
f 96/96 65/65 33/33 64/64
f 97/97 98/98 66/66 65/65
f 98/98 99/99 67/67 66/66
f 99/99 100/100 68/68 67/67
f 100/100 101/101 69/69 68/68
f 101/101 102/102 70/70 69/69
f 102/102 103/103 71/71 70/70
f 103/103 104/104 72/72 71/71
f 104/104 105/105 73/73 72/72
f 105/105 106/106 74/74 73/73
f 106/106 107/107 75/75 74/74
f 107/107 108/108 76/76 75/75
f 108/108 109/109 77/77 76/76
f 109/109 110/110 78/78 77/77
f 110/110 111/111 79/79 78/78
f 111/111 112/112 80/80 79/79
f 112/112 113/113 81/81 80/80
f 113/113 114/114 82/82 81/81
f 114/114 115/115 83/83 82/82
f 115/115 116/116 84/84 83/83
f 116/116 117/117 85/85 84/84
f 117/117 118/118 86/86 85/85
f 118/118 119/119 87/87 86/86
f 119/119 120/120 88/88 87/87
f 120/120 121/121 89/89 88/88
f 121/121 122/122 90/90 89/89
f 122/122 123/123 91/91 90/90
f 123/123 124/124 92/92 91/91
f 124/124 125/125 93/93 92/92
f 125/125 126/126 94/94 93/93
f 126/126 127/127 95/95 94/94
f 127/127 128/128 96/96 95/95
f 128/128 97/97 65/65 96/96
f 129/129 130/130 98/98 97/97
f 130/130 131/131 99/99 98/98
f 131/131 132/132 100/100 99/99
f 132/132 133/133 101/101 100/100
f 133/133 134/134 102/102 101/101
f 134/134 135/135 103/103 102/102
f 135/135 136/136 104/104 103/103
f 136/136 137/137 105/105 104/104
f 137/137 138/138 106/106 105/105
f 138/138 139/139 107/107 106/106
f 139/139 140/140 108/108 107/107
f 140/140 141/141 109/109 108/108
f 141/141 142/142 110/110 109/109
f 142/142 143/143 111/111 110/110
f 143/143 144/144 112/112 111/111
f 144/144 145/145 113/113 112/112
f 145/145 146/146 114/114 113/113
f 146/146 147/147 115/115 114/114
f 147/147 148/148 116/116 115/115
f 148/148 149/149 117/117 116/116
f 149/149 150/150 118/118 117/117
f 150/150 151/151 119/119 118/118
f 151/151 152/152 120/120 119/119
f 152/152 153/153 121/121 120/120
f 153/153 154/154 122/122 121/121
f 154/154 155/155 123/123 122/122
f 155/155 156/156 124/124 123/123
f 156/156 157/157 125/125 124/124
f 157/157 158/158 126/126 125/125
f 158/158 159/159 127/127 126/126
f 159/159 160/160 128/128 127/127
f 160/160 129/129 97/97 128/128
f 161/161 162/162 130/130 129/129
f 162/162 163/163 131/131 130/130
f 163/163 164/164 132/132 131/131
f 164/164 165/165 133/133 132/132
f 165/165 166/166 134/134 133/133
f 166/166 167/167 135/135 134/134
f 167/167 168/168 136/136 135/135
f 168/168 169/169 137/137 136/136
f 169/169 170/170 138/138 137/137
f 170/170 171/171 139/139 138/138
f 171/171 172/172 140/140 139/139
f 172/172 173/173 141/141 140/140
f 173/173 174/174 142/142 141/141
f 174/174 175/175 143/143 142/142
f 175/175 176/176 144/144 143/143
f 176/176 177/177 145/145 144/144
f 177/177 178/178 146/146 145/145
f 178/178 179/179 147/147 146/146
f 179/179 180/180 148/148 147/147
f 180/180 181/181 149/149 148/148
f 181/181 182/182 150/150 149/149
f 182/182 183/183 151/151 150/150
f 183/183 184/184 152/152 151/151
f 184/184 185/185 153/153 152/152
f 185/185 186/186 154/154 153/153
f 186/186 187/187 155/155 154/154
f 187/187 188/188 156/156 155/155
f 188/188 189/189 157/157 156/156
f 189/189 190/190 158/158 157/157
f 190/190 191/191 159/159 158/158
f 191/191 192/192 160/160 159/159
f 192/192 161/161 129/129 160/160
f 193/193 194/194 162/162 161/161
f 194/194 195/195 163/163 162/162
f 195/195 196/196 164/164 163/163
f 196/196 197/197 165/165 164/164
f 197/197 198/198 166/166 165/165
f 198/198 199/199 167/167 166/166
f 199/199 200/200 168/168 167/167
f 200/200 201/201 169/169 168/168
f 201/201 202/202 170/170 169/169
f 202/202 203/203 171/171 170/170
f 203/203 204/204 172/172 171/171
f 204/204 205/205 173/173 172/172
f 205/205 206/206 174/174 173/173
f 206/206 207/207 175/175 174/174
f 207/207 208/208 176/176 175/175
f 208/208 209/209 177/177 176/176
f 209/209 210/210 178/178 177/177
f 210/210 211/211 179/179 178/178
f 211/211 212/212 180/180 179/179
f 212/212 213/213 181/181 180/180
f 213/213 214/214 182/182 181/181
f 214/214 215/215 183/183 182/182
f 215/215 216/216 184/184 183/183
f 216/216 217/217 185/185 184/184
f 217/217 218/218 186/186 185/185
f 218/218 219/219 187/187 186/186
f 219/219 220/220 188/188 187/187
f 220/220 221/221 189/189 188/188
f 221/221 222/222 190/190 189/189
f 222/222 223/223 191/191 190/190
f 223/223 224/224 192/192 191/191
f 224/224 193/193 161/161 192/192
f 225/225 226/226 194/194 193/193
f 226/226 227/227 195/195 194/194
f 227/227 228/228 196/196 195/195
f 228/228 229/229 197/197 196/196
f 229/229 230/230 198/198 197/197
f 230/230 231/231 199/199 198/198
f 231/231 232/232 200/200 199/199
f 232/232 233/233 201/201 200/200
f 233/233 234/234 202/202 201/201
f 234/234 235/235 203/203 202/202
f 235/235 236/236 204/204 203/203
f 236/236 237/237 205/205 204/204
f 237/237 238/238 206/206 205/205
f 238/238 239/239 207/207 206/206
f 239/239 240/240 208/208 207/207
f 240/240 241/241 209/209 208/208
f 241/241 242/242 210/210 209/209
f 242/242 243/243 211/211 210/210
f 243/243 244/244 212/212 211/211
f 244/244 245/245 213/213 212/212
f 245/245 246/246 214/214 213/213
f 246/246 247/247 215/215 214/214
f 247/247 248/248 216/216 215/215
f 248/248 249/249 217/217 216/216
f 249/249 250/250 218/218 217/217
f 250/250 251/251 219/219 218/218
f 251/251 252/252 220/220 219/219
f 252/252 253/253 221/221 220/220
f 253/253 254/254 222/222 221/221
f 254/254 255/255 223/223 222/222
f 255/255 256/256 224/224 223/223
f 256/256 225/225 193/193 224/224
f 257/257 258/258 226/226 225/225
f 258/258 259/259 227/227 226/226
f 259/259 260/260 228/228 227/227
f 260/260 261/261 229/229 228/228
f 261/261 262/262 230/230 229/229
f 262/262 263/263 231/231 230/230
f 263/263 264/264 232/232 231/231
f 264/264 265/265 233/233 232/232
f 265/265 266/266 234/234 233/233
f 266/266 267/267 235/235 234/234
f 267/267 268/268 236/236 235/235
f 268/268 269/269 237/237 236/236
f 269/269 270/270 238/238 237/237
f 270/270 271/271 239/239 238/238
f 271/271 272/272 240/240 239/239
f 272/272 273/273 241/241 240/240
f 273/273 274/274 242/242 241/241
f 274/274 275/275 243/243 242/242
f 275/275 276/276 244/244 243/243
f 276/276 277/277 245/245 244/244
f 277/277 278/278 246/246 245/245
f 278/278 279/279 247/247 246/246
f 279/279 280/280 248/248 247/247
f 280/280 281/281 249/249 248/248
f 281/281 282/282 250/250 249/249
f 282/282 283/283 251/251 250/250
f 283/283 284/284 252/252 251/251
f 284/284 285/285 253/253 252/252
f 285/285 286/286 254/254 253/253
f 286/286 287/287 255/255 254/254
f 287/287 288/288 256/256 255/255
f 288/288 257/257 225/225 256/256
f 289/289 290/290 258/258 257/257
f 290/290 291/291 259/259 258/258
f 291/291 292/292 260/260 259/259
f 292/292 293/293 261/261 260/260
f 293/293 294/294 262/262 261/261
f 294/294 295/295 263/263 262/262
f 295/295 296/296 264/264 263/263
f 296/296 297/297 265/265 264/264
f 297/297 298/298 266/266 265/265
f 298/298 299/299 267/267 266/266
f 299/299 300/300 268/268 267/267
f 300/300 301/301 269/269 268/268
f 301/301 302/302 270/270 269/269
f 302/302 303/303 271/271 270/270
f 303/303 304/304 272/272 271/271
f 304/304 305/305 273/273 272/272
f 305/305 306/306 274/274 273/273
f 306/306 307/307 275/275 274/274
f 307/307 308/308 276/276 275/275
f 308/308 309/309 277/277 276/276
f 309/309 310/310 278/278 277/277
f 310/310 311/311 279/279 278/278
f 311/311 312/312 280/280 279/279
f 312/312 313/313 281/281 280/280
f 313/313 314/314 282/282 281/281
f 314/314 315/315 283/283 282/282
f 315/315 316/316 284/284 283/283
f 316/316 317/317 285/285 284/284
f 317/317 318/318 286/286 285/285
f 318/318 319/319 287/287 286/286
f 319/319 320/320 288/288 287/287
f 320/320 289/289 257/257 288/288
f 321/321 322/322 290/290 289/289
f 322/322 323/323 291/291 290/290
f 323/323 324/324 292/292 291/291
f 324/324 325/325 293/293 292/292
f 325/325 326/326 294/294 293/293
f 326/326 327/327 295/295 294/294
f 327/327 328/328 296/296 295/295
f 328/328 329/329 297/297 296/296
f 329/329 330/330 298/298 297/297
f 330/330 331/331 299/299 298/298
f 331/331 332/332 300/300 299/299
f 332/332 333/333 301/301 300/300
f 333/333 334/334 302/302 301/301
f 334/334 335/335 303/303 302/302
f 335/335 336/336 304/304 303/303
f 336/336 337/337 305/305 304/304
f 337/337 338/338 306/306 305/305
f 338/338 339/339 307/307 306/306
f 339/339 340/340 308/308 307/307
f 340/340 341/341 309/309 308/308
f 341/341 342/342 310/310 309/309
f 342/342 343/343 311/311 310/310
f 343/343 344/344 312/312 311/311
f 344/344 345/345 313/313 312/312
f 345/345 346/346 314/314 313/313
f 346/346 347/347 315/315 314/314
f 347/347 348/348 316/316 315/315
f 348/348 349/349 317/317 316/316
f 349/349 350/350 318/318 317/317
f 350/350 351/351 319/319 318/318
f 351/351 352/352 320/320 319/319
f 352/352 321/321 289/289 320/320
f 353/353 354/354 322/322 321/321
f 354/354 355/355 323/323 322/322
f 355/355 356/356 324/324 323/323
f 356/356 357/357 325/325 324/324
f 357/357 358/358 326/326 325/325
f 358/358 359/359 327/327 326/326
f 359/359 360/360 328/328 327/327
f 360/360 361/361 329/329 328/328
f 361/361 362/362 330/330 329/329
f 362/362 363/363 331/331 330/330
f 363/363 364/364 332/332 331/331
f 364/364 365/365 333/333 332/332
f 365/365 366/366 334/334 333/333
f 366/366 367/367 335/335 334/334
f 367/367 368/368 336/336 335/335
f 368/368 369/369 337/337 336/336
f 369/369 370/370 338/338 337/337
f 370/370 371/371 339/339 338/338
f 371/371 372/372 340/340 339/339
f 372/372 373/373 341/341 340/340
f 373/373 374/374 342/342 341/341
f 374/374 375/375 343/343 342/342
f 375/375 376/376 344/344 343/343
f 376/376 377/377 345/345 344/344
f 377/377 378/378 346/346 345/345
f 378/378 379/379 347/347 346/346
f 379/379 380/380 348/348 347/347
f 380/380 381/381 349/349 348/348
f 381/381 382/382 350/350 349/349
f 382/382 383/383 351/351 350/350
f 383/383 384/384 352/352 351/351
f 384/384 353/353 321/321 352/352
f 385/385 386/386 354/354 353/353
f 386/386 387/387 355/355 354/354
f 387/387 388/388 356/356 355/355
f 388/388 389/389 357/357 356/356
f 389/389 390/390 358/358 357/357
f 390/390 391/391 359/359 358/358
f 391/391 392/392 360/360 359/359
f 392/392 393/393 361/361 360/360
f 393/393 394/394 362/362 361/361
f 394/394 395/395 363/363 362/362
f 395/395 396/396 364/364 363/363
f 396/396 397/397 365/365 364/364
f 397/397 398/398 366/366 365/365
f 398/398 399/399 367/367 366/366
f 399/399 400/400 368/368 367/367
f 400/400 401/401 369/369 368/368
f 401/401 402/402 370/370 369/369
f 402/402 403/403 371/371 370/370
f 403/403 404/404 372/372 371/371
f 404/404 405/405 373/373 372/372
f 405/405 406/406 374/374 373/373
f 406/406 407/407 375/375 374/374
f 407/407 408/408 376/376 375/375
f 408/408 409/409 377/377 376/376
f 409/409 410/410 378/378 377/377
f 410/410 411/411 379/379 378/378
f 411/411 412/412 380/380 379/379
f 412/412 413/413 381/381 380/380
f 413/413 414/414 382/382 381/381
f 414/414 415/415 383/383 382/382
f 415/415 416/416 384/384 383/383
f 416/416 385/385 353/353 384/384
f 417/417 418/418 386/386 385/385
f 418/418 419/419 387/387 386/386
f 419/419 420/420 388/388 387/387
f 420/420 421/421 389/389 388/388
f 421/421 422/422 390/390 389/389
f 422/422 423/423 391/391 390/390
f 423/423 424/424 392/392 391/391
f 424/424 425/425 393/393 392/392
f 425/425 426/426 394/394 393/393
f 426/426 427/427 395/395 394/394
f 427/427 428/428 396/396 395/395
f 428/428 429/429 397/397 396/396
f 429/429 430/430 398/398 397/397
f 430/430 431/431 399/399 398/398
f 431/431 432/432 400/400 399/399
f 432/432 433/433 401/401 400/400
f 433/433 434/434 402/402 401/401
f 434/434 435/435 403/403 402/402
f 435/435 436/436 404/404 403/403
f 436/436 437/437 405/405 404/404
f 437/437 438/438 406/406 405/405
f 438/438 439/439 407/407 406/406
f 439/439 440/440 408/408 407/407
f 440/440 441/441 409/409 408/408
f 441/441 442/442 410/410 409/409
f 442/442 443/443 411/411 410/410
f 443/443 444/444 412/412 411/411
f 444/444 445/445 413/413 412/412
f 445/445 446/446 414/414 413/413
f 446/446 447/447 415/415 414/414
f 447/447 448/448 416/416 415/415
f 448/448 417/417 385/385 416/416
f 449/449 450/450 418/418 417/417
f 450/450 451/451 419/419 418/418
f 451/451 452/452 420/420 419/419
f 452/452 453/453 421/421 420/420
f 453/453 454/454 422/422 421/421
f 454/454 455/455 423/423 422/422
f 455/455 456/456 424/424 423/423
f 456/456 457/457 425/425 424/424
f 457/457 458/458 426/426 425/425
f 458/458 459/459 427/427 426/426
f 459/459 460/460 428/428 427/427
f 460/460 461/461 429/429 428/428
f 461/461 462/462 430/430 429/429
f 462/462 463/463 431/431 430/430
f 463/463 464/464 432/432 431/431
f 464/464 465/465 433/433 432/432
f 465/465 466/466 434/434 433/433
f 466/466 467/467 435/435 434/434
f 467/467 468/468 436/436 435/435
f 468/468 469/469 437/437 436/436
f 469/469 470/470 438/438 437/437
f 470/470 471/471 439/439 438/438
f 471/471 472/472 440/440 439/439
f 472/472 473/473 441/441 440/440
f 473/473 474/474 442/442 441/441
f 474/474 475/475 443/443 442/442
f 475/475 476/476 444/444 443/443
f 476/476 477/477 445/445 444/444
f 477/477 478/478 446/446 445/445
f 478/478 479/479 447/447 446/446
f 479/479 480/480 448/448 447/447
f 480/480 449/449 417/417 448/448
f 481/481 482/482 450/450 449/449
f 482/482 483/483 451/451 450/450
f 483/483 484/484 452/452 451/451
f 484/484 485/485 453/453 452/452
f 485/485 486/486 454/454 453/453
f 486/486 487/487 455/455 454/454
f 487/487 488/488 456/456 455/455
f 488/488 489/489 457/457 456/456
f 489/489 490/490 458/458 457/457
f 490/490 491/491 459/459 458/458
f 491/491 492/492 460/460 459/459
f 492/492 493/493 461/461 460/460
f 493/493 494/494 462/462 461/461
f 494/494 495/495 463/463 462/462
f 495/495 496/496 464/464 463/463
f 496/496 497/497 465/465 464/464
f 497/497 498/498 466/466 465/465
f 498/498 499/499 467/467 466/466
f 499/499 500/500 468/468 467/467
f 500/500 501/501 469/469 468/468
f 501/501 502/502 470/470 469/469
f 502/502 503/503 471/471 470/470
f 503/503 504/504 472/472 471/471
f 504/504 505/505 473/473 472/472
f 505/505 506/506 474/474 473/473
f 506/506 507/507 475/475 474/474
f 507/507 508/508 476/476 475/475
f 508/508 509/509 477/477 476/476
f 509/509 510/510 478/478 477/477
f 510/510 511/511 479/479 478/478
f 511/511 512/512 480/480 479/479
f 512/512 481/481 449/449 480/480
f 513/513 514/514 482/482 481/481
f 514/514 515/515 483/483 482/482
f 515/515 516/516 484/484 483/483
f 516/516 517/517 485/485 484/484
f 517/517 518/518 486/486 485/485
f 518/518 519/519 487/487 486/486
f 519/519 520/520 488/488 487/487
f 520/520 521/521 489/489 488/488
f 521/521 522/522 490/490 489/489
f 522/522 523/523 491/491 490/490
f 523/523 524/524 492/492 491/491
f 524/524 525/525 493/493 492/492
f 525/525 526/526 494/494 493/493
f 526/526 527/527 495/495 494/494
f 527/527 528/528 496/496 495/495
f 528/528 529/529 497/497 496/496
f 529/529 530/530 498/498 497/497
f 530/530 531/531 499/499 498/498
f 531/531 532/532 500/500 499/499
f 532/532 533/533 501/501 500/500
f 533/533 534/534 502/502 501/501
f 534/534 535/535 503/503 502/502
f 535/535 536/536 504/504 503/503
f 536/536 537/537 505/505 504/504
f 537/537 538/538 506/506 505/505
f 538/538 539/539 507/507 506/506
f 539/539 540/540 508/508 507/507
f 540/540 541/541 509/509 508/508
f 541/541 542/542 510/510 509/509
f 542/542 543/543 511/511 510/510
f 543/543 544/544 512/512 511/511
f 544/544 513/513 481/481 512/512
f 545/545 546/546 514/514 513/513
f 546/546 547/547 515/515 514/514
f 547/547 548/548 516/516 515/515
f 548/548 549/549 517/517 516/516
f 549/549 550/550 518/518 517/517
f 550/550 551/551 519/519 518/518
f 551/551 552/552 520/520 519/519
f 552/552 553/553 521/521 520/520
f 553/553 554/554 522/522 521/521
f 554/554 555/555 523/523 522/522
f 555/555 556/556 524/524 523/523
f 556/556 557/557 525/525 524/524
f 557/557 558/558 526/526 525/525
f 558/558 559/559 527/527 526/526
f 559/559 560/560 528/528 527/527
f 560/560 561/561 529/529 528/528
f 561/561 562/562 530/530 529/529
f 562/562 563/563 531/531 530/530
f 563/563 564/564 532/532 531/531
f 564/564 565/565 533/533 532/532
f 565/565 566/566 534/534 533/533
f 566/566 567/567 535/535 534/534
f 567/567 568/568 536/536 535/535
f 568/568 569/569 537/537 536/536
f 569/569 570/570 538/538 537/537
f 570/570 571/571 539/539 538/538
f 571/571 572/572 540/540 539/539
f 572/572 573/573 541/541 540/540
f 573/573 574/574 542/542 541/541
f 574/574 575/575 543/543 542/542
f 575/575 576/576 544/544 543/543
f 576/576 545/545 513/513 544/544
f 577/577 578/578 546/546 545/545
f 578/578 579/579 547/547 546/546
f 579/579 580/580 548/548 547/547
f 580/580 581/581 549/549 548/548
f 581/581 582/582 550/550 549/549
f 582/582 583/583 551/551 550/550
f 583/583 584/584 552/552 551/551
f 584/584 585/585 553/553 552/552
f 585/585 586/586 554/554 553/553
f 586/586 587/587 555/555 554/554
f 587/587 588/588 556/556 555/555
f 588/588 589/589 557/557 556/556
f 589/589 590/590 558/558 557/557
f 590/590 591/591 559/559 558/558
f 591/591 592/592 560/560 559/559
f 592/592 593/593 561/561 560/560
f 593/593 594/594 562/562 561/561
f 594/594 595/595 563/563 562/562
f 595/595 596/596 564/564 563/563
f 596/596 597/597 565/565 564/564
f 597/597 598/598 566/566 565/565
f 598/598 599/599 567/567 566/566
f 599/599 600/600 568/568 567/567
f 600/600 601/601 569/569 568/568
f 601/601 602/602 570/570 569/569
f 602/602 603/603 571/571 570/570
f 603/603 604/604 572/572 571/571
f 604/604 605/605 573/573 572/572
f 605/605 606/606 574/574 573/573
f 606/606 607/607 575/575 574/574
f 607/607 608/608 576/576 575/575
f 608/608 577/577 545/545 576/576
f 609/609 610/610 578/578 577/577
f 610/610 611/611 579/579 578/578
f 611/611 612/612 580/580 579/579
f 612/612 613/613 581/581 580/580
f 613/613 614/614 582/582 581/581
f 614/614 615/615 583/583 582/582
f 615/615 616/616 584/584 583/583
f 616/616 617/617 585/585 584/584
f 617/617 618/618 586/586 585/585
f 618/618 619/619 587/587 586/586
f 619/619 620/620 588/588 587/587
f 620/620 621/621 589/589 588/588
f 621/621 622/622 590/590 589/589
f 622/622 623/623 591/591 590/590
f 623/623 624/624 592/592 591/591
f 624/624 625/625 593/593 592/592
f 625/625 626/626 594/594 593/593
f 626/626 627/627 595/595 594/594
f 627/627 628/628 596/596 595/595
f 628/628 629/629 597/597 596/596
f 629/629 630/630 598/598 597/597
f 630/630 631/631 599/599 598/598
f 631/631 632/632 600/600 599/599
f 632/632 633/633 601/601 600/600
f 633/633 634/634 602/602 601/601
f 634/634 635/635 603/603 602/602
f 635/635 636/636 604/604 603/603
f 636/636 637/637 605/605 604/604
f 637/637 638/638 606/606 605/605
f 638/638 639/639 607/607 606/606
f 639/639 640/640 608/608 607/607
f 640/640 609/609 577/577 608/608
f 641/641 642/642 610/610 609/609
f 642/642 643/643 611/611 610/610
f 643/643 644/644 612/612 611/611
f 644/644 645/645 613/613 612/612
f 645/645 646/646 614/614 613/613
f 646/646 647/647 615/615 614/614
f 647/647 648/648 616/616 615/615
f 648/648 649/649 617/617 616/616
f 649/649 650/650 618/618 617/617
f 650/650 651/651 619/619 618/618
f 651/651 652/652 620/620 619/619
f 652/652 653/653 621/621 620/620
f 653/653 654/654 622/622 621/621
f 654/654 655/655 623/623 622/622
f 655/655 656/656 624/624 623/623
f 656/656 657/657 625/625 624/624
f 657/657 658/658 626/626 625/625
f 658/658 659/659 627/627 626/626
f 659/659 660/660 628/628 627/627
f 660/660 661/661 629/629 628/628
f 661/661 662/662 630/630 629/629
f 662/662 663/663 631/631 630/630
f 663/663 664/664 632/632 631/631
f 664/664 665/665 633/633 632/632
f 665/665 666/666 634/634 633/633
f 666/666 667/667 635/635 634/634
f 667/667 668/668 636/636 635/635
f 668/668 669/669 637/637 636/636
f 669/669 670/670 638/638 637/637
f 670/670 671/671 639/639 638/638
f 671/671 672/672 640/640 639/639
f 672/672 641/641 609/609 640/640
f 673/673 674/674 642/642 641/641
f 674/674 675/675 643/643 642/642
f 675/675 676/676 644/644 643/643
f 676/676 677/677 645/645 644/644
f 677/677 678/678 646/646 645/645
f 678/678 679/679 647/647 646/646
f 679/679 680/680 648/648 647/647
f 680/680 681/681 649/649 648/648
f 681/681 682/682 650/650 649/649
f 682/682 683/683 651/651 650/650
f 683/683 684/684 652/652 651/651
f 684/684 685/685 653/653 652/652
f 685/685 686/686 654/654 653/653
f 686/686 687/687 655/655 654/654
f 687/687 688/688 656/656 655/655
f 688/688 689/689 657/657 656/656
f 689/689 690/690 658/658 657/657
f 690/690 691/691 659/659 658/658
f 691/691 692/692 660/660 659/659
f 692/692 693/693 661/661 660/660
f 693/693 694/694 662/662 661/661
f 694/694 695/695 663/663 662/662
f 695/695 696/696 664/664 663/663
f 696/696 697/697 665/665 664/664
f 697/697 698/698 666/666 665/665
f 698/698 699/699 667/667 666/666
f 699/699 700/700 668/668 667/667
f 700/700 701/701 669/669 668/668
f 701/701 702/702 670/670 669/669
f 702/702 703/703 671/671 670/670
f 703/703 704/704 672/672 671/671
f 704/704 673/673 641/641 672/672
f 705/705 706/706 674/674 673/673
f 706/706 707/707 675/675 674/674
f 707/707 708/708 676/676 675/675
f 708/708 709/709 677/677 676/676
f 709/709 710/710 678/678 677/677
f 710/710 711/711 679/679 678/678
f 711/711 712/712 680/680 679/679
f 712/712 713/713 681/681 680/680
f 713/713 714/714 682/682 681/681
f 714/714 715/715 683/683 682/682
f 715/715 716/716 684/684 683/683
f 716/716 717/717 685/685 684/684
f 717/717 718/718 686/686 685/685
f 718/718 719/719 687/687 686/686
f 719/719 720/720 688/688 687/687
f 720/720 721/721 689/689 688/688
f 721/721 722/722 690/690 689/689
f 722/722 723/723 691/691 690/690
f 723/723 724/724 692/692 691/691
f 724/724 725/725 693/693 692/692
f 725/725 726/726 694/694 693/693
f 726/726 727/727 695/695 694/694
f 727/727 728/728 696/696 695/695
f 728/728 729/729 697/697 696/696
f 729/729 730/730 698/698 697/697
f 730/730 731/731 699/699 698/698
f 731/731 732/732 700/700 699/699
f 732/732 733/733 701/701 700/700
f 733/733 734/734 702/702 701/701
f 734/734 735/735 703/703 702/702
f 735/735 736/736 704/704 703/703
f 736/736 705/705 673/673 704/704
f 737/737 738/738 706/706 705/705
f 738/738 739/739 707/707 706/706
f 739/739 740/740 708/708 707/707
f 740/740 741/741 709/709 708/708
f 741/741 742/742 710/710 709/709
f 742/742 743/743 711/711 710/710
f 743/743 744/744 712/712 711/711
f 744/744 745/745 713/713 712/712
f 745/745 746/746 714/714 713/713
f 746/746 747/747 715/715 714/714
f 747/747 748/748 716/716 715/715
f 748/748 749/749 717/717 716/716
f 749/749 750/750 718/718 717/717
f 750/750 751/751 719/719 718/718
f 751/751 752/752 720/720 719/719
f 752/752 753/753 721/721 720/720
f 753/753 754/754 722/722 721/721
f 754/754 755/755 723/723 722/722
f 755/755 756/756 724/724 723/723
f 756/756 757/757 725/725 724/724
f 757/757 758/758 726/726 725/725
f 758/758 759/759 727/727 726/726
f 759/759 760/760 728/728 727/727
f 760/760 761/761 729/729 728/728
f 761/761 762/762 730/730 729/729
f 762/762 763/763 731/731 730/730
f 763/763 764/764 732/732 731/731
f 764/764 765/765 733/733 732/732
f 765/765 766/766 734/734 733/733
f 766/766 767/767 735/735 734/734
f 767/767 768/768 736/736 735/735
f 768/768 737/737 705/705 736/736
f 769/769 770/770 738/738 737/737
f 770/770 771/771 739/739 738/738
f 771/771 772/772 740/740 739/739
f 772/772 773/773 741/741 740/740
f 773/773 774/774 742/742 741/741
f 774/774 775/775 743/743 742/742
f 775/775 776/776 744/744 743/743
f 776/776 777/777 745/745 744/744
f 777/777 778/778 746/746 745/745
f 778/778 779/779 747/747 746/746
f 779/779 780/780 748/748 747/747
f 780/780 781/781 749/749 748/748
f 781/781 782/782 750/750 749/749
f 782/782 783/783 751/751 750/750
f 783/783 784/784 752/752 751/751
f 784/784 785/785 753/753 752/752
f 785/785 786/786 754/754 753/753
f 786/786 787/787 755/755 754/754
f 787/787 788/788 756/756 755/755
f 788/788 789/789 757/757 756/756
f 789/789 790/790 758/758 757/757
f 790/790 791/791 759/759 758/758
f 791/791 792/792 760/760 759/759
f 792/792 793/793 761/761 760/760
f 793/793 794/794 762/762 761/761
f 794/794 795/795 763/763 762/762
f 795/795 796/796 764/764 763/763
f 796/796 797/797 765/765 764/764
f 797/797 798/798 766/766 765/765
f 798/798 799/799 767/767 766/766
f 799/799 800/800 768/768 767/767
f 800/800 769/769 737/737 768/768
f 801/801 802/802 770/770 769/769
f 802/802 803/803 771/771 770/770
f 803/803 804/804 772/772 771/771
f 804/804 805/805 773/773 772/772
f 805/805 806/806 774/774 773/773
f 806/806 807/807 775/775 774/774
f 807/807 808/808 776/776 775/775
f 808/808 809/809 777/777 776/776
f 809/809 810/810 778/778 777/777
f 810/810 811/811 779/779 778/778
f 811/811 812/812 780/780 779/779
f 812/812 813/813 781/781 780/780
f 813/813 814/814 782/782 781/781
f 814/814 815/815 783/783 782/782
f 815/815 816/816 784/784 783/783
f 816/816 817/817 785/785 784/784
f 817/817 818/818 786/786 785/785
f 818/818 819/819 787/787 786/786
f 819/819 820/820 788/788 787/787
f 820/820 821/821 789/789 788/788
f 821/821 822/822 790/790 789/789
f 822/822 823/823 791/791 790/790
f 823/823 824/824 792/792 791/791
f 824/824 825/825 793/793 792/792
f 825/825 826/826 794/794 793/793
f 826/826 827/827 795/795 794/794
f 827/827 828/828 796/796 795/795
f 828/828 829/829 797/797 796/796
f 829/829 830/830 798/798 797/797
f 830/830 831/831 799/799 798/798
f 831/831 832/832 800/800 799/799
f 832/832 801/801 769/769 800/800
f 833/833 834/834 802/802 801/801
f 834/834 835/835 803/803 802/802
f 835/835 836/836 804/804 803/803
f 836/836 837/837 805/805 804/804
f 837/837 838/838 806/806 805/805
f 838/838 839/839 807/807 806/806
f 839/839 840/840 808/808 807/807
f 840/840 841/841 809/809 808/808
f 841/841 842/842 810/810 809/809
f 842/842 843/843 811/811 810/810
f 843/843 844/844 812/812 811/811
f 844/844 845/845 813/813 812/812
f 845/845 846/846 814/814 813/813
f 846/846 847/847 815/815 814/814
f 847/847 848/848 816/816 815/815
f 848/848 849/849 817/817 816/816
f 849/849 850/850 818/818 817/817
f 850/850 851/851 819/819 818/818
f 851/851 852/852 820/820 819/819
f 852/852 853/853 821/821 820/820
f 853/853 854/854 822/822 821/821
f 854/854 855/855 823/823 822/822
f 855/855 856/856 824/824 823/823
f 856/856 857/857 825/825 824/824
f 857/857 858/858 826/826 825/825
f 858/858 859/859 827/827 826/826
f 859/859 860/860 828/828 827/827
f 860/860 861/861 829/829 828/828
f 861/861 862/862 830/830 829/829
f 862/862 863/863 831/831 830/830
f 863/863 864/864 832/832 831/831
f 864/864 833/833 801/801 832/832
f 865/865 866/866 834/834 833/833
f 866/866 867/867 835/835 834/834
f 867/867 868/868 836/836 835/835
f 868/868 869/869 837/837 836/836
f 869/869 870/870 838/838 837/837
f 870/870 871/871 839/839 838/838
f 871/871 872/872 840/840 839/839
f 872/872 873/873 841/841 840/840
f 873/873 874/874 842/842 841/841
f 874/874 875/875 843/843 842/842
f 875/875 876/876 844/844 843/843
f 876/876 877/877 845/845 844/844
f 877/877 878/878 846/846 845/845
f 878/878 879/879 847/847 846/846
f 879/879 880/880 848/848 847/847
f 880/880 881/881 849/849 848/848
f 881/881 882/882 850/850 849/849
f 882/882 883/883 851/851 850/850
f 883/883 884/884 852/852 851/851
f 884/884 885/885 853/853 852/852
f 885/885 886/886 854/854 853/853
f 886/886 887/887 855/855 854/854
f 887/887 888/888 856/856 855/855
f 888/888 889/889 857/857 856/856
f 889/889 890/890 858/858 857/857
f 890/890 891/891 859/859 858/858
f 891/891 892/892 860/860 859/859
f 892/892 893/893 861/861 860/860
f 893/893 894/894 862/862 861/861
f 894/894 895/895 863/863 862/862
f 895/895 896/896 864/864 863/863
f 896/896 865/865 833/833 864/864
f 897/897 898/898 866/866 865/865
f 898/898 899/899 867/867 866/866
f 899/899 900/900 868/868 867/867
f 900/900 901/901 869/869 868/868
f 901/901 902/902 870/870 869/869
f 902/902 903/903 871/871 870/870
f 903/903 904/904 872/872 871/871
f 904/904 905/905 873/873 872/872
f 905/905 906/906 874/874 873/873
f 906/906 907/907 875/875 874/874
f 907/907 908/908 876/876 875/875
f 908/908 909/909 877/877 876/876
f 909/909 910/910 878/878 877/877
f 910/910 911/911 879/879 878/878
f 911/911 912/912 880/880 879/879
f 912/912 913/913 881/881 880/880
f 913/913 914/914 882/882 881/881
f 914/914 915/915 883/883 882/882
f 915/915 916/916 884/884 883/883
f 916/916 917/917 885/885 884/884
f 917/917 918/918 886/886 885/885
f 918/918 919/919 887/887 886/886
f 919/919 920/920 888/888 887/887
f 920/920 921/921 889/889 888/888
f 921/921 922/922 890/890 889/889
f 922/922 923/923 891/891 890/890
f 923/923 924/924 892/892 891/891
f 924/924 925/925 893/893 892/892
f 925/925 926/926 894/894 893/893
f 926/926 927/927 895/895 894/894
f 927/927 928/928 896/896 895/895
f 928/928 897/897 865/865 896/896
f 1/1 2/2 3/3 4/4 5/5 6/6 7/7 8/8 9/9 10/10 11/11 12/12 13/13 14/14 15/15 16/16 17/17 18/18 19/19 20/20 21/21 22/22 23/23 24/24 25/25 26/26 27/27 28/28 29/29 30/30 31/31 32/32
f 928/928 927/927 926/926 925/925 924/924 923/923 922/922 921/921 920/920 919/919 918/918 917/917 916/916 915/915 914/914 913/913 912/912 911/911 910/910 909/909 908/908 907/907 906/906 905/905 904/904 903/903 902/902 901/901 900/900 899/899 898/898 897/897
